<?xml version="1.0" encoding="UTF-8"?>
<svg width="88px" height="88px" viewBox="0 0 88 88" version="1.1" xmlns="http://www.w3.org/2000/svg" xmlns:xlink="http://www.w3.org/1999/xlink">
    <!-- Generator: Sketch 51 (57462) - http://www.bohemiancoding.com/sketch -->
    <title>Device2/c036_devices_icon_group_s</title>
    <desc>Created with Sketch.</desc>
    <defs></defs>
    <g id="Device2/c036_devices_icon_group_s" stroke="none" stroke-width="1" fill="none" fill-rule="evenodd">
        <path d="M16.1718175,55.6663 L7.1667,55.6663 C4.86551451,55.6663 2.9997,53.8009687 2.9997,51.5003 L2.9997,35.5003 C2.9997,33.1988729 4.86527288,31.3333 7.1667,31.3333 L16.1719891,31.3333 C19.2812478,24.0852858 25.0850256,18.2814509 32.333,15.1721178 L32.333,6.167 C32.333,3.86557288 34.1985729,2 36.5,2 L52.5,2 C54.8014271,2 56.667,3.86557288 56.667,6.167 L56.667,15.1721178 C63.9149744,18.2814509 69.7187522,24.0852858 72.8280109,31.3333 L81.8333,31.3333 C84.1347271,31.3333 86.0003,33.1988729 86.0003,35.5003 L86.0003,51.5003 C86.0003,53.8009687 84.1344855,55.6663 81.8333,55.6663 L72.8281825,55.6663 C69.7189657,62.9145007 63.9151077,68.7184919 56.667,71.8278822 L56.667,80.8337 C56.667,83.1343687 54.8011855,84.9997 52.5,84.9997 L36.5,84.9997 C34.1988145,84.9997 32.333,83.1343687 32.333,80.8337 L32.333,71.8278822 C25.0848923,68.7184919 19.2810343,62.9145007 16.1718175,55.6663 Z M19.4694738,55.6663 C22.1900142,61.2658584 26.7335296,65.8094938 32.333,68.5301861 L32.333,64.8337 C32.333,62.5322729 34.1985729,60.6667 36.5,60.6667 L52.5,60.6667 C54.8014271,60.6667 56.667,62.5322729 56.667,64.8337 L56.667,68.5301861 C62.2664704,65.8094938 66.8099858,61.2658584 69.5305262,55.6663 L65.8333,55.6663 C63.5321145,55.6663 61.6663,53.8009687 61.6663,51.5003 L61.6663,35.5003 C61.6663,33.1988729 63.5318729,31.3333 65.8333,31.3333 L69.5303319,31.3333 C66.8097694,25.7339253 62.266337,21.1904414 56.667,18.4698139 L56.667,22.167 C56.667,24.4676687 54.8011855,26.333 52.5,26.333 L36.5,26.333 C34.1988145,26.333 32.333,24.4676687 32.333,22.167 L32.333,18.4698139 C26.733663,21.1904414 22.1902306,25.7339253 19.4696681,31.3333 L23.1667,31.3333 C25.4681271,31.3333 27.3337,33.1988729 27.3337,35.5003 L27.3337,51.5003 C27.3337,53.8009687 25.4678855,55.6663 23.1667,55.6663 L19.4694738,55.6663 Z" id="Combined-Shape" fill="#999999"></path>
    </g>
</svg>