<?xml version="1.0" encoding="UTF-8"?>
<svg width="88px" height="88px" viewBox="0 0 88 88" version="1.1" xmlns="http://www.w3.org/2000/svg" xmlns:xlink="http://www.w3.org/1999/xlink">
    <!-- Generator: Sketch 51 (57462) - http://www.bohemiancoding.com/sketch -->
    <title>Device2/c036_devices_icon_dim_rgbw_group_s</title>
    <desc>Created with Sketch.</desc>
    <defs>
        <linearGradient x1="112.960737%" y1="-19.1113281%" x2="-16.6566506%" y2="116.977539%" id="linearGradient-1">
            <stop stop-color="#8AADEC" offset="0%"></stop>
            <stop stop-color="#1E50A0" offset="100%"></stop>
        </linearGradient>
    </defs>
    <g id="Device2/c036_devices_icon_dim_rgbw_group_s" stroke="none" stroke-width="1" fill="none" fill-rule="evenodd">
        <path d="M87.32,49.64 C87.32,55.03 84.56,59.77 80.36,62.61 C79.21,63.38 78.47,64.61 78.47,65.98 L78.47,66.31 L64.19,66.31 L64.19,66.13 C64.19,64.67 63.41,63.36 62.2,62.53 C61.78,62.25 61.38,61.95 61,61.63 C62.05,59.37 61.11,55 62.11,52.36 C64.81,47.47 70.61,45.27 72.7,37.12 C72.97,36.06 73.02,35.01 72.89,34 C80.99,34.77 87.32,41.48 87.32,49.64 Z M78.26,68.7 C78.26,72.46 75.16,75.52 71.34,75.52 C67.51,75.52 64.41,72.46 64.41,68.7 L78.26,68.7 Z M19.86,58.45 C19.86,59.25 19.84,61.09 19.84,61.42 C19.84,61.82 18.47,62.01 18.47,62.15 L18.47,72.52 C18.45,72.69 17.91,73.04 17.55,73.44 C17.05,73.92 16.05,74.95 15.97,75.02 C15.97,75.02 15.15,75.44 13.93,75.44 C12.7,75.44 12.28,75.02 12.28,75.02 C12.22,74.96 10.47,73.42 10.37,73.3 C10.27,73.18 9.77,72.91 9.77,72.75 C9.77,71.99 9.75,62.05 9.77,62.15 C9.77,61.82 8,61.67 8,61.4 L8,58.45 L19.86,58.45 Z M26.5,44.21 L0.23,44.21 C0.08,43.33 7.10542736e-15,42.46 7.10542736e-15,41.6 C7.10542736e-15,28.07 6.63,12 14.1,12 C16.44,12 18.72,13.63 20.73,16.29 C18.46,17.64 16.97,19.7 16.97,22.85 C16.97,28.1 20.44,28.1 20.44,31.66 C20.44,37.28 23.15,42.02 26.5,44.21 Z M27.61,45.71 C26.64,49.19 24.46,52.87 21.12,56.95 L7.06,56.95 C3.73,52.91 1.54,49.23 0.57,45.71 L27.61,45.71 Z M47.63,15 C63.06,15 75.27,17.8 75.27,22.2 L75.27,24.16 C75.27,25.68 74.21,27.07 72.33,28.26 C72.05,30.63 70.64,34.94 68.91,38.06 C68.39,39 67.84,39.85 67.25,40.64 C66.41,41.77 65.53,42.71 64.49,43.67 C64.02,44.1 62.48,45.44 62.18,45.71 C60.68,47.1 60.11,48.19 60.05,50.17 C60.01,51.63 59.95,53.37 59.87,55.36 C59.85,56.03 59.82,56.72 59.79,57.44 C59.7,59.62 59.47,65.25 59.47,65.34 C59.47,66.08 58.94,66.88 58.14,67.68 C57.8,68.01 56.9,68.69 56.08,69.29 L56.08,72.59 C56.08,74.03 54.41,74.72 52.5,74.72 C50.59,74.72 48.92,74.03 48.92,72.59 L48.92,71.62 C48.51,71.64 48.08,71.65 47.63,71.65 C47.18,71.65 46.75,71.64 46.34,71.62 L46.34,72.59 C46.34,74.03 44.68,74.72 42.77,74.72 C40.85,74.72 39.19,74.03 39.19,72.59 L39.19,69.29 C38.36,68.69 37.47,68.01 37.13,67.68 C36.33,66.89 35.8,66.08 35.8,65.34 C35.8,65.25 35.56,59.63 35.48,57.45 C35.45,56.73 35.42,56.03 35.4,55.36 C35.32,53.37 35.26,51.63 35.22,50.17 C35.16,48.19 34.59,47.1 33.09,45.71 C32.79,45.44 31.24,44.1 30.77,43.67 C29.73,42.71 28.86,41.76 28.02,40.64 C27.43,39.85 26.88,39 26.36,38.06 C24.86,35.34 23.46,30.86 23.01,28.31 C21.09,27.1 20,25.7 20,24.16 L20,22.2 C20,17.8 32.21,15 47.63,15 Z M71.51,23.61 C72.56,23.04 73.01,22.53 73.01,22.2 C73.01,21.88 72.56,21.37 71.51,20.8 C70.28,20.13 68.44,19.51 66.12,18.97 C61.27,17.86 54.68,17.22 47.63,17.22 C40.59,17.22 34,17.86 29.15,18.97 C26.83,19.51 24.99,20.13 23.76,20.8 C22.71,21.37 22.26,21.88 22.26,22.2 C22.26,22.53 22.71,23.04 23.76,23.61 C24.99,24.27 26.83,24.9 29.15,25.44 C34,26.55 40.59,27.19 47.63,27.19 C54.68,27.19 61.27,26.55 66.12,25.44 C68.44,24.9 70.28,24.27 71.51,23.61 Z M47.64,49.07 C51.33,49.07 54.7,48.43 56.7,47.35 L55.97,46.05 C54.23,46.99 51.1,47.59 47.64,47.59 C44.18,47.59 41.04,46.99 39.3,46.04 L38.57,47.34 C40.56,48.42 43.95,49.07 47.64,49.07 Z M47.63,30.7 C59.32,30.7 69.21,28.4 72.13,25.74 C67.54,28.05 58.37,29.41 47.63,29.41 C36.9,29.41 27.73,28.05 23.14,25.74 C26.06,28.4 35.95,30.7 47.63,30.7 Z" id="Combined-Shape" fill="url(#linearGradient-1)"></path>
    </g>
</svg>