<?xml version="1.0" encoding="UTF-8"?>
<svg width="88px" height="88px" viewBox="0 0 88 88" version="1.1" xmlns="http://www.w3.org/2000/svg" xmlns:xlink="http://www.w3.org/1999/xlink">
    <!-- Generator: Sketch 51 (57462) - http://www.bohemiancoding.com/sketch -->
    <title>Device2/devices_icon_refrigerator_s</title>
    <desc>Created with Sketch.</desc>
    <defs></defs>
    <g id="Device2/devices_icon_refrigerator_s" stroke="none" stroke-width="1" fill="none" fill-rule="evenodd">
        <g id="Group" transform="translate(19.000000, 2.000000)" fill="#999999">
            <path d="M51,31 L0,31 L0,4 C-2.705415e-16,1.790861 1.790861,4.05812251e-16 4,0 L47,0 C49.209139,-4.05812251e-16 51,1.790861 51,4 L51,31 Z M51,34 L51,80 C51,82.209139 49.209139,84 47,84 L4,84 C1.790861,84 2.705415e-16,82.209139 0,80 L0,34 L51,34 Z M8,17 L8,25 L12,25 L12,17 L8,17 Z M8,40 L8,48 L12,48 L12,40 L8,40 Z" id="Combined-Shape"></path>
        </g>
    </g>
</svg>