<?xml version="1.0" encoding="UTF-8"?>
<svg width="88px" height="88px" viewBox="0 0 88 88" version="1.1" xmlns="http://www.w3.org/2000/svg" xmlns:xlink="http://www.w3.org/1999/xlink">
    <!-- Generator: Sketch 51 (57462) - http://www.bohemiancoding.com/sketch -->
    <title>Device2/devices_icon_zb_doorwindow_by_pass_2.0_s</title>
    <desc>Created with Sketch.</desc>
    <defs>
        <linearGradient x1="112.960737%" y1="-19.1113281%" x2="-16.6566506%" y2="116.977539%" id="linearGradient-1">
            <stop stop-color="#8AADEC" offset="0%"></stop>
            <stop stop-color="#1E50A0" offset="100%"></stop>
        </linearGradient>
    </defs>
    <g id="Device2/devices_icon_zb_doorwindow_by_pass_2.0_s" stroke="none" stroke-width="1" fill="none" fill-rule="evenodd">
        <path d="M22,2.5 L41,2.5 C44.0375661,2.5 46.5,4.96243388 46.5,8 L46.5,80 C46.5,83.0375661 44.0375661,85.5 41,85.5 L22,85.5 C18.9624339,85.5 16.5,83.0375661 16.5,80 L16.5,8 C16.5,4.96243388 18.9624339,2.5 22,2.5 Z M31.5,40.5 C37.0228475,40.5 41.5,36.0228475 41.5,30.5 C41.5,24.9771525 37.0228475,20.5 31.5,20.5 C25.9771525,20.5 21.5,24.9771525 21.5,30.5 C21.5,36.0228475 25.9771525,40.5 31.5,40.5 Z M31.5,37.5 C27.6340068,37.5 24.5,34.3659932 24.5,30.5 C24.5,26.6340068 27.6340068,23.5 31.5,23.5 C35.3659932,23.5 38.5,26.6340068 38.5,30.5 C38.5,34.3659932 35.3659932,37.5 31.5,37.5 Z M59,15.5 L69,15.5 C70.9329966,15.5 72.5,17.0670034 72.5,19 L72.5,57 C72.5,58.9329966 70.9329966,60.5 69,60.5 L59,60.5 C57.0670034,60.5 55.5,58.9329966 55.5,57 L55.5,19 C55.5,17.0670034 57.0670034,15.5 59,15.5 Z" id="Combined-Shape" fill="url(#linearGradient-1)"></path>
    </g>
</svg>