<?xml version="1.0" encoding="UTF-8"?>
<svg width="88px" height="88px" viewBox="0 0 88 88" version="1.1" xmlns="http://www.w3.org/2000/svg" xmlns:xlink="http://www.w3.org/1999/xlink">
    <!-- Generator: Sketch 51 (57462) - http://www.bohemiancoding.com/sketch -->
    <title>Device2/devices_icon_siren3_s</title>
    <desc>Created with Sketch.</desc>
    <defs></defs>
    <g id="Device2/devices_icon_siren3_s" stroke="none" stroke-width="1" fill="none" fill-rule="evenodd">
        <path d="M45,27 C57.2216521,27 67.7553186,35.6010609 70.1991603,47.5758852 L75.5102204,73.60008 C75.7310901,74.6823417 75.032794,75.7387384 73.9505323,75.9596081 C73.8189203,75.9864677 73.6849371,76 73.5506123,76 L16.4493877,76 C15.3448182,76 14.4493877,75.1045695 14.4493877,74 C14.4493877,73.8656752 14.46292,73.731692 14.4897796,73.60008 L19.8008397,47.5758852 C22.2446814,35.6010609 32.7783479,27 45,27 Z M42.7295,15.382 L42.7295,3.5 C42.7295,2.672 43.4015,2 44.2295,2 C45.0575,2 45.7295,2.672 45.7295,3.5 L45.7295,15.382 C45.7295,16.21 45.0575,16.882 44.2295,16.882 C43.4015,16.882 42.7295,16.21 42.7295,15.382 Z M18.2749,25.235 L11.9689,18.928 C11.3829,18.342 11.3829,17.393 11.9689,16.807 C12.5549,16.221 13.5039,16.221 14.0899,16.807 L20.3969,23.113 C20.9819,23.699 20.9819,24.649 20.3969,25.235 C20.1039,25.528 19.7199,25.674 19.3359,25.674 C18.9519,25.674 18.5679,25.528 18.2749,25.235 Z M67.7691,25.235 C67.1841,24.649 67.1841,23.699 67.7691,23.113 L74.0761,16.807 C74.6621,16.221 75.6111,16.221 76.1971,16.807 C76.7831,17.393 76.7831,18.342 76.1971,18.928 L69.8911,25.235 C69.5981,25.528 69.2141,25.674 68.8301,25.674 C68.4461,25.674 68.0621,25.528 67.7691,25.235 Z M10.5,83 C9.67157288,83 9,82.3284271 9,81.5 C9,80.6715729 9.67157288,80 10.5,80 L79.5,80 C80.3284271,80 81,80.6715729 81,81.5 C81,82.3284271 80.3284271,83 79.5,83 L10.5,83 Z" id="Combined-Shape" fill="#999999"></path>
    </g>
</svg>