<?xml version="1.0" encoding="UTF-8"?>
<svg width="88px" height="88px" viewBox="0 0 88 88" version="1.1" xmlns="http://www.w3.org/2000/svg" xmlns:xlink="http://www.w3.org/1999/xlink">
    <!-- Generator: Sketch 51 (57462) - http://www.bohemiancoding.com/sketch -->
    <title>Device2/devices_icon_water_leak2_s   </title>
    <desc>Created with Sketch.</desc>
    <defs></defs>
    <g id="Device2/devices_icon_water_leak2_s---" stroke="none" stroke-width="1" fill="none" fill-rule="evenodd">
        <path d="M42,42 L40,42 L40,38 L34,38 C29.581722,38 26,34.418278 26,30 L26,10 C26,5.581722 29.581722,2 34,2 L54,2 C58.418278,2 62,5.581722 62,10 L62,30 C62,34.418278 58.418278,38 54,38 L48,38 L48,42 L46,42 L46,45 C46,45.5072232 45.8111817,45.9703456 45.5,46.3229122 L45.5,76.1765471 C48.4880536,76.8975194 50.648,79.7328417 50.648,82.927 L50.648,83.01 C50.648,84.445 49.485,85.609 48.048,85.609 C47.028,85.609 46.076,85.022 45.684,84.078 C45.132,82.746 43.914,81.676 42.5,81.676 C40.802,81.676 39.387,83.219 39.067,84.904 C38.99,85.314 38.637,85.609 38.221,85.609 C37.741,85.609 37.352,85.22 37.352,84.739 L37.352,82.649 C37.352,79.4930687 39.5502782,76.8505122 42.5,76.1700698 L42.5,46.3229122 C42.1888183,45.9703456 42,45.5072232 42,45 L42,42 Z" id="Combined-Shape" fill="#999999"></path>
    </g>
</svg>