<?xml version="1.0" encoding="UTF-8"?>
<svg width="88px" height="88px" viewBox="0 0 88 88" version="1.1" xmlns="http://www.w3.org/2000/svg" xmlns:xlink="http://www.w3.org/1999/xlink">
    <!-- Generator: Sketch 51 (57462) - http://www.bohemiancoding.com/sketch -->
    <title>Device2/devices_icon_smoke2_s </title>
    <desc>Created with Sketch.</desc>
    <defs></defs>
    <g id="Device2/devices_icon_smoke2_s-" stroke="none" stroke-width="1" fill="none" fill-rule="evenodd">
        <g id="Page-1" transform="translate(5.000000, 11.000000)" fill="#999999">
            <g id="Group-3" transform="translate(0.000000, 0.943594)">
                <path d="M54.8488201,16.2264546 C50.0533013,15.5561335 44.9157514,15.2024813 39.6472273,15.2024813 C34.2929309,15.2024813 29.0808505,15.5654008 24.2270329,16.2531733 L26.4162406,20.0711198 C30.6040569,19.5910501 35.002486,19.3408875 39.4996922,19.3408875 C44.01558,19.3408875 48.4338756,19.5936742 52.6401191,20.0783971 L54.8488201,16.2264546 Z M58.106974,16.7398539 L55.943379,20.5131321 C59.9282252,21.1045911 63.6824377,21.9114241 67.0998158,22.914285 C67.9156989,23.1537134 68.3840007,24.0126135 68.1457973,24.8326921 C67.9075939,25.6527708 67.053088,26.1234809 66.2372049,25.8840525 C62.6156544,24.8212753 58.5851118,23.9850565 54.286751,23.4022673 L52.3838348,26.7209257 C55.6963953,27.093709 58.8928993,27.6106302 61.9003987,28.2642938 C62.4328792,28.3797938 62.8658403,28.7706375 63.0361519,29.29245 C63.2064636,29.8132313 63.0905286,30.3866063 62.7293857,30.798075 L60.6815416,33.1338563 C60.5102039,33.3297938 60.2937234,33.4772625 60.0505675,33.56595 C53.435087,35.9759813 46.4810351,37.1804813 39.530061,37.1804813 C32.578061,37.1804813 25.627087,35.9759813 19.0105805,33.56595 C18.7674247,33.4772625 18.5509442,33.3297938 18.3796065,33.1338563 L16.3317623,30.798075 C15.9706195,30.3866063 15.8546844,29.8132313 16.0249961,29.29245 C16.1953078,28.7706375 16.6282688,28.3797938 17.1607494,28.2642938 C20.1678599,27.6106157 23.3641854,27.0936861 26.6766835,26.720901 L24.7689452,23.3938331 C20.4724732,23.973699 16.4438716,24.8068418 12.8227344,25.8668154 C12.0066898,26.1056867 11.1525021,25.6343933 10.9148529,24.8141523 C10.6772037,23.9939112 11.1460859,23.135331 11.9621305,22.8964596 C15.3783245,21.8964767 19.1298984,21.0926564 23.1119193,20.5040038 L20.9723319,16.7725945 C15.3070732,17.7817911 10.2389273,19.2544028 6.15122727,21.1228875 C5.94398052,21.2177625 5.72852597,21.2621063 5.51512338,21.2621063 C5.31403247,21.2621063 5.12217532,21.2084813 4.93852597,21.1342313 C4.69742208,21.0816375 4.46247403,20.9908875 4.26138312,20.8186688 C3.10511039,19.8224813 2.19301948,18.61695 1.55075974,17.2361063 C0.916707792,15.8789813 0.595577922,14.42595 0.595577922,12.920325 C0.595577922,11.6797313 0.985448052,10.478325 1.7262013,9.447075 C2.47413636,8.42716875 3.49395455,7.6588875 4.68408442,7.211325 C15.8117987,3.0347625 27.5212403,0.916575 39.4892273,0.916575 C51.1371104,0.916575 62.5500455,2.92545 73.4099805,6.88648125 C74.8822532,7.42273125 76.1421494,8.35910625 77.0552662,9.595575 C77.9796688,10.86195 78.4659805,12.3335438 78.4659805,13.8587625 C78.4659805,16.245075 77.4020455,18.546825 75.5470844,20.1710438 C75.4537208,20.2535438 75.3500974,20.3226375 75.2392922,20.3803875 C75.0289675,20.4897 74.8247987,20.6082938 74.6196039,20.724825 C74.180487,21.153825 73.5095,21.2961375 72.918539,21.030075 C72.9000714,21.021825 72.8816039,21.0146063 72.8631364,21.0063563 C72.8549286,21.0032625 72.8467208,21.0001688 72.839539,20.9960438 C68.7541937,19.1680969 63.7178613,17.7273796 58.106974,16.7398539 Z M49.0181464,26.3950651 L50.9605521,23.0075376 C47.2740241,22.6307823 43.426533,22.4346375 39.4996922,22.4346375 C35.5918398,22.4346375 31.7641691,22.6284633 28.0962545,23.0010397 L30.0423709,26.3950385 C33.1465121,26.1423022 36.3278991,26.013075 39.530061,26.013075 C42.732335,26.013075 45.9138326,26.1423112 49.0181464,26.3950651 Z M38.9211243,45.8997565 L41.8786394,46.7566123 C41.6680207,47.4910777 41.4447129,48.1052951 41.1821778,48.7067749 C41.0507427,49.0078987 40.67374,49.8012662 40.6281178,49.9039018 C40.3155812,50.6070106 40.1998169,51.1771505 40.1998169,52.3960594 C40.1998169,53.3908587 40.3290043,53.7636877 40.8498933,54.6359916 C41.6332738,55.9478752 41.9388429,56.8297337 41.9388429,58.4680594 C41.9388429,60.1143976 41.7356105,61.1152718 41.2423631,62.2253609 C41.1739825,62.3792565 40.8039784,63.1584107 40.6981505,63.4009482 C40.4897481,63.8785669 40.3138091,64.3624142 40.139824,64.9687835 L37.1852363,64.1017131 C37.3951243,63.3702301 37.6176877,62.7581618 37.8794088,62.1583468 C38.0103925,61.8581571 38.3863787,61.0664056 38.4319923,60.963749 C38.7449938,60.2593163 38.8609208,59.6884018 38.8609208,58.4680594 C38.8609208,57.4732601 38.7317334,57.1004311 38.2108443,56.2281272 C37.4274639,54.9162436 37.1218948,54.0343851 37.1218948,52.3960594 C37.1218948,50.7510812 37.3249895,49.7508388 37.8179315,48.6418747 C37.8864259,48.4877838 38.2574217,47.7070573 38.363588,47.4638256 C38.5726605,46.9848309 38.7492486,46.499118 38.9211243,45.8997565 Z M27.1242697,41.7425815 L30.0817848,42.5994373 C29.8711661,43.3339027 29.6478584,43.9481201 29.3853233,44.5495999 C29.2538882,44.8507237 28.8768855,45.6440912 28.8312633,45.7467268 C28.5187266,46.4498356 28.4029623,47.0199755 28.4029623,48.2388844 C28.4029623,49.2336837 28.5321497,49.6065127 29.0530388,50.4788166 C29.8364192,51.7907002 30.1419883,52.6725587 30.1419883,54.3108844 C30.1419883,55.9572226 29.9387559,56.9580968 29.4455086,58.0681859 C29.3771279,58.2220815 29.0071239,59.0012357 28.9012959,59.2437732 C28.6928935,59.7213919 28.5169545,60.2052392 28.3429694,60.8116085 L25.3883818,59.9445381 C25.5982698,59.2130551 25.8208332,58.6009868 26.0825543,58.0011718 C26.213538,57.7009821 26.5895242,56.9092306 26.6351377,56.806574 C26.9481393,56.1021413 27.0640662,55.5312268 27.0640662,54.3108844 C27.0640662,53.3160851 26.9348788,52.9432561 26.4139898,52.0709522 C25.6306093,50.7590686 25.3250403,49.8772101 25.3250403,48.2388844 C25.3250403,46.5939062 25.5281349,45.5936638 26.0210769,44.4846997 C26.0895714,44.3306088 26.4605671,43.5498823 26.5667334,43.3066506 C26.775806,42.8276559 26.952394,42.341943 27.1242697,41.7425815 Z M50.7179788,41.7425815 L53.6754939,42.5994373 C53.4648752,43.3339027 53.2415675,43.9481201 52.9790324,44.5495999 C52.8475972,44.8507237 52.4705946,45.6440912 52.4249724,45.7467268 C52.1124357,46.4498356 51.9966714,47.0199755 51.9966714,48.2388844 C51.9966714,49.2336837 52.1258588,49.6065127 52.6467479,50.4788166 C53.4301283,51.7907002 53.7356974,52.6725587 53.7356974,54.3108844 C53.7356974,55.9572226 53.532465,56.9580968 53.0392177,58.0681859 C52.970837,58.2220815 52.600833,59.0012357 52.495005,59.2437732 C52.2866026,59.7213919 52.1106636,60.2052392 51.9366785,60.8116085 L48.9820909,59.9445381 C49.1919789,59.2130551 49.4145423,58.6009868 49.6762634,58.0011718 C49.807247,57.7009821 50.1832333,56.9092306 50.2288468,56.806574 C50.5418484,56.1021413 50.6577753,55.5312268 50.6577753,54.3108844 C50.6577753,53.3160851 50.5285879,52.9432561 50.0076989,52.0709522 C49.2243184,50.7590686 48.9187494,49.8772101 48.9187494,48.2388844 C48.9187494,46.5939062 49.121844,45.5936638 49.614786,44.4846997 C49.6832805,44.3306088 50.0542762,43.5498823 50.1604425,43.3066506 C50.3695151,42.8276559 50.5461031,42.341943 50.7179788,41.7425815 Z" id="Combined-Shape"></path>
            </g>
        </g>
    </g>
</svg>