<?xml version="1.0" encoding="UTF-8"?>
<svg width="88px" height="88px" viewBox="0 0 88 88" version="1.1" xmlns="http://www.w3.org/2000/svg" xmlns:xlink="http://www.w3.org/1999/xlink">
    <!-- Generator: Sketch 51 (57462) - http://www.bohemiancoding.com/sketch -->
    <title>Device2/devices_icon_keyfod2_s </title>
    <desc>Created with Sketch.</desc>
    <defs></defs>
    <g id="Device2/devices_icon_keyfod2_s-" stroke="none" stroke-width="1" fill="none" fill-rule="evenodd">
        <g id="Group" transform="translate(9.000000, 4.000000)" fill="#999999">
            <path d="M8,0 L62,0 C66.418278,-8.11624501e-16 70,3.581722 70,8 L70,73 C70,77.418278 66.418278,81 62,81 L8,81 C3.581722,81 5.41083001e-16,77.418278 0,73 L0,8 C-5.41083001e-16,3.581722 3.581722,8.11624501e-16 8,0 Z M22,55 C26.418278,55 30,51.418278 30,47 C30,42.581722 26.418278,39 22,39 C17.581722,39 14,42.581722 14,47 C14,51.418278 17.581722,55 22,55 Z M22,30 C26.418278,30 30,26.418278 30,22 C30,17.581722 26.418278,14 22,14 C17.581722,14 14,17.581722 14,22 C14,26.418278 17.581722,30 22,30 Z M48,55 C52.418278,55 56,51.418278 56,47 C56,42.581722 52.418278,39 48,39 C43.581722,39 40,42.581722 40,47 C40,51.418278 43.581722,55 48,55 Z M48,30 C52.418278,30 56,26.418278 56,22 C56,17.581722 52.418278,14 48,14 C43.581722,14 40,17.581722 40,22 C40,26.418278 43.581722,30 48,30 Z M24.0946106,63 C23.3266976,63 22.6265935,63.4396744 22.2930823,64.1313828 L18.4358364,72.1313828 C18.3052052,72.4023143 18.2373647,72.6992204 18.2373647,73 C18.2373647,74.1045695 19.1327952,75 20.2373647,75 L49.7620843,75 C50.0628639,75 50.35977,74.9321594 50.6307015,74.8015283 C51.6256581,74.3218042 52.0433366,73.1263394 51.5636126,72.1313828 L47.7063667,64.1313828 C47.3728555,63.4396744 46.6727513,63 45.9048384,63 L24.0946106,63 Z" id="Combined-Shape"></path>
        </g>
    </g>
</svg>