<?xml version="1.0" encoding="UTF-8"?>
<svg width="88px" height="88px" viewBox="0 0 88 88" version="1.1" xmlns="http://www.w3.org/2000/svg" xmlns:xlink="http://www.w3.org/1999/xlink">
    <!-- Generator: Sketch 51 (57462) - http://www.bohemiancoding.com/sketch -->
    <title>Device2/devices_icon_zb_dimmer_switch_4_key_freelocate_s</title>
    <desc>Created with Sketch.</desc>
    <defs>
        <linearGradient x1="112.960737%" y1="-19.1113281%" x2="-16.6566506%" y2="116.977539%" id="linearGradient-1">
            <stop stop-color="#8AADEC" offset="0%"></stop>
            <stop stop-color="#1E50A0" offset="100%"></stop>
        </linearGradient>
    </defs>
    <g id="Device2/devices_icon_zb_dimmer_switch_4_key_freelocate_s" stroke="none" stroke-width="1" fill="none" fill-rule="evenodd">
        <path d="M12,6 L76,6 C80.418278,6 84,9.581722 84,14 L84,74 C84,78.418278 80.418278,82 76,82 L12,82 C7.581722,82 4,78.418278 4,74 L4,14 C4,9.581722 7.581722,6 12,6 Z M17,14 C14.2385763,14 12,16.2385763 12,19 L12,63 C12,65.7614237 14.2385763,68 17,68 L71,68 C73.7614237,68 76,65.7614237 76,63 L76,19 C76,16.2385763 73.7614237,14 71,14 L17,14 Z M17,17 C15.8954305,17 15,17.8954305 15,19 L15,63 C15,64.1045695 15.8954305,65 17,65 L71,65 C72.1045695,65 73,64.1045695 73,63 L73,19 C73,17.8954305 72.1045695,17 71,17 L17,17 Z" id="Combined-Shape" fill="url(#linearGradient-1)"></path>
    </g>
</svg>