<?xml version="1.0" encoding="UTF-8"?>
<svg width="88px" height="88px" viewBox="0 0 88 88" version="1.1" xmlns="http://www.w3.org/2000/svg" xmlns:xlink="http://www.w3.org/1999/xlink">
    <!-- Generator: Sketch 51 (57462) - http://www.bohemiancoding.com/sketch -->
    <title>Device2/devices_icon_zb_embedded_sensor_s</title>
    <desc>Created with Sketch.</desc>
    <defs>
        <linearGradient x1="112.960737%" y1="-19.1113281%" x2="-16.6566506%" y2="116.977539%" id="linearGradient-1">
            <stop stop-color="#8AADEC" offset="0%"></stop>
            <stop stop-color="#1E50A0" offset="100%"></stop>
        </linearGradient>
    </defs>
    <g id="Device2/devices_icon_zb_embedded_sensor_s" stroke="none" stroke-width="1" fill="none" fill-rule="evenodd">
        <path d="M28.24,28.4256 C28.72,28.4056 29.26,28.3256 29.78,28.1856 C30.58,27.9656 31.18,27.6456 31.33,27.4456 C32.13,26.3356 35.16,24.2456 38.46,22.7156 C43.15,20.5456 48.25,19.4256 53.43,19.8256 C58.16,20.1856 62.1,21.0956 65.16,22.5556 L62.98,15.6756 C60.68,8.3856 52.9,4.3456 45.62,6.6456 L36.75,9.4556 C29.46,11.7656 25.42,19.5356 27.73,26.8156 L28.24,28.4256 Z M28.8699,38.9556 C34.0399,33.1556 41.6799,28.8056 49.8399,27.4556 C56.8499,26.2956 63.1699,26.7756 68.3199,28.7956 C67.9199,28.2156 67.4299,27.6656 66.8399,27.1556 C64.1599,24.8156 59.5199,23.2856 53.2099,22.8156 C48.5799,22.4656 43.9799,23.4756 39.7199,25.4456 C36.8399,26.7756 34.1899,28.6056 33.7499,29.2056 C32.5999,30.7956 29.2899,31.7156 26.9699,31.3756 C26.8099,31.3556 26.7499,31.3456 26.7199,31.3356 C23.0199,30.6156 20.2499,31.2256 18.2099,32.7456 C17.4999,33.2656 16.9299,33.8756 16.4799,34.5056 C16.2099,34.8756 16.0599,35.1656 15.9799,35.3356 C15.4799,36.4556 13.9299,36.5356 13.3099,35.4856 L8.9599,28.0256 L2.6099,26.8656 L1.9999,28.3056 L4.2499,33.2756 C5.1499,35.2856 6.3499,36.9156 7.7799,38.2256 C8.9299,39.2856 10.1699,40.0756 11.3899,40.6356 C11.8199,40.8256 12.2099,40.9756 12.5499,41.0856 C12.6599,41.1156 12.7399,41.1456 12.7999,41.1556 C13.4699,41.1856 14.3399,41.3256 15.2299,41.6856 C15.6399,41.8556 16.0199,42.0656 16.3599,42.3056 C17.3899,40.8256 19.2599,39.7556 21.9999,39.1756 C24.7399,38.6056 27.0099,38.5656 28.8699,38.9556 M26.3401,42.2156 C26.4501,42.0456 26.5701,41.8756 26.6901,41.7056 C25.5401,41.6556 24.1901,41.7856 22.6201,42.1156 C20.1901,42.6256 18.9901,43.4656 18.5901,44.4456 C18.3601,45.0256 18.4101,45.6356 18.5801,46.0956 C18.5801,46.1056 18.5901,46.1256 18.5901,46.1356 C19.1601,47.2656 19.9301,47.9656 20.8801,48.3656 C21.7001,48.7056 22.6001,48.7956 23.4301,48.7156 C23.9001,46.6056 24.8901,44.4056 26.3401,42.2156 M63.4702,71.5017 C63.3302,71.5817 63.1902,71.6617 63.0502,71.7317 C61.5302,72.4917 59.8702,73.1217 58.1102,73.5717 C55.8002,74.1717 53.5002,74.4317 51.3302,74.3717 C51.2302,74.3717 51.1402,74.3617 51.0402,74.3617 C50.6002,74.3417 50.1502,74.3117 49.7202,74.2717 C49.5802,74.2517 49.4502,74.2317 49.3102,74.2217 C48.9302,74.1717 48.5502,74.1217 48.1702,74.0517 C47.9602,74.0117 47.7602,73.9617 47.5502,73.9217 C47.2502,73.8617 46.9602,73.7917 46.6702,73.7217 C46.3902,73.6417 46.1102,73.5517 45.8402,73.4717 C45.6202,73.4017 45.4002,73.3317 45.2002,73.2617 C44.9202,73.1617 44.6702,73.0517 44.4102,72.9417 C44.2102,72.8517 44.0002,72.7717 43.8002,72.6817 C43.6102,72.5917 43.4202,72.4817 43.2302,72.3817 C43.0002,72.2517 42.7502,72.1317 42.5202,71.9917 C42.5002,71.9717 42.4702,71.9517 42.4402,71.9417 C40.5702,70.7717 39.1302,69.2117 38.3002,67.3317 C38.2702,67.2717 38.2402,67.2217 38.2102,67.1617 C38.0702,66.8117 37.9502,66.4417 37.8502,66.0717 C37.8302,66.0217 37.8102,65.9717 37.8002,65.9217 C37.7002,65.5417 37.6302,65.1517 37.5802,64.7617 C37.5702,64.6517 37.5602,64.5417 37.5502,64.4317 C37.5302,64.1517 37.5202,63.8717 37.5202,63.5817 L37.5202,63.2117 C37.5302,62.9017 37.5702,62.5917 37.6102,62.2917 C37.6302,62.1317 37.6602,61.9717 37.6902,61.8217 C37.7402,61.5417 37.8002,61.2717 37.8802,60.9917 C37.9402,60.7917 38.0102,60.5917 38.0802,60.3817 C38.1302,60.2317 38.1802,60.0717 38.2402,59.9217 C38.3402,59.6917 38.4302,59.4517 38.5402,59.2217 C38.5902,59.1317 38.6302,59.0417 38.6802,58.9417 C38.8102,58.6817 38.9502,58.4217 39.1002,58.1617 C39.3902,57.6717 39.7102,57.2017 40.0602,56.7317 C40.0902,56.7017 40.1202,56.6617 40.1502,56.6217 C40.5002,56.1817 40.8702,55.7517 41.2602,55.3417 C41.2902,55.3117 41.3102,55.2917 41.3302,55.2717 C42.6202,53.9417 44.1802,52.7517 45.9502,51.7617 C45.9702,51.7417 46.0002,51.7317 46.0202,51.7117 C46.5702,51.4117 47.1402,51.1217 47.7202,50.8617 C47.7802,50.8317 47.8402,50.8017 47.9102,50.7717 C48.5002,50.5117 49.1002,50.2717 49.7202,50.0517 C49.7502,50.0317 49.7802,50.0217 49.8102,50.0117 C50.4802,49.7817 51.1602,49.5717 51.8502,49.3917 C53.4502,48.9817 55.0502,48.7317 56.6302,48.6417 C56.7202,48.6317 56.8202,48.6217 56.9202,48.6117 C57.2702,48.6017 57.6202,48.6017 57.9702,48.6017 C58.1802,48.6017 58.4002,48.5917 58.6202,48.5917 C58.8902,48.6017 59.1602,48.6217 59.4202,48.6417 C59.7002,48.6617 59.9902,48.6717 60.2602,48.7017 C60.5002,48.7217 60.7202,48.7617 60.9502,48.7917 C61.2502,48.8317 61.5502,48.8717 61.8402,48.9217 C62.0702,48.9617 62.2902,49.0217 62.5102,49.0617 C62.7902,49.1317 63.0702,49.1817 63.3402,49.2617 C63.5802,49.3217 63.8102,49.4017 64.0402,49.4717 C64.2802,49.5417 64.5302,49.6217 64.7702,49.7017 C65.1102,49.8317 65.4302,49.9617 65.7502,50.1117 C65.8702,50.1617 66.0102,50.2117 66.1302,50.2717 C66.5202,50.4517 66.8802,50.6517 67.2302,50.8617 C67.2902,50.8917 67.3502,50.9217 67.4102,50.9517 C67.8102,51.2017 68.2002,51.4617 68.5602,51.7417 C68.9202,52.0217 69.2602,52.3117 69.5802,52.6217 C69.7302,52.7717 69.8502,52.9317 69.9902,53.0817 C70.1502,53.2517 70.3102,53.4117 70.4502,53.5917 C70.6302,53.8117 70.7802,54.0517 70.9302,54.2917 C71.0102,54.4117 71.1102,54.5317 71.1802,54.6517 C71.3502,54.9417 71.4902,55.2417 71.6302,55.5517 C71.6702,55.6317 71.7202,55.7117 71.7602,55.8017 C71.9202,56.2017 72.0602,56.6117 72.1702,57.0317 C72.1902,57.0917 72.1902,57.1517 72.2002,57.2117 C73.4502,62.4717 69.7502,68.1617 63.4702,71.5017 M85.8502,53.9217 C85.8502,53.7717 85.8402,53.6117 85.8202,53.4517 C85.8102,53.3317 85.8002,53.2017 85.7802,53.0717 C85.7402,52.7717 85.6902,52.4817 85.6202,52.1817 C85.6102,52.1417 85.6002,52.0917 85.5902,52.0317 C85.4702,51.4617 85.2302,50.6517 84.8002,49.6417 C84.7602,49.5617 84.7202,49.4817 84.6802,49.4017 C84.5602,49.1417 84.4302,48.8617 84.2802,48.5817 C84.1702,48.3617 84.0502,48.1417 83.9202,47.9217 C83.8002,47.7117 83.6702,47.4917 83.5302,47.2717 C83.3702,47.0117 83.1902,46.7517 83.0102,46.5017 C82.8902,46.3217 82.7602,46.1517 82.6302,45.9717 C82.4102,45.6817 82.1702,45.3917 81.9302,45.1117 C81.8102,44.9717 81.6802,44.8217 81.5502,44.6817 C81.4202,44.5317 81.3002,44.3817 81.1602,44.2317 C81.1302,44.2017 81.1102,44.1817 81.0802,44.1517 L81.0802,44.1717 C80.9802,44.0517 80.8602,43.9417 80.7402,43.8217 C79.6502,42.7617 78.4202,41.8117 77.0702,40.9817 C77.0602,40.9817 77.0602,40.9717 77.0602,40.9617 C75.6902,37.6217 73.3602,34.9317 70.1902,33.0317 C65.2102,30.0517 58.3202,29.0917 50.3302,30.4117 C42.5602,31.6917 35.2702,35.9717 30.5502,41.5917 L30.5402,41.6017 C29.9102,42.3717 29.3402,43.1217 28.8402,43.8717 C26.7602,47.0017 25.8302,50.0517 26.1902,52.4917 C26.2202,52.7217 26.2602,52.9517 26.3202,53.1817 L26.3202,53.2017 C25.5802,54.4017 25.0302,55.4717 24.6202,56.3617 C24.5202,56.5717 24.4302,56.7717 24.3402,56.9717 C24.1702,57.3517 24.0302,57.7217 23.8902,58.0817 C23.8702,58.1417 23.8402,58.2117 23.8202,58.2717 C23.6602,58.6917 23.5202,59.1017 23.4002,59.4817 C23.2202,60.0617 23.1002,60.5717 23.0402,61.0017 C23.0402,61.0217 23.0302,61.0517 23.0302,61.0717 C23.0002,61.2417 22.9902,61.4017 22.9902,61.5317 L22.9902,61.5417 L22.9902,61.6117 C22.9902,61.6717 22.9902,61.7517 22.9802,61.9417 L22.9802,62.2817 C22.9802,62.5517 22.9802,62.8617 23.0002,63.2017 L23.0002,63.4017 C23.0202,63.6717 23.0402,63.9617 23.0702,64.2617 C23.3102,66.6417 24.0902,68.7317 25.8302,70.8917 C25.9902,71.0917 26.1602,71.2917 26.3402,71.4917 C26.3902,71.5517 26.4302,71.6117 26.4802,71.6617 C26.5502,71.7417 26.6302,71.8117 26.7002,71.8917 C26.8402,72.0417 26.9802,72.1917 27.1402,72.3417 C27.2502,72.4517 27.3702,72.5617 27.4802,72.6717 C27.6402,72.8217 27.8102,72.9617 27.9802,73.1117 C28.1202,73.2417 28.2702,73.3617 28.4202,73.4817 C28.6302,73.6517 28.8502,73.8217 29.0802,73.9917 C29.2002,74.0817 29.3202,74.1717 29.4502,74.2617 C29.6602,74.4117 29.8802,74.5617 30.1002,74.7117 C30.2102,74.7817 30.3202,74.8517 30.4202,74.9217 C30.7702,75.1417 31.1302,75.3517 31.5002,75.5717 C31.5202,75.5817 31.5502,75.5917 31.5702,75.6017 C31.9402,75.8117 32.3302,76.0217 32.7402,76.2217 C32.7902,76.2517 32.8402,76.2717 32.8802,76.2917 C33.7402,76.7217 34.6702,77.1317 35.6802,77.5217 C40.0002,79.1917 44.3102,79.9017 48.3502,80.0017 C48.4202,80.0017 48.5002,80.0017 48.5802,80.0117 C48.8402,80.0117 49.0902,80.0217 49.3402,80.0217 C49.5802,80.0217 49.8102,80.0117 50.0402,80.0117 C55.9202,79.9417 61.5602,78.6417 66.1202,76.5017 C66.6602,76.2517 67.1502,76.0017 67.6002,75.7617 C70.8502,74.0117 73.9802,71.7317 76.9202,68.9617 C77.5902,68.3317 78.1902,67.7317 78.7502,67.1417 C78.7902,67.1117 78.8202,67.0817 78.8502,67.0417 C79.1002,66.7817 79.3302,66.5317 79.5602,66.2917 C79.6502,66.1917 79.7402,66.0917 79.8302,66.0017 C79.9902,65.8217 80.1502,65.6417 80.3002,65.4717 C80.4702,65.2717 80.6302,65.0917 80.7902,64.9017 L80.9702,64.6917 C81.1702,64.4517 81.3502,64.2217 81.5302,63.9917 C81.5502,63.9617 81.5802,63.9417 81.6002,63.9117 C81.7402,63.7417 81.8602,63.5717 81.9902,63.4117 C82.3502,62.9317 82.6102,62.5517 82.7502,62.3317 C82.8302,62.2017 82.9302,62.0417 83.0402,61.8717 C83.1102,61.7617 83.2002,61.6317 83.2802,61.5017 C83.2902,61.4817 83.3102,61.4717 83.3102,61.4617 C83.3502,61.4017 83.3902,61.3317 83.4302,61.2717 C83.9502,60.4617 84.5702,59.4017 85.0602,58.1717 C85.0602,58.1517 85.0702,58.1417 85.0802,58.1217 C85.1902,57.8317 85.3002,57.5317 85.3902,57.2217 C85.4202,57.1317 85.4402,57.0417 85.4702,56.9517 C85.5202,56.7817 85.5602,56.6017 85.6102,56.4217 C85.6402,56.2717 85.6702,56.1317 85.7002,55.9917 C85.7202,55.8717 85.7402,55.7417 85.7602,55.6117 C85.8002,55.3317 85.8302,55.0417 85.8402,54.7617 C85.8502,54.6417 85.8602,54.5217 85.8602,54.3917 C85.8602,54.2417 85.8602,54.0817 85.8502,53.9217 M69.2676,57.7892 C68.6616,55.4422 66.6696,53.5612 63.6616,52.4922 C61.9556,51.8872 60.0466,51.5822 58.0466,51.5822 C56.2806,51.5822 54.4426,51.8192 52.6056,52.2952 C47.7426,53.5542 43.6596,56.3142 41.6826,59.6792 C40.5886,61.5402 40.2496,63.4402 40.7016,65.1742 C41.3086,67.5252 43.2986,69.4082 46.3056,70.4782 C49.5186,71.6242 53.4466,71.6952 57.3646,70.6812 C65.2386,68.6422 70.5786,62.8582 69.2676,57.7892" id="Combined-Shape" fill="url(#linearGradient-1)"></path>
    </g>
</svg>