<?xml version="1.0" encoding="UTF-8"?>
<svg width="88px" height="88px" viewBox="0 0 88 88" version="1.1" xmlns="http://www.w3.org/2000/svg" xmlns:xlink="http://www.w3.org/1999/xlink">
    <!-- Generator: Sketch 51 (57462) - http://www.bohemiancoding.com/sketch -->
    <title>Device2/devices_icon_camera3_s  </title>
    <desc>Created with Sketch.</desc>
    <defs></defs>
    <g id="Device2/devices_icon_camera3_s--" stroke="none" stroke-width="1" fill="none" fill-rule="evenodd">
        <path d="M45,74.9566146 L45,83.1032 L68.6475,83.1032 C69.4475,83.1032 70.0955,83.7522 70.0955,84.5522 C70.0955,85.3512 69.4475,86.0002 68.6475,86.0002 L18.4405,86.0002 C17.6415,86.0002 16.9925,85.3512 16.9925,84.5522 C16.9925,83.7522 17.6415,83.1032 18.4405,83.1032 L42,83.1032 L42,74.9566146 C28.6149308,74.1801879 18,63.0797189 18,49.5 L18,27.5 C18,13.4167389 29.4167389,2 43.5,2 C57.5832611,2 69,13.4167389 69,27.5 L69,49.5 C69,63.0797189 58.3850692,74.1801879 45,74.9566146 Z M43.5,54 C44.8807119,54 46,52.8807119 46,51.5 C46,50.1192881 44.8807119,49 43.5,49 C42.1192881,49 41,50.1192881 41,51.5 C41,52.8807119 42.1192881,54 43.5,54 Z M43.5,43 C49.8512746,43 55,37.8512746 55,31.5 C55,25.1487254 49.8512746,20 43.5,20 C37.1487254,20 32,25.1487254 32,31.5 C32,37.8512746 37.1487254,43 43.5,43 Z M43.5,40 C38.8055796,40 35,36.1944204 35,31.5 C35,26.8055796 38.8055796,23 43.5,23 C48.1944204,23 52,26.8055796 52,31.5 C52,36.1944204 48.1944204,40 43.5,40 Z" id="Combined-Shape" fill="#999999"></path>
    </g>
</svg>