<?xml version="1.0" encoding="UTF-8"?>
<svg width="88px" height="88px" viewBox="0 0 88 88" version="1.1" xmlns="http://www.w3.org/2000/svg" xmlns:xlink="http://www.w3.org/1999/xlink">
    <!-- Generator: Sketch 51 (57462) - http://www.bohemiancoding.com/sketch -->
    <title>Device2/devices_icon_zb_triac_bridge_s</title>
    <desc>Created with Sketch.</desc>
    <defs></defs>
    <g id="Device2/devices_icon_zb_triac_bridge_s" stroke="none" stroke-width="1" fill="none" fill-rule="evenodd">
        <path d="M75.174558,15.8447245 C74.834558,16.3147245 74.544558,16.7347245 74.294558,17.0947245 C74.104558,17.3547245 73.944558,17.5747245 73.804558,17.7747245 L50.624558,13.6447245 L51.174558,13.0947245 L53.224558,11.0647245 L75.724558,15.0647245 L75.174558,15.8447245 Z M56.194558,42.5447245 L54.884558,44.3847245 L26.174558,37.8847245 C26.564558,37.5047245 26.764558,37.3047245 26.764558,37.3047245 L28.704558,35.3747245 L56.774558,41.7347245 L56.194558,42.5447245 Z M41.594558,64.1447245 L40.984558,63.9647245 L9.204558,54.7247245 L9.054558,54.6847245 C9.884558,53.8647245 10.694558,53.0547245 11.504558,52.2647245 L11.634558,52.3047245 L42.824558,61.3747245 L43.344558,61.5247245 L41.594558,64.1447245 Z M84.984558,6.3447245 C85.004558,6.4347245 85.014558,6.5247245 85.014558,6.6247245 L85.014558,6.7547245 C85.014558,6.8447245 85.004558,6.9347245 84.974558,7.0247245 C84.944558,7.2047245 84.864558,7.3847245 84.744558,7.5547245 L82.184558,11.1547245 L77.624558,17.5747245 L76.214558,19.5647245 L75.544558,20.5147245 L75.504558,20.5647245 L75.504558,20.5747245 L75.494558,20.5747245 L75.494558,20.5847245 L75.484558,20.5847245 C75.474558,20.6047245 75.464558,20.6147245 75.454558,20.6247245 C75.454558,20.6347245 75.454558,20.6347245 75.444558,20.6447245 C75.434558,20.6647245 75.414558,20.6847245 75.394558,20.7047245 C75.394558,20.7247245 75.384558,20.7347245 75.374558,20.7447245 C75.364558,20.7547245 75.354558,20.7647245 75.354558,20.7747245 C75.334558,20.7947245 75.314558,20.8147245 75.304558,20.8447245 C75.284558,20.8647245 75.274558,20.8847245 75.254558,20.9047245 C75.024558,21.2347245 75.024558,21.2347245 74.674558,21.7247245 C74.044558,22.6047245 73.324558,23.6247245 72.514558,24.7547245 C72.474558,24.8147245 72.324558,25.0347245 72.304558,25.0547245 C72.204558,25.1947245 72.134558,25.3047245 72.074558,25.3747245 C71.984558,25.4947245 71.954558,25.5347245 71.934558,25.5747245 C71.854558,25.6847245 71.814558,25.7547245 71.764558,25.8247245 C71.744558,25.8447245 71.734558,25.8647245 71.714558,25.8847245 C71.684558,25.9247245 71.654558,25.9747245 71.614558,26.0247245 C71.494558,26.1947245 71.444558,26.2747245 71.384558,26.3447245 C70.854558,27.0947245 70.484558,27.6247245 70.094558,28.1647245 C70.004558,28.2947245 69.904558,28.4347245 69.814558,28.5647245 C69.714558,28.7047245 69.604558,28.8647245 69.424558,29.1147245 C69.274558,29.3147245 69.134558,29.5247245 68.984558,29.7347245 C68.714558,30.1147245 68.454558,30.4847245 68.204558,30.8347245 C68.124558,30.9447245 68.044558,31.0647245 67.954558,31.1847245 C67.314558,32.0847245 66.764558,32.8647245 66.264558,33.5547245 C66.164558,33.7047245 66.054558,33.8447245 65.954558,33.9947245 C65.854558,34.1347245 65.754558,34.2747245 65.664558,34.4047245 C65.404558,34.7747245 65.144558,35.1447245 64.874558,35.5247245 C64.744558,35.7147245 64.604558,35.9147245 64.464558,36.1047245 C64.444558,36.1247245 64.424558,36.1547245 64.404558,36.1847245 C64.184558,36.4847245 63.984558,36.7647245 63.804558,37.0347245 C63.694558,37.1847245 63.584558,37.3347245 63.484558,37.4847245 C63.254558,37.7947245 63.044558,38.0847245 62.834558,38.3847245 C62.464558,38.9147245 62.134558,39.3847245 61.844558,39.7847245 C61.684558,40.0047245 61.514558,40.2447245 61.344558,40.4847245 C61.184558,40.7247245 61.064558,40.8947245 61.004558,40.9647245 C60.994558,40.9947245 60.974558,41.0047245 60.974558,41.0147245 C60.964558,41.0347245 60.944558,41.0547245 60.914558,41.0847245 L60.914558,41.0947245 C60.894558,41.1247245 60.874558,41.1547245 60.844558,41.1947245 L60.834558,41.2047245 C60.824558,41.2247245 60.804558,41.2547245 60.784558,41.2847245 C60.764558,41.2947245 60.764558,41.3047245 60.754558,41.3247245 L60.724558,41.3547245 L58.834558,44.0147245 C55.044558,50.0447245 47.424558,63.4747245 43.584558,73.6247245 L43.584558,73.6347245 C43.324558,74.3247245 43.074558,75.0047245 42.854558,75.6647245 C42.614558,76.3547245 42.404558,77.0247245 42.224558,77.6647245 C41.124558,81.4847245 40.854558,84.5547245 40.954558,86.8947245 C40.834558,86.9747245 40.704558,87.0347245 40.564558,87.0647245 C40.294558,87.1347245 40.014558,87.1347245 39.744558,87.0447245 C24.664558,82.4047245 14.154558,79.1047245 8.474558,77.0847245 C6.844558,76.5047245 5.594558,75.1847245 5.124558,73.5347245 L5.054558,73.2747245 L3.104558,61.1047245 C2.694558,58.6347245 3.504558,56.1347245 5.284558,54.3847245 L7.604558,52.0947245 L7.614558,52.0847245 C7.634558,52.0447245 7.674558,52.0047245 7.704558,51.9747245 L24.644558,35.1747245 C24.664558,35.1547245 32.804558,27.0847245 49.064558,10.9647245 L58.664558,1.4347245 C59.014558,1.0947245 59.504558,0.934724498 59.984558,1.0247245 L83.764558,5.2047245 C83.784558,5.2047245 83.794558,5.2047245 83.814558,5.2147245 C83.894558,5.2347245 83.974558,5.2547245 84.054558,5.2847245 C84.314558,5.3747245 84.524558,5.5347245 84.684558,5.7347245 C84.734558,5.8047245 84.784558,5.8747245 84.824558,5.9547245 C84.864558,6.0147245 84.904558,6.0947245 84.924558,6.1647245 C84.934558,6.1847245 84.944558,6.2047245 84.944558,6.2247245 C84.964558,6.2647245 84.974558,6.3047245 84.984558,6.3447245 Z M85.244658,19.8247245 C85.084658,20.1047245 77.754658,32.3547245 65.264658,53.1947245 C60.894658,60.4947245 56.214658,68.3047245 51.534658,76.1247245 C49.894658,78.8547245 48.374658,81.3947245 47.014658,83.6747245 C45.664658,85.9147245 45.614658,86.0147245 45.334658,86.4747245 C45.224658,86.6947245 45.064658,86.9447245 44.834658,87.1947245 C44.594658,87.4547245 44.324658,87.6647245 44.034658,87.8047245 C43.794658,85.3947245 43.964658,81.6847245 45.694658,76.6347245 C45.904658,76.0047245 46.144658,75.3447245 46.394658,74.6847245 C50.954658,62.6247245 60.474658,46.8347245 62.614658,43.6847245 L66.044658,38.8547245 C67.984658,36.1247245 69.804658,33.5747245 71.414658,31.3047245 L72.604658,29.6247245 C73.084658,28.9547245 73.544658,28.3047245 73.974658,27.6947245 L74.504658,26.9547245 C74.564658,26.8547245 74.634658,26.7547245 74.704658,26.6647245 C74.874658,26.4347245 75.044658,26.1947245 75.184658,25.9847245 L78.264658,21.6547245 C78.284658,21.6347245 78.304658,21.6047245 78.314658,21.5847245 C78.334658,21.5647245 78.354658,21.5447245 78.364658,21.5247245 L80.564658,18.4247245 C80.584658,18.3947245 80.614658,18.3547245 80.644658,18.3247245 L85.214658,11.8847245 L85.214658,12.0047245 C85.334658,12.4247245 85.414658,12.8647245 85.444658,13.3047245 C85.444658,13.3447245 85.494658,14.2347245 85.514658,14.5647245 C85.544658,15.0647245 85.564658,15.5147245 85.574658,15.9347245 C85.664658,18.1247245 85.634658,19.1447245 85.244658,19.8247245 Z" id="Combined-Shape" fill="#999999"></path>
    </g>
</svg>