<?xml version="1.0" encoding="UTF-8"?>
<svg width="88px" height="88px" viewBox="0 0 88 88" version="1.1" xmlns="http://www.w3.org/2000/svg" xmlns:xlink="http://www.w3.org/1999/xlink">
    <!-- Generator: Sketch 51 (57462) - http://www.bohemiancoding.com/sketch -->
    <title>Device2/devices_icon_zb_nano_switch_s</title>
    <desc>Created with Sketch.</desc>
    <defs></defs>
    <g id="Device2/devices_icon_zb_nano_switch_s" stroke="none" stroke-width="1" fill="none" fill-rule="evenodd">
        <g id="Group-7" transform="translate(3.000000, 7.000000)">
            <g id="Group-3" transform="translate(0.000000, 0.880000)" fill="#999999">
                <path d="M50.6822,40.73 C50.5322,40.31 50.0622,40.09 49.6422,40.24 C49.2222,40.39 48.9922,40.85 49.1422,41.28 C49.2922,41.7 49.7622,41.92 50.1822,41.77 C50.6122,41.62 50.8322,41.16 50.6822,40.73 M50.4222,47.01 C49.8922,47.01 49.4622,47.44 49.4622,47.97 C49.4622,48.5 49.8922,48.93 50.4222,48.93 C50.9522,48.93 51.3822,48.5 51.3822,47.97 C51.3822,47.44 50.9522,47.01 50.4222,47.01 M49.9822,33.5 C49.6822,33.18 49.1822,33.16 48.8622,33.46 C48.5422,33.77 48.5322,34.27 48.8322,34.59 C49.1322,34.9 49.6322,34.92 49.9522,34.62 C50.2722,34.32 50.2822,33.81 49.9822,33.5 M49.2822,26.26 C48.8322,26.05 48.2922,26.24 48.0822,26.69 C47.8622,27.14 48.0622,27.68 48.5122,27.89 C48.9622,28.1 49.5022,27.91 49.7122,27.46 C49.9222,27.01 49.7322,26.47 49.2822,26.26 M48.5822,19.02 C47.9722,18.91 47.4022,19.32 47.2922,19.92 C47.1922,20.52 47.5922,21.09 48.1922,21.2 C48.7922,21.31 49.3722,20.9 49.4722,20.3 C49.5822,19.7 49.1822,19.13 48.5822,19.02 M47.8722,11.78 C47.1222,11.78 46.5122,12.39 46.5122,13.14 C46.5122,13.9 47.1222,14.51 47.8722,14.51 C48.6322,14.51 49.2422,13.9 49.2422,13.14 C49.2422,12.39 48.6322,11.78 47.8722,11.78 M43.8122,40.96 C43.6622,40.54 43.1922,40.31 42.7722,40.47 C42.3422,40.62 42.1222,41.08 42.2722,41.51 C42.4222,41.93 42.8922,42.15 43.3122,42 C43.7422,41.85 43.9622,41.39 43.8122,40.96 M43.5522,47.24 C43.0222,47.24 42.5922,47.67 42.5922,48.2 C42.5922,48.73 43.0222,49.16 43.5522,49.16 C44.0822,49.16 44.5122,48.73 44.5122,48.2 C44.5122,47.67 44.0822,47.24 43.5522,47.24 M43.1022,33.72 C42.8022,33.4 42.3022,33.39 41.9822,33.69 C41.6722,33.99 41.6522,34.49 41.9522,34.81 C42.2522,35.13 42.7622,35.14 43.0722,34.84 C43.3922,34.54 43.4122,34.04 43.1022,33.72 M42.4022,26.49 C41.9522,26.27 41.4122,26.47 41.2022,26.92 C40.9922,27.37 41.1822,27.91 41.6322,28.12 C42.0922,28.33 42.6222,28.14 42.8422,27.69 C43.0522,27.24 42.8522,26.7 42.4022,26.49 M41.7022,19.25 C41.1022,19.14 40.5322,19.54 40.4222,20.14 C40.3122,20.75 40.7222,21.32 41.3222,21.43 C41.9222,21.53 42.4922,21.13 42.6022,20.53 C42.7022,19.93 42.3022,19.35 41.7022,19.25 M41.0022,12.01 C40.2522,12.01 39.6422,12.62 39.6422,13.37 C39.6422,14.12 40.2522,14.73 41.0022,14.73 C41.7522,14.73 42.3622,14.12 42.3622,13.37 C42.3622,12.62 41.7522,12.01 41.0022,12.01 M36.7722,41.39 C36.6222,40.96 36.1522,40.74 35.7322,40.89 C35.3122,41.04 35.0822,41.51 35.2322,41.93 C35.3822,42.36 35.8522,42.58 36.2722,42.43 C36.7022,42.28 36.9222,41.81 36.7722,41.39 M36.5122,47.67 C35.9822,47.67 35.5522,48.1 35.5522,48.63 C35.5522,49.16 35.9822,49.59 36.5122,49.59 C37.0422,49.59 37.4722,49.16 37.4722,48.63 C37.4722,48.1 37.0422,47.67 36.5122,47.67 M36.0722,34.15 C35.7722,33.83 35.2722,33.82 34.9522,34.12 C34.6322,34.42 34.6222,34.92 34.9222,35.24 C35.2222,35.56 35.7222,35.57 36.0422,35.27 C36.3622,34.97 36.3722,34.47 36.0722,34.15 M35.3722,26.91 C34.9222,26.7 34.3822,26.9 34.1722,27.35 C33.9522,27.8 34.1522,28.34 34.6022,28.55 C35.0522,28.76 35.5922,28.57 35.8022,28.11 C36.0122,27.66 35.8222,27.13 35.3722,26.91 M34.6622,19.68 C34.0622,19.57 33.4922,19.97 33.3822,20.57 C33.2822,21.17 33.6822,21.75 34.2822,21.85 C34.8822,21.96 35.4622,21.56 35.5622,20.96 C35.6722,20.36 35.2722,19.78 34.6622,19.68 M33.9622,12.44 C33.2122,12.44 32.6022,13.05 32.6022,13.8 C32.6022,14.55 33.2122,15.16 33.9622,15.16 C34.7222,15.16 35.3322,14.55 35.3322,13.8 C35.3322,13.05 34.7222,12.44 33.9622,12.44 M29.6122,41.84 C29.4622,41.42 28.9922,41.2 28.5722,41.35 C28.1422,41.5 27.9222,41.96 28.0722,42.39 C28.2222,42.81 28.6922,43.03 29.1122,42.88 C29.5422,42.73 29.7622,42.27 29.6122,41.84 M29.3522,48.12 C28.8222,48.12 28.3922,48.55 28.3922,49.08 C28.3922,49.61 28.8222,50.04 29.3522,50.04 C29.8822,50.04 30.3122,49.61 30.3122,49.08 C30.3122,48.55 29.8822,48.12 29.3522,48.12 M28.9122,34.61 C28.6122,34.29 28.1022,34.27 27.7922,34.57 C27.4722,34.87 27.4522,35.38 27.7622,35.69 C28.0622,36.01 28.5622,36.03 28.8822,35.73 C29.1922,35.43 29.2122,34.92 28.9122,34.61 M28.2122,27.37 C27.7522,27.16 27.2222,27.35 27.0022,27.8 C26.7922,28.25 26.9922,28.79 27.4422,29 C27.8922,29.21 28.4322,29.02 28.6422,28.57 C28.8522,28.12 28.6622,27.58 28.2122,27.37 M27.5022,20.13 C26.9022,20.02 26.3322,20.43 26.2222,21.03 C26.1222,21.63 26.5222,22.2 27.1222,22.31 C27.7222,22.41 28.3022,22.01 28.4022,21.41 C28.5122,20.81 28.1122,20.24 27.5022,20.13 M26.8022,12.89 C26.0522,12.89 25.4422,13.5 25.4422,14.25 C25.4422,15.01 26.0522,15.62 26.8022,15.62 C27.5522,15.62 28.1622,15.01 28.1622,14.25 C28.1622,13.5 27.5522,12.89 26.8022,12.89 M22.5322,42.3 C22.3722,41.87 21.9122,41.65 21.4822,41.8 C21.0622,41.95 20.8422,42.42 20.9922,42.84 C21.1422,43.27 21.6122,43.49 22.0322,43.34 C22.4522,43.19 22.6822,42.72 22.5322,42.3 M22.2722,48.57 C21.7422,48.57 21.3122,49 21.3122,49.53 C21.3122,50.07 21.7422,50.49 22.2722,50.49 C22.8022,50.49 23.2322,50.07 23.2322,49.53 C23.2322,49 22.8022,48.57 22.2722,48.57 M21.8222,35.06 C21.5222,34.74 21.0222,34.73 20.7022,35.03 C20.3822,35.33 20.3722,35.83 20.6722,36.15 C20.9722,36.47 21.4722,36.48 21.7922,36.18 C22.1122,35.88 22.1222,35.38 21.8222,35.06 M21.1222,27.82 C20.6722,27.61 20.1322,27.8 19.9222,28.25 C19.7122,28.71 19.9022,29.24 20.3522,29.46 C20.8022,29.67 21.3422,29.47 21.5522,29.02 C21.7722,28.57 21.5722,28.03 21.1222,27.82 M20.4222,20.58 C19.8222,20.48 19.2422,20.88 19.1422,21.48 C19.0322,22.08 19.4322,22.66 20.0422,22.76 C20.6422,22.87 21.2122,22.47 21.3222,21.87 C21.4222,21.26 21.0222,20.69 20.4222,20.58 M20.4222,20.58 C19.8222,20.48 19.2422,20.88 19.1422,21.48 C19.0322,22.08 19.4322,22.66 20.0422,22.76 C20.6422,22.87 21.2122,22.47 21.3222,21.87 C21.4222,21.26 21.0222,20.69 20.4222,20.58 M21.1222,27.82 C20.6722,27.61 20.1322,27.8 19.9222,28.25 C19.7122,28.71 19.9022,29.24 20.3522,29.46 C20.8022,29.67 21.3422,29.47 21.5522,29.02 C21.7722,28.57 21.5722,28.03 21.1222,27.82 M21.8222,35.06 C21.5222,34.74 21.0222,34.73 20.7022,35.03 C20.3822,35.33 20.3722,35.83 20.6722,36.15 C20.9722,36.47 21.4722,36.48 21.7922,36.18 C22.1122,35.88 22.1222,35.38 21.8222,35.06 M22.2722,48.57 C21.7422,48.57 21.3122,49 21.3122,49.53 C21.3122,50.07 21.7422,50.49 22.2722,50.49 C22.8022,50.49 23.2322,50.07 23.2322,49.53 C23.2322,49 22.8022,48.57 22.2722,48.57 M22.5322,42.3 C22.3722,41.87 21.9122,41.65 21.4822,41.8 C21.0622,41.95 20.8422,42.42 20.9922,42.84 C21.1422,43.27 21.6122,43.49 22.0322,43.34 C22.4522,43.19 22.6822,42.72 22.5322,42.3 M26.8022,12.89 C26.0522,12.89 25.4422,13.5 25.4422,14.25 C25.4422,15.01 26.0522,15.62 26.8022,15.62 C27.5522,15.62 28.1622,15.01 28.1622,14.25 C28.1622,13.5 27.5522,12.89 26.8022,12.89 M27.5022,20.13 C26.9022,20.02 26.3322,20.43 26.2222,21.03 C26.1222,21.63 26.5222,22.2 27.1222,22.31 C27.7222,22.41 28.3022,22.01 28.4022,21.41 C28.5122,20.81 28.1122,20.24 27.5022,20.13 M28.2122,27.37 C27.7522,27.16 27.2222,27.35 27.0022,27.8 C26.7922,28.25 26.9922,28.79 27.4422,29 C27.8922,29.21 28.4322,29.02 28.6422,28.57 C28.8522,28.12 28.6622,27.58 28.2122,27.37 M28.9122,34.61 C28.6122,34.29 28.1022,34.27 27.7922,34.57 C27.4722,34.87 27.4522,35.38 27.7622,35.69 C28.0622,36.01 28.5622,36.03 28.8822,35.73 C29.1922,35.43 29.2122,34.92 28.9122,34.61 M29.3522,48.12 C28.8222,48.12 28.3922,48.55 28.3922,49.08 C28.3922,49.61 28.8222,50.04 29.3522,50.04 C29.8822,50.04 30.3122,49.61 30.3122,49.08 C30.3122,48.55 29.8822,48.12 29.3522,48.12 M29.6122,41.84 C29.4622,41.42 28.9922,41.2 28.5722,41.35 C28.1422,41.5 27.9222,41.96 28.0722,42.39 C28.2222,42.81 28.6922,43.03 29.1122,42.88 C29.5422,42.73 29.7622,42.27 29.6122,41.84 M33.9622,12.44 C33.2122,12.44 32.6022,13.05 32.6022,13.8 C32.6022,14.55 33.2122,15.16 33.9622,15.16 C34.7222,15.16 35.3322,14.55 35.3322,13.8 C35.3322,13.05 34.7222,12.44 33.9622,12.44 M34.6622,19.68 C34.0622,19.57 33.4922,19.97 33.3822,20.57 C33.2822,21.17 33.6822,21.75 34.2822,21.85 C34.8822,21.96 35.4622,21.56 35.5622,20.96 C35.6722,20.36 35.2722,19.78 34.6622,19.68 M35.3722,26.91 C34.9222,26.7 34.3822,26.9 34.1722,27.35 C33.9522,27.8 34.1522,28.34 34.6022,28.55 C35.0522,28.76 35.5922,28.57 35.8022,28.11 C36.0122,27.66 35.8222,27.13 35.3722,26.91 M36.0722,34.15 C35.7722,33.83 35.2722,33.82 34.9522,34.12 C34.6322,34.42 34.6222,34.92 34.9222,35.24 C35.2222,35.56 35.7222,35.57 36.0422,35.27 C36.3622,34.97 36.3722,34.47 36.0722,34.15 M36.5122,47.67 C35.9822,47.67 35.5522,48.1 35.5522,48.63 C35.5522,49.16 35.9822,49.59 36.5122,49.59 C37.0422,49.59 37.4722,49.16 37.4722,48.63 C37.4722,48.1 37.0422,47.67 36.5122,47.67 M36.7722,41.39 C36.6222,40.96 36.1522,40.74 35.7322,40.89 C35.3122,41.04 35.0822,41.51 35.2322,41.93 C35.3822,42.36 35.8522,42.58 36.2722,42.43 C36.7022,42.28 36.9222,41.81 36.7722,41.39 M41.0022,12.01 C40.2522,12.01 39.6422,12.62 39.6422,13.37 C39.6422,14.12 40.2522,14.73 41.0022,14.73 C41.7522,14.73 42.3622,14.12 42.3622,13.37 C42.3622,12.62 41.7522,12.01 41.0022,12.01 M41.7022,19.25 C41.1022,19.14 40.5322,19.54 40.4222,20.14 C40.3122,20.75 40.7222,21.32 41.3222,21.43 C41.9222,21.53 42.4922,21.13 42.6022,20.53 C42.7022,19.93 42.3022,19.35 41.7022,19.25 M42.4022,26.49 C41.9522,26.27 41.4122,26.47 41.2022,26.92 C40.9922,27.37 41.1822,27.91 41.6322,28.12 C42.0922,28.33 42.6222,28.14 42.8422,27.69 C43.0522,27.24 42.8522,26.7 42.4022,26.49 M43.1022,33.72 C42.8022,33.4 42.3022,33.39 41.9822,33.69 C41.6722,33.99 41.6522,34.49 41.9522,34.81 C42.2522,35.13 42.7622,35.14 43.0722,34.84 C43.3922,34.54 43.4122,34.04 43.1022,33.72 M43.5522,47.24 C43.0222,47.24 42.5922,47.67 42.5922,48.2 C42.5922,48.73 43.0222,49.16 43.5522,49.16 C44.0822,49.16 44.5122,48.73 44.5122,48.2 C44.5122,47.67 44.0822,47.24 43.5522,47.24 M43.8122,40.96 C43.6622,40.54 43.1922,40.31 42.7722,40.47 C42.3422,40.62 42.1222,41.08 42.2722,41.51 C42.4222,41.93 42.8922,42.15 43.3122,42 C43.7422,41.85 43.9622,41.39 43.8122,40.96 M47.8722,11.78 C47.1222,11.78 46.5122,12.39 46.5122,13.14 C46.5122,13.9 47.1222,14.51 47.8722,14.51 C48.6322,14.51 49.2422,13.9 49.2422,13.14 C49.2422,12.39 48.6322,11.78 47.8722,11.78 M48.5822,19.02 C47.9722,18.91 47.4022,19.32 47.2922,19.92 C47.1922,20.52 47.5922,21.09 48.1922,21.2 C48.7922,21.31 49.3722,20.9 49.4722,20.3 C49.5822,19.7 49.1822,19.13 48.5822,19.02 M49.2822,26.26 C48.8322,26.05 48.2922,26.24 48.0822,26.69 C47.8622,27.14 48.0622,27.68 48.5122,27.89 C48.9622,28.1 49.5022,27.91 49.7122,27.46 C49.9222,27.01 49.7322,26.47 49.2822,26.26 M49.9822,33.5 C49.6822,33.18 49.1822,33.16 48.8622,33.46 C48.5422,33.77 48.5322,34.27 48.8322,34.59 C49.1322,34.9 49.6322,34.92 49.9522,34.62 C50.2722,34.32 50.2822,33.81 49.9822,33.5 M50.4222,47.01 C49.8922,47.01 49.4622,47.44 49.4622,47.97 C49.4622,48.5 49.8922,48.93 50.4222,48.93 C50.9522,48.93 51.3822,48.5 51.3822,47.97 C51.3822,47.44 50.9522,47.01 50.4222,47.01 M50.6822,40.73 C50.5322,40.31 50.0622,40.09 49.6422,40.24 C49.2222,40.39 48.9922,40.85 49.1422,41.28 C49.2922,41.7 49.7622,41.92 50.1822,41.77 C50.6122,41.62 50.8322,41.16 50.6822,40.73 M20.4222,20.58 C19.8222,20.48 19.2422,20.88 19.1422,21.48 C19.0322,22.08 19.4322,22.66 20.0422,22.76 C20.6422,22.87 21.2122,22.47 21.3222,21.87 C21.4222,21.26 21.0222,20.69 20.4222,20.58 M21.1222,27.82 C20.6722,27.61 20.1322,27.8 19.9222,28.25 C19.7122,28.71 19.9022,29.24 20.3522,29.46 C20.8022,29.67 21.3422,29.47 21.5522,29.02 C21.7722,28.57 21.5722,28.03 21.1222,27.82 M21.8222,35.06 C21.5222,34.74 21.0222,34.73 20.7022,35.03 C20.3822,35.33 20.3722,35.83 20.6722,36.15 C20.9722,36.47 21.4722,36.48 21.7922,36.18 C22.1122,35.88 22.1222,35.38 21.8222,35.06 M22.2722,48.57 C21.7422,48.57 21.3122,49 21.3122,49.53 C21.3122,50.07 21.7422,50.49 22.2722,50.49 C22.8022,50.49 23.2322,50.07 23.2322,49.53 C23.2322,49 22.8022,48.57 22.2722,48.57 M22.5322,42.3 C22.3722,41.87 21.9122,41.65 21.4822,41.8 C21.0622,41.95 20.8422,42.42 20.9922,42.84 C21.1422,43.27 21.6122,43.49 22.0322,43.34 C22.4522,43.19 22.6822,42.72 22.5322,42.3 M26.8022,12.89 C26.0522,12.89 25.4422,13.5 25.4422,14.25 C25.4422,15.01 26.0522,15.62 26.8022,15.62 C27.5522,15.62 28.1622,15.01 28.1622,14.25 C28.1622,13.5 27.5522,12.89 26.8022,12.89 M27.5022,20.13 C26.9022,20.02 26.3322,20.43 26.2222,21.03 C26.1222,21.63 26.5222,22.2 27.1222,22.31 C27.7222,22.41 28.3022,22.01 28.4022,21.41 C28.5122,20.81 28.1122,20.24 27.5022,20.13 M28.2122,27.37 C27.7522,27.16 27.2222,27.35 27.0022,27.8 C26.7922,28.25 26.9922,28.79 27.4422,29 C27.8922,29.21 28.4322,29.02 28.6422,28.57 C28.8522,28.12 28.6622,27.58 28.2122,27.37 M28.9122,34.61 C28.6122,34.29 28.1022,34.27 27.7922,34.57 C27.4722,34.87 27.4522,35.38 27.7622,35.69 C28.0622,36.01 28.5622,36.03 28.8822,35.73 C29.1922,35.43 29.2122,34.92 28.9122,34.61 M29.3522,48.12 C28.8222,48.12 28.3922,48.55 28.3922,49.08 C28.3922,49.61 28.8222,50.04 29.3522,50.04 C29.8822,50.04 30.3122,49.61 30.3122,49.08 C30.3122,48.55 29.8822,48.12 29.3522,48.12 M29.6122,41.84 C29.4622,41.42 28.9922,41.2 28.5722,41.35 C28.1422,41.5 27.9222,41.96 28.0722,42.39 C28.2222,42.81 28.6922,43.03 29.1122,42.88 C29.5422,42.73 29.7622,42.27 29.6122,41.84 M33.9622,12.44 C33.2122,12.44 32.6022,13.05 32.6022,13.8 C32.6022,14.55 33.2122,15.16 33.9622,15.16 C34.7222,15.16 35.3322,14.55 35.3322,13.8 C35.3322,13.05 34.7222,12.44 33.9622,12.44 M34.6622,19.68 C34.0622,19.57 33.4922,19.97 33.3822,20.57 C33.2822,21.17 33.6822,21.75 34.2822,21.85 C34.8822,21.96 35.4622,21.56 35.5622,20.96 C35.6722,20.36 35.2722,19.78 34.6622,19.68 M35.3722,26.91 C34.9222,26.7 34.3822,26.9 34.1722,27.35 C33.9522,27.8 34.1522,28.34 34.6022,28.55 C35.0522,28.76 35.5922,28.57 35.8022,28.11 C36.0122,27.66 35.8222,27.13 35.3722,26.91 M36.0722,34.15 C35.7722,33.83 35.2722,33.82 34.9522,34.12 C34.6322,34.42 34.6222,34.92 34.9222,35.24 C35.2222,35.56 35.7222,35.57 36.0422,35.27 C36.3622,34.97 36.3722,34.47 36.0722,34.15 M36.5122,47.67 C35.9822,47.67 35.5522,48.1 35.5522,48.63 C35.5522,49.16 35.9822,49.59 36.5122,49.59 C37.0422,49.59 37.4722,49.16 37.4722,48.63 C37.4722,48.1 37.0422,47.67 36.5122,47.67 M36.7722,41.39 C36.6222,40.96 36.1522,40.74 35.7322,40.89 C35.3122,41.04 35.0822,41.51 35.2322,41.93 C35.3822,42.36 35.8522,42.58 36.2722,42.43 C36.7022,42.28 36.9222,41.81 36.7722,41.39 M41.0022,12.01 C40.2522,12.01 39.6422,12.62 39.6422,13.37 C39.6422,14.12 40.2522,14.73 41.0022,14.73 C41.7522,14.73 42.3622,14.12 42.3622,13.37 C42.3622,12.62 41.7522,12.01 41.0022,12.01 M41.7022,19.25 C41.1022,19.14 40.5322,19.54 40.4222,20.14 C40.3122,20.75 40.7222,21.32 41.3222,21.43 C41.9222,21.53 42.4922,21.13 42.6022,20.53 C42.7022,19.93 42.3022,19.35 41.7022,19.25 M42.4022,26.49 C41.9522,26.27 41.4122,26.47 41.2022,26.92 C40.9922,27.37 41.1822,27.91 41.6322,28.12 C42.0922,28.33 42.6222,28.14 42.8422,27.69 C43.0522,27.24 42.8522,26.7 42.4022,26.49 M43.1022,33.72 C42.8022,33.4 42.3022,33.39 41.9822,33.69 C41.6722,33.99 41.6522,34.49 41.9522,34.81 C42.2522,35.13 42.7622,35.14 43.0722,34.84 C43.3922,34.54 43.4122,34.04 43.1022,33.72 M43.5522,47.24 C43.0222,47.24 42.5922,47.67 42.5922,48.2 C42.5922,48.73 43.0222,49.16 43.5522,49.16 C44.0822,49.16 44.5122,48.73 44.5122,48.2 C44.5122,47.67 44.0822,47.24 43.5522,47.24 M43.8122,40.96 C43.6622,40.54 43.1922,40.31 42.7722,40.47 C42.3422,40.62 42.1222,41.08 42.2722,41.51 C42.4222,41.93 42.8922,42.15 43.3122,42 C43.7422,41.85 43.9622,41.39 43.8122,40.96 M47.8722,11.78 C47.1222,11.78 46.5122,12.39 46.5122,13.14 C46.5122,13.9 47.1222,14.51 47.8722,14.51 C48.6322,14.51 49.2422,13.9 49.2422,13.14 C49.2422,12.39 48.6322,11.78 47.8722,11.78 M48.5822,19.02 C47.9722,18.91 47.4022,19.32 47.2922,19.92 C47.1922,20.52 47.5922,21.09 48.1922,21.2 C48.7922,21.31 49.3722,20.9 49.4722,20.3 C49.5822,19.7 49.1822,19.13 48.5822,19.02 M49.2822,26.26 C48.8322,26.05 48.2922,26.24 48.0822,26.69 C47.8622,27.14 48.0622,27.68 48.5122,27.89 C48.9622,28.1 49.5022,27.91 49.7122,27.46 C49.9222,27.01 49.7322,26.47 49.2822,26.26 M49.9822,33.5 C49.6822,33.18 49.1822,33.16 48.8622,33.46 C48.5422,33.77 48.5322,34.27 48.8322,34.59 C49.1322,34.9 49.6322,34.92 49.9522,34.62 C50.2722,34.32 50.2822,33.81 49.9822,33.5 M50.4222,47.01 C49.8922,47.01 49.4622,47.44 49.4622,47.97 C49.4622,48.5 49.8922,48.93 50.4222,48.93 C50.9522,48.93 51.3822,48.5 51.3822,47.97 C51.3822,47.44 50.9522,47.01 50.4222,47.01 M50.6822,40.73 C50.5322,40.31 50.0622,40.09 49.6422,40.24 C49.2222,40.39 48.9922,40.85 49.1422,41.28 C49.2922,41.7 49.7622,41.92 50.1822,41.77 C50.6122,41.62 50.8322,41.16 50.6822,40.73 M50.6822,40.73 C50.5322,40.31 50.0622,40.09 49.6422,40.24 C49.2222,40.39 48.9922,40.85 49.1422,41.28 C49.2922,41.7 49.7622,41.92 50.1822,41.77 C50.6122,41.62 50.8322,41.16 50.6822,40.73 M50.4222,47.01 C49.8922,47.01 49.4622,47.44 49.4622,47.97 C49.4622,48.5 49.8922,48.93 50.4222,48.93 C50.9522,48.93 51.3822,48.5 51.3822,47.97 C51.3822,47.44 50.9522,47.01 50.4222,47.01 M49.9822,33.5 C49.6822,33.18 49.1822,33.16 48.8622,33.46 C48.5422,33.77 48.5322,34.27 48.8322,34.59 C49.1322,34.9 49.6322,34.92 49.9522,34.62 C50.2722,34.32 50.2822,33.81 49.9822,33.5 M49.2822,26.26 C48.8322,26.05 48.2922,26.24 48.0822,26.69 C47.8622,27.14 48.0622,27.68 48.5122,27.89 C48.9622,28.1 49.5022,27.91 49.7122,27.46 C49.9222,27.01 49.7322,26.47 49.2822,26.26 M48.5822,19.02 C47.9722,18.91 47.4022,19.32 47.2922,19.92 C47.1922,20.52 47.5922,21.09 48.1922,21.2 C48.7922,21.31 49.3722,20.9 49.4722,20.3 C49.5822,19.7 49.1822,19.13 48.5822,19.02 M47.8722,11.78 C47.1222,11.78 46.5122,12.39 46.5122,13.14 C46.5122,13.9 47.1222,14.51 47.8722,14.51 C48.6322,14.51 49.2422,13.9 49.2422,13.14 C49.2422,12.39 48.6322,11.78 47.8722,11.78 M43.8122,40.96 C43.6622,40.54 43.1922,40.31 42.7722,40.47 C42.3422,40.62 42.1222,41.08 42.2722,41.51 C42.4222,41.93 42.8922,42.15 43.3122,42 C43.7422,41.85 43.9622,41.39 43.8122,40.96 M43.5522,47.24 C43.0222,47.24 42.5922,47.67 42.5922,48.2 C42.5922,48.73 43.0222,49.16 43.5522,49.16 C44.0822,49.16 44.5122,48.73 44.5122,48.2 C44.5122,47.67 44.0822,47.24 43.5522,47.24 M43.1022,33.72 C42.8022,33.4 42.3022,33.39 41.9822,33.69 C41.6722,33.99 41.6522,34.49 41.9522,34.81 C42.2522,35.13 42.7622,35.14 43.0722,34.84 C43.3922,34.54 43.4122,34.04 43.1022,33.72 M42.4022,26.49 C41.9522,26.27 41.4122,26.47 41.2022,26.92 C40.9922,27.37 41.1822,27.91 41.6322,28.12 C42.0922,28.33 42.6222,28.14 42.8422,27.69 C43.0522,27.24 42.8522,26.7 42.4022,26.49 M41.7022,19.25 C41.1022,19.14 40.5322,19.54 40.4222,20.14 C40.3122,20.75 40.7222,21.32 41.3222,21.43 C41.9222,21.53 42.4922,21.13 42.6022,20.53 C42.7022,19.93 42.3022,19.35 41.7022,19.25 M41.0022,12.01 C40.2522,12.01 39.6422,12.62 39.6422,13.37 C39.6422,14.12 40.2522,14.73 41.0022,14.73 C41.7522,14.73 42.3622,14.12 42.3622,13.37 C42.3622,12.62 41.7522,12.01 41.0022,12.01 M36.7722,41.39 C36.6222,40.96 36.1522,40.74 35.7322,40.89 C35.3122,41.04 35.0822,41.51 35.2322,41.93 C35.3822,42.36 35.8522,42.58 36.2722,42.43 C36.7022,42.28 36.9222,41.81 36.7722,41.39 M36.5122,47.67 C35.9822,47.67 35.5522,48.1 35.5522,48.63 C35.5522,49.16 35.9822,49.59 36.5122,49.59 C37.0422,49.59 37.4722,49.16 37.4722,48.63 C37.4722,48.1 37.0422,47.67 36.5122,47.67 M36.0722,34.15 C35.7722,33.83 35.2722,33.82 34.9522,34.12 C34.6322,34.42 34.6222,34.92 34.9222,35.24 C35.2222,35.56 35.7222,35.57 36.0422,35.27 C36.3622,34.97 36.3722,34.47 36.0722,34.15 M35.3722,26.91 C34.9222,26.7 34.3822,26.9 34.1722,27.35 C33.9522,27.8 34.1522,28.34 34.6022,28.55 C35.0522,28.76 35.5922,28.57 35.8022,28.11 C36.0122,27.66 35.8222,27.13 35.3722,26.91 M34.6622,19.68 C34.0622,19.57 33.4922,19.97 33.3822,20.57 C33.2822,21.17 33.6822,21.75 34.2822,21.85 C34.8822,21.96 35.4622,21.56 35.5622,20.96 C35.6722,20.36 35.2722,19.78 34.6622,19.68 M33.9622,12.44 C33.2122,12.44 32.6022,13.05 32.6022,13.8 C32.6022,14.55 33.2122,15.16 33.9622,15.16 C34.7222,15.16 35.3322,14.55 35.3322,13.8 C35.3322,13.05 34.7222,12.44 33.9622,12.44 M29.6122,41.84 C29.4622,41.42 28.9922,41.2 28.5722,41.35 C28.1422,41.5 27.9222,41.96 28.0722,42.39 C28.2222,42.81 28.6922,43.03 29.1122,42.88 C29.5422,42.73 29.7622,42.27 29.6122,41.84 M29.3522,48.12 C28.8222,48.12 28.3922,48.55 28.3922,49.08 C28.3922,49.61 28.8222,50.04 29.3522,50.04 C29.8822,50.04 30.3122,49.61 30.3122,49.08 C30.3122,48.55 29.8822,48.12 29.3522,48.12 M28.9122,34.61 C28.6122,34.29 28.1022,34.27 27.7922,34.57 C27.4722,34.87 27.4522,35.38 27.7622,35.69 C28.0622,36.01 28.5622,36.03 28.8822,35.73 C29.1922,35.43 29.2122,34.92 28.9122,34.61 M28.2122,27.37 C27.7522,27.16 27.2222,27.35 27.0022,27.8 C26.7922,28.25 26.9922,28.79 27.4422,29 C27.8922,29.21 28.4322,29.02 28.6422,28.57 C28.8522,28.12 28.6622,27.58 28.2122,27.37 M27.5022,20.13 C26.9022,20.02 26.3322,20.43 26.2222,21.03 C26.1222,21.63 26.5222,22.2 27.1222,22.31 C27.7222,22.41 28.3022,22.01 28.4022,21.41 C28.5122,20.81 28.1122,20.24 27.5022,20.13 M26.8022,12.89 C26.0522,12.89 25.4422,13.5 25.4422,14.25 C25.4422,15.01 26.0522,15.62 26.8022,15.62 C27.5522,15.62 28.1622,15.01 28.1622,14.25 C28.1622,13.5 27.5522,12.89 26.8022,12.89 M22.5322,42.3 C22.3722,41.87 21.9122,41.65 21.4822,41.8 C21.0622,41.95 20.8422,42.42 20.9922,42.84 C21.1422,43.27 21.6122,43.49 22.0322,43.34 C22.4522,43.19 22.6822,42.72 22.5322,42.3 M22.2722,48.57 C21.7422,48.57 21.3122,49 21.3122,49.53 C21.3122,50.07 21.7422,50.49 22.2722,50.49 C22.8022,50.49 23.2322,50.07 23.2322,49.53 C23.2322,49 22.8022,48.57 22.2722,48.57 M21.8222,35.06 C21.5222,34.74 21.0222,34.73 20.7022,35.03 C20.3822,35.33 20.3722,35.83 20.6722,36.15 C20.9722,36.47 21.4722,36.48 21.7922,36.18 C22.1122,35.88 22.1222,35.38 21.8222,35.06 M21.1222,27.82 C20.6722,27.61 20.1322,27.8 19.9222,28.25 C19.7122,28.71 19.9022,29.24 20.3522,29.46 C20.8022,29.67 21.3422,29.47 21.5522,29.02 C21.7722,28.57 21.5722,28.03 21.1222,27.82 M20.4222,20.58 C19.8222,20.48 19.2422,20.88 19.1422,21.48 C19.0322,22.08 19.4322,22.66 20.0422,22.76 C20.6422,22.87 21.2122,22.47 21.3222,21.87 C21.4222,21.26 21.0222,20.69 20.4222,20.58 M2.6922,15.43 C0.6822,19.24 -0.2378,23.54 0.0522,27.89 L2.7322,67.62 C2.8222,68.97 3.6022,70.17 4.7622,70.81 C3.6822,70.08 4.0122,68.32 5.3822,68.1 C5.5722,68.07 5.7522,68.02 5.9322,67.95 C5.8122,67.8 5.7422,67.62 5.7322,67.42 L3.0522,27.69 C2.7922,23.9 3.6022,20.15 5.3522,16.82 C5.5722,16.39 5.8122,15.97 6.0722,15.56 L6.0622,15.25 C6.0422,15.08 6.0522,14.91 6.1022,14.74 C6.7722,12.06 8.0022,9.57 9.7122,7.42 C9.7522,7.37 9.8022,7.31 9.8522,7.26 C6.8522,9.38 4.4022,12.18 2.6922,15.43 M47.8722,11.78 C47.1222,11.78 46.5122,12.39 46.5122,13.14 C46.5122,13.9 47.1222,14.51 47.8722,14.51 C48.6322,14.51 49.2422,13.9 49.2422,13.14 C49.2422,12.39 48.6322,11.78 47.8722,11.78 M48.5822,19.02 C47.9722,18.91 47.4022,19.32 47.2922,19.92 C47.1922,20.52 47.5922,21.09 48.1922,21.2 C48.7922,21.31 49.3722,20.9 49.4722,20.3 C49.5822,19.7 49.1822,19.13 48.5822,19.02 M49.2822,26.26 C48.8322,26.05 48.2922,26.24 48.0822,26.69 C47.8622,27.14 48.0622,27.68 48.5122,27.89 C48.9622,28.1 49.5022,27.91 49.7122,27.46 C49.9222,27.01 49.7322,26.47 49.2822,26.26 M49.9822,33.5 C49.6822,33.18 49.1822,33.16 48.8622,33.46 C48.5422,33.77 48.5322,34.27 48.8322,34.59 C49.1322,34.9 49.6322,34.92 49.9522,34.62 C50.2722,34.32 50.2822,33.81 49.9822,33.5 M50.6822,40.73 C50.5322,40.31 50.0622,40.09 49.6422,40.24 C49.2222,40.39 48.9922,40.85 49.1422,41.28 C49.2922,41.7 49.7622,41.92 50.1822,41.77 C50.6122,41.62 50.8322,41.16 50.6822,40.73 M50.4222,47.01 C49.8922,47.01 49.4622,47.44 49.4622,47.97 C49.4622,48.5 49.8922,48.93 50.4222,48.93 C50.9522,48.93 51.3822,48.5 51.3822,47.97 C51.3822,47.44 50.9522,47.01 50.4222,47.01 M41.0022,12.01 C40.2522,12.01 39.6422,12.62 39.6422,13.37 C39.6422,14.12 40.2522,14.73 41.0022,14.73 C41.7522,14.73 42.3622,14.12 42.3622,13.37 C42.3622,12.62 41.7522,12.01 41.0022,12.01 M41.7022,19.25 C41.1022,19.14 40.5322,19.54 40.4222,20.14 C40.3122,20.75 40.7222,21.32 41.3222,21.43 C41.9222,21.53 42.4922,21.13 42.6022,20.53 C42.7022,19.93 42.3022,19.35 41.7022,19.25 M42.4022,26.49 C41.9522,26.27 41.4122,26.47 41.2022,26.92 C40.9922,27.37 41.1822,27.91 41.6322,28.12 C42.0922,28.33 42.6222,28.14 42.8422,27.69 C43.0522,27.24 42.8522,26.7 42.4022,26.49 M43.1022,33.72 C42.8022,33.4 42.3022,33.39 41.9822,33.69 C41.6722,33.99 41.6522,34.49 41.9522,34.81 C42.2522,35.13 42.7622,35.14 43.0722,34.84 C43.3922,34.54 43.4122,34.04 43.1022,33.72 M43.8122,40.96 C43.6622,40.54 43.1922,40.31 42.7722,40.47 C42.3422,40.62 42.1222,41.08 42.2722,41.51 C42.4222,41.93 42.8922,42.15 43.3122,42 C43.7422,41.85 43.9622,41.39 43.8122,40.96 M43.5522,47.24 C43.0222,47.24 42.5922,47.67 42.5922,48.2 C42.5922,48.73 43.0222,49.16 43.5522,49.16 C44.0822,49.16 44.5122,48.73 44.5122,48.2 C44.5122,47.67 44.0822,47.24 43.5522,47.24 M33.9622,12.44 C33.2122,12.44 32.6022,13.05 32.6022,13.8 C32.6022,14.55 33.2122,15.16 33.9622,15.16 C34.7222,15.16 35.3322,14.55 35.3322,13.8 C35.3322,13.05 34.7222,12.44 33.9622,12.44 M34.6622,19.68 C34.0622,19.57 33.4922,19.97 33.3822,20.57 C33.2822,21.17 33.6822,21.75 34.2822,21.85 C34.8822,21.96 35.4622,21.56 35.5622,20.96 C35.6722,20.36 35.2722,19.78 34.6622,19.68 M35.3722,26.91 C34.9222,26.7 34.3822,26.9 34.1722,27.35 C33.9522,27.8 34.1522,28.34 34.6022,28.55 C35.0522,28.76 35.5922,28.57 35.8022,28.11 C36.0122,27.66 35.8222,27.13 35.3722,26.91 M36.0722,34.15 C35.7722,33.83 35.2722,33.82 34.9522,34.12 C34.6322,34.42 34.6222,34.92 34.9222,35.24 C35.2222,35.56 35.7222,35.57 36.0422,35.27 C36.3622,34.97 36.3722,34.47 36.0722,34.15 M36.7722,41.39 C36.6222,40.96 36.1522,40.74 35.7322,40.89 C35.3122,41.04 35.0822,41.51 35.2322,41.93 C35.3822,42.36 35.8522,42.58 36.2722,42.43 C36.7022,42.28 36.9222,41.81 36.7722,41.39 M36.5122,47.67 C35.9822,47.67 35.5522,48.1 35.5522,48.63 C35.5522,49.16 35.9822,49.59 36.5122,49.59 C37.0422,49.59 37.4722,49.16 37.4722,48.63 C37.4722,48.1 37.0422,47.67 36.5122,47.67 M26.8022,12.89 C26.0522,12.89 25.4422,13.5 25.4422,14.25 C25.4422,15.01 26.0522,15.62 26.8022,15.62 C27.5522,15.62 28.1622,15.01 28.1622,14.25 C28.1622,13.5 27.5522,12.89 26.8022,12.89 M27.5022,20.13 C26.9022,20.02 26.3322,20.43 26.2222,21.03 C26.1222,21.63 26.5222,22.2 27.1222,22.31 C27.7222,22.41 28.3022,22.01 28.4022,21.41 C28.5122,20.81 28.1122,20.24 27.5022,20.13 M28.2122,27.37 C27.7522,27.16 27.2222,27.35 27.0022,27.8 C26.7922,28.25 26.9922,28.79 27.4422,29 C27.8922,29.21 28.4322,29.02 28.6422,28.57 C28.8522,28.12 28.6622,27.58 28.2122,27.37 M28.9122,34.61 C28.6122,34.29 28.1022,34.27 27.7922,34.57 C27.4722,34.87 27.4522,35.38 27.7622,35.69 C28.0622,36.01 28.5622,36.03 28.8822,35.73 C29.1922,35.43 29.2122,34.92 28.9122,34.61 M29.6122,41.84 C29.4622,41.42 28.9922,41.2 28.5722,41.35 C28.1422,41.5 27.9222,41.96 28.0722,42.39 C28.2222,42.81 28.6922,43.03 29.1122,42.88 C29.5422,42.73 29.7622,42.27 29.6122,41.84 M29.3522,48.12 C28.8222,48.12 28.3922,48.55 28.3922,49.08 C28.3922,49.61 28.8222,50.04 29.3522,50.04 C29.8822,50.04 30.3122,49.61 30.3122,49.08 C30.3122,48.55 29.8822,48.12 29.3522,48.12 M20.4222,20.58 C19.8222,20.48 19.2422,20.88 19.1422,21.48 C19.0322,22.08 19.4322,22.66 20.0422,22.76 C20.6422,22.87 21.2122,22.47 21.3222,21.87 C21.4222,21.26 21.0222,20.69 20.4222,20.58 M21.1222,27.82 C20.6722,27.61 20.1322,27.8 19.9222,28.25 C19.7122,28.71 19.9022,29.24 20.3522,29.46 C20.8022,29.67 21.3422,29.47 21.5522,29.02 C21.7722,28.57 21.5722,28.03 21.1222,27.82 M21.8222,35.06 C21.5222,34.74 21.0222,34.73 20.7022,35.03 C20.3822,35.33 20.3722,35.83 20.6722,36.15 C20.9722,36.47 21.4722,36.48 21.7922,36.18 C22.1122,35.88 22.1222,35.38 21.8222,35.06 M22.5322,42.3 C22.3722,41.87 21.9122,41.65 21.4822,41.8 C21.0622,41.95 20.8422,42.42 20.9922,42.84 C21.1422,43.27 21.6122,43.49 22.0322,43.34 C22.4522,43.19 22.6822,42.72 22.5322,42.3 M22.2722,48.57 C21.7422,48.57 21.3122,49 21.3122,49.53 C21.3122,50.07 21.7422,50.49 22.2722,50.49 C22.8022,50.49 23.2322,50.07 23.2322,49.53 C23.2322,49 22.8022,48.57 22.2722,48.57 M72.2323,62.95 L17.9223,68.67 C19.0323,67.14 19.6223,65.24 19.5023,63.26 L16.8223,18.84 C17.0923,13.55 21.4923,9.41 26.7923,9.46 L60.5923,9.78 C64.7623,9.82 68.2423,12.98 68.6723,17.12 L73.3723,62.73 C73.0023,62.84 72.6223,62.91 72.2323,62.95 M81.8323,54.57 L78.5023,19.62 C77.4523,8.56 68.1623,0.12 57.0523,0.12 L24.8323,0.12 C18.9723,0.12 13.5423,2.75 9.8523,7.26 C9.8023,7.31 9.7523,7.37 9.7123,7.42 C8.0023,9.57 6.7723,12.06 6.1023,14.74 C6.0523,14.91 6.0423,15.08 6.0623,15.25 L6.0723,15.56 L7.8223,65.11 C7.8423,65.73 7.6723,66.32 7.3423,66.83 C7.2523,66.96 7.1623,67.08 7.0523,67.19 C6.9523,67.3 6.8423,67.41 6.7323,67.5 C6.7123,67.51 6.6923,67.53 6.6623,67.55 C6.5723,67.62 6.4823,67.68 6.3823,67.73 C6.3623,67.75 6.3423,67.76 6.3123,67.77 C6.2023,67.84 6.0823,67.89 5.9623,67.94 C5.9523,67.95 5.9423,67.95 5.9323,67.95 C5.7523,68.02 5.5723,68.07 5.3823,68.1 C4.0123,68.32 3.6823,70.08 4.7623,70.81 C4.8223,70.86 4.8923,70.89 4.9623,70.93 C5.4023,71.14 5.8723,71.27 6.3723,71.31 L12.9223,71.87 L14.5923,72 C14.8623,72 15.1023,71.98 15.3423,71.96 L72.5423,65.93 C78.2323,65.33 82.3823,60.27 81.8323,54.57" id="Combined-Shape"></path>
            </g>
            <g id="Group-6" transform="translate(4.000000, 0.880000)"></g>
        </g>
    </g>
</svg>