<?xml version="1.0" encoding="UTF-8"?>
<svg width="88px" height="88px" viewBox="0 0 88 88" version="1.1" xmlns="http://www.w3.org/2000/svg" xmlns:xlink="http://www.w3.org/1999/xlink">
    <!-- Generator: Sketch 51 (57462) - http://www.bohemiancoding.com/sketch -->
    <title>Device2/devices_icon_remote3_s </title>
    <desc>Created with Sketch.</desc>
    <defs>
        <linearGradient x1="112.960737%" y1="-19.1113281%" x2="-16.6566506%" y2="116.977539%" id="linearGradient-1">
            <stop stop-color="#8AADEC" offset="0%"></stop>
            <stop stop-color="#1E50A0" offset="100%"></stop>
        </linearGradient>
    </defs>
    <g id="Device2/devices_icon_remote3_s-" stroke="none" stroke-width="1" fill="none" fill-rule="evenodd">
        <path d="M55,33 L55,42 L35,42 L35,33 L55,33 Z M55,30 L35,30 L35,29.7997358 C35,26.5964842 37.5967485,23.9997358 40.8,23.9997358 L49.2,23.9997358 C52.4032515,23.9997358 55,26.5964842 55,29.7997358 L55,30 Z M55,45 L55,55 L35,55 L35,45 L55,45 Z M55,58 L55,58.1997358 C55,61.4029873 52.4032515,63.9997358 49.2,63.9997358 L40.8,63.9997358 C37.5967485,63.9997358 35,61.4029873 35,58.1997358 L35,58 L55,58 Z M45,3 C58.18214,3 69.0354564,13.362953 69.6444785,26.5310169 C69.8898823,31.8374958 70.0083963,37.2700137 70,42.8285714 C69.9904968,49.2233188 69.8353573,55.4928168 69.5345816,61.6370656 C68.8941007,74.7208239 58.0994254,85 45,85 C31.8948675,85 21.0952033,74.7169133 20.4533747,61.6275072 C20.1511205,55.4636281 20,49.197316 20,42.8285714 C20,37.3899043 20.1381898,31.9090231 20.4145693,26.3859277 C21.0701239,13.2853683 31.8830488,3 45,3 Z M40.8,20.9997358 C35.9398942,20.9997358 32,24.93963 32,29.7997358 L32,58.1997358 C32,63.0598416 35.9398942,66.9997358 40.8,66.9997358 L49.2,66.9997358 C54.0601058,66.9997358 58,63.0598416 58,58.1997358 L58,29.7997358 C58,24.93963 54.0601058,20.9997358 49.2,20.9997358 L40.8,20.9997358 Z" id="Combined-Shape" fill="url(#linearGradient-1)"></path>
    </g>
</svg>