<?xml version="1.0" encoding="UTF-8"?>
<svg width="88px" height="88px" viewBox="0 0 88 88" version="1.1" xmlns="http://www.w3.org/2000/svg" xmlns:xlink="http://www.w3.org/1999/xlink">
    <!-- Generator: Sketch 51 (57462) - http://www.bohemiancoding.com/sketch -->
    <title>Device2/devices_icon_fan2_s</title>
    <desc>Created with Sketch.</desc>
    <defs></defs>
    <g id="Device2/devices_icon_fan2_s" stroke="none" stroke-width="1" fill="none" fill-rule="evenodd">
        <path d="M44,84 C21.90861,84 4,66.09139 4,44 C4,21.90861 21.90861,4 44,4 C66.09139,4 84,21.90861 84,44 C84,66.09139 66.09139,84 44,84 Z M28,36.3571429 L61.1428571,36.3571429 C61.9712843,36.3571429 62.6428571,35.68557 62.6428571,34.8571429 C62.6428571,34.0287157 61.9712843,33.3571429 61.1428571,33.3571429 L28,33.3571429 C27.1715729,33.3571429 26.5,34.0287157 26.5,34.8571429 C26.5,35.68557 27.1715729,36.3571429 28,36.3571429 Z M35.4190539,29.5 L52.5780722,29.5 C53.4064993,29.5 54.0780722,28.8284271 54.0780722,28 C54.0780722,27.1715729 53.4064993,26.5 52.5780722,26.5 L35.4190539,26.5 C34.5906268,26.5 33.9190539,27.1715729 33.9190539,28 C33.9190539,28.8284271 34.5906268,29.5 35.4190539,29.5 Z M35.4190539,63.7857143 L52.5780722,63.7857143 C53.4064993,63.7857143 54.0780722,63.1141414 54.0780722,62.2857143 C54.0780722,61.4572872 53.4064993,60.7857143 52.5780722,60.7857143 L35.4190539,60.7857143 C34.5906268,60.7857143 33.9190539,61.4572872 33.9190539,62.2857143 C33.9190539,63.1141414 34.5906268,63.7857143 35.4190539,63.7857143 Z M22.2857143,43.2142857 L65.7142857,43.2142857 C66.5427128,43.2142857 67.2142857,42.5427128 67.2142857,41.7142857 C67.2142857,40.8858586 66.5427128,40.2142857 65.7142857,40.2142857 L22.2857143,40.2142857 C21.4572872,40.2142857 20.7857143,40.8858586 20.7857143,41.7142857 C20.7857143,42.5427128 21.4572872,43.2142857 22.2857143,43.2142857 Z M22.2857143,50.0714286 L65.7142857,50.0714286 C66.5427128,50.0714286 67.2142857,49.3998557 67.2142857,48.5714286 C67.2142857,47.7430014 66.5427128,47.0714286 65.7142857,47.0714286 L22.2857143,47.0714286 C21.4572872,47.0714286 20.7857143,47.7430014 20.7857143,48.5714286 C20.7857143,49.3998557 21.4572872,50.0714286 22.2857143,50.0714286 Z M26.8571429,56.9285714 L61.1428571,56.9285714 C61.9712843,56.9285714 62.6428571,56.2569986 62.6428571,55.4285714 C62.6428571,54.6001443 61.9712843,53.9285714 61.1428571,53.9285714 L26.8571429,53.9285714 C26.0287157,53.9285714 25.3571429,54.6001443 25.3571429,55.4285714 C25.3571429,56.2569986 26.0287157,56.9285714 26.8571429,56.9285714 Z M44,15.4285714 C45.2623651,15.4285714 46.2857143,14.4052223 46.2857143,13.1428571 C46.2857143,11.880492 45.2623651,10.8571429 44,10.8571429 C42.7376349,10.8571429 41.7142857,11.880492 41.7142857,13.1428571 C41.7142857,14.4052223 42.7376349,15.4285714 44,15.4285714 Z M16.5714286,60 C17.8337937,60 18.8571429,58.9766509 18.8571429,57.7142857 C18.8571429,56.4519206 17.8337937,55.4285714 16.5714286,55.4285714 C15.3090634,55.4285714 14.2857143,56.4519206 14.2857143,57.7142857 C14.2857143,58.9766509 15.3090634,60 16.5714286,60 Z M71.4285714,60 C72.6909366,60 73.7142857,58.9766509 73.7142857,57.7142857 C73.7142857,56.4519206 72.6909366,55.4285714 71.4285714,55.4285714 C70.1662063,55.4285714 69.1428571,56.4519206 69.1428571,57.7142857 C69.1428571,58.9766509 70.1662063,60 71.4285714,60 Z" id="Combined-Shape" fill="#999999"></path>
    </g>
</svg>