<?xml version="1.0" encoding="UTF-8"?>
<svg width="88px" height="88px" viewBox="0 0 88 88" version="1.1" xmlns="http://www.w3.org/2000/svg" xmlns:xlink="http://www.w3.org/1999/xlink">
    <!-- Generator: Sketch 51 (57462) - http://www.bohemiancoding.com/sketch -->
    <title>Device2/devices_icon_curtain3_s </title>
    <desc>Created with Sketch.</desc>
    <defs>
        <linearGradient x1="112.960737%" y1="-19.1113281%" x2="-16.6566506%" y2="116.977539%" id="linearGradient-1">
            <stop stop-color="#8AADEC" offset="0%"></stop>
            <stop stop-color="#1E50A0" offset="100%"></stop>
        </linearGradient>
    </defs>
    <g id="Device2/devices_icon_curtain3_s-" stroke="none" stroke-width="1" fill="none" fill-rule="evenodd">
        <path d="M77,11 L52,11 L52,76 C52,78.209139 50.209139,80 48,80 L10,80 C7.790861,80 6,78.209139 6,76 L6,11 L2.5,11 C1.672,11 1,10.328 1,9.5 C1,8.672 1.672,8 2.5,8 L85.5,8 C86.328,8 87,8.672 87,9.5 C87,10.328 86.328,11 85.5,11 L81,11 L81,78 C81,79.1045695 80.1045695,80 79,80 C77.8954305,80 77,79.1045695 77,78 L77,11 Z" id="Combined-Shape" fill="url(#linearGradient-1)"></path>
    </g>
</svg>