<?xml version="1.0" encoding="UTF-8"?>
<svg width="88px" height="88px" viewBox="0 0 88 88" version="1.1" xmlns="http://www.w3.org/2000/svg" xmlns:xlink="http://www.w3.org/1999/xlink">
    <!-- Generator: Sketch 51 (57462) - http://www.bohemiancoding.com/sketch -->
    <title>Device2/devices_icon_c064_remote_s</title>
    <desc>Created with Sketch.</desc>
    <defs></defs>
    <g id="Device2/devices_icon_c064_remote_s" stroke="none" stroke-width="1" fill="none" fill-rule="evenodd">
        <path d="M63.0251,52.5 L25.0001,52.5 L25.0001,6.31075294 C25.0001,2.83236877 27.7937203,0.00588235294 31.2491,0.00588235294 L56.7761,0.00588235294 C60.2307756,0.00588235294 63.0251,2.83266996 63.0251,6.31075294 L63.0251,52.5 Z M63.0251,53.5 L63.0251,81.6892471 C63.0251,85.16733 60.2307756,87.9941176 56.7761,87.9941176 L31.2491,87.9941176 C27.7937203,87.9941176 25.0001,85.1676312 25.0001,81.6892471 L25.0001,53.5 L63.0251,53.5 Z M31.1478,5.97211529 C30.6088,5.97211529 30.1718,6.41425647 30.1718,6.95959765 L30.1718,10.1668918 C30.1718,10.7122329 30.6088,11.1543741 31.1478,11.1543741 L34.3188,11.1543741 C34.8578,11.1543741 35.2938,10.7122329 35.2938,10.1668918 L35.2938,6.95959765 C35.2938,6.41425647 34.8578,5.97211529 34.3188,5.97211529 L31.1478,5.97211529 Z M44,36 C50.0751322,36 55,31.0751322 55,25 C55,18.9248678 50.0751322,14 44,14 C37.9248678,14 33,18.9248678 33,25 C33,31.0751322 37.9248678,36 44,36 Z M44,32 C47.8659932,32 51,28.8659932 51,25 C51,21.1340068 47.8659932,18 44,18 C40.1340068,18 37,21.1340068 37,25 C37,28.8659932 40.1340068,32 44,32 Z" id="Combined-Shape" fill="#999999"></path>
    </g>
</svg>