<?xml version="1.0" encoding="UTF-8"?>
<svg width="88px" height="88px" viewBox="0 0 88 88" version="1.1" xmlns="http://www.w3.org/2000/svg" xmlns:xlink="http://www.w3.org/1999/xlink">
    <!-- Generator: Sketch 51 (57462) - http://www.bohemiancoding.com/sketch -->
    <title>Device2/devices_icon_water_leak1_s   </title>
    <desc>Created with Sketch.</desc>
    <defs></defs>
    <g id="Device2/devices_icon_water_leak1_s---" stroke="none" stroke-width="1" fill="none" fill-rule="evenodd">
        <path d="M44.261,86.031 C28.678,86.031 16,73.353 16,57.77 C16,39.606 41.948,4.142 43.053,2.642 L44.261,1 L45.469,2.641 C46.574,4.142 72.523,39.606 72.523,57.77 C72.523,73.353 59.845,86.031 44.261,86.031 M44.261,73.8559 C43.433,73.8559 42.761,73.1839 42.761,72.3559 C42.761,71.5279 43.433,70.8559 44.261,70.8559 C52.266,70.8559 58.778,64.3439 58.778,56.3399 C58.778,55.5119 59.449,54.8399 60.278,54.8399 C61.106,54.8399 61.778,55.5119 61.778,56.3399 C61.778,65.9989 53.919,73.8559 44.261,73.8559" id="Combined-Shape" fill="#999999"></path>
    </g>
</svg>