<?xml version="1.0" encoding="UTF-8"?>
<svg width="88px" height="88px" viewBox="0 0 88 88" version="1.1" xmlns="http://www.w3.org/2000/svg" xmlns:xlink="http://www.w3.org/1999/xlink">
    <!-- Generator: Sketch 51 (57462) - http://www.bohemiancoding.com/sketch -->
    <title>Device2/devices_icon_fan1_s</title>
    <desc>Created with Sketch.</desc>
    <defs></defs>
    <g id="Device2/devices_icon_fan1_s" stroke="none" stroke-width="1" fill="none" fill-rule="evenodd">
        <path d="M70.144,59.133 C69.32,60.545 68.157,61.699 66.772,62.485 C65.478,63.221 64.034,63.578 62.581,63.578 C60.252,63.578 57.901,62.66 56.107,60.91 L47.326,52.321 C50.528,51.16 52.826,48.098 52.826,44.5 C52.826,43.896 52.757,43.309 52.635,42.741 L64.66,46.103 C68.578,47.198 71.33,50.674 71.351,54.553 C71.363,56.142 70.946,57.727 70.144,59.133 Z M39.175,44.5 C39.175,41.559 41.56,39.175 44.5,39.175 C47.441,39.175 49.825,41.559 49.825,44.5 C49.825,47.441 47.441,49.825 44.5,49.825 C41.56,49.825 39.175,47.441 39.175,44.5 Z M32.898,60.908 C31.102,62.661 28.75,63.58 26.422,63.58 C24.967,63.58 23.522,63.222 22.228,62.483 C20.845,61.698 19.682,60.544 18.868,59.146 C18.059,57.749 17.64,56.161 17.652,54.551 C17.673,50.674 20.425,47.198 24.344,46.103 L36.367,42.739 C36.244,43.307 36.175,43.896 36.175,44.5 C36.175,48.096 38.471,51.157 41.67,52.319 L32.898,60.908 Z M39.928,15.974 C42.7,14.351 46.316,14.36 49.074,15.973 C52.429,17.939 54.063,22.061 53.048,25.998 L49.926,38.199 C48.467,36.941 46.573,36.175 44.5,36.175 C42.428,36.175 40.535,36.941 39.077,38.197 L35.954,25.996 C34.941,22.061 36.576,17.939 39.928,15.974 Z M44.5,4 C22.168,4 4,22.168 4,44.5 C4,66.832 22.168,85 44.5,85 C66.832,85 85,66.832 85,44.5 C85,22.168 66.832,4 44.5,4 Z" id="Fill-1" fill="#999999"></path>
    </g>
</svg>