<?xml version="1.0" encoding="UTF-8"?>
<svg width="88px" height="88px" viewBox="0 0 88 88" version="1.1" xmlns="http://www.w3.org/2000/svg" xmlns:xlink="http://www.w3.org/1999/xlink">
    <!-- Generator: Sketch 51 (57462) - http://www.bohemiancoding.com/sketch -->
    <title>Device2/devices_icon_dehumidifier_s</title>
    <desc>Created with Sketch.</desc>
    <defs>
        <linearGradient x1="112.960737%" y1="-19.1113281%" x2="-16.6566506%" y2="116.977539%" id="linearGradient-1">
            <stop stop-color="#8AADEC" offset="0%"></stop>
            <stop stop-color="#1E50A0" offset="100%"></stop>
        </linearGradient>
    </defs>
    <g id="Device2/devices_icon_dehumidifier_s" stroke="none" stroke-width="1" fill="none" fill-rule="evenodd">
        <path d="M66.2455,5 L20.8895,5 C17.6365,5 15.0005,7.637 15.0005,10.889 L15.0005,66.439 C15.0005,69.692 17.6365,72.329 20.8895,72.329 L66.2455,72.329 C69.4985,72.329 72.1345,69.692 72.1345,66.439 L72.1345,10.889 C72.1345,7.637 69.4985,5 66.2455,5 M66.2455,8 C67.8385,8 69.1345,9.296 69.1345,10.889 L69.1345,66.439 C69.1345,68.032 67.8385,69.329 66.2455,69.329 L20.8895,69.329 C19.2965,69.329 18.0005,68.032 18.0005,66.439 L18.0005,10.889 C18.0005,9.296 19.2965,8 20.8895,8 L66.2455,8 M51.6697,33.878 C50.2367,33.878 49.0737,32.74 49.0737,31.336 C49.0737,29.637 51.6697,26.183 51.6697,26.183 C51.6697,26.183 54.2647,29.637 54.2647,31.336 C54.2647,32.74 53.1027,33.878 51.6697,33.878 M42.9447,53.268 C38.1267,53.268 34.2207,49.442 34.2207,44.722 C34.2207,39.012 42.9447,27.402 42.9447,27.402 C42.9447,27.402 51.6697,39.012 51.6697,44.722 C51.6697,49.442 47.7637,53.268 42.9447,53.268 M60.7667,12.023 L26.3677,12.023 C23.8377,12.023 21.7867,14.074 21.7867,16.604 L21.7867,60.724 C21.7867,63.255 23.8377,65.306 26.3677,65.306 L60.7667,65.306 C63.2967,65.306 65.3477,63.255 65.3477,60.724 L65.3477,16.604 C65.3477,14.074 63.2967,12.023 60.7667,12.023 M42.9449,50.2681 C46.1019,50.2681 48.6699,47.7801 48.6699,44.7221 C48.6699,42.2001 45.8059,36.9441 42.9459,32.6191 C40.0859,36.9471 37.2199,42.2061 37.2199,44.7221 C37.2199,47.7801 39.7879,50.2681 42.9449,50.2681 M69.7397,82.2781 L17.3947,82.2781 C16.5667,82.2781 15.8947,81.6061 15.8947,80.7781 C15.8947,79.9501 16.5667,79.2781 17.3947,79.2781 L69.7397,79.2781 C70.5677,79.2781 71.2397,79.9501 71.2397,80.7781 C71.2397,81.6061 70.5677,82.2781 69.7397,82.2781" id="Combined-Shape" fill="url(#linearGradient-1)"></path>
    </g>
</svg>