<?xml version="1.0" encoding="UTF-8"?>
<svg width="88px" height="88px" viewBox="0 0 88 88" version="1.1" xmlns="http://www.w3.org/2000/svg" xmlns:xlink="http://www.w3.org/1999/xlink">
    <!-- Generator: Sketch 51 (57462) - http://www.bohemiancoding.com/sketch -->
    <title>Device2/devices_icon_plug4_s</title>
    <desc>Created with Sketch.</desc>
    <defs></defs>
    <g id="Device2/devices_icon_plug4_s" stroke="none" stroke-width="1" fill="none" fill-rule="evenodd">
        <g id="Group" transform="translate(4.000000, 4.000000)" fill="#999999">
            <path d="M8,0 L72,0 C76.418278,-8.11624501e-16 80,3.581722 80,8 L80,72 C80,76.418278 76.418278,80 72,80 L8,80 C3.581722,80 5.41083001e-16,76.418278 0,72 L0,8 C-5.41083001e-16,3.581722 3.581722,8.11624501e-16 8,0 Z M40,76.5 C19.8416066,76.5 3.5,60.1583934 3.5,40 C3.5,19.8416066 19.8416066,3.5 40,3.5 C60.1583934,3.5 76.5,19.8416066 76.5,40 C76.5,60.1583934 60.1583934,76.5 40,76.5 Z M40,73.5 C21.4984609,73.5 6.5,58.5015391 6.5,40 C6.5,21.4984609 21.4984609,6.5 40,6.5 C58.5015391,6.5 73.5,21.4984609 73.5,40 C73.5,58.5015391 58.5015391,73.5 40,73.5 Z M59,48 C62.8659932,48 66,44.8659932 66,41 C66,37.1340068 62.8659932,34 59,34 C55.1340068,34 52,37.1340068 52,41 C52,44.8659932 55.1340068,48 59,48 Z M23,48 C26.8659932,48 30,44.8659932 30,41 C30,37.1340068 26.8659932,34 23,34 C19.1340068,34 16,37.1340068 16,41 C16,44.8659932 19.1340068,48 23,48 Z" id="Combined-Shape"></path>
        </g>
    </g>
</svg>