<?xml version="1.0" encoding="UTF-8"?>
<svg width="88px" height="88px" viewBox="0 0 88 88" version="1.1" xmlns="http://www.w3.org/2000/svg" xmlns:xlink="http://www.w3.org/1999/xlink">
    <!-- Generator: Sketch 51 (57462) - http://www.bohemiancoding.com/sketch -->
    <title>Device2/devices_icon_lighting9_s</title>
    <desc>Created with Sketch.</desc>
    <defs>
        <linearGradient x1="112.960737%" y1="-19.1113281%" x2="-16.6566506%" y2="116.977539%" id="linearGradient-1">
            <stop stop-color="#8AADEC" offset="0%"></stop>
            <stop stop-color="#1E50A0" offset="100%"></stop>
        </linearGradient>
    </defs>
    <g id="Device2/devices_icon_lighting9_s" stroke="none" stroke-width="1" fill="none" fill-rule="evenodd">
        <path d="M53.21398,61.4814815 L34.7615906,61.4814815 C30.3884473,56.0890941 27.5242889,51.1819298 26.2540046,46.4814815 L61.7291612,46.4814815 C60.4500362,51.1297655 57.5883334,56.033743 53.21398,61.4814815 Z M51.5614057,63.4814815 C51.5599554,63.4831902 51.5585049,63.4848991 51.5570543,63.4866079 C51.550621,64.5540347 51.5345031,67.0095811 51.5345031,67.4379394 C51.5345031,67.9742428 49.7346277,68.2281007 49.7346277,68.4247834 C49.7346277,68.6214661 49.7346277,81.8884006 49.7346277,82.258896 C49.7009277,82.4764404 48.9908447,82.9501953 48.5230713,83.4814453 C47.8742676,84.1157787 46.5522558,85.4961561 46.4550579,85.5876364 C46.4550579,85.5876364 45.3813076,86.1536709 43.7746843,86.1536709 C42.1680611,86.1536709 41.6166992,85.5876364 41.6166992,85.5876364 C41.5377974,85.5064476 39.2395471,83.4561447 39.1069006,83.2937672 C38.9742541,83.1325331 38.3178828,82.7803338 38.3178828,82.5550635 C38.3178828,81.5533539 38.2857365,68.2815702 38.3178828,68.4247834 C38.3178828,67.9811038 36,67.7764166 36,67.4139258 L36,63.4814815 L51.5614057,63.4814815 Z M62.1843379,44.4814815 L25.8078897,44.4814815 C25.603081,43.3118905 25.5,42.1528767 25.5,41 C25.5,22.9496295 34.2034162,1.5 44,1.5 C53.7236037,1.5 62.5,23.3478126 62.5,41 C62.5,42.1496815 62.3943879,43.308563 62.1843379,44.4814815 Z" id="Combined-Shape" fill="url(#linearGradient-1)"></path>
    </g>
</svg>