<?xml version="1.0" encoding="UTF-8"?>
<svg width="88px" height="88px" viewBox="0 0 88 88" version="1.1" xmlns="http://www.w3.org/2000/svg" xmlns:xlink="http://www.w3.org/1999/xlink">
    <!-- Generator: Sketch 51 (57462) - http://www.bohemiancoding.com/sketch -->
    <title>Device2/devices_icon_TRV_s</title>
    <desc>Created with Sketch.</desc>
    <defs>
        <linearGradient x1="112.960737%" y1="-19.1113281%" x2="-16.6566506%" y2="116.977539%" id="linearGradient-1">
            <stop stop-color="#8AADEC" offset="0%"></stop>
            <stop stop-color="#1E50A0" offset="100%"></stop>
        </linearGradient>
    </defs>
    <g id="Device2/devices_icon_TRV_s" stroke="none" stroke-width="1" fill="none" fill-rule="evenodd">
        <path d="M19,61.6216493 L19,63.4467326 C19,65.3000959 21.4706,65.9559676 27.0312131,66.5812967 C28.4251765,66.7380815 29.9713204,66.8735996 31.6330213,66.985815 L31.6330213,68.4109048 C31.6330213,70.1457181 33.4068671,70.8434442 36.9948216,71.4395883 C37.2300302,71.4787279 37.4429463,71.5147002 37.6408491,71.5486363 L37.6408491,69.5341896 C37.6408491,68.6828461 38.3346461,67.9928121 39.1906325,67.9928121 C40.0463914,67.9928121 40.740416,68.6828461 40.740416,69.5341896 L40.740416,71.9447837 C41.4339856,71.9753261 42.3359218,71.9834708 43.7503579,71.9834708 C45.9034036,71.9834708 47.0378187,71.9642403 48.0459855,71.8769115 L48.0459855,69.5341896 C48.0459855,68.6828461 48.7400101,67.9928121 49.595769,67.9928121 C50.4515279,67.9928121 51.1455524,68.6828461 51.1455524,69.5341896 L51.1455524,71.433706 C54.7084848,70.8389194 56.4716393,70.1398358 56.4716393,68.4109048 L56.4716393,66.9523314 C57.9543178,66.8469032 59.3430493,66.7231496 60.6039402,66.5812967 C66.1645532,65.9559676 68.6351533,65.3000959 68.6351533,63.4467326 L68.6351533,26.6726734 C67.4477366,27.1923482 66.0310257,27.8353241 64.4239187,28.6068047 C59.750911,30.8499806 52.4721834,34.6648504 44.333375,40.0998294 C33.1996378,47.5347756 23.4744225,57.0092813 19,61.6216493 Z M44.5334856,15.5511835 C44.5334856,15.0509927 43.908965,14.6454782 43.1386363,14.6454782 C42.3683077,14.6454782 41.7437871,15.0509927 41.7437871,15.5511835 L41.7437871,21.9609791 C41.7437871,22.4611699 42.3683077,22.8666844 43.1386363,22.8666844 C43.908965,22.8666844 44.5334856,22.4611699 44.5334856,21.9609791 L44.5334856,15.5511835 Z M39.59772,15.6705199 C39.59772,15.1044236 38.9731994,14.6454782 38.2028708,14.6454782 C37.4325422,14.6454782 36.8080216,15.1044236 36.8080216,15.6705199 L36.8080216,24.9749583 C36.8080216,25.5410546 37.4325422,26 38.2028708,26 C38.9731994,26 39.59772,25.5410546 39.59772,24.9749583 L39.59772,15.6705199 Z M34.4472534,15.6788399 C34.4472534,15.1081488 33.8227328,14.6454782 33.0524042,14.6454782 C32.2820755,14.6454782 31.6575549,15.1081488 31.6575549,15.6788399 L31.6575549,26.9666383 C31.6575549,27.5373294 32.2820755,28 33.0524042,28 C33.8227328,28 34.4472534,27.5373294 34.4472534,26.9666383 L34.4472534,15.6788399 Z M29.2970227,15.7704613 C29.2970227,15.1491707 28.6725021,14.6454782 27.9021735,14.6454782 C27.1318448,14.6454782 26.5073242,15.1491707 26.5073242,15.7704613 L26.5073242,29.9629075 C26.5073242,30.5841981 27.1318448,31.0878906 27.9021735,31.0878906 C28.6725021,31.0878906 29.2970227,30.5841981 29.2970227,29.9629075 L29.2970227,15.7704613 Z M19.0535735,9.1503132 C19.3848404,6.79487538 21.2227206,4.87895619 23.6448009,4.48775847 C29.667187,3.52487829 36.9008747,3 44.4998863,3 C52.0957132,3 59.3344053,3.52510453 65.3572464,4.48798471 C67.7761263,4.87872439 69.6133579,6.79294632 69.9459413,9.1466514 C69.9639859,9.14892166 69.9820055,9.1511946 70,9.1534702 L70,22.4507804 C68.6403852,23.03516 66.9256828,23.8036994 64.9116239,24.7699732 C60.0507223,27.1020618 52.4794626,31.0682865 44.0155932,36.7204565 C33.438486,43.7836894 24.0854189,52.6154454 19,57.7461307 L19,9.15709005 C19.0178331,9.15482847 19.035691,9.15256952 19.0535735,9.1503132 Z M59.991124,73.3615026 L59.991124,80.9880747 C59.991124,81.1803792 59.7279361,81.879689 59.2140713,82.1805891 C57.346961,83.2749151 52.1698699,85 44.2953867,85 C36.6213086,85 31.1339423,83.1936947 29.2834376,82.0959751 C28.8344031,81.8296899 28.5996494,81.16228 28.5996494,80.9880747 L28.5996494,73.3615026 C28.5996494,72.5764475 29.19586,71.8565498 29.8223246,72.0619763 C31.8702771,72.7334585 37.0510078,74.4700817 44.2953867,74.4700817 C51.5395382,74.4700817 57.0173505,72.9610566 58.7682214,72.0619763 C59.3578352,71.7590401 59.991124,72.5764475 59.991124,73.3615026 Z" id="Fill-1" fill="url(#linearGradient-1)"></path>
    </g>
</svg>