<?xml version="1.0" encoding="UTF-8"?>
<svg width="88px" height="88px" viewBox="0 0 88 88" version="1.1" xmlns="http://www.w3.org/2000/svg" xmlns:xlink="http://www.w3.org/1999/xlink">
    <!-- Generator: Sketch 51 (57462) - http://www.bohemiancoding.com/sketch -->
    <title>Device2/devices_icon_air_cleaner_s</title>
    <desc>Created with Sketch.</desc>
    <defs>
        <linearGradient x1="112.960737%" y1="-19.1113281%" x2="-16.6566506%" y2="116.977539%" id="linearGradient-1">
            <stop stop-color="#8AADEC" offset="0%"></stop>
            <stop stop-color="#1E50A0" offset="100%"></stop>
        </linearGradient>
    </defs>
    <g id="Device2/devices_icon_air_cleaner_s" stroke="none" stroke-width="1" fill="none" fill-rule="evenodd">
        <path d="M43.47,19.78 C31.54,19.78 22,15.88 22,11.89 C22,7.9 31.54,4 43.47,4 C55.4,4 64.94,7.9 64.94,11.89 C64.94,15.88 55.4,19.78 43.47,19.78 M67.94,46.2705232 C67.8020813,46.4255272 67.649841,46.5827368 67.482782,46.7420892 C63.6562959,50.3920577 54.4345909,53 44,53 C33.4018663,53 24.0666794,50.3072372 20.3638218,46.592069 C19.4168667,45.6419655 19,44.7768777 19,44 L19,11.89 C19,5.51 30.03,1 43.47,1 C56.91,1 67.94,5.51 67.94,11.89 L67.94,46.2705232 Z M67.94,50.2269104 L67.94,78.76 C67.94,83.9 57.03,87.18 43.47,87.18 C29.91,87.18 19,83.9 19,78.76 L19,49.4098243 C23.6153434,53.3195849 33.0772865,56 44,56 C54.1438625,56 63.0278495,53.6882138 67.94,50.2269104 Z M56.7332771,11.8885252 C56.7332771,11.6123828 56.9571348,11.3885252 57.2332771,11.3885252 C57.5094195,11.3885252 57.7332771,11.6123828 57.7332771,11.8885252 C57.7332771,13.4587028 56.4623397,14.8641182 54.256112,15.9436454 C54.0080712,16.0650141 53.7086056,15.9623259 53.587237,15.7142851 C53.4658683,15.4662442 53.5685564,15.1667787 53.8165973,15.04541 C55.71688,14.1155844 56.7332771,12.9916423 56.7332771,11.8885252 Z M49.1779368,16.5018328 C49.4492074,16.4501909 49.7109797,16.6282352 49.7626215,16.8995057 C49.8142634,17.1707763 49.6362192,17.4325486 49.3649486,17.4841904 C47.7837256,17.7852084 46.0757435,17.963079 44.3100276,18.0060832 C44.0339671,18.0128067 43.8047253,17.7944659 43.7980018,17.5184054 C43.7912783,17.2423449 44.0096191,17.0131032 44.2856797,17.0063797 C45.9975912,16.9646859 47.651205,16.7924772 49.1779368,16.5018328 Z M39.3494326,16.7562212 C39.6232647,16.7918667 39.8163531,17.0427478 39.7807076,17.3165799 C39.7450621,17.590412 39.494181,17.7835004 39.2203489,17.7478549 C37.3887519,17.5094309 35.6974553,17.117981 34.2447456,16.5991516 C33.984691,16.5062741 33.8491671,16.2201661 33.9420446,15.9601116 C34.034922,15.700057 34.32103,15.5645331 34.5810846,15.6574106 C35.9636984,16.1512056 37.5858396,16.5266495 39.3494326,16.7562212 Z M30.6392104,13.1536119 C30.797609,13.3798076 30.7426485,13.6915829 30.5164528,13.8499814 C30.2902571,14.00838 29.9784819,13.9534196 29.8200833,13.7272239 C29.4190119,13.1544877 29.2056147,12.544323 29.1996727,11.9106924 C29.1995528,10.6987738 29.9345164,9.5929885 31.269462,8.65453324 C31.4953687,8.49572276 31.8072436,8.550115 31.9660541,8.77602172 C32.1248646,9.00192843 32.0704723,9.31380334 31.8445656,9.47261381 C30.7517701,10.2408397 30.1995897,11.0716195 30.1996505,11.9059372 C30.203576,12.323015 30.3492533,12.7395485 30.6392104,13.1536119 Z M36.282675,7.60255253 C36.0151952,7.67117593 35.7427297,7.50997098 35.6741063,7.24249118 C35.6054829,6.97501139 35.7666878,6.70254591 36.0341676,6.63392251 C37.5673922,6.24056536 39.2703922,5.97198231 41.0624868,5.84494721 C41.3379379,5.82542147 41.577064,6.03289004 41.5965897,6.30834122 C41.6161155,6.58379241 41.4086469,6.82291846 41.1331957,6.8424442 C39.3996823,6.96532669 37.7560838,7.22454144 36.282675,7.60255253 Z M45.9976519,6.85711634 C45.7223284,6.83586576 45.5163617,6.59544497 45.5376123,6.32012148 C45.5588628,6.04479799 45.7992836,5.83883121 46.0746071,5.86008179 C47.8704731,5.99869402 49.572457,6.27988598 51.0981762,6.68608379 C51.3650234,6.75712749 51.5237534,7.03104214 51.4527097,7.2978893 C51.381666,7.56473646 51.1077514,7.72346652 50.8409042,7.65242282 C49.3758847,7.26238531 47.7341379,6.99114539 45.9976519,6.85711634 Z M55.2574278,9.59528549 C55.0363587,9.42980718 54.9912935,9.1164486 55.1567718,8.89537952 C55.3222501,8.67431043 55.6356087,8.6292452 55.8566778,8.79472351 C57.0661758,9.7000771 57.7332771,10.7549887 57.7332771,11.8885252 C57.7332771,12.1646676 57.5094195,12.3885252 57.2332771,12.3885252 C56.9571348,12.3885252 56.7332771,12.1646676 56.7332771,11.8885252 C56.7332771,11.1133942 56.2369016,10.3284575 55.2574278,9.59528549 Z M51.1956981,11.8885252 C51.1956981,13.8647274 47.7352035,15.4670357 43.4664229,15.4670357 C39.1976423,15.4670357 35.7371476,13.8647274 35.7371476,11.8885252 C35.7371476,9.912323 39.1976423,8.3100147 43.4664229,8.3100147 C47.7352035,8.3100147 51.1956981,9.912323 51.1956981,11.8885252 Z" id="Combined-Shape" fill="url(#linearGradient-1)"></path>
    </g>
</svg>