<?xml version="1.0" encoding="UTF-8"?>
<svg width="88px" height="88px" viewBox="0 0 88 88" version="1.1" xmlns="http://www.w3.org/2000/svg" xmlns:xlink="http://www.w3.org/1999/xlink">
    <!-- Generator: Sketch 51 (57462) - http://www.bohemiancoding.com/sketch -->
    <title>Device2/devices_icon_water_leak3_s   </title>
    <desc>Created with Sketch.</desc>
    <defs></defs>
    <g id="Device2/devices_icon_water_leak3_s---" stroke="none" stroke-width="1" fill="none" fill-rule="evenodd">
        <path d="M33.6178885,76.7877157 C43.3634803,77.5927279 50.6588928,76.8254017 55.4714678,74.5301102 C61.5650717,71.6238497 64.0737982,67.6165403 64.0737982,60.6912062 L64.0737982,38 L63.0737982,38 C55.3418117,38 49.0737982,31.7319865 49.0737982,24 L49.0737982,20 C49.0737982,12.2680135 55.3418117,6 63.0737982,6 L67.0737982,6 C74.8057847,6 81.0737982,12.2680135 81.0737982,20 L81.0737982,24 C81.0737982,31.7319865 74.8057847,38 67.0737982,38 L67.0737982,60.6912062 C67.0737982,68.7688992 63.904094,73.8320201 56.7629144,77.2379074 C50.618839,80.1682396 41.2824966,80.8320769 28.7038731,79.2973746 C27.2166032,79.7541562 25.6370116,80 24,80 C15.163444,80 8,72.836556 8,64 L8,22 C8,13.163444 15.163444,6 24,6 C32.836556,6 40,13.163444 40,22 L40,64 C40,69.226581 37.4939417,73.8678407 33.6178885,76.7877157 Z M23.8206784,73.3813606 C25.4775327,73.3813606 26.8206784,72.0382149 26.8206784,70.3813606 C26.8206784,68.7245064 25.4775327,67.3813606 23.8206784,67.3813606 C22.1638242,67.3813606 20.8206784,68.7245064 20.8206784,70.3813606 C20.8206784,72.0382149 22.1638242,73.3813606 23.8206784,73.3813606 Z" id="Combined-Shape" fill="#999999"></path>
    </g>
</svg>