<?xml version="1.0" encoding="UTF-8"?>
<svg width="88px" height="88px" viewBox="0 0 88 88" version="1.1" xmlns="http://www.w3.org/2000/svg" xmlns:xlink="http://www.w3.org/1999/xlink">
    <!-- Generator: Sketch 51 (57462) - http://www.bohemiancoding.com/sketch -->
    <title>Device2/devices_icon_dishwasher_s</title>
    <desc>Created with Sketch.</desc>
    <defs>
        <linearGradient x1="112.960737%" y1="-19.1113281%" x2="-16.6566506%" y2="116.977539%" id="linearGradient-1">
            <stop stop-color="#8AADEC" offset="0%"></stop>
            <stop stop-color="#1E50A0" offset="100%"></stop>
        </linearGradient>
    </defs>
    <g id="Device2/devices_icon_dishwasher_s" stroke="none" stroke-width="1" fill="none" fill-rule="evenodd">
        <path d="M34.8125,15.2021 L51.9175,15.2021 C52.7465,15.2021 53.4175,15.8741 53.4175,16.7021 C53.4175,17.5301 52.7465,18.2021 51.9175,18.2021 L34.8125,18.2021 C33.9845,18.2021 33.3125,17.5301 33.3125,16.7021 C33.3125,15.8741 33.9845,15.2021 34.8125,15.2021 Z M80.8535,27.9131 L80.8535,8.5001 C80.8535,5.4681 78.3855,3.0001 75.3535,3.0001 L12.5005,3.0001 C9.4675,3.0001 7.0005,5.4681 7.0005,8.5001 L7.0005,27.9131 L80.8535,27.9131 Z M47.6992,60.0498 C47.6992,57.6028 46.9442,55.2708 45.5152,53.3068 C43.3562,50.2928 39.8572,48.4988 36.1492,48.4988 C29.7812,48.4988 24.5992,53.6808 24.5992,60.0498 C24.5992,63.1428 25.8642,66.1058 28.0672,68.2788 L44.2222,68.2788 C46.4302,66.1088 47.6992,63.1458 47.6992,60.0498 M50.6992,60.0498 C50.6992,63.0108 49.7752,65.8728 48.1202,68.2788 L59.9922,68.2788 C61.5432,66.5018 62.3992,64.2588 62.3992,61.8918 C62.3992,56.5448 58.0502,52.1948 52.7032,52.1948 C51.3762,52.1948 50.0732,52.4748 48.8632,52.9988 C50.0612,55.1398 50.6992,57.5448 50.6992,60.0498 M69.124,71.2793 L18.201,71.2793 C17.373,71.2793 16.701,70.6073 16.701,69.7793 C16.701,68.9513 17.373,68.2793 18.201,68.2793 L24.173,68.2793 C22.522,65.8713 21.6,63.0083 21.6,60.0503 C21.6,52.0263 28.127,45.4993 36.149,45.4993 C40.371,45.4993 44.364,47.3573 47.102,50.5073 C48.843,49.6503 50.754,49.1943 52.703,49.1943 C59.704,49.1943 65.399,54.8903 65.399,61.8913 C65.399,64.1693 64.788,66.3543 63.666,68.2793 L69.124,68.2793 C69.952,68.2793 70.624,68.9513 70.624,69.7793 C70.624,70.6073 69.952,71.2793 69.124,71.2793 Z M7,30.9133 L7,78.5003 C7,81.5323 9.468,84.0003 12.5,84.0003 L75.353,84.0003 C78.386,84.0003 80.853,81.5323 80.853,78.5003 L80.853,30.9133 L7,30.9133 Z" id="Combined-Shape" fill="url(#linearGradient-1)"></path>
    </g>
</svg>