<?xml version="1.0" encoding="UTF-8"?>
<svg width="88px" height="88px" viewBox="0 0 88 88" version="1.1" xmlns="http://www.w3.org/2000/svg" xmlns:xlink="http://www.w3.org/1999/xlink">
    <!-- Generator: Sketch 51 (57462) - http://www.bohemiancoding.com/sketch -->
    <title>Device2/devices_icon_ipc_f101_s</title>
    <desc>Created with Sketch.</desc>
    <defs>
        <linearGradient x1="112.960737%" y1="-19.1113281%" x2="-16.6566506%" y2="116.977539%" id="linearGradient-1">
            <stop stop-color="#8AADEC" offset="0%"></stop>
            <stop stop-color="#1E50A0" offset="100%"></stop>
        </linearGradient>
    </defs>
    <g id="Device2/devices_icon_ipc_f101_s" stroke="none" stroke-width="1" fill="none" fill-rule="evenodd">
        <path d="M13.3324506,42.1342921 L33.3671405,31.012111 C33.7170743,32.6302015 34.4708334,34.2274421 35.7832124,36.0969943 C37.5389327,38.5981091 43.2353276,44.7012637 52.943778,54.4953712 L38.8483122,60.607994 L38.7705548,60.7932965 C38.5513564,61.3156657 38.0366521,61.5827242 37.1193559,61.5827242 C36.8176649,61.5292239 36.4961317,61.4196274 36.2294006,61.2621669 C33.442446,59.6169326 18.0666688,49.3020738 16.2664626,47.5035782 C13.9584211,45.1977299 13.1752654,43.9889263 13.3324506,42.1342921 Z M13.8737603,39.5462658 C14.6122029,36.5826318 16.1781669,30.5006122 18.5704673,21.3049861 C19.4838338,19.4314388 20.490785,17.9601625 21.5500008,16.981624 C22.6356312,15.9786829 26.6383286,13.0636334 33.5083339,8.27676263 C33.7547607,8.13098733 33.9916417,7.99584147 34.2186946,7.87135608 C34.5085854,7.97011704 34.6122328,8.26968969 34.6393249,8.79097608 C34.3379326,15.4220506 33.8717631,21.4513603 33.2408357,26.781443 C33.1573722,27.5082664 33.1162739,28.1945543 33.1268705,28.8579757 L13.8737603,39.5462658 Z M55.3385034,54.0108628 C54.0003723,52.6373372 39.0484223,37.2674509 37.4201559,34.9479007 C35.3198026,31.9558383 34.8915673,29.9374172 35.227374,27.0130752 C35.8639812,21.6350615 36.3338613,15.5577586 36.6369774,8.78377681 C36.6009182,8.06522665 36.4391429,7.47870499 36.168933,7.02549686 C37.1533322,6.77815101 37.7636706,6.88850527 38.0608244,7.293101 C37.6397198,15.5594659 37.2718004,21.3540823 36.9575659,24.6722157 C36.6430771,27.993034 36.8041345,29.2967165 37.6359345,30.5814661 C37.8396403,30.8960981 38.7468177,32.090114 38.9309294,32.3495174 C41.1592558,35.4891086 50.3599907,46.1981159 54.2474786,49.9223657 C54.2652047,49.9419691 54.2829458,49.9615878 54.3007018,49.9812218 L54.4244279,50.0905081 C54.7550128,50.4019305 55.0421274,50.6564028 55.2771481,50.8437089 L55.3348902,50.8947121 C55.347411,50.9026744 55.3599153,50.9104769 55.372403,50.9181196 C55.6218029,51.1087151 55.8029115,51.2114218 55.9032204,51.2114218 C55.9630209,51.2114218 56.0213755,51.2103099 56.0783209,51.2080536 L55.4672578,53.867489 C55.4281172,53.9233715 55.3854698,53.9711978 55.3385034,54.0108628 Z M56.6268832,53.2861845 C57.7625771,54.2086494 58.4404297,55.5946436 58.4404297,57.0950203 C58.4404297,59.8044119 56.2440339,62.0008077 53.5346423,62.0008077 C50.9542515,62.0008077 48.8242599,60.00312 48.6415539,57.4510502 L54.2047168,55.0385357 C55.1428127,55.3138503 55.9082965,55.0808509 56.4223257,54.1764482 L56.6268832,53.2861845 Z M50.1193308,61.9134205 C51.0849729,62.5987885 52.2644561,63.0008077 53.5346423,63.0008077 C56.7963186,63.0008077 59.4404297,60.3566966 59.4404297,57.0950203 C59.4404297,55.7909666 59.0144803,54.5579156 58.2631081,53.5554021 C59.2545038,53.4079592 59.8756219,53.7157632 60.3834922,54.2236335 C61.6807402,55.5208815 60.7417816,58.9491719 57.9324766,61.758477 C55.6245422,64.0664114 52.8988452,65.1120208 51.2801783,64.6924488 C50.9116381,64.3662969 50.5245586,64.0205724 50.1193308,63.6555123 L50.1193308,61.9134205 Z M53.5061577,66.6143785 C55.4328168,66.190321 57.5375725,64.9818082 59.3466901,63.1726906 C61.3750293,61.1443514 62.6483869,58.7443846 62.9076518,56.640452 L64.4061722,58.1072555 L64.400972,58.1124557 C65.680172,59.3916558 64.1987923,62.5579953 61.4789281,65.2778594 C58.7770169,67.9797707 56.1511385,68.9710268 54.8574509,67.6773392 L54.8415765,67.6932135 C54.4613291,67.4001152 54.0154223,67.0400386 53.5061577,66.6143785 Z M60.2689684,51.8817348 C60.7272807,51.6900607 61.093509,51.5333152 61.3676532,51.4114984 C62.4447567,50.9328839 64.060412,50.2149622 66.214619,49.2577334 C66.2986666,49.2203865 66.3833324,49.1862764 66.4684766,49.1553493 C67.7647739,49.5350789 68.4532372,49.9683084 68.5652568,50.3404022 C68.7503654,50.9552749 69.4950781,54.4387964 70.5903077,59.7573446 C70.6259142,59.9302846 70.6259142,59.9302846 70.6615093,60.1032898 C71.0330414,61.9093812 71.4257153,63.8324705 71.8331393,65.8380276 C71.9869974,66.5953985 72.1363229,67.3318608 72.28774,68.0797506 C72.3841803,68.5560952 72.4681236,68.9711136 72.5893262,69.5704954 C73.0276974,71.7378024 72.6578027,72.5092366 71.2214176,73.2943254 C70.2988129,73.798596 64.564235,75.6934838 54.3663756,78.8467473 C52.9977258,79.1410884 51.8337404,78.7541105 50.8203339,77.5932207 C50.809059,77.5606434 50.7980331,77.5279116 50.7872589,77.4950268 C50.6073422,76.9458874 50.5060232,76.3740549 50.4863139,75.7965294 L50.166441,66.4235499 C50.198551,66.4373633 50.2308784,66.4507681 50.2634187,66.463766 C51.7426514,67.766945 52.9179616,68.747544 53.8122131,69.4194195 C53.8656103,69.4613554 53.9196878,69.5016038 53.9744253,69.5401806 C54.5829142,69.9888309 55.0513008,70.2832408 55.3876925,70.4283239 C55.4040492,70.4353785 56.3281646,70.8790172 56.7381507,71.0543138 C57.5978085,71.4218751 58.3937643,71.6711602 59.1753386,71.7745604 C59.2840525,71.7889429 59.3918316,71.8003074 59.498686,71.8085475 C61.9505922,71.9976256 64.2046809,70.7165182 66.4291648,67.741624 C69.9458561,63.6366823 69.0844538,60.153014 65.8723631,56.744895 L61.6673423,52.6277397 L61.6374304,52.6582985 C61.2404255,52.3055042 60.7792172,52.0477947 60.2689684,51.8817348 Z M58.7609371,69.6541868 C60.1219794,69.0641187 61.540449,68.0447658 62.8931417,66.692073 C64.5886222,64.9965926 65.8859551,63.0706803 66.4775961,61.2839626 C66.9675523,62.8936025 66.5332029,64.5478772 64.8686164,66.4924856 C62.9802229,69.0142869 61.3429478,69.9448294 59.652459,69.8144678 C59.5824313,69.8090676 59.5108097,69.8015157 59.4376476,69.7918365 C59.2211027,69.7631882 58.9957284,69.7169563 58.7609371,69.6541868 Z M53.6092967,80.9293123 C54.0187787,80.9233104 54.4406896,80.8735258 54.8741853,80.7793009 C65.4469358,77.513973 71.0718522,75.6553208 72.1806339,75.049291 C74.3779596,73.8482927 75.1636473,72.2097011 74.5496289,69.1739941 C74.4284393,68.5746767 74.3444526,68.1594435 74.2479689,67.6828844 C74.096469,66.9345855 73.9470572,66.197698 73.7931053,65.4398653 C73.3853783,63.4328166 72.9923881,61.5081785 72.6204898,59.7003068 C72.5848537,59.527102 72.5848537,59.527102 72.5492047,59.3539559 C71.5501503,54.5024443 70.8636019,51.2707745 70.5725,50.1077525 C70.877325,50.4239637 71.1330867,50.7978459 71.3217691,51.2224683 C71.4274209,51.4602337 71.5088216,51.7080492 71.5647353,51.9621522 L75.4775086,69.7439813 C76.1893161,72.9788324 74.334779,76.2269103 71.1871722,77.2581729 L58.5166142,81.4094769 C56.8190894,81.9656436 55.0532205,81.7397028 53.6092967,80.9293123 Z M39.3524225,7.45139034 C40.3071062,8.7963021 45.9564886,16.4974656 56.3114612,30.5698292 C56.9654112,41.5060307 57.2674894,47.6111809 57.2152448,48.79262 C57.0148378,49.9748246 56.7861911,50.2114218 55.9032204,50.2114218 C55.2228562,50.2114218 42.0838277,35.0640279 39.7464084,31.7707307 C39.5429453,31.4840622 38.6545915,30.3148217 38.4753582,30.0379884 C37.7941134,28.9857777 37.6579302,27.8834396 37.9531116,24.7664961 C38.271077,21.4089669 38.6423698,15.5508608 39.0709234,7.1199926 C39.1712254,7.21768862 39.2649765,7.32820067 39.3524225,7.45139034 Z M31.3167567,34.5183059 L17.7972092,42.5291208 C17.6927637,42.5910084 17.5988265,42.6691147 17.518918,42.7605124 C17.1027337,43.2365349 17.1512422,43.9598115 17.6272648,44.3759958 L23.762791,49.7402573 C24.1278742,50.0594479 24.6544513,50.1140047 25.077218,49.8764406 L37.5978173,42.8407739 C37.654081,42.8091577 37.7075707,42.7728407 37.7577147,42.732211 C38.2489916,42.3341484 38.3245567,41.6131963 37.9264941,41.1219194 L32.7899161,34.7825097 C32.4323688,34.3412356 31.8053682,34.2287862 31.3167567,34.5183059 Z M18.2854688,43.6231562 C18.2252281,43.570488 18.2190893,43.4789572 18.3069753,43.3894338 L31.8265229,35.3786189 C31.8883568,35.3419801 31.9677038,35.3562106 32.0129515,35.412054 L37.1495295,41.7514637 C37.1999044,41.8136349 37.1903416,41.9048715 37.1079354,41.9689851 L24.587336,49.0046518 C24.5338348,49.0347156 24.4671964,49.0278114 24.420995,48.9874178 L18.2854688,43.6231562 Z M21.6466815,23.0778454 C22.8951593,24.5140549 26.1474849,23.5676365 28.975363,21.1093997 C31.803241,18.6511628 33.1930851,15.5622046 31.9446073,14.1259951 C30.6961295,12.6897857 27.4438039,13.636204 24.6159258,16.0944409 C21.7880478,18.5526778 20.3982037,21.641636 21.6466815,23.0778454 Z M22.1333828,22.6547625 C21.2078722,21.5900844 22.4482971,18.8332135 25.0390088,16.5811422 C27.6297204,14.3290709 30.5323955,13.4844 31.457906,14.5490781 C32.3834166,15.6137562 31.1429917,18.3706271 28.55228,20.6226984 C25.9615684,22.8747697 23.0588933,23.7194406 22.1333828,22.6547625 Z M22.841952,22.0190185 C23.7656561,23.0816186 26.2342056,22.2633124 28.4398803,20.3459487 C30.645555,18.4285849 31.7994532,16.0979453 30.875749,15.0353453 C29.9520449,13.9727452 27.4834954,14.7910513 25.2778207,16.7084151 C23.072146,18.6257789 21.9182478,20.9564184 22.841952,22.0190185 Z M23.3286532,21.5959355 C22.7396623,20.918379 23.7384324,18.9010666 25.7009036,17.1951164 C27.6633748,15.4891662 29.8000569,14.7808717 30.3890478,15.4584282 C30.9780387,16.1359848 29.9792686,18.1532972 28.0167974,19.8592474 C26.0543262,21.5651976 23.9176442,22.2734921 23.3286532,21.5959355 Z M19.6466815,33.0778454 C20.8951593,34.5140549 24.1474849,33.5676365 26.975363,31.1093997 C29.803241,28.6511628 31.1930851,25.5622046 29.9446073,24.1259951 C28.6961295,22.6897857 25.4438039,23.636204 22.6159258,26.0944409 C19.7880478,28.5526778 18.3982037,31.641636 19.6466815,33.0778454 Z M20.1333828,32.6547625 C19.2078722,31.5900844 20.4482971,28.8332135 23.0390088,26.5811422 C25.6297204,24.3290709 28.5323955,23.4844 29.457906,24.5490781 C30.3834166,25.6137562 29.1429917,28.3706271 26.55228,30.6226984 C23.9615684,32.8747697 21.0588933,33.7194406 20.1333828,32.6547625 Z M20.841952,32.0190185 C21.7696313,33.0861915 24.2422047,32.2720933 26.4476709,30.3549107 C28.6531372,28.4377281 29.8034284,26.1025183 28.875749,25.0353453 C27.9480697,23.9681723 25.4754963,24.7822705 23.2700301,26.6994531 C21.0645638,28.6166356 19.9142726,30.9518455 20.841952,32.0190185 Z M21.3286532,31.5959355 C20.7350323,30.9130527 21.7304334,28.8922857 23.693113,27.1861543 C25.6557927,25.4800229 27.7954268,24.7755454 28.3890478,25.4584282 C28.9826687,26.141311 27.9872676,28.162078 26.024588,29.8682094 C24.0619083,31.5743408 21.9222742,32.2788184 21.3286532,31.5959355 Z M24,46 C24.5522847,46 25,45.5522847 25,45 C25,44.4477153 24.5522847,44 24,44 C23.4477153,44 23,44.4477153 23,45 C23,45.5522847 23.4477153,46 24,46 Z M38.8576056,46.7646111 C39.1281072,46.7646111 39.347392,46.5453262 39.347392,46.2748246 C39.347392,46.004323 39.1281072,45.7850382 38.8576056,45.7850382 C38.587104,45.7850382 38.3678191,46.004323 38.3678191,46.2748246 C38.3678191,46.5453262 38.587104,46.7646111 38.8576056,46.7646111 Z M40.9612092,47.2260653 C41.2213255,47.3259146 41.5124259,47.1978404 41.6114002,46.9400036 C41.7103745,46.6821667 41.5797431,46.3922049 41.3196268,46.2923556 C41.0595106,46.1925063 40.7684101,46.3205805 40.6694359,46.5784173 C40.5704616,46.8362542 40.701093,47.126216 40.9612092,47.2260653 Z M42.66102,48.1719529 C42.8680767,48.3583876 43.18574,48.3431411 43.3705409,48.1378989 C43.5553418,47.9326567 43.5373,47.6151399 43.3302433,47.4287052 C43.1231866,47.2422705 42.8055233,47.2575171 42.6207224,47.4627592 C42.4359215,47.6680014 42.4539633,47.9855183 42.66102,48.1719529 Z M43.8133619,49.7788837 C43.9355018,50.0293077 44.2357456,50.1341701 44.4839751,50.0131005 C44.7322046,49.8920309 44.8344204,49.5908758 44.7122804,49.3404518 C44.5901405,49.0900278 44.2898967,48.9851654 44.0416672,49.106235 C43.7934377,49.2273046 43.6912219,49.5284597 43.8133619,49.7788837 Z M44.4524879,51.7624274 C44.4767714,52.0399894 44.7194938,52.2454847 44.9946235,52.2214139 C45.2697531,52.1973432 45.4731041,51.9528216 45.4488206,51.6752596 C45.4245371,51.3976976 45.1818147,51.1922023 44.906685,51.2162731 C44.6315554,51.2403438 44.4282044,51.4848654 44.4524879,51.7624274 Z M44.2210507,53.616782 C44.144252,53.8846109 44.29721,54.1634412 44.5626918,54.2395669 C44.8281737,54.3156926 45.1056469,54.1602865 45.1824456,53.8924576 C45.2592443,53.6246287 45.1062863,53.3457984 44.8408045,53.2696727 C44.5753226,53.193547 44.2978494,53.3489532 44.2210507,53.616782 Z M43.2427691,55.4938845 C43.0750901,55.7164022 43.1179647,56.0315279 43.3385324,56.1977375 C43.5591,56.3639472 43.8738362,56.3183005 44.0415152,56.0957829 C44.2091943,55.8732653 44.1663196,55.5581396 43.9457519,55.39193 C43.7251843,55.2257203 43.4104482,55.2713669 43.2427691,55.4938845 Z M41.8976319,56.8276792 C41.6613469,56.9753265 41.5884429,57.2848866 41.7347963,57.519101 C41.8811497,57.7533155 42.1913395,57.823492 42.4276246,57.6758447 C42.6639096,57.5281975 42.7368136,57.2186374 42.5904602,56.9844229 C42.4441068,56.7502085 42.133917,56.6800319 41.8976319,56.8276792 Z M40.0058754,57.4729121 C39.7323723,57.5260758 39.5533741,57.7889486 39.6060719,58.060055 C39.6587696,58.3311614 39.9232077,58.5078389 40.1967109,58.4546753 C40.470214,58.4015117 40.6492122,58.1386389 40.5965144,57.8675325 C40.5438167,57.596426 40.2793786,57.4197485 40.0058754,57.4729121 Z M37.9110408,57.4729121 C37.6375376,57.4197485 37.3730995,57.596426 37.3204018,57.8675325 C37.267704,58.1386389 37.4467022,58.4015117 37.7202053,58.4546753 C37.9937085,58.5078389 38.2581466,58.3311614 38.3108443,58.060055 C38.3635421,57.7889486 38.1845439,57.5260758 37.9110408,57.4729121 Z M36.0604007,56.8276792 C35.8241156,56.6800319 35.5139259,56.7502085 35.3675724,56.9844229 C35.221219,57.2186374 35.294123,57.5281975 35.530408,57.6758447 C35.7666931,57.823492 36.0768829,57.7533155 36.2232363,57.519101 C36.3695897,57.2848866 36.2966857,56.9753265 36.0604007,56.8276792 Z M34.5723105,55.4938845 C34.4046314,55.2713669 34.0898953,55.2257203 33.8693276,55.39193 C33.64876,55.5581396 33.6058853,55.8732653 33.7735644,56.0957829 C33.9412434,56.3183005 34.2559795,56.3639472 34.4765472,56.1977375 C34.6971148,56.0315279 34.7399895,55.7164022 34.5723105,55.4938845 Z M33.754095,53.616782 C33.6772963,53.3489532 33.3998231,53.193547 33.1343412,53.2696727 C32.8688594,53.3457984 32.7159015,53.6246287 32.7927002,53.8924576 C32.8694989,54.1602865 33.1469721,54.3156926 33.4124539,54.2395669 C33.6779358,54.1634412 33.8308937,53.8846109 33.754095,53.616782 Z M33.5306836,51.7624274 C33.5549671,51.4848654 33.3516161,51.2403438 33.0764864,51.2162731 C32.8013568,51.1922023 32.5586344,51.3976976 32.5343509,51.6752596 C32.5100674,51.9528216 32.7134183,52.1973432 32.988548,52.2214139 C33.2636777,52.2454847 33.5064,52.0399894 33.5306836,51.7624274 Z M34.1002406,49.7788837 C34.2223805,49.5284597 34.1201648,49.2273046 33.8719353,49.106235 C33.6237058,48.9851654 33.323462,49.0900278 33.2013221,49.3404518 C33.0791821,49.5908758 33.1813979,49.8920309 33.4296274,50.0131005 C33.6778569,50.1341701 33.9781007,50.0293077 34.1002406,49.7788837 Z M35.3303979,48.1719529 C35.5374546,47.9855183 35.5554964,47.6680014 35.3706955,47.4627592 C35.1858946,47.2575171 34.8682313,47.2422705 34.6611746,47.4287052 C34.4541179,47.6151399 34.4360761,47.9326567 34.620877,48.1378989 C34.8056779,48.3431411 35.1233412,48.3583876 35.3303979,48.1719529 Z M36.9115487,47.2260653 C37.171665,47.126216 37.3022964,46.8362542 37.2033221,46.5784173 C37.1043478,46.3205805 36.8132474,46.1925063 36.5531312,46.2923556 C36.2930149,46.3922049 36.1623835,46.6821667 36.2613578,46.9400036 C36.3603321,47.1978404 36.6514325,47.3259146 36.9115487,47.2260653 Z M42.0946447,50.2304932 C42.3348817,50.2304932 42.5296323,50.0357427 42.5296323,49.7955057 C42.5296323,49.5552687 42.3348817,49.3605181 42.0946447,49.3605181 C41.8544077,49.3605181 41.6596572,49.5552687 41.6596572,49.7955057 C41.6596572,50.0357427 41.8544077,50.2304932 42.0946447,50.2304932 Z M42.6171064,52.2139978 C42.8185861,52.3448402 43.0879864,52.2875774 43.2188289,52.0860977 C43.3496713,51.884618 43.2924085,51.6152177 43.0909288,51.4843752 C42.8894491,51.3535328 42.6200488,51.4107956 42.4892064,51.6122753 C42.3583639,51.813755 42.4156267,52.0831553 42.6171064,52.2139978 Z M41.9883064,54.1712344 C42.089835,54.3889631 42.3486441,54.4831619 42.5663727,54.3816334 C42.7841014,54.2801048 42.8783002,54.0212957 42.7767717,53.803567 C42.6752431,53.5858384 42.416434,53.4916396 42.1987054,53.5931681 C41.9809767,53.6946967 41.8867779,53.9535058 41.9883064,54.1712344 Z M40.3991458,55.4707419 C40.3657113,55.7086409 40.5314625,55.9286002 40.7693616,55.9620347 C41.0072606,55.9954693 41.2272199,55.829718 41.2606544,55.591819 C41.294089,55.35392 41.1283377,55.1339607 40.8904387,55.1005262 C40.6525397,55.0670916 40.4325804,55.2328429 40.3991458,55.4707419 Z M38.3607635,55.7052772 C38.2031539,55.8865864 38.2223661,56.1613344 38.4036753,56.318944 C38.5849844,56.4765537 38.8597324,56.4573414 39.0173421,56.2760323 C39.1749517,56.0947231 39.1557395,55.8199751 38.9744303,55.6623655 C38.7931211,55.5047558 38.5183732,55.5239681 38.3607635,55.7052772 Z M36.5198021,54.8015387 C36.2888715,54.8677569 36.1553457,55.1086437 36.221564,55.3395744 C36.2877823,55.570505 36.5286691,55.7040307 36.7595997,55.6378124 C36.9905303,55.5715941 37.1240561,55.3307073 37.0578378,55.0997767 C36.9916195,54.8688461 36.7507327,54.7353204 36.5198021,54.8015387 Z M35.452398,53.0449864 C35.2214674,52.9787681 34.9805806,53.1122938 34.9143623,53.3432244 C34.848144,53.5741551 34.9816698,53.8150419 35.2126004,53.8812601 C35.443531,53.9474784 35.6844178,53.8139527 35.7506361,53.5830221 C35.8168544,53.3520915 35.6833287,53.1112047 35.452398,53.0449864 Z M35.5107643,50.9933134 C35.3531547,50.8120042 35.0784067,50.7927919 34.8970975,50.9504016 C34.7157883,51.1080112 34.6965761,51.3827592 34.8541857,51.5640684 C35.0117954,51.7453776 35.2865434,51.7645898 35.4678525,51.6069802 C35.6491617,51.4493705 35.668374,51.1746225 35.5107643,50.9933134 Z M36.6680143,49.2993816 C36.6345797,49.0614826 36.4146204,48.8957314 36.1767214,48.9291659 C35.9388224,48.9626004 35.7730711,49.1825597 35.8065057,49.4204588 C35.8399402,49.6583578 36.0598995,49.824109 36.2977985,49.7906745 C36.5356976,49.75724 36.7014488,49.5372807 36.6680143,49.2993816 Z M38.5561999,48.4998411 C38.6577284,48.2821124 38.5635296,48.0233033 38.3458009,47.9217748 C38.1280723,47.8202462 37.8692632,47.914445 37.7677346,48.1321737 C37.6662061,48.3499024 37.7604049,48.6087115 37.9781336,48.71024 C38.1958622,48.8117686 38.4546713,48.7175697 38.5561999,48.4998411 Z M40.5824272,48.8431987 C40.7839069,48.7123562 40.8411697,48.4429559 40.7103272,48.2414762 C40.5794848,48.0399965 40.3100844,47.9827337 40.1086047,48.1135761 C39.907125,48.2444186 39.8498622,48.5138189 39.9807047,48.7152986 C40.1115471,48.9167783 40.3809475,48.9740411 40.5824272,48.8431987 Z M38.9037088,50.8271709 C39.1385339,50.8271709 39.3288973,50.6368075 39.3288973,50.4019824 C39.3288973,50.1671573 39.1385339,49.9767939 38.9037088,49.9767939 C38.6688836,49.9767939 38.4785203,50.1671573 38.4785203,50.4019824 C38.4785203,50.6368075 38.6688836,50.8271709 38.9037088,50.8271709 Z M40.0137869,51.363276 C40.1615671,51.5457694 40.4293068,51.57391 40.6118002,51.4261298 C40.7942936,51.2783495 40.8224341,51.0106098 40.6746539,50.8281164 C40.5268737,50.645623 40.259134,50.6174825 40.0766406,50.7652627 C39.8941472,50.9130429 39.8660066,51.1807826 40.0137869,51.363276 Z M40.2857064,52.5588104 C40.2328823,52.787617 40.3755442,53.0159238 40.6043508,53.068748 C40.8331573,53.1215722 41.0614642,52.9789102 41.1142883,52.7501037 C41.1671125,52.5212971 41.0244505,52.2929903 40.795644,52.2401661 C40.5668374,52.1873419 40.3385306,52.3300039 40.2857064,52.5588104 Z M39.516742,53.5223293 C39.3056826,53.6252698 39.218035,53.8798171 39.3209755,54.0908766 C39.4239161,54.301936 39.6784634,54.3895836 39.8895228,54.2866431 C40.1005822,54.1837025 40.1882299,53.9291552 40.0852893,53.7180958 C39.9823487,53.5070364 39.7278015,53.4193887 39.516742,53.5223293 Z M38.2906755,53.5223293 C38.0796161,53.4193887 37.8250688,53.5070364 37.7221282,53.7180958 C37.6191877,53.9291552 37.7068353,54.1837025 37.9178948,54.2866431 C38.1289542,54.3895836 38.3835015,54.301936 38.486442,54.0908766 C38.5893826,53.8798171 38.5017349,53.6252698 38.2906755,53.5223293 Z M37.5217111,52.5588104 C37.468887,52.3300039 37.2405801,52.1873419 37.0117736,52.2401661 C36.782967,52.2929903 36.6403051,52.5212971 36.6931292,52.7501037 C36.7459534,52.9789102 36.9742602,53.1215722 37.2030668,53.068748 C37.4318733,53.0159238 37.5745353,52.787617 37.5217111,52.5588104 Z M37.7936307,51.363276 C37.9414109,51.1807826 37.9132704,50.9130429 37.730777,50.7652627 C37.5482836,50.6174825 37.2805439,50.645623 37.1327636,50.8281164 C36.9849834,51.0106098 37.013124,51.2783495 37.1956174,51.4261298 C37.3781108,51.57391 37.6458504,51.5457694 37.7936307,51.363276 Z" id="Combined-Shape" fill="url(#linearGradient-1)"></path>
    </g>
</svg>