<?xml version="1.0" encoding="UTF-8"?>
<svg width="88px" height="88px" viewBox="0 0 88 88" version="1.1" xmlns="http://www.w3.org/2000/svg" xmlns:xlink="http://www.w3.org/1999/xlink">
    <!-- Generator: Sketch 51 (57462) - http://www.bohemiancoding.com/sketch -->
    <title>Device2/devices_icon_switch2_s </title>
    <desc>Created with Sketch.</desc>
    <defs></defs>
    <g id="Device2/devices_icon_switch2_s-" stroke="none" stroke-width="1" fill="none" fill-rule="evenodd">
        <path d="M79,34 L79,10 C79,7.23857625 76.7614237,5 74,5 L14,5 C11.2385763,5 9,7.23857625 9,10 L9,34 L79,34 Z M79,37 L9,37 L9,61 C9,63.7614237 11.2385763,66 14,66 L74,66 C76.7614237,66 79,63.7614237 79,61 L79,37 Z M14,2 L74,2 C78.418278,2 82,5.581722 82,10 L82,78 C82,82.418278 78.418278,86 74,86 L14,86 C9.581722,86 6,82.418278 6,78 L6,10 C6,5.581722 9.581722,2 14,2 Z M62.5,75 C61.6715729,75 61,75.6715729 61,76.5 C61,77.3284271 61.6715729,78 62.5,78 L73.5,78 C74.3284271,78 75,77.3284271 75,76.5 C75,75.6715729 74.3284271,75 73.5,75 L62.5,75 Z" id="Combined-Shape" fill="#999999"></path>
    </g>
</svg>