<?xml version="1.0" encoding="UTF-8"?>
<svg width="88px" height="88px" viewBox="0 0 88 88" version="1.1" xmlns="http://www.w3.org/2000/svg" xmlns:xlink="http://www.w3.org/1999/xlink">
    <!-- Generator: Sketch 51 (57462) - http://www.bohemiancoding.com/sketch -->
    <title>Device2/devices_icon_gateway3_s </title>
    <desc>Created with Sketch.</desc>
    <defs>
        <linearGradient x1="112.960737%" y1="-19.1113281%" x2="-16.6566506%" y2="116.977539%" id="linearGradient-1">
            <stop stop-color="#8AADEC" offset="0%"></stop>
            <stop stop-color="#1E50A0" offset="100%"></stop>
        </linearGradient>
    </defs>
    <g id="Device2/devices_icon_gateway3_s-" stroke="none" stroke-width="1" fill="none" fill-rule="evenodd">
        <path d="M68.593375,43.950625 C68.593375,45.442625 69.803375,46.652625 71.295375,46.652625 C72.787375,46.652625 73.997375,45.442625 73.997375,43.950625 C73.997375,42.458625 72.787375,41.248625 71.295375,41.248625 C69.803375,41.248625 68.593375,42.458625 68.593375,43.950625 Z M59.286375,43.950625 C59.286375,45.442625 60.496375,46.652625 61.988375,46.652625 C63.480375,46.652625 64.690375,45.442625 64.690375,43.950625 C64.690375,42.458625 63.480375,41.248625 61.988375,41.248625 C60.496375,41.248625 59.286375,42.458625 59.286375,43.950625 Z M49.979375,43.950625 C49.979375,45.442625 51.189375,46.652625 52.681375,46.652625 C54.173375,46.652625 55.383375,45.442625 55.383375,43.950625 C55.383375,42.458625 54.173375,41.248625 52.681375,41.248625 C51.189375,41.248625 49.979375,42.458625 49.979375,43.950625 Z M50.673375,84.123625 C48.879375,85.918625 46.493375,86.906625 43.955375,86.906625 C41.418375,86.906625 39.033375,85.918625 37.239375,84.123625 L3.783375,50.668625 C1.931375,48.816625 1.005375,46.383625 1.005375,43.950625 C1.005375,41.517625 1.931375,39.085625 3.783375,37.232625 L37.239375,3.777625 C39.033375,1.982625 41.418375,0.994625 43.955375,0.994625 C46.493375,0.994625 48.879375,1.982625 50.673375,3.777625 L84.129375,37.232625 C87.832375,40.935625 87.832375,46.963625 84.129375,50.668625 L50.673375,84.123625 Z" id="Fill-1" fill="url(#linearGradient-1)"></path>
    </g>
</svg>