<?xml version="1.0" encoding="UTF-8"?>
<svg width="88px" height="88px" viewBox="0 0 88 88" version="1.1" xmlns="http://www.w3.org/2000/svg" xmlns:xlink="http://www.w3.org/1999/xlink">
    <!-- Generator: Sketch 51 (57462) - http://www.bohemiancoding.com/sketch -->
    <title>Device2/devices_icon_air_conditioner_s</title>
    <desc>Created with Sketch.</desc>
    <defs>
        <linearGradient x1="112.960737%" y1="-19.1113281%" x2="-16.6566506%" y2="116.977539%" id="linearGradient-1">
            <stop stop-color="#8AADEC" offset="0%"></stop>
            <stop stop-color="#1E50A0" offset="100%"></stop>
        </linearGradient>
    </defs>
    <g id="Device2/devices_icon_air_conditioner_s" stroke="none" stroke-width="1" fill="none" fill-rule="evenodd">
        <path d="M8,11 C7.44771525,11 7,11.4477153 7,12 L7,50.25 C7,50.8022847 7.44771525,51.25 8,51.25 L80,51.25 C80.5522847,51.25 81,50.8022847 81,50.25 L81,12 C81,11.4477153 80.5522847,11 80,11 L8,11 Z M8,8 L80,8 C82.209139,8 84,9.790861 84,12 L84,50.25 C84,52.459139 82.209139,54.25 80,54.25 L8,54.25 C5.790861,54.25 4,52.459139 4,50.25 L4,12 C4,9.790861 5.790861,8 8,8 Z M5,42 L82,42 L82,52 L5,52 L5,42 Z M64.0244141,19.4584961 C63.1959869,19.4584961 62.5244141,18.7869232 62.5244141,17.9584961 C62.5244141,17.130069 63.1959869,16.4584961 64.0244141,16.4584961 L73.9182129,16.4584961 C74.74664,16.4584961 75.4182129,17.130069 75.4182129,17.9584961 C75.4182129,18.7869232 74.74664,19.4584961 73.9182129,19.4584961 L64.0244141,19.4584961 Z M54.941,80.632 L52.058,79.8 C52.475,78.356 52.897,77.473 53.237,76.764 C53.729,75.736 54,75.171 54,73.281 C54,71.894 53.67,71.346 53.214,70.587 C52.673,69.688 52,68.568 52,66.347 C52,63.778 52.49,62.755 53.056,61.57 C53.363,60.931 53.711,60.204 54.058,59 L56.941,59.832 C56.524,61.276 56.102,62.158 55.762,62.866 C55.27,63.894 55,64.459 55,66.347 C55,67.735 55.329,68.282 55.785,69.041 C56.326,69.941 57,71.061 57,73.281 C57,75.852 56.51,76.875 55.943,78.06 C55.636,78.7 55.289,79.427 54.941,80.632 Z M15.941,80.631 L13.058,79.799 C13.475,78.356 13.897,77.473 14.237,76.764 C14.729,75.736 15,75.17 15,73.28 C15,71.893 14.67,71.345 14.214,70.586 C13.673,69.687 13,68.567 13,66.346 C13,63.777 13.49,62.754 14.056,61.569 C14.364,60.93 14.711,60.204 15.058,59 L17.941,59.832 C17.524,61.276 17.102,62.157 16.762,62.866 C16.27,63.893 16,64.458 16,66.346 C16,67.734 16.329,68.281 16.785,69.04 C17.326,69.94 18,71.06 18,73.28 C18,75.851 17.509,76.874 16.943,78.06 C16.636,78.7 16.289,79.426 15.941,80.631 Z M34.941,80.631 L32.058,79.799 C32.475,78.356 32.897,77.473 33.237,76.764 C33.729,75.736 34,75.17 34,73.28 C34,71.893 33.67,71.345 33.214,70.586 C32.673,69.687 32,68.567 32,66.346 C32,63.777 32.49,62.754 33.056,61.569 C33.364,60.93 33.711,60.204 34.058,59 L36.941,59.832 C36.524,61.276 36.102,62.157 35.762,62.866 C35.27,63.893 35,64.458 35,66.346 C35,67.734 35.329,68.281 35.785,69.04 C36.326,69.94 37,71.06 37,73.28 C37,75.851 36.509,76.874 35.943,78.06 C35.636,78.7 35.289,79.426 34.941,80.631 Z M73.941,80.631 L71.058,79.799 C71.475,78.356 71.897,77.473 72.237,76.764 C72.729,75.736 73,75.17 73,73.28 C73,71.893 72.67,71.345 72.214,70.586 C71.673,69.687 71,68.567 71,66.346 C71,63.777 71.49,62.754 72.056,61.569 C72.364,60.93 72.711,60.204 73.058,59 L75.941,59.832 C75.524,61.276 75.102,62.157 74.762,62.866 C74.27,63.893 74,64.458 74,66.346 C74,67.734 74.329,68.281 74.785,69.04 C75.326,69.94 76,71.06 76,73.28 C76,75.851 75.509,76.874 74.943,78.06 C74.636,78.7 74.289,79.426 73.941,80.631 Z" id="Combined-Shape" fill="url(#linearGradient-1)"></path>
    </g>
</svg>