<?xml version="1.0" encoding="UTF-8"?>
<svg width="88px" height="88px" viewBox="0 0 88 88" version="1.1" xmlns="http://www.w3.org/2000/svg" xmlns:xlink="http://www.w3.org/1999/xlink">
    <!-- Generator: Sketch 51 (57462) - http://www.bohemiancoding.com/sketch -->
    <title>Device2/devices_icon_camera1_s  </title>
    <desc>Created with Sketch.</desc>
    <defs></defs>
    <g id="Device2/devices_icon_camera1_s--" stroke="none" stroke-width="1" fill="none" fill-rule="evenodd">
        <path d="M28.2542698,83.1032 L33.562,69.619 C19.019,65.249 9,51.877 9,36.544 C9,17.497 24.497,2 43.544,2 C62.591,2 78.088,17.497 78.088,36.544 C78.088,51.877 68.069,65.249 53.527,69.619 L58.8334254,83.1032 L68.6475,83.1032 C69.4475,83.1032 70.0955,83.7522 70.0955,84.5522 C70.0955,85.3512 69.4475,86.0002 68.6475,86.0002 L18.4405,86.0002 C17.6415,86.0002 16.9925,85.3512 16.9925,84.5522 C16.9925,83.7522 17.6415,83.1032 18.4405,83.1032 L28.2542698,83.1032 Z M43.544,51.516 C51.8,51.516 58.516,44.8 58.516,36.544 C58.516,28.288 51.8,21.572 43.544,21.572 C35.288,21.572 28.572,28.288 28.572,36.544 C28.572,44.8 35.288,51.516 43.544,51.516 Z M43.544,9.371 C45.007,9.371 46.193,10.557 46.193,12.02 C46.193,13.482 45.007,14.668 43.544,14.668 C42.082,14.668 40.896,13.482 40.896,12.02 C40.896,10.557 42.082,9.371 43.544,9.371 M43.544,24.4683 C36.885,24.4683 31.468,29.8853 31.468,36.5443 C31.468,43.2023 36.885,48.6193 43.544,48.6193 C50.203,48.6193 55.62,43.2023 55.62,36.5443 C55.62,29.8853 50.203,24.4683 43.544,24.4683" id="Combined-Shape" fill="#999999"></path>
    </g>
</svg>