<?xml version="1.0" encoding="UTF-8"?>
<svg width="88px" height="88px" viewBox="0 0 88 88" version="1.1" xmlns="http://www.w3.org/2000/svg" xmlns:xlink="http://www.w3.org/1999/xlink">
    <!-- Generator: Sketch 51 (57462) - http://www.bohemiancoding.com/sketch -->
    <title> Device2/devices_icon_ipc_f102_s</title>
    <desc>Created with Sketch.</desc>
    <defs></defs>
    <g id="-Device2/devices_icon_ipc_f102_s" stroke="none" stroke-width="1" fill="none" fill-rule="evenodd">
        <path d="M27.8188065,8.55380148 L31.5514801,11.509908 C32.9622339,12.6271604 33.7848683,14.3280134 33.7848683,16.1275909 L33.7848683,18.6181679 L55.2102462,18.6181679 L55.2102462,16.1275909 C55.2102462,14.3280134 56.0328806,12.6271604 57.4436344,11.509908 L61.176308,8.55380148 C62.5242785,5.24048852 66.0353494,3.19058541 69.7059677,3.82061691 L78.5031271,5.3305771 C83.4147993,6.17362531 87.0048855,10.4324201 87.0048855,15.4159183 L87.0048855,30.0610243 C87.0048855,34.5549358 83.3618504,38.1979709 78.8679389,38.1979709 L70.8337405,38.1979709 C68.4501525,38.1979709 66.2569115,37.382999 64.5174635,36.0165015 L63.4262595,35.7302713 L63.4262595,46.3161679 C63.4262595,51.4831679 60.1262595,56.0171679 55.3132595,57.6581679 L55.3122595,57.6551679 C55.2094194,57.6885483 55.1064483,57.7213185 55.0033588,57.7534867 L55.0033588,42.4194052 C55.0033588,39.6685463 52.8276676,37.4331298 50.1369466,37.4331298 L38.4349618,37.4331298 C35.4548605,37.4331298 33.0445802,39.9095752 33.0445802,42.9577582 L33.0445802,57.75873 C28.0849906,56.2202554 24.6212595,51.6101025 24.6212595,46.3161679 L24.6212595,35.978832 L24.477651,36.0165015 C22.738203,37.382999 20.544962,38.1979709 18.161374,38.1979709 L10.1271756,38.1979709 C5.63326407,38.1979709 1.99022901,34.5549358 1.99022901,30.0610243 L1.99022901,15.4159183 C1.99022901,10.4324201 5.58031524,6.17362531 10.4919874,5.3305771 L19.2891468,3.82061691 C22.9597651,3.19058541 26.470836,5.24048852 27.8188065,8.55380148 Z M33.7848683,22.1602728 C35.1983726,22.4900053 36.237913,23.7598967 36.237913,25.2568513 C36.237913,26.7596443 35.1933069,28.0243548 33.7848683,28.3533322 L33.7848683,29.0318454 C33.7848683,29.4883237 33.7324197,29.9348139 33.6327402,30.3648096 C35.979813,31.1079067 38.3286903,30.0159171 39.2140234,27.7095455 C40.0031882,25.6537009 39.3165214,23.8708268 37.4253397,22.0103787 C37.2492179,21.8371191 36.1670875,21.0673798 35.349537,20.5658912 C34.7434306,20.1941031 34.2288264,19.909155 33.7848683,19.7304055 L33.7848683,22.1602728 Z M55.2102462,22.4395381 L55.2102462,19.7716559 C54.7892604,19.9516342 54.3063405,20.2215078 53.7449105,20.5658912 C52.9273599,21.0673798 51.8452296,21.8371191 51.6691078,22.0103787 C49.7779261,23.8708268 49.0912592,25.6537009 49.8804241,27.7095455 C50.754104,29.9855596 53.0530541,31.0789498 55.3690299,30.3932002 C55.2650309,29.9544788 55.2102462,29.4983786 55.2102462,29.0318454 L55.2102462,28.0738682 C54.1965265,27.541289 53.5072015,26.4776242 53.5072015,25.2568513 C53.5072015,24.0400698 54.1940316,22.9733103 55.2102462,22.4395381 Z M37.7178514,24.8213953 C38.0979463,25.6027612 38.1270737,26.3555042 37.8136528,27.1719936 C37.4497341,28.1200341 36.7392226,28.75529 35.8776637,28.9923741 C37.0088913,28.1369815 37.737913,26.7800808 37.737913,25.2568513 C37.737913,25.1101106 37.7311296,24.9648554 37.7178514,24.8213953 Z M54.0100737,29.096067 C52.8024977,29.1014729 51.751601,28.398486 51.2807947,27.1719936 C50.787958,25.88811 51.142099,24.7618446 52.3759515,23.4340655 C52.1382867,23.995422 52.0072015,24.6117833 52.0072015,25.2568513 C52.0072015,26.8431772 52.7978704,28.2491094 54.0100737,29.096067 Z M51.2072796,76.9123535 C50.4240755,75.7144207 47.5876206,75.1254902 44.0239695,75.1254902 C40.4603183,75.1254902 37.6238635,75.7144207 36.8406593,76.9123535 L35.989771,76.9123535 C34.9185475,76.9123535 34.0445802,76.0143947 34.0445802,74.9000393 L34.0445802,72.4560503 C34.5634035,72.9127603 35.2442376,73.189771 35.989771,73.189771 L52.0581679,73.189771 C52.8037014,73.189771 53.4845354,72.9127603 54.0033588,72.4560503 L54.0033588,74.9000393 C54.0033588,76.0143947 53.1293914,76.9123535 52.0581679,76.9123535 L51.2072796,76.9123535 Z M34.0445802,70.2445803 L34.0445802,55.3516126 L54.0033588,55.3516126 L54.0033588,70.2445803 C54.0033588,71.3188794 53.1324672,72.189771 52.0581679,72.189771 L35.989771,72.189771 C34.9154718,72.189771 34.0445802,71.3188794 34.0445802,70.2445802 Z M34.0445802,54.3516126 L34.0445802,42.9577582 C34.0445802,40.45589 36.0132967,38.4331298 38.4349618,38.4331298 L50.1369466,38.4331298 C52.2692313,38.4331298 54.0033588,40.2148611 54.0033588,42.4194052 L54.0033588,54.3516126 L34.0445802,54.3516126 Z M44.0239695,84.0184733 C40.4899373,84.0184733 37.6250382,81.1535742 37.6250382,77.619542 C37.6250382,76.8560682 40.4686117,76.1254902 44.0239695,76.1254902 C47.5793272,76.1254902 50.4229008,76.8560682 50.4229008,77.619542 C50.4229008,81.1535742 47.5580016,84.0184733 44.0239695,84.0184733 Z M50.2345038,69.3694491 C50.4756541,69.3694491 50.671145,69.2130564 50.671145,69.0201361 C50.671145,68.8272159 50.4756541,68.6708231 50.2345038,68.6708231 C49.9933535,68.6708231 49.7978626,68.8272159 49.7978626,69.0201361 C49.7978626,69.2130564 49.9933535,69.3694491 50.2345038,69.3694491 Z M48.138626,69.3694491 C48.3797762,69.3694491 48.5752672,69.2130564 48.5752672,69.0201361 C48.5752672,68.8272159 48.3797762,68.6708231 48.138626,68.6708231 C47.8974757,68.6708231 47.7019847,68.8272159 47.7019847,69.0201361 C47.7019847,69.2130564 47.8974757,69.3694491 48.138626,69.3694491 Z M45.6934351,69.3694491 C45.9345854,69.3694491 46.1300763,69.2130564 46.1300763,69.0201361 C46.1300763,68.8272159 45.9345854,68.6708231 45.6934351,68.6708231 C45.4522848,68.6708231 45.2567939,68.8272159 45.2567939,69.0201361 C45.2567939,69.2130564 45.4522848,69.3694491 45.6934351,69.3694491 Z M43.5975573,69.3694491 C43.8387075,69.3694491 44.0341985,69.2130564 44.0341985,69.0201361 C44.0341985,68.8272159 43.8387075,68.6708231 43.5975573,68.6708231 C43.356407,68.6708231 43.160916,68.8272159 43.160916,69.0201361 C43.160916,69.2130564 43.356407,69.3694491 43.5975573,69.3694491 Z M41.3270229,69.3694491 C41.5681732,69.3694491 41.7636641,69.2130564 41.7636641,69.0201361 C41.7636641,68.8272159 41.5681732,68.6708231 41.3270229,68.6708231 C41.0858726,68.6708231 40.8903817,68.8272159 40.8903817,69.0201361 C40.8903817,69.2130564 41.0858726,69.3694491 41.3270229,69.3694491 Z M39.231145,69.3694491 C39.4722953,69.3694491 39.6677863,69.2130564 39.6677863,69.0201361 C39.6677863,68.8272159 39.4722953,68.6708231 39.231145,68.6708231 C38.9899948,68.6708231 38.7945038,68.8272159 38.7945038,69.0201361 C38.7945038,69.2130564 38.9899948,69.3694491 39.231145,69.3694491 Z M36.9606107,69.3694491 C37.201761,69.3694491 37.3972519,69.2130564 37.3972519,69.0201361 C37.3972519,68.8272159 37.201761,68.6708231 36.9606107,68.6708231 C36.7194604,68.6708231 36.5239695,68.8272159 36.5239695,69.0201361 C36.5239695,69.2130564 36.7194604,69.3694491 36.9606107,69.3694491 Z M50.2345038,67.0989147 C50.4756541,67.0989147 50.671145,66.942522 50.671145,66.7496018 C50.671145,66.5566815 50.4756541,66.4002888 50.2345038,66.4002888 C49.9933535,66.4002888 49.7978626,66.5566815 49.7978626,66.7496018 C49.7978626,66.942522 49.9933535,67.0989147 50.2345038,67.0989147 Z M48.138626,67.0989147 C48.3797762,67.0989147 48.5752672,66.942522 48.5752672,66.7496018 C48.5752672,66.5566815 48.3797762,66.4002888 48.138626,66.4002888 C47.8974757,66.4002888 47.7019847,66.5566815 47.7019847,66.7496018 C47.7019847,66.942522 47.8974757,67.0989147 48.138626,67.0989147 Z M45.6934351,67.0989147 C45.9345854,67.0989147 46.1300763,66.942522 46.1300763,66.7496018 C46.1300763,66.5566815 45.9345854,66.4002888 45.6934351,66.4002888 C45.4522848,66.4002888 45.2567939,66.5566815 45.2567939,66.7496018 C45.2567939,66.942522 45.4522848,67.0989147 45.6934351,67.0989147 Z M43.5975573,67.0989147 C43.8387075,67.0989147 44.0341985,66.942522 44.0341985,66.7496018 C44.0341985,66.5566815 43.8387075,66.4002888 43.5975573,66.4002888 C43.356407,66.4002888 43.160916,66.5566815 43.160916,66.7496018 C43.160916,66.942522 43.356407,67.0989147 43.5975573,67.0989147 Z M41.3270229,67.0989147 C41.5681732,67.0989147 41.7636641,66.942522 41.7636641,66.7496018 C41.7636641,66.5566815 41.5681732,66.4002888 41.3270229,66.4002888 C41.0858726,66.4002888 40.8903817,66.5566815 40.8903817,66.7496018 C40.8903817,66.942522 41.0858726,67.0989147 41.3270229,67.0989147 Z M39.231145,67.0989147 C39.4722953,67.0989147 39.6677863,66.942522 39.6677863,66.7496018 C39.6677863,66.5566815 39.4722953,66.4002888 39.231145,66.4002888 C38.9899948,66.4002888 38.7945038,66.5566815 38.7945038,66.7496018 C38.7945038,66.942522 38.9899948,67.0989147 39.231145,67.0989147 Z M36.9606107,67.0989147 C37.201761,67.0989147 37.3972519,66.942522 37.3972519,66.7496018 C37.3972519,66.5566815 37.201761,66.4002888 36.9606107,66.4002888 C36.7194604,66.4002888 36.5239695,66.5566815 36.5239695,66.7496018 C36.5239695,66.942522 36.7194604,67.0989147 36.9606107,67.0989147 Z M50.2345038,64.8283804 C50.4756541,64.8283804 50.671145,64.6719877 50.671145,64.4790674 C50.671145,64.2861472 50.4756541,64.1297544 50.2345038,64.1297544 C49.9933535,64.1297544 49.7978626,64.2861472 49.7978626,64.4790674 C49.7978626,64.6719877 49.9933535,64.8283804 50.2345038,64.8283804 Z M48.138626,64.8283804 C48.3797762,64.8283804 48.5752672,64.6719877 48.5752672,64.4790674 C48.5752672,64.2861472 48.3797762,64.1297544 48.138626,64.1297544 C47.8974757,64.1297544 47.7019847,64.2861472 47.7019847,64.4790674 C47.7019847,64.6719877 47.8974757,64.8283804 48.138626,64.8283804 Z M45.6934351,64.8283804 C45.9345854,64.8283804 46.1300763,64.6719877 46.1300763,64.4790674 C46.1300763,64.2861472 45.9345854,64.1297544 45.6934351,64.1297544 C45.4522848,64.1297544 45.2567939,64.2861472 45.2567939,64.4790674 C45.2567939,64.6719877 45.4522848,64.8283804 45.6934351,64.8283804 Z M43.5975573,64.8283804 C43.8387075,64.8283804 44.0341985,64.6719877 44.0341985,64.4790674 C44.0341985,64.2861472 43.8387075,64.1297544 43.5975573,64.1297544 C43.356407,64.1297544 43.160916,64.2861472 43.160916,64.4790674 C43.160916,64.6719877 43.356407,64.8283804 43.5975573,64.8283804 Z M41.3270229,64.8283804 C41.5681732,64.8283804 41.7636641,64.6719877 41.7636641,64.4790674 C41.7636641,64.2861472 41.5681732,64.1297544 41.3270229,64.1297544 C41.0858726,64.1297544 40.8903817,64.2861472 40.8903817,64.4790674 C40.8903817,64.6719877 41.0858726,64.8283804 41.3270229,64.8283804 Z M39.231145,64.8283804 C39.4722953,64.8283804 39.6677863,64.6719877 39.6677863,64.4790674 C39.6677863,64.2861472 39.4722953,64.1297544 39.231145,64.1297544 C38.9899948,64.1297544 38.7945038,64.2861472 38.7945038,64.4790674 C38.7945038,64.6719877 38.9899948,64.8283804 39.231145,64.8283804 Z M36.9606107,64.8283804 C37.201761,64.8283804 37.3972519,64.6719877 37.3972519,64.4790674 C37.3972519,64.2861472 37.201761,64.1297544 36.9606107,64.1297544 C36.7194604,64.1297544 36.5239695,64.2861472 36.5239695,64.4790674 C36.5239695,64.6719877 36.7194604,64.8283804 36.9606107,64.8283804 Z M50.2345038,62.557846 C50.4756541,62.557846 50.671145,62.4014533 50.671145,62.2085331 C50.671145,62.0156128 50.4756541,61.8592201 50.2345038,61.8592201 C49.9933535,61.8592201 49.7978626,62.0156128 49.7978626,62.2085331 C49.7978626,62.4014533 49.9933535,62.557846 50.2345038,62.557846 Z M48.138626,62.557846 C48.3797762,62.557846 48.5752672,62.4014533 48.5752672,62.2085331 C48.5752672,62.0156128 48.3797762,61.8592201 48.138626,61.8592201 C47.8974757,61.8592201 47.7019847,62.0156128 47.7019847,62.2085331 C47.7019847,62.4014533 47.8974757,62.557846 48.138626,62.557846 Z M45.6934351,62.557846 C45.9345854,62.557846 46.1300763,62.4014533 46.1300763,62.2085331 C46.1300763,62.0156128 45.9345854,61.8592201 45.6934351,61.8592201 C45.4522848,61.8592201 45.2567939,62.0156128 45.2567939,62.2085331 C45.2567939,62.4014533 45.4522848,62.557846 45.6934351,62.557846 Z M43.5975573,62.557846 C43.8387075,62.557846 44.0341985,62.4014533 44.0341985,62.2085331 C44.0341985,62.0156128 43.8387075,61.8592201 43.5975573,61.8592201 C43.356407,61.8592201 43.160916,62.0156128 43.160916,62.2085331 C43.160916,62.4014533 43.356407,62.557846 43.5975573,62.557846 Z M41.3270229,62.557846 C41.5681732,62.557846 41.7636641,62.4014533 41.7636641,62.2085331 C41.7636641,62.0156128 41.5681732,61.8592201 41.3270229,61.8592201 C41.0858726,61.8592201 40.8903817,62.0156128 40.8903817,62.2085331 C40.8903817,62.4014533 41.0858726,62.557846 41.3270229,62.557846 Z M39.231145,62.557846 C39.4722953,62.557846 39.6677863,62.4014533 39.6677863,62.2085331 C39.6677863,62.0156128 39.4722953,61.8592201 39.231145,61.8592201 C38.9899948,61.8592201 38.7945038,62.0156128 38.7945038,62.2085331 C38.7945038,62.4014533 38.9899948,62.557846 39.231145,62.557846 Z M36.9606107,62.557846 C37.201761,62.557846 37.3972519,62.4014533 37.3972519,62.2085331 C37.3972519,62.0156128 37.201761,61.8592201 36.9606107,61.8592201 C36.7194604,61.8592201 36.5239695,62.0156128 36.5239695,62.2085331 C36.5239695,62.4014533 36.7194604,62.557846 36.9606107,62.557846 Z M50.2345038,60.4619682 C50.4756541,60.4619682 50.671145,60.3055754 50.671145,60.1126552 C50.671145,59.919735 50.4756541,59.7633422 50.2345038,59.7633422 C49.9933535,59.7633422 49.7978626,59.919735 49.7978626,60.1126552 C49.7978626,60.3055754 49.9933535,60.4619682 50.2345038,60.4619682 Z M48.138626,60.4619682 C48.3797762,60.4619682 48.5752672,60.3055754 48.5752672,60.1126552 C48.5752672,59.919735 48.3797762,59.7633422 48.138626,59.7633422 C47.8974757,59.7633422 47.7019847,59.919735 47.7019847,60.1126552 C47.7019847,60.3055754 47.8974757,60.4619682 48.138626,60.4619682 Z M45.6934351,60.4619682 C45.9345854,60.4619682 46.1300763,60.3055754 46.1300763,60.1126552 C46.1300763,59.919735 45.9345854,59.7633422 45.6934351,59.7633422 C45.4522848,59.7633422 45.2567939,59.919735 45.2567939,60.1126552 C45.2567939,60.3055754 45.4522848,60.4619682 45.6934351,60.4619682 Z M43.5975573,60.4619682 C43.8387075,60.4619682 44.0341985,60.3055754 44.0341985,60.1126552 C44.0341985,59.919735 43.8387075,59.7633422 43.5975573,59.7633422 C43.356407,59.7633422 43.160916,59.919735 43.160916,60.1126552 C43.160916,60.3055754 43.356407,60.4619682 43.5975573,60.4619682 Z M41.3270229,60.4619682 C41.5681732,60.4619682 41.7636641,60.3055754 41.7636641,60.1126552 C41.7636641,59.919735 41.5681732,59.7633422 41.3270229,59.7633422 C41.0858726,59.7633422 40.8903817,59.919735 40.8903817,60.1126552 C40.8903817,60.3055754 41.0858726,60.4619682 41.3270229,60.4619682 Z M39.231145,60.4619682 C39.4722953,60.4619682 39.6677863,60.3055754 39.6677863,60.1126552 C39.6677863,59.919735 39.4722953,59.7633422 39.231145,59.7633422 C38.9899948,59.7633422 38.7945038,59.919735 38.7945038,60.1126552 C38.7945038,60.3055754 38.9899948,60.4619682 39.231145,60.4619682 Z M36.9606107,60.4619682 C37.201761,60.4619682 37.3972519,60.3055754 37.3972519,60.1126552 C37.3972519,59.919735 37.201761,59.7633422 36.9606107,59.7633422 C36.7194604,59.7633422 36.5239695,59.919735 36.5239695,60.1126552 C36.5239695,60.3055754 36.7194604,60.4619682 36.9606107,60.4619682 Z M50.2345038,58.1914338 C50.4756541,58.1914338 50.671145,58.0350411 50.671145,57.8421209 C50.671145,57.6492006 50.4756541,57.4928079 50.2345038,57.4928079 C49.9933535,57.4928079 49.7978626,57.6492006 49.7978626,57.8421209 C49.7978626,58.0350411 49.9933535,58.1914338 50.2345038,58.1914338 Z M48.138626,58.1914338 C48.3797762,58.1914338 48.5752672,58.0350411 48.5752672,57.8421209 C48.5752672,57.6492006 48.3797762,57.4928079 48.138626,57.4928079 C47.8974757,57.4928079 47.7019847,57.6492006 47.7019847,57.8421209 C47.7019847,58.0350411 47.8974757,58.1914338 48.138626,58.1914338 Z M45.6934351,58.1914338 C45.9345854,58.1914338 46.1300763,58.0350411 46.1300763,57.8421209 C46.1300763,57.6492006 45.9345854,57.4928079 45.6934351,57.4928079 C45.4522848,57.4928079 45.2567939,57.6492006 45.2567939,57.8421209 C45.2567939,58.0350411 45.4522848,58.1914338 45.6934351,58.1914338 Z M43.5975573,58.1914338 C43.8387075,58.1914338 44.0341985,58.0350411 44.0341985,57.8421209 C44.0341985,57.6492006 43.8387075,57.4928079 43.5975573,57.4928079 C43.356407,57.4928079 43.160916,57.6492006 43.160916,57.8421209 C43.160916,58.0350411 43.356407,58.1914338 43.5975573,58.1914338 Z M41.3270229,58.1914338 C41.5681732,58.1914338 41.7636641,58.0350411 41.7636641,57.8421209 C41.7636641,57.6492006 41.5681732,57.4928079 41.3270229,57.4928079 C41.0858726,57.4928079 40.8903817,57.6492006 40.8903817,57.8421209 C40.8903817,58.0350411 41.0858726,58.1914338 41.3270229,58.1914338 Z M39.231145,58.1914338 C39.4722953,58.1914338 39.6677863,58.0350411 39.6677863,57.8421209 C39.6677863,57.6492006 39.4722953,57.4928079 39.231145,57.4928079 C38.9899948,57.4928079 38.7945038,57.6492006 38.7945038,57.8421209 C38.7945038,58.0350411 38.9899948,58.1914338 39.231145,58.1914338 Z M36.9606107,58.1914338 C37.201761,58.1914338 37.3972519,58.0350411 37.3972519,57.8421209 C37.3972519,57.6492006 37.201761,57.4928079 36.9606107,57.4928079 C36.7194604,57.4928079 36.5239695,57.6492006 36.5239695,57.8421209 C36.5239695,58.0350411 36.7194604,58.1914338 36.9606107,58.1914338 Z M44.0239695,53.441739 C46.3390122,53.441739 48.2157252,51.5650261 48.2157252,49.2499833 C48.2157252,46.9349405 46.3390122,45.0582276 44.0239695,45.0582276 C41.7089267,45.0582276 39.8322137,46.9349405 39.8322137,49.2499833 C39.8322137,51.5650261 41.7089267,53.441739 44.0239695,53.441739 Z M44.0239695,52.5684566 C42.1912273,52.5684566 40.7054962,51.0827255 40.7054962,49.2499833 C40.7054962,47.4172411 42.1912273,45.93151 44.0239695,45.93151 C45.8567117,45.93151 47.3424427,47.4172411 47.3424427,49.2499833 C47.3424427,51.0827255 45.8567117,52.5684566 44.0239695,52.5684566 Z M44.0239695,51.8698306 C45.4708712,51.8698306 46.6438168,50.696885 46.6438168,49.2499833 C46.6438168,47.8030816 45.4708712,46.630136 44.0239695,46.630136 C42.5770677,46.630136 41.4041221,47.8030816 41.4041221,49.2499833 C41.4041221,50.696885 42.5770677,51.8698306 44.0239695,51.8698306 Z M44.0239695,50.9965482 C43.0593683,50.9965482 42.2774046,50.2145845 42.2774046,49.2499833 C42.2774046,48.2853822 43.0593683,47.5034184 44.0239695,47.5034184 C44.9885706,47.5034184 45.7705344,48.2853822 45.7705344,49.2499833 C45.7705344,50.2145845 44.9885706,50.9965482 44.0239695,50.9965482 Z M10.0765714,5.82337072 L18.8737308,4.31341053 C22.8405705,3.63253506 26.6082881,6.29633538 27.2891635,10.2631751 C27.3590602,10.6703992 27.3941985,11.08283 27.3941985,11.4960092 L27.3941985,27.9651464 C27.3941985,33.3404369 23.0366645,37.6979709 17.661374,37.6979709 L9.62717557,37.6979709 C5.40940645,37.6979709 1.99022901,34.2787934 1.99022901,30.0610243 L1.99022901,15.4159183 C1.99022901,10.6759256 5.40489514,6.6252256 10.0765714,5.82337072 Z M10.4149073,7.7945452 C6.70321473,8.43162676 3.99022901,11.6499476 3.99022901,15.4159183 L3.99022901,30.0610243 C3.99022901,33.1742239 6.51397595,35.6979709 9.62717557,35.6979709 L17.661374,35.6979709 C21.9320951,35.6979709 25.3941985,32.2358674 25.3941985,27.9651464 L25.3941985,11.4960092 C25.3941985,11.1962219 25.3687035,10.8969776 25.3179891,10.601511 C24.8239714,7.7233209 22.0902568,5.7905673 19.2120667,6.284585 L10.4149073,7.7945452 Z M12.7246073,11.3278158 C10.1044071,11.8040681 8.1997821,14.0860873 8.1997821,16.7492181 L8.1997821,28.8997426 C8.1997821,30.4960564 9.49385006,31.7901243 11.0901638,31.7901243 L17.1983858,31.7901243 C19.9522209,31.7901243 22.1846454,29.5576999 22.1846454,26.8038648 L22.1846454,13.0714422 C22.1846454,12.8980963 22.1690512,12.7251018 22.1380515,12.5545502 C21.8525799,10.9839696 20.3479524,9.94218288 18.7773717,10.2276544 L12.7246073,11.3278158 Z M18.4197083,8.25989509 C21.0770524,7.77689146 23.6228072,9.53954267 24.1058108,12.1968868 C24.1582609,12.4854515 24.1846454,12.7781495 24.1846454,13.0714422 L24.1846454,26.8038648 C24.1846454,30.6622694 21.0567904,33.7901243 17.1983858,33.7901243 L11.0901638,33.7901243 C8.38928056,33.7901243 6.1997821,31.6006259 6.1997821,28.8997426 L6.1997821,16.7492181 C6.1997821,13.1194739 8.79571226,10.0091699 12.3669438,9.36005642 L18.4197083,8.25989509 Z M78.9185431,5.82337072 C83.5902194,6.6252256 87.0048855,10.6759256 87.0048855,15.4159183 L87.0048855,30.0610243 C87.0048855,34.2787934 83.5857081,37.6979709 79.3679389,37.6979709 L71.3337405,37.6979709 C65.95845,37.6979709 61.600916,33.3404369 61.600916,27.9651464 L61.600916,11.4960092 C61.600916,11.08283 61.6360543,10.6703992 61.705951,10.2631751 C62.3868264,6.29633538 66.154544,3.63253506 70.1213837,4.31341053 L78.9185431,5.82337072 Z M78.5802072,7.7945452 L69.7830478,6.284585 C66.9048577,5.7905673 64.1711431,7.7233209 63.6771254,10.601511 C63.626411,10.8969776 63.600916,11.1962219 63.600916,11.4960092 L63.600916,27.9651464 C63.600916,32.2358674 67.0630195,35.6979709 71.3337405,35.6979709 L79.3679389,35.6979709 C82.4811386,35.6979709 85.0048855,33.1742239 85.0048855,30.0610243 L85.0048855,15.4159183 C85.0048855,11.6499476 82.2918998,8.43162676 78.5802072,7.7945452 Z M70.5754062,8.25989509 L76.6281707,9.36005642 C80.1994022,10.0091699 82.7953324,13.1194739 82.7953324,16.7492181 L82.7953324,28.8997426 C82.7953324,31.6006259 80.6058339,33.7901243 77.9049507,33.7901243 L71.7967287,33.7901243 C67.9383241,33.7901243 64.8104691,30.6622694 64.8104691,26.8038648 L64.8104691,13.0714422 C64.8104691,12.7781495 64.8368536,12.4854515 64.8893037,12.1968868 C65.3723073,9.53954267 67.9180621,7.77689146 70.5754062,8.25989509 Z M76.2705072,11.3278158 C78.8907074,11.8040681 80.7953324,14.0860873 80.7953324,16.7492181 L80.7953324,28.8997426 C80.7953324,30.4960564 79.5012644,31.7901243 77.9049507,31.7901243 L71.7967287,31.7901243 C69.0428936,31.7901243 66.8104691,29.5576999 66.8104691,26.8038648 L66.8104691,13.0714422 C66.8104691,12.8980963 66.8260633,12.7251018 66.857063,12.5545502 C67.1425346,10.9839696 68.6471622,9.94218288 70.2177428,10.2276544 L76.2705072,11.3278158 Z" id="Combined-Shape" fill="#999999"></path>
    </g>
</svg>