<?xml version="1.0" encoding="UTF-8"?>
<svg width="88px" height="88px" viewBox="0 0 88 88" version="1.1" xmlns="http://www.w3.org/2000/svg" xmlns:xlink="http://www.w3.org/1999/xlink">
    <!-- Generator: Sketch 51 (57462) - http://www.bohemiancoding.com/sketch -->
    <title>Device2/devices_icon_keypad2_s  </title>
    <desc>Created with Sketch.</desc>
    <defs>
        <linearGradient x1="112.960737%" y1="-19.1113281%" x2="-16.6566506%" y2="116.977539%" id="linearGradient-1">
            <stop stop-color="#8AADEC" offset="0%"></stop>
            <stop stop-color="#1E50A0" offset="100%"></stop>
        </linearGradient>
    </defs>
    <g id="Device2/devices_icon_keypad2_s--" stroke="none" stroke-width="1" fill="none" fill-rule="evenodd">
        <g id="Group" transform="translate(5.000000, 4.000000)" fill="url(#linearGradient-1)">
            <path d="M8,0 L70,0 C74.418278,-8.11624501e-16 78,3.581722 78,8 L78,72 C78,76.418278 74.418278,80 70,80 L8,80 C3.581722,80 5.41083001e-16,76.418278 0,72 L0,8 C-5.41083001e-16,3.581722 3.581722,8.11624501e-16 8,0 Z M17,36 C19.7614237,36 22,33.7614237 22,31 C22,28.2385763 19.7614237,26 17,26 C14.2385763,26 12,28.2385763 12,31 C12,33.7614237 14.2385763,36 17,36 Z M17,52 C19.7614237,52 22,49.7614237 22,47 C22,44.2385763 19.7614237,42 17,42 C14.2385763,42 12,44.2385763 12,47 C12,49.7614237 14.2385763,52 17,52 Z M39,36 C41.7614237,36 44,33.7614237 44,31 C44,28.2385763 41.7614237,26 39,26 C36.2385763,26 34,28.2385763 34,31 C34,33.7614237 36.2385763,36 39,36 Z M39,52 C41.7614237,52 44,49.7614237 44,47 C44,44.2385763 41.7614237,42 39,42 C36.2385763,42 34,44.2385763 34,47 C34,49.7614237 36.2385763,52 39,52 Z M61,36 C63.7614237,36 66,33.7614237 66,31 C66,28.2385763 63.7614237,26 61,26 C58.2385763,26 56,28.2385763 56,31 C56,33.7614237 58.2385763,36 61,36 Z M61,52 C63.7614237,52 66,49.7614237 66,47 C66,44.2385763 63.7614237,42 61,42 C58.2385763,42 56,44.2385763 56,47 C56,49.7614237 58.2385763,52 61,52 Z M17,68 C19.7614237,68 22,65.7614237 22,63 C22,60.2385763 19.7614237,58 17,58 C14.2385763,58 12,60.2385763 12,63 C12,65.7614237 14.2385763,68 17,68 Z M39,68 C41.7614237,68 44,65.7614237 44,63 C44,60.2385763 41.7614237,58 39,58 C36.2385763,58 34,60.2385763 34,63 C34,65.7614237 36.2385763,68 39,68 Z M61,68 C63.7614237,68 66,65.7614237 66,63 C66,60.2385763 63.7614237,58 61,58 C58.2385763,58 56,60.2385763 56,63 C56,65.7614237 58.2385763,68 61,68 Z" id="Combined-Shape"></path>
        </g>
    </g>
</svg>