<?xml version="1.0" encoding="UTF-8"?>
<svg width="88px" height="88px" viewBox="0 0 88 88" version="1.1" xmlns="http://www.w3.org/2000/svg" xmlns:xlink="http://www.w3.org/1999/xlink">
    <!-- Generator: Sketch 51 (57462) - http://www.bohemiancoding.com/sketch -->
    <title>Device2/devices_icon_zw_doorwindow_s</title>
    <desc>Created with Sketch.</desc>
    <defs>
        <linearGradient x1="112.960737%" y1="-19.1113281%" x2="-16.6566506%" y2="116.977539%" id="linearGradient-1">
            <stop stop-color="#8AADEC" offset="0%"></stop>
            <stop stop-color="#1E50A0" offset="100%"></stop>
        </linearGradient>
    </defs>
    <g id="Device2/devices_icon_zw_doorwindow_s" stroke="none" stroke-width="1" fill="none" fill-rule="evenodd">
        <path d="M37.7558763,86.912 L23.2796921,86.912 C18.8279551,86.912 15.1381729,83.4903869 14.8926937,79.1054189 C13.5794109,55.6399838 13.5794109,32.1720181 14.892695,8.7057583 C15.138167,4.32091913 18.8278427,0.9 23.2796921,0.9 L37.7558763,0.9 C42.2077257,0.9 45.8974015,4.32091913 46.1428749,8.70578399 C47.4561575,32.1720181 47.4561575,55.6399838 46.1428734,79.1054417 C45.8973955,83.4903869 42.2076133,86.912 37.7558763,86.912 Z M37.0908989,79.8795855 C39.8742889,79.8795855 41.2012643,77.6497175 41.3804603,73.8591965 C42.3422381,53.5330717 42.3422381,33.2052992 41.3804593,12.8791532 C41.221502,9.51760554 38.7973756,6.85878545 35.8275259,6.85878545 L25.2081401,6.85878545 C22.2384352,6.85878545 19.8142339,9.51741344 19.6544615,12.8790482 C18.6926777,33.2052992 18.6926777,53.5330717 19.6544565,73.8592177 C19.8345853,77.6501286 21.1615257,79.8795855 23.9447671,79.8795855 L37.0908989,79.8795855 Z M37.0908989,78.8795855 L23.9447671,78.8795855 C21.8475832,78.8795855 20.8114107,77.1386619 20.6533342,73.8118542 C19.6930502,53.5172992 19.6930502,33.2210717 20.6533389,12.9264177 C20.7890987,10.0700114 22.805348,7.85878545 25.2081401,7.85878545 L35.8275259,7.85878545 C38.2304021,7.85878545 40.2465096,10.0700839 40.3815762,12.9264025 C41.3418656,33.2210717 41.3418656,53.5172992 40.3815769,73.8119532 C40.2243192,77.1384144 39.1881631,78.8795855 37.0908989,78.8795855 Z M68.7053234,62.5 L61.7708671,62.5 C59.2418744,62.5 57.1170643,60.6170677 56.9732648,58.1623963 C56.3422451,47.3878822 56.3422451,36.6121198 56.9732662,25.8372136 C57.1170634,23.3825807 59.2418464,21.5 61.7708671,21.5 L68.7053234,21.5 C71.234344,21.5 73.3591271,23.3825807 73.5029258,25.8372405 C74.1339454,36.6121198 74.1339454,47.3878822 73.5029243,58.1624202 C73.3591262,60.6170677 71.234316,62.5 68.7053234,62.5 Z" id="Combined-Shape" fill="url(#linearGradient-1)"></path>
    </g>
</svg>