<?xml version="1.0" encoding="UTF-8"?>
<svg width="88px" height="88px" viewBox="0 0 88 88" version="1.1" xmlns="http://www.w3.org/2000/svg" xmlns:xlink="http://www.w3.org/1999/xlink">
    <!-- Generator: Sketch 51 (57462) - http://www.bohemiancoding.com/sketch -->
    <title>Device2/devices_icon_coffeemaker_s</title>
    <desc>Created with Sketch.</desc>
    <defs></defs>
    <g id="Device2/devices_icon_coffeemaker_s" stroke="none" stroke-width="1" fill="none" fill-rule="evenodd">
        <path d="M39.616,20.0645 L39.616,28.8615 C39.616,29.4137847 39.1682847,29.8615 38.616,29.8615 L29.675,29.8615 C29.1227153,29.8615 28.675,29.4137847 28.675,28.8615 L28.675,20.0645 L13.3308,20.0645 C8.89537288,20.0645 5.2988,16.4679271 5.2988,12.0325 C5.2988,7.59638272 8.89506299,4.0005 13.3308,4.0005 L80.1488,4.0005 C82.6884977,4.0005 84.7478,6.05934335 84.7478,8.5995 L84.7478,80.3065 C84.7478,82.8459271 82.6882271,84.9055 80.1488,84.9055 L10.8048,84.9055 C7.76437288,84.9055 5.2988,82.4399271 5.2988,79.3995 C5.2988,76.3583603 7.76408536,73.8935 10.8048,73.8935 L25.831894,73.8935 C19.9392336,71.2470934 15.4023801,66.1197881 13.5511218,59.8412 L12.4356,59.8412 C7.22417288,59.8412 2.9996,55.6166271 2.9996,50.4052 L2.9996,50.1452 C2.9996,44.9337729 7.22417288,40.7092 12.4356,40.7092 L14.1121968,40.7092 C14.1222738,40.7090003 14.1323752,40.7089 14.1425,40.7089 L56.8515,40.7089 C57.6799271,40.7089 58.3515,41.3804729 58.3515,42.2089 L58.3515,53.5159 C58.3515,62.5912975 52.9369198,70.4018142 45.162106,73.8935 L66.2158,73.8935 C68.8113729,73.8935 70.9148,71.7900729 70.9148,69.1945 L70.9148,24.7635 C70.9148,22.1679271 68.8113729,20.0645 66.2158,20.0645 L39.616,20.0645 Z M15.6426,43.7089 L15.6426,53.5787432 C15.6764831,64.2240572 24.3165256,72.8429 34.9695,72.8429 L36.0245,72.8429 C46.6984294,72.8429 55.3515,64.1901164 55.3515,53.5159 L55.3515,43.7089 L15.6426,43.7089 Z M50.7556,58.6936 C49.0336,65.5246 42.8506,70.5746 35.4996,70.5746 C28.1376,70.5746 21.9536,65.5246 20.2316,58.6936 L50.7556,58.6936 Z M12.4356,43.7092 C8.88102712,43.7092 5.9996,46.5906271 5.9996,50.1452 L5.9996,50.4052 C5.9996,53.9597729 8.88102712,56.8412 12.4356,56.8412 L12.6426,56.8412 L12.6426,43.7092 L12.4356,43.7092 Z" id="Combined-Shape" fill="#999999"></path>
    </g>
</svg>