<?xml version="1.0" encoding="UTF-8"?>
<svg width="48px" height="48px" viewBox="0 0 48 48" version="1.1" xmlns="http://www.w3.org/2000/svg" xmlns:xlink="http://www.w3.org/1999/xlink">
    <!-- Generator: Sketch 51 (57462) - http://www.bohemiancoding.com/sketch -->
    <title>ICONS/device_icon_brightness_weak</title>
    <desc>Created with Sketch.</desc>
    <defs></defs>
    <g id="ICONS/device_icon_brightness_weak" stroke="none" stroke-width="1" fill="none" fill-rule="evenodd">
        <path d="M24,14.9145972 C18.9894004,14.9145972 14.9145972,18.9894004 14.9145972,24 C14.9145972,29.0105996 18.9894004,33.0854028 24,33.0854028 C29.0105996,33.0854028 33.0854028,29.0105996 33.0854028,24 C33.0854028,18.9894004 29.0105996,14.9145972 24,14.9145972 M24,36.1138704 C17.3207147,36.1138704 11.8861296,30.6792853 11.8861296,24 C11.8861296,17.3207147 17.3207147,11.8861296 24,11.8861296 C30.6792853,11.8861296 36.1138704,17.3207147 36.1138704,24 C36.1138704,30.6792853 30.6792853,36.1138704 24,36.1138704 Z M24,9.08540279 C23.1641429,9.08540279 22.4857662,8.40854028 22.4857662,7.57116899 L22.4857662,1.5142338 C22.4857662,0.676862508 23.1641429,0 24,0 C24.8358571,0 25.5142338,0.676862508 25.5142338,1.5142338 L25.5142338,7.57116899 C25.5142338,8.40854028 24.8358571,9.08540279 24,9.08540279 Z M24,47.9984858 C23.1641429,47.9984858 22.4857662,47.3216233 22.4857662,46.484252 L22.4857662,40.4273168 C22.4857662,39.5899455 23.1641429,38.913083 24,38.913083 C24.8358571,38.913083 25.5142338,39.5899455 25.5142338,40.4273168 L25.5142338,46.484252 C25.5142338,47.3216233 24.8358571,47.9984858 24,47.9984858 Z M46.4857662,25.5142338 L40.428831,25.5142338 C39.592974,25.5142338 38.9145972,24.8373713 38.9145972,24 C38.9145972,23.1626287 39.592974,22.4857662 40.428831,22.4857662 L46.4857662,22.4857662 C47.3216233,22.4857662 48,23.1626287 48,24 C48,24.8373713 47.3216233,25.5142338 46.4857662,25.5142338 Z M7.57116899,25.5142338 L1.5142338,25.5142338 C0.678376741,25.5142338 0,24.8373713 0,24 C0,23.1626287 0.678376741,22.4857662 1.5142338,22.4857662 L7.57116899,22.4857662 C8.40702604,22.4857662 9.08540279,23.1626287 9.08540279,24 C9.08540279,24.8373713 8.40702604,25.5142338 7.57116899,25.5142338 Z" id="Combined-Shape" fill="#999999"></path>
    </g>
</svg>