<?xml version="1.0" encoding="UTF-8"?>
<svg width="88px" height="88px" viewBox="0 0 88 88" version="1.1" xmlns="http://www.w3.org/2000/svg" xmlns:xlink="http://www.w3.org/1999/xlink">
    <!-- Generator: Sketch 51 (57462) - http://www.bohemiancoding.com/sketch -->
    <title>Device2/devices_icon_keyfod1_s </title>
    <desc>Created with Sketch.</desc>
    <defs></defs>
    <g id="Device2/devices_icon_keyfod1_s-" stroke="none" stroke-width="1" fill="none" fill-rule="evenodd">
        <g id="Group" transform="translate(6.000000, 4.000000)" fill="#999999">
            <path d="M69.4904231,69.0213346 C69.6584081,69.0072069 69.8283624,69 70,69 C73.3137085,69 76,71.6862915 76,75 C76,78.3137085 73.3137085,81 70,81 C67.4474247,81 65.2671423,79.4060244 64.4002245,77.1591449 C61.6033504,79.5536839 57.9705778,81 54,81 L16,81 C7.163444,81 -6.94190838e-16,73.836556 -1.77635684e-15,65 L0,16 C-1.082166e-15,7.163444 7.163444,1.623249e-15 16,0 L54,0 C62.836556,-1.623249e-15 70,7.163444 70,16 L70,65 C70,66.3888833 69.823035,67.7364342 69.4904231,69.0213346 Z M22,61 C26.418278,61 30,57.418278 30,53 C30,48.581722 26.418278,45 22,45 C17.581722,45 14,48.581722 14,53 C14,57.418278 17.581722,61 22,61 Z M22,36 C26.418278,36 30,32.418278 30,28 C30,23.581722 26.418278,20 22,20 C17.581722,20 14,23.581722 14,28 C14,32.418278 17.581722,36 22,36 Z M48,61 C52.418278,61 56,57.418278 56,53 C56,48.581722 52.418278,45 48,45 C43.581722,45 40,48.581722 40,53 C40,57.418278 43.581722,61 48,61 Z M48,36 C52.418278,36 56,32.418278 56,28 C56,23.581722 52.418278,20 48,20 C43.581722,20 40,23.581722 40,28 C40,32.418278 43.581722,36 48,36 Z M70,78 C71.6568542,78 73,76.6568542 73,75 C73,73.3431458 71.6568542,72 70,72 C68.3431458,72 67,73.3431458 67,75 C67,76.6568542 68.3431458,78 70,78 Z" id="Combined-Shape"></path>
        </g>
    </g>
</svg>