<?xml version="1.0" encoding="UTF-8"?>
<svg width="88px" height="88px" viewBox="0 0 88 88" version="1.1" xmlns="http://www.w3.org/2000/svg" xmlns:xlink="http://www.w3.org/1999/xlink">
    <!-- Generator: Sketch 51 (57462) - http://www.bohemiancoding.com/sketch -->
    <title>Device2/devices_icon_zb_eu_plug_s</title>
    <desc>Created with Sketch.</desc>
    <defs>
        <linearGradient x1="112.960737%" y1="-19.1113281%" x2="-16.6566506%" y2="116.977539%" id="linearGradient-1">
            <stop stop-color="#8AADEC" offset="0%"></stop>
            <stop stop-color="#1E50A0" offset="100%"></stop>
        </linearGradient>
    </defs>
    <g id="Device2/devices_icon_zb_eu_plug_s" stroke="none" stroke-width="1" fill="none" fill-rule="evenodd">
        <g id="Group-7" transform="translate(14.000000, 3.000000)" fill="url(#linearGradient-1)">
            <path d="M8,47.6298828 L29,47.6298828 L29,64 L22.8611508,64 L22.8611508,76.7097457 C22.8611508,79.3445477 21.0001898,81.5 18.6809674,81.5 C16.3611415,81.5 14.5,79.3447496 14.5,76.7097457 L14.5,64 L8,64 L8,47.6298828 Z M7.82714844,45.6621622 L4.44083789,45.6621622 L4.30222719,44.3157755 L0.536697109,7.73952545 C0.139140109,3.89358189 3.01893383,0.5 6.76784702,0.5 L53.2315793,0.5 L53.2315793,2 L53.2315793,0.5 C56.9805392,0.5 59.8590469,3.89248443 59.4636459,7.73893945 L55.558557,45.6621622 L53.4999719,45.6621622 L53.4999719,45.6298828 L7.82714844,45.6298828 L7.82714844,45.6621622 Z M53,47.6298828 L53,64 L46.5,64 L46.5,76.7097457 C46.5,79.3447496 44.6388585,81.5 42.3190326,81.5 C39.9998102,81.5 38.1388492,79.3445477 38.1388492,76.7097457 L38.1388492,64 L31,64 L31,47.6298828 L53,47.6298828 Z M30,38.8918919 C30.5522847,38.8918919 31,38.4199758 31,37.8378378 C31,37.2556999 30.5522847,36.7837838 30,36.7837838 C29.4477153,36.7837838 29,37.2556999 29,37.8378378 C29,38.4199758 29.4477153,38.8918919 30,38.8918919 Z M30.019834,33.9283148 L30.019834,35.4283148 C33.1025083,35.4283148 35.5739695,32.8519325 35.5739695,29.7017789 C35.5739695,26.5545751 33.1018256,23.9797692 30.019834,23.9797692 C26.938454,23.9797692 24.4656985,26.5548364 24.4656985,29.7017789 C24.4656985,32.8516709 26.9377713,35.4283148 30.019834,35.4283148 L30.019834,33.9283148 Z M30.019834,33.9283148 L30.019834,32.4283148 C28.6230695,32.4283148 27.4656985,31.2219859 27.4656985,29.7017789 C27.4656985,28.1850898 28.6231297,26.9797692 30.019834,26.9797692 C31.4170477,26.9797692 32.5739695,28.1847351 32.5739695,29.7017789 C32.5739695,31.2223408 31.4171079,32.4283148 30.019834,32.4283148 L30.019834,33.9283148 Z" id="Combined-Shape"></path>
        </g>
    </g>
</svg>