<?xml version="1.0" encoding="UTF-8"?>
<svg width="88px" height="88px" viewBox="0 0 88 88" version="1.1" xmlns="http://www.w3.org/2000/svg" xmlns:xlink="http://www.w3.org/1999/xlink">
    <!-- Generator: Sketch 51 (57462) - http://www.bohemiancoding.com/sketch -->
    <title>Device2/devices_icon_zb_dimmer_switch_s</title>
    <desc>Created with Sketch.</desc>
    <defs>
        <linearGradient x1="112.960737%" y1="-19.1113281%" x2="-16.6566506%" y2="116.977539%" id="linearGradient-1">
            <stop stop-color="#8AADEC" offset="0%"></stop>
            <stop stop-color="#1E50A0" offset="100%"></stop>
        </linearGradient>
    </defs>
    <g id="Device2/devices_icon_zb_dimmer_switch_s" stroke="none" stroke-width="1" fill="none" fill-rule="evenodd">
        <path d="M61.8181156,85.8286938 L26.9973876,85.8286938 C24.2374451,85.8286938 22,83.591173 22,80.8311349 L22,7.99755889 C22,5.23752079 24.2374451,3 26.9973876,3 L61.8181156,3 C64.5781916,3 66.8156745,5.23748294 66.8156745,7.99755889 L66.8156745,80.8311349 C66.8156745,83.5912109 64.5781916,85.8286938 61.8181156,85.8286938 Z M50.9370021,76.5877944 C52.4599143,76.5877944 53.6946895,75.3531906 53.6946895,73.8301071 L53.6946895,10.4846681 C53.6946895,8.96158458 52.4599143,7.72698073 50.9370021,7.72698073 L30.0153747,7.72698073 C28.4924625,7.72698073 27.2578587,8.96158458 27.2578587,10.4846681 L27.2578587,73.8301071 C27.2578587,75.3531906 28.4924625,76.5877944 30.0153747,76.5877944 L50.9370021,76.5877944 Z M58.9142784,8.4143469 C58.0858512,8.4143469 57.4142784,9.08591977 57.4142784,9.9143469 L57.4142784,38.9143469 C57.4142784,39.742774 58.0858512,40.4143469 58.9142784,40.4143469 C59.7427055,40.4143469 60.4142784,39.742774 60.4142784,38.9143469 L60.4142784,9.9143469 C60.4142784,9.08591977 59.7427055,8.4143469 58.9142784,8.4143469 Z M50.6946895,73.5877944 L50.6946895,10.7269807 L30.2578587,10.7269807 L30.2578587,73.5877944 L50.6946895,73.5877944 Z M42.4142784,66.4143469 C42.4142784,65.3098184 41.5187992,64.4143469 40.4142784,64.4143469 C39.3097576,64.4143469 38.4142784,65.3098184 38.4142784,66.4143469 C38.4142784,67.5188754 39.3097576,68.4143469 40.4142784,68.4143469 C41.5187992,68.4143469 42.4142784,67.5188754 42.4142784,66.4143469 Z M43.4142784,66.4143469 C43.4142784,68.0711749 42.0710692,69.4143469 40.4142784,69.4143469 C38.7574876,69.4143469 37.4142784,68.0711749 37.4142784,66.4143469 C37.4142784,64.7575189 38.7574876,63.4143469 40.4142784,63.4143469 C42.0710692,63.4143469 43.4142784,64.7575189 43.4142784,66.4143469 Z" id="Combined-Shape" fill="url(#linearGradient-1)"></path>
    </g>
</svg>