<?xml version="1.0" encoding="UTF-8"?>
<svg width="88px" height="88px" viewBox="0 0 88 88" version="1.1" xmlns="http://www.w3.org/2000/svg" xmlns:xlink="http://www.w3.org/1999/xlink">
    <!-- Generator: Sketch 51 (57462) - http://www.bohemiancoding.com/sketch -->
    <title>Device2/devices_icon_zb_rgbw_remote_s</title>
    <desc>Created with Sketch.</desc>
    <defs>
        <linearGradient x1="112.960737%" y1="-19.1113281%" x2="-16.6566506%" y2="116.977539%" id="linearGradient-1">
            <stop stop-color="#8AADEC" offset="0%"></stop>
            <stop stop-color="#1E50A0" offset="100%"></stop>
        </linearGradient>
    </defs>
    <g id="Device2/devices_icon_zb_rgbw_remote_s" stroke="none" stroke-width="1" fill="none" fill-rule="evenodd">
        <path d="M25,5 L63,5 C74.045695,5 83,13.954305 83,25 L83,63 C83,74.045695 74.045695,83 63,83 L25,83 C13.954305,83 5,74.045695 5,63 L5,25 C5,13.954305 13.954305,5 25,5 Z M44,65 C55.5979797,65 65,55.5979797 65,44 C65,32.4020203 55.5979797,23 44,23 C32.4020203,23 23,32.4020203 23,44 C23,55.5979797 32.4020203,65 44,65 Z M44,62 C53.9411255,62 62,53.9411255 62,44 C62,34.0588745 53.9411255,26 44,26 C34.0588745,26 26,34.0588745 26,44 C26,53.9411255 34.0588745,62 44,62 Z" id="Combined-Shape" fill="url(#linearGradient-1)"></path>
    </g>
</svg>