<?xml version="1.0" encoding="UTF-8"?>
<svg width="88px" height="88px" viewBox="0 0 88 88" version="1.1" xmlns="http://www.w3.org/2000/svg" xmlns:xlink="http://www.w3.org/1999/xlink">
    <!-- Generator: Sketch 51 (57462) - http://www.bohemiancoding.com/sketch -->
    <title>Device2/devices_icon_remote2_s </title>
    <desc>Created with Sketch.</desc>
    <defs></defs>
    <g id="Device2/devices_icon_remote2_s-" stroke="none" stroke-width="1" fill="none" fill-rule="evenodd">
        <path d="M44.4995551,88 C31.6525551,88 21.0915551,77.425 20.4555551,63.925 L18.0105551,10.21 C17.8855551,7.473 18.8755551,4.791 20.7275551,2.853 C22.4855551,1.013 24.8235551,0 27.3105551,0 L61.6885551,0 C64.1765551,0 66.5135551,1.013 68.2705551,2.853 C70.1235551,4.79 71.1135551,7.472 70.9885551,10.21 L68.5425551,63.923 C67.9075551,77.425 57.3465551,88 44.4995551,88 Z M44.5,10 C39.2532949,10 35,14.2532949 35,19.5 L35,32.5 C35,37.7467051 39.2532949,42 44.5,42 C49.7467051,42 54,37.7467051 54,32.5 L54,19.5 C54,14.2532949 49.7467051,10 44.5,10 Z M44.5,74 C50.8512746,74 56,68.8512746 56,62.5 C56,56.1487254 50.8512746,51 44.5,51 C38.1487254,51 33,56.1487254 33,62.5 C33,68.8512746 38.1487254,74 44.5,74 Z M44.5,23 C42.5670034,23 41,21.4329966 41,19.5 C41,17.5670034 42.5670034,16 44.5,16 C46.4329966,16 48,17.5670034 48,19.5 C48,21.4329966 46.4329966,23 44.5,23 Z" id="Combined-Shape" fill="#999999"></path>
    </g>
</svg>