<?xml version="1.0" encoding="UTF-8"?>
<svg width="88px" height="88px" viewBox="0 0 88 88" version="1.1" xmlns="http://www.w3.org/2000/svg" xmlns:xlink="http://www.w3.org/1999/xlink">
    <!-- Generator: Sketch 51 (57462) - http://www.bohemiancoding.com/sketch -->
    <title>Device2/devices_icon_siren2_s</title>
    <desc>Created with Sketch.</desc>
    <defs>
        <linearGradient x1="112.960737%" y1="-19.1113281%" x2="-16.6566506%" y2="116.977539%" id="linearGradient-1">
            <stop stop-color="#8AADEC" offset="0%"></stop>
            <stop stop-color="#1E50A0" offset="100%"></stop>
        </linearGradient>
    </defs>
    <g id="Device2/devices_icon_siren2_s" stroke="none" stroke-width="1" fill="none" fill-rule="evenodd">
        <path d="M13,83.0002 L13,69 L75,69 L75,83.0002 L78.666,83.0002 C79.4944271,83.0002 80.166,83.6717729 80.166,84.5002 C80.166,85.3286271 79.4944271,86.0002 78.666,86.0002 L9.5,86.0002 C8.67157288,86.0002 8,85.3286271 8,84.5002 C8,83.6717729 8.67157288,83.0002 9.5,83.0002 L13,83.0002 Z M28,27 L60,27 C68.2842712,27 75,33.7157288 75,42 L75,66 L13,66 L13,42 C13,33.7157288 19.7157288,27 28,27 Z M42.7295,15.382 L42.7295,3.5 C42.7295,2.672 43.4015,2 44.2295,2 C45.0575,2 45.7295,2.672 45.7295,3.5 L45.7295,15.382 C45.7295,16.21 45.0575,16.882 44.2295,16.882 C43.4015,16.882 42.7295,16.21 42.7295,15.382 Z M18.2749,25.235 L11.9689,18.928 C11.3829,18.342 11.3829,17.393 11.9689,16.807 C12.5549,16.221 13.5039,16.221 14.0899,16.807 L20.3969,23.113 C20.9819,23.699 20.9819,24.649 20.3969,25.235 C20.1039,25.528 19.7199,25.674 19.3359,25.674 C18.9519,25.674 18.5679,25.528 18.2749,25.235 Z M67.7691,25.235 C67.1841,24.649 67.1841,23.699 67.7691,23.113 L74.0761,16.807 C74.6621,16.221 75.6111,16.221 76.1971,16.807 C76.7831,17.393 76.7831,18.342 76.1971,18.928 L69.8911,25.235 C69.5981,25.528 69.2141,25.674 68.8301,25.674 C68.4461,25.674 68.0621,25.528 67.7691,25.235 Z" id="Combined-Shape" fill="url(#linearGradient-1)"></path>
    </g>
</svg>