<?xml version="1.0" encoding="UTF-8"?>
<svg width="88px" height="88px" viewBox="0 0 88 88" version="1.1" xmlns="http://www.w3.org/2000/svg" xmlns:xlink="http://www.w3.org/1999/xlink">
    <!-- Generator: Sketch 51 (57462) - http://www.bohemiancoding.com/sketch -->
    <title>Device2/devices_icon_c036_rc_rgbw_cct_s</title>
    <desc>Created with Sketch.</desc>
    <defs></defs>
    <g id="Device2/devices_icon_c036_rc_rgbw_cct_s" stroke="none" stroke-width="1" fill="none" fill-rule="evenodd">
        <path d="M26,0 L62,0 C64.209139,-4.05812251e-16 66,1.790861 66,4 L66,84 C66,86.209139 64.209139,88 62,88 L26,88 C23.790861,88 22,86.209139 22,84 L22,4 C22,1.790861 23.790861,4.05812251e-16 26,0 Z M58.5,10 C59.3284271,10 60,9.32842712 60,8.5 C60,7.67157288 59.3284271,7 58.5,7 C57.6715729,7 57,7.67157288 57,8.5 C57,9.32842712 57.6715729,10 58.5,10 Z M30.5,56 C31.8807119,56 33,54.8807119 33,53.5 C33,52.1192881 31.8807119,51 30.5,51 C29.1192881,51 28,52.1192881 28,53.5 C28,54.8807119 29.1192881,56 30.5,56 Z M39.5,56 C40.8807119,56 42,54.8807119 42,53.5 C42,52.1192881 40.8807119,51 39.5,51 C38.1192881,51 37,52.1192881 37,53.5 C37,54.8807119 38.1192881,56 39.5,56 Z M48.5,56 C49.8807119,56 51,54.8807119 51,53.5 C51,52.1192881 49.8807119,51 48.5,51 C47.1192881,51 46,52.1192881 46,53.5 C46,54.8807119 47.1192881,56 48.5,56 Z M57.5,56 C58.8807119,56 60,54.8807119 60,53.5 C60,52.1192881 58.8807119,51 57.5,51 C56.1192881,51 55,52.1192881 55,53.5 C55,54.8807119 56.1192881,56 57.5,56 Z M44,46 C51.1797017,46 57,40.1797017 57,33 C57,25.8202983 51.1797017,20 44,20 C36.8202983,20 31,25.8202983 31,33 C31,40.1797017 36.8202983,46 44,46 Z M44,42 C48.9705627,42 53,37.9705627 53,33 C53,28.0294373 48.9705627,24 44,24 C39.0294373,24 35,28.0294373 35,33 C35,37.9705627 39.0294373,42 44,42 Z" id="Combined-Shape" fill="#999999"></path>
    </g>
</svg>