<?xml version="1.0" encoding="UTF-8"?>
<svg width="88px" height="88px" viewBox="0 0 88 88" version="1.1" xmlns="http://www.w3.org/2000/svg" xmlns:xlink="http://www.w3.org/1999/xlink">
    <!-- Generator: Sketch 51 (57462) - http://www.bohemiancoding.com/sketch -->
    <title>Device2/devices_icon_humiture2_s</title>
    <desc>Created with Sketch.</desc>
    <defs>
        <linearGradient x1="112.960737%" y1="-19.1113281%" x2="-16.6566506%" y2="116.977539%" id="linearGradient-1">
            <stop stop-color="#8AADEC" offset="0%"></stop>
            <stop stop-color="#1E50A0" offset="100%"></stop>
        </linearGradient>
    </defs>
    <g id="Device2/devices_icon_humiture2_s" stroke="none" stroke-width="1" fill="none" fill-rule="evenodd">
        <g id="Group" transform="translate(7.000000, 2.000000)" fill="url(#linearGradient-1)">
            <path d="M15,52.2994457 C10.4079892,53.4210069 7,57.5625142 7,62.5 C7,68.2989899 11.7010101,73 17.5,73 C23.2989899,73 28,68.2989899 28,62.5 C28,57.5625142 24.5920108,53.4210069 20,52.2994457 L20,11.5 C20,10.1192881 18.8807119,9 17.5,9 C16.1192881,9 15,10.1192881 15,11.5 L15,52.2994457 Z M17.5,0 C27.1649831,-1.7754286e-15 35,7.83501688 35,17.5 L35,66.5 C35,76.1649831 27.1649831,84 17.5,84 C7.83501688,84 1.18361906e-15,76.1649831 0,66.5 L0,17.5 C-1.18361906e-15,7.83501688 7.83501688,1.7754286e-15 17.5,0 Z M24.5,21 C23.6715729,21 23,21.6715729 23,22.5 C23,23.3284271 23.6715729,24 24.5,24 L28.5,24 C29.3284271,24 30,23.3284271 30,22.5 C30,21.6715729 29.3284271,21 28.5,21 L24.5,21 Z M24.5,28 C23.6715729,28 23,28.6715729 23,29.5 C23,30.3284271 23.6715729,31 24.5,31 L28.5,31 C29.3284271,31 30,30.3284271 30,29.5 C30,28.6715729 29.3284271,28 28.5,28 L24.5,28 Z M24.5,35 C23.6715729,35 23,35.6715729 23,36.5 C23,37.3284271 23.6715729,38 24.5,38 L28.5,38 C29.3284271,38 30,37.3284271 30,36.5 C30,35.6715729 29.3284271,35 28.5,35 L24.5,35 Z M58.5,84 C49.9388333,84 43,76.8717692 43,68.0769231 C43,53.9230769 58.5,38 58.5,38 C58.5,38 74,55.0288462 74,68.0769231 C74,76.8717692 67.0611667,84 58.5,84 Z M65.5,66.3461538 C65.5,70.3034972 62.3603239,73.5 58.5,73.5 C57.6715729,73.5 57,74.1715729 57,75 C57,75.8284271 57.6715729,76.5 58.5,76.5 C64.0293427,76.5 68.5,71.9484259 68.5,66.3461538 C68.5,65.5177267 67.8284271,64.8461538 67,64.8461538 C66.1715729,64.8461538 65.5,65.5177267 65.5,66.3461538 Z" id="Combined-Shape"></path>
        </g>
    </g>
</svg>