<?xml version="1.0" encoding="UTF-8"?>
<svg width="88px" height="88px" viewBox="0 0 88 88" version="1.1" xmlns="http://www.w3.org/2000/svg" xmlns:xlink="http://www.w3.org/1999/xlink">
    <!-- Generator: Sketch 51 (57462) - http://www.bohemiancoding.com/sketch -->
    <title>Device2/devices_icon_lighting8_s</title>
    <desc>Created with Sketch.</desc>
    <defs>
        <linearGradient x1="112.960737%" y1="-19.1113281%" x2="-16.6566506%" y2="116.977539%" id="linearGradient-1">
            <stop stop-color="#8AADEC" offset="0%"></stop>
            <stop stop-color="#1E50A0" offset="100%"></stop>
        </linearGradient>
    </defs>
    <g id="Device2/devices_icon_lighting8_s" stroke="none" stroke-width="1" fill="none" fill-rule="evenodd">
        <path d="M6.48240366,45.0573462 C6.48282067,45.3293791 6.50171819,45.6003506 6.53959707,45.8698728 C7.51837611,52.8342476 20.9465839,57.2354165 36.6736902,55.0251159 C52.4007965,52.8148152 64.0956918,44.8828244 63.1169127,37.9184497 C62.1381337,30.9540749 48.7099259,26.552906 32.9828196,28.7632067 C32.5360343,28.8259982 32.0925032,28.8934075 31.6524244,28.9652811 C40.3928987,29.1098537 47.2845533,32.3546963 48.027211,37.6389804 C48.9381755,44.1208295 40.1098523,50.2031373 28.6315563,51.8163066 C18.0889899,53.2979676 8.6561454,50.5393088 6.48240366,45.0573462 Z M4.18423449,48.5224232 C3.88534319,47.8089582 3.67784265,47.0633217 3.56879287,46.2873922 C3.06342801,42.6915343 4.76984437,39.1382602 8.06413283,36.0009582 C14.5411216,28.7148293 27.9023841,23.416545 43.4576493,22.6013281 C65.8213861,21.4292943 84.6436291,29.9468882 85.2877087,42.2366588 C85.9317882,54.5264294 68.1029865,64.9648233 45.7392497,66.1368571 C24.623317,67.2434962 6.66470199,59.7116244 4.18423449,48.5224232 Z M13.5892766,56.2059121 C20.5725452,60.9667647 32.3352662,63.835213 45.5822418,63.1409685 C66.5080361,62.0442941 82.8211205,52.4933213 82.2918201,42.3936667 C81.790508,32.8280629 66.3151179,25.3311986 46.9012185,25.496846 C57.4159816,26.6626723 65.1779497,31.0275999 66.0877169,37.5009304 C67.377939,46.6813374 54.2516217,55.5841814 37.0912095,57.9959201 C28.1338404,59.2547962 19.745543,58.5106432 13.5892766,56.2059121 Z M28.214037,48.8455024 C38.2621167,47.4333369 45.6581098,42.3378385 45.0564068,38.0564997 C44.4547039,33.7751609 35.9407094,30.9156655 25.8926297,32.327831 C15.84455,33.7399965 8.44855692,38.8354948 9.05025984,43.1168336 C9.65196277,47.3981724 18.1659573,50.2576679 28.214037,48.8455024 Z" id="Combined-Shape" fill="url(#linearGradient-1)"></path>
    </g>
</svg>