<?xml version="1.0" encoding="UTF-8"?>
<svg width="88px" height="88px" viewBox="0 0 88 88" version="1.1" xmlns="http://www.w3.org/2000/svg" xmlns:xlink="http://www.w3.org/1999/xlink">
    <!-- Generator: Sketch 51 (57462) - http://www.bohemiancoding.com/sketch -->
    <title>Device2/devices_icon_remote1_s </title>
    <desc>Created with Sketch.</desc>
    <defs>
        <linearGradient x1="112.960737%" y1="-19.1113281%" x2="-16.6566506%" y2="116.977539%" id="linearGradient-1">
            <stop stop-color="#8AADEC" offset="0%"></stop>
            <stop stop-color="#1E50A0" offset="100%"></stop>
        </linearGradient>
    </defs>
    <g id="Device2/devices_icon_remote1_s-" stroke="none" stroke-width="1" fill="none" fill-rule="evenodd">
        <path d="M44.4998,88 C31.6528,88 21.0918,77.425 20.4558,63.925 L18.0108,10.21 C17.8858,7.473 18.8758,4.791 20.7278,2.853 C22.4858,1.013 24.8238,0 27.3108,0 L61.6888,0 C64.1768,0 66.5138,1.013 68.2708,2.853 C70.1238,4.79 71.1138,7.472 70.9888,10.21 L68.5428,63.923 C67.9078,77.425 57.3468,88 44.4998,88 Z M44.5744,54.7744 C40.3014,54.7744 36.8244,51.2974 36.8244,47.0244 L36.8244,18.5244 C36.8244,14.2514 40.3014,10.7744 44.5744,10.7744 C48.8474,10.7744 52.3244,14.2514 52.3244,18.5244 L52.3244,47.0244 C52.3244,51.2974 48.8474,54.7744 44.5744,54.7744 M47.6938,46.2808 C47.6938,47.9378 46.2968,49.2808 44.5738,49.2808 C42.8518,49.2808 41.4548,47.9378 41.4548,46.2808 C41.4548,44.6238 42.8518,43.2808 44.5738,43.2808 C46.2968,43.2808 47.6938,44.6238 47.6938,46.2808 M47.6938,32.7739 C47.6938,34.4309 46.2968,35.7739 44.5738,35.7739 C42.8518,35.7739 41.4548,34.4309 41.4548,32.7739 C41.4548,31.1169 42.8518,29.7739 44.5738,29.7739 C46.2968,29.7739 47.6938,31.1169 47.6938,32.7739 M47.6938,19.267 C47.6938,20.924 46.2968,22.267 44.5738,22.267 C42.8518,22.267 41.4548,20.924 41.4548,19.267 C41.4548,17.61 42.8518,16.267 44.5738,16.267 C46.2968,16.267 47.6938,17.61 47.6938,19.267" id="Combined-Shape" fill="url(#linearGradient-1)"></path>
    </g>
</svg>