<?xml version="1.0" encoding="UTF-8"?>
<svg width="88px" height="88px" viewBox="0 0 88 88" version="1.1" xmlns="http://www.w3.org/2000/svg" xmlns:xlink="http://www.w3.org/1999/xlink">
    <!-- Generator: Sketch 51 (57462) - http://www.bohemiancoding.com/sketch -->
    <title>Device2/devices_icon_curtain2_s </title>
    <desc>Created with Sketch.</desc>
    <defs></defs>
    <g id="Device2/devices_icon_curtain2_s-" stroke="none" stroke-width="1" fill="none" fill-rule="evenodd">
        <path d="M7,76 L7,47 L10,47 L10,76 L78,76 L78,47 L81,47 L81,76 C82.1045695,76 83,76.8954305 83,78 L83,79 C83,80.1045695 82.1045695,81 81,81 L7,81 C5.8954305,81 5,80.1045695 5,79 L5,78 C5,76.8954305 5.8954305,76 7,76 Z M81,11 L81,40 L85.5,40 C86.328,40 87,40.672 87,41.5 C87,42.328 86.328,43 85.5,43 L2.5,43 C1.672,43 1,42.328 1,41.5 C1,40.672 1.672,40 2.5,40 L7,40 L7,11 L2.5,11 C1.672,11 1,10.328 1,9.5 C1,8.672 1.672,8 2.5,8 L85.5,8 C86.328,8 87,8.672 87,9.5 C87,10.328 86.328,11 85.5,11 L81,11 Z" id="Combined-Shape" fill="#999999"></path>
    </g>
</svg>