<?xml version="1.0" encoding="UTF-8"?>
<svg width="88px" height="88px" viewBox="0 0 88 88" version="1.1" xmlns="http://www.w3.org/2000/svg" xmlns:xlink="http://www.w3.org/1999/xlink">
    <!-- Generator: Sketch 51 (57462) - http://www.bohemiancoding.com/sketch -->
    <title>Device2/devices_icon_humiture1_s</title>
    <desc>Created with Sketch.</desc>
    <defs>
        <linearGradient x1="112.960737%" y1="-19.1113281%" x2="-16.6566506%" y2="116.977539%" id="linearGradient-1">
            <stop stop-color="#8AADEC" offset="0%"></stop>
            <stop stop-color="#1E50A0" offset="100%"></stop>
        </linearGradient>
    </defs>
    <g id="Device2/devices_icon_humiture1_s" stroke="none" stroke-width="1" fill="none" fill-rule="evenodd">
        <path d="M25.621,87 C13.699,87 4,77.486 4,65.792 C4,58.599 7.779,51.861 13.929,47.972 C13.903,47.714 13.888,47.45 13.888,47.178 L13.888,12.523 C13.888,6.169 19.151,1 25.621,1 C32.091,1 37.353,6.169 37.353,12.523 L37.353,47.178 C37.353,47.451 37.338,47.714 37.312,47.972 C43.462,51.862 47.241,58.6 47.241,65.792 C47.241,77.486 37.542,87 25.621,87 M24,55.2000766 L24,19.7711654 C24,18.7925965 24.7419689,18 25.6580311,18 L26.3419689,18 C27.2580311,18 28,18.7925965 28,19.7711654 L28,55.1999554 C32.5642261,56.1262657 36,60.161309 36,64.9995557 C36,70.5226798 31.5226798,74.9991115 26.0004443,74.9991115 C20.4773202,74.9991115 16,70.5226798 16,64.9995557 C16,60.16152 19.4354742,56.1266176 24,55.2000766 Z M69.1503,87.0003 C60.4443,87.0003 53.3623,80.0483 53.3623,71.5053 C53.3623,61.7653 67.3553,43.0323 67.9513,42.2393 L69.1503,40.6433 L70.3493,42.2393 C70.9453,43.0323 84.9383,61.7653 84.9383,71.5053 C84.9383,80.0483 77.8563,87.0003 69.1503,87.0003 Z M67.9433,79.4268 C73.4863,79.4268 77.9953,74.9958 77.9953,69.5508 C77.9953,68.7228 77.3233,68.0508 76.4953,68.0508 C75.6673,68.0508 74.9953,68.7228 74.9953,69.5508 C74.9953,73.3418 71.8323,76.4268 67.9433,76.4268 C67.1153,76.4268 66.4433,77.0988 66.4433,77.9268 C66.4433,78.7548 67.1153,79.4268 67.9433,79.4268 Z" id="Combined-Shape" fill="url(#linearGradient-1)"></path>
    </g>
</svg>