<?xml version="1.0" encoding="UTF-8"?>
<svg width="88px" height="88px" viewBox="0 0 88 88" version="1.1" xmlns="http://www.w3.org/2000/svg" xmlns:xlink="http://www.w3.org/1999/xlink">
    <!-- Generator: Sketch 51 (57462) - http://www.bohemiancoding.com/sketch -->
    <title>Device2/devices_icon_door_lock1_s</title>
    <desc>Created with Sketch.</desc>
    <defs></defs>
    <g id="Device2/devices_icon_door_lock1_s" stroke="none" stroke-width="1" fill="none" fill-rule="evenodd">
        <path d="M72.5456,51.6191 L61.4976,51.6191 C59.2886,51.6191 57.4976,49.8281 57.4976,47.6191 L57.4976,8.0001 C57.4976,5.7911 59.2886,4.0001 61.4976,4.0001 L72.5456,4.0001 C74.7546,4.0001 76.5456,5.7911 76.5456,8.0001 L76.5456,47.6191 C76.5456,49.8281 74.7546,51.6191 72.5456,51.6191 Z M44.9051,4.0003 C49.3231,4.0003 52.9051,7.5813 52.9051,12.0003 L52.9051,76.0003 C52.9051,80.4183 49.3231,84.0003 44.9051,84.0003 L19.0001,84.0003 C14.5821,84.0003 11.0001,80.4183 11.0001,76.0003 L11.0001,12.0003 C11.0001,7.5813 14.5821,4.0003 19.0001,4.0003 L44.9051,4.0003 Z M27.7961,14.9043 C28.6241,14.9043 29.2961,14.2323 29.2961,13.4043 C29.2961,12.5763 28.6241,11.9043 27.7961,11.9043 L19.5361,11.9043 C18.7081,11.9043 18.0361,12.5763 18.0361,13.4043 C18.0361,14.2323 18.7081,14.9043 19.5361,14.9043 L27.7961,14.9043 Z" id="Combined-Shape" fill="#999999"></path>
    </g>
</svg>