<?xml version="1.0" encoding="UTF-8"?>
<svg width="88px" height="88px" viewBox="0 0 88 88" version="1.1" xmlns="http://www.w3.org/2000/svg" xmlns:xlink="http://www.w3.org/1999/xlink">
    <!-- Generator: Sketch 51 (57462) - http://www.bohemiancoding.com/sketch -->
    <title>Device2/devices_icon_keypad3_s  </title>
    <desc>Created with Sketch.</desc>
    <defs>
        <linearGradient x1="112.960737%" y1="-19.1113281%" x2="-16.6566506%" y2="116.977539%" id="linearGradient-1">
            <stop stop-color="#8AADEC" offset="0%"></stop>
            <stop stop-color="#1E50A0" offset="100%"></stop>
        </linearGradient>
    </defs>
    <g id="Device2/devices_icon_keypad3_s--" stroke="none" stroke-width="1" fill="none" fill-rule="evenodd">
        <g id="Group" transform="translate(11.000000, 2.000000)" fill="url(#linearGradient-1)">
            <path d="M8,0 L58,0 C62.418278,-8.11624501e-16 66,3.581722 66,8 L66,76 C66,80.418278 62.418278,84 58,84 L8,84 C3.581722,84 5.41083001e-16,80.418278 0,76 L0,8 C-5.41083001e-16,3.581722 3.581722,8.11624501e-16 8,0 Z M17,44 C19.7614237,44 22,41.7614237 22,39 C22,36.2385763 19.7614237,34 17,34 C14.2385763,34 12,36.2385763 12,39 C12,41.7614237 14.2385763,44 17,44 Z M17,58 C19.7614237,58 22,55.7614237 22,53 C22,50.2385763 19.7614237,48 17,48 C14.2385763,48 12,50.2385763 12,53 C12,55.7614237 14.2385763,58 17,58 Z M33,44 C35.7614237,44 38,41.7614237 38,39 C38,36.2385763 35.7614237,34 33,34 C30.2385763,34 28,36.2385763 28,39 C28,41.7614237 30.2385763,44 33,44 Z M33,58 C35.7614237,58 38,55.7614237 38,53 C38,50.2385763 35.7614237,48 33,48 C30.2385763,48 28,50.2385763 28,53 C28,55.7614237 30.2385763,58 33,58 Z M49,44 C51.7614237,44 54,41.7614237 54,39 C54,36.2385763 51.7614237,34 49,34 C46.2385763,34 44,36.2385763 44,39 C44,41.7614237 46.2385763,44 49,44 Z M49,58 C51.7614237,58 54,55.7614237 54,53 C54,50.2385763 51.7614237,48 49,48 C46.2385763,48 44,50.2385763 44,53 C44,55.7614237 46.2385763,58 49,58 Z M49,72 C51.7614237,72 54,69.7614237 54,67 C54,64.2385763 51.7614237,62 49,62 C46.2385763,62 44,64.2385763 44,67 C44,69.7614237 46.2385763,72 49,72 Z M17,62 C14.2385763,62 12,64.2385763 12,67 C12,69.7614237 14.2385763,72 17,72 L33,72 C35.7614237,72 38,69.7614237 38,67 C38,64.2385763 35.7614237,62 33,62 L17,62 Z M14,12 C12.8954305,12 12,12.8954305 12,14 L12,24 C12,25.1045695 12.8954305,26 14,26 L52,26 C53.1045695,26 54,25.1045695 54,24 L54,14 C54,12.8954305 53.1045695,12 52,12 L14,12 Z" id="Combined-Shape"></path>
        </g>
    </g>
</svg>