<?xml version="1.0" encoding="UTF-8"?>
<svg width="88px" height="88px" viewBox="0 0 88 88" version="1.1" xmlns="http://www.w3.org/2000/svg" xmlns:xlink="http://www.w3.org/1999/xlink">
    <!-- Generator: Sketch 51 (57462) - http://www.bohemiancoding.com/sketch -->
    <title>Device2/devices_icon_ipc_a217_s</title>
    <desc>Created with Sketch.</desc>
    <defs>
        <linearGradient x1="112.960737%" y1="-19.1113281%" x2="-16.6566506%" y2="116.977539%" id="linearGradient-1">
            <stop stop-color="#8AADEC" offset="0%"></stop>
            <stop stop-color="#1E50A0" offset="100%"></stop>
        </linearGradient>
        <path d="M35.7015975,36.2361084 C35.6960771,36.1090467 35.6932883,35.9812764 35.6932883,35.8528548 L35.6932883,16.5687553 C37.6294817,14.3225984 40.4448534,13 43.4797059,13 L44.8509036,13 C48.1148308,13 51.1224556,14.5305932 53.0537918,17.0842431 L53.0537918,35.8528548 C53.0537918,36.0007162 53.0500948,36.1477141 53.0427881,36.2937612 C51.1510826,38.2203272 47.8772337,39.5095309 44.8509036,39.5095309 L43.4797059,39.5095309 C40.7103152,39.5095309 37.6638184,38.1906979 35.7015975,36.2361084 Z M36.4286593,39.3547804 C38.531291,40.6952522 41.070097,41.5095309 43.4797059,41.5095309 L44.8509036,41.5095309 C47.4274819,41.5095309 50.1345567,40.7227576 52.2989468,39.3985678 C50.942938,42.4248963 47.9044385,44.5331065 44.3735401,44.5331065 C40.8256371,44.5331065 37.7748872,42.4045415 36.4286593,39.3547804 Z M35.6932883,13.783435 L35.6932883,12.1840072 C35.6932883,11.0808502 36.4640235,7.92292345 37.0562435,6.29998534 C39.5613167,5.45039581 41.7189299,5.45039581 44.3754172,5.45039581 C46.8534888,5.45039581 49.2738792,5.58944034 51.5379958,6.2345351 C52.1207232,7.68045172 53.0036965,10.9852101 53.0551872,12.1109501 L53.0537918,12.1109501 L53.0537918,14.141119 C50.8365774,12.1483198 47.9386067,11 44.8509036,11 L43.4797059,11 C40.5839701,11 37.8531678,12.009614 35.6932883,13.783435 Z M53.3501075,5.38326745 C53.4902862,5.18353906 53.671849,5.04226227 53.9283146,5.05017443 C62.8207613,8.9559561 69.0657863,18.1499021 69.0657863,28.8693664 C69.0657863,33.4631233 68.1578351,37.5592137 66.4152848,41.00163 L66.6751566,41 C67.8825105,41.7607455 68.8222801,42.9020781 69.3305858,44.251826 L68.7093213,46.5822353 C67.294664,51.7922997 56.8072862,56 44.2012828,56 C31.9934518,56 21.8320397,51.9840705 20.0176632,46.8720127 L19.4186662,45.5781129 C20.0073168,43.8027969 21.1818448,42.2903885 22.7186687,41.2757147 L22.7995908,41.2752071 C20.7801405,37.7769835 19.6850482,33.5854352 19.6850482,28.8693664 C19.6850482,18.1250401 25.9590754,8.91331664 34.8844362,5.02308337 C35.0574647,4.95857991 35.2088522,5.0348312 35.3448336,5.18253465 C34.6384064,6.90927958 33.6932883,10.7071998 33.6932883,12.1840072 L33.6932883,35.8528548 C33.6932883,41.7513949 38.4749999,46.5331065 44.3735401,46.5331065 C50.2720802,46.5331065 55.0537918,41.7513949 55.0537918,35.8528548 L55.0537918,12.2072754 L55.0575461,12.2072754 C55.0575461,10.8670937 54.0531688,7.07971003 53.3501075,5.38326745 Z M69.7508344,49.1035723 L69.7508344,59.7447287 L69.5532784,59.8056729 C62.8019788,60.8317671 54.88368,61.3879168 46.6028255,61.3879168 C36.3629276,61.3879168 26.7023324,60.5359901 19.1710172,59.0196718 L19,59.002627 L19,49.2867759 C22.3837824,54.4552853 32.456526,58 44.2012828,58 C56.1599162,58 66.4382167,54.3962464 69.7508344,49.1035723 Z M69.7508344,61.7985656 L69.7508345,70.7884982 C69.7508345,77.0914157 64.8137456,82.2898271 58.5192024,82.6146262 C49.9619717,83.0561801 45.2473767,83.2769571 44.3754173,83.2769571 C43.5034579,83.2769571 38.7888628,83.0561801 30.2316321,82.6146262 C23.9370889,82.2898273 19,77.0914158 19,70.7884983 L19,61.0250608 C26.6357417,62.541136 36.337535,63.3879168 46.6028255,63.3879168 C54.9390617,63.3879168 62.9190265,62.8303695 69.7508344,61.7985656 Z M44.435587,38 C44.9878717,38 45.435587,37.5522847 45.435587,37 C45.435587,36.4477153 44.9878717,36 44.435587,36 C43.8833022,36 43.435587,36.4477153 43.435587,37 C43.435587,37.5522847 43.8833022,38 44.435587,38 Z M44.3754172,33.1576237 C48.0087947,33.1576237 50.9542291,30.2121893 50.9542291,26.5788119 C50.9542291,22.9454344 48.0087947,20 44.3754172,20 C40.7420398,20 37.7966054,22.9454344 37.7966054,26.5788119 C37.7966054,30.2121893 40.7420398,33.1576237 44.3754172,33.1576237 Z M44.5210864,31.448962 C47.1303452,31.448962 49.2455674,29.3337398 49.2455674,26.724481 C49.2455674,24.1152222 47.1303452,22 44.5210864,22 C41.9118276,22 39.7966054,24.1152222 39.7966054,26.724481 C39.7966054,29.3337398 41.9118276,31.448962 44.5210864,31.448962 Z" id="path-2"></path>
    </defs>
    <g id="Device2/devices_icon_ipc_a217_s" stroke="none" stroke-width="1" fill="none" fill-rule="evenodd">
        <mask id="mask-3" fill="white">
            <use xlink:href="#path-2"></use>
        </mask>
        <use id="Mask" fill="url(#linearGradient-1)" xlink:href="#path-2"></use>
    </g>
</svg>