<?xml version="1.0" encoding="UTF-8"?>
<svg width="88px" height="88px" viewBox="0 0 88 88" version="1.1" xmlns="http://www.w3.org/2000/svg" xmlns:xlink="http://www.w3.org/1999/xlink">
    <!-- Generator: Sketch 51 (57462) - http://www.bohemiancoding.com/sketch -->
    <title>Device2/devices_icon_keyfod3_s </title>
    <desc>Created with Sketch.</desc>
    <defs></defs>
    <g id="Device2/devices_icon_keyfod3_s-" stroke="none" stroke-width="1" fill="none" fill-rule="evenodd">
        <g id="Group" transform="translate(9.000000, 5.000000)" fill="#999999">
            <path d="M70,20.754629 C68.6304021,19.6567183 66.8918934,19 65,19 L5,19 C3.10810658,19 1.36959794,19.6567183 -1.27082789e-11,20.754629 L0,8 C-5.41083001e-16,3.581722 3.581722,8.11624501e-16 8,0 L62,0 C66.418278,-8.11624501e-16 70,3.581722 70,8 L70,20.754629 Z M62,81 L8,81 L62,81 Z M9.5,8 C8.67157288,8 8,8.67157288 8,9.5 C8,10.3284271 8.67157288,11 9.5,11 L16.5,11 C17.3284271,11 18,10.3284271 18,9.5 C18,8.67157288 17.3284271,8 16.5,8 L9.5,8 Z M5,22 L65,22 C67.7614237,22 70,24.2385763 70,27 L70,73 C70,75.7614237 67.7614237,78 65,78 L5,78 C2.23857625,78 4.4408921e-16,75.7614237 0,73 L0,27 C-4.4408921e-16,24.2385763 2.23857625,22 5,22 Z M22,70 C26.418278,70 30,66.418278 30,62 C30,57.581722 26.418278,54 22,54 C17.581722,54 14,57.581722 14,62 C14,66.418278 17.581722,70 22,70 Z M22,45 C26.418278,45 30,41.418278 30,37 C30,32.581722 26.418278,29 22,29 C17.581722,29 14,32.581722 14,37 C14,41.418278 17.581722,45 22,45 Z M48,70 C52.418278,70 56,66.418278 56,62 C56,57.581722 52.418278,54 48,54 C43.581722,54 40,57.581722 40,62 C40,66.418278 43.581722,70 48,70 Z M48,45 C52.418278,45 56,41.418278 56,37 C56,32.581722 52.418278,29 48,29 C43.581722,29 40,32.581722 40,37 C40,41.418278 43.581722,45 48,45 Z" id="Combined-Shape"></path>
        </g>
    </g>
</svg>