<?xml version="1.0" encoding="UTF-8"?>
<svg width="88px" height="88px" viewBox="0 0 88 88" version="1.1" xmlns="http://www.w3.org/2000/svg" xmlns:xlink="http://www.w3.org/1999/xlink">
    <!-- Generator: Sketch 51 (57462) - http://www.bohemiancoding.com/sketch -->
    <title>Device2/devices_icon_radiator_s</title>
    <desc>Created with Sketch.</desc>
    <defs></defs>
    <g id="Device2/devices_icon_radiator_s" stroke="none" stroke-width="1" fill="none" fill-rule="evenodd">
        <path d="M7.3434,28.6563822 L7.3434,31.6757 C7.3434,32.8177 6.4174,33.7427 5.2764,33.7427 L4.0664,33.7427 C2.9254,33.7427 2.0004,32.8177 2.0004,31.6757 L2.0004,22.9887 C2.0004,21.8467 2.9254,20.9217 4.0664,20.9217 L5.2764,20.9217 C6.4174,20.9217 7.3434,21.8467 7.3434,22.9887 L7.3434,26.0078178 C7.55359262,25.8956693 7.79362261,25.8321 8.0485,25.8321 L11.3224,25.8321 L11.3224,19.0003 C11.3224,16.7913 13.1134,15.0003 15.3224,15.0003 L23.1174,15.0003 C25.3264,15.0003 27.1174,16.7913 27.1174,19.0003 L27.1174,25.8321 L29.4701,25.8321 L29.4701,19.0003 C29.4701,16.7913 31.2611,15.0003 33.4701,15.0003 L41.2651,15.0003 C43.4741,15.0003 45.2651,16.7913 45.2651,19.0003 L45.2651,25.8321 L47.6179,25.8321 L47.6179,19.0003 C47.6179,16.7913 49.4089,15.0003 51.6179,15.0003 L59.4129,15.0003 C61.6219,15.0003 63.4129,16.7913 63.4129,19.0003 L63.4129,25.8321 L65.7656,25.8321 L65.7656,19.0003 C65.7656,16.7913 67.5566,15.0003 69.7656,15.0003 L77.5606,15.0003 C79.7696,15.0003 81.5606,16.7913 81.5606,19.0003 L81.5606,25.8321 L84.5195,25.8321 C85.3479271,25.8321 86.0195,26.5036729 86.0195,27.3321 C86.0195,28.1605271 85.3479271,28.8321 84.5195,28.8321 L81.5606,28.8321 L81.5606,59.1732 L85.4338,59.1732 C86.2622271,59.1732 86.9338,59.8447729 86.9338,60.6732 C86.9338,61.5016271 86.2622271,62.1732 85.4338,62.1732 L81.5606,62.1732 L81.5606,69.0053 C81.5606,71.2143 79.7696,73.0053 77.5606,73.0053 L69.7656,73.0053 C67.5566,73.0053 65.7656,71.2143 65.7656,69.0053 L65.7656,62.1732 L63.4129,62.1732 L63.4129,69.0053 C63.4129,71.2143 61.6219,73.0053 59.4129,73.0053 L51.6179,73.0053 C49.4089,73.0053 47.6179,71.2143 47.6179,69.0053 L47.6179,62.1732 L45.2651,62.1732 L45.2651,69.0053 C45.2651,71.2143 43.4741,73.0053 41.2651,73.0053 L33.4701,73.0053 C31.2611,73.0053 29.4701,71.2143 29.4701,69.0053 L29.4701,62.1732 L27.1174,62.1732 L27.1174,69.0053 C27.1174,71.2143 25.3264,73.0053 23.1174,73.0053 L15.3224,73.0053 C13.1134,73.0053 11.3224,71.2143 11.3224,69.0053 L11.3224,62.1732 L8.9628,62.1732 C8.13437288,62.1732 7.4628,61.5016271 7.4628,60.6732 C7.4628,59.8447729 8.13437288,59.1732 8.9628,59.1732 L11.3224,59.1732 L11.3224,28.8321 L8.0485,28.8321 C7.79362261,28.8321 7.55359262,28.7685307 7.3434,28.6563822 Z M27.1174,59.1732 L29.4701,59.1732 L29.4701,28.8321 L27.1174,28.8321 L27.1174,59.1732 Z M45.2651,59.1732 L47.6179,59.1732 L47.6179,28.8321 L45.2651,28.8321 L45.2651,59.1732 Z M63.4129,59.1732 L65.7656,59.1732 L65.7656,28.8321 L63.4129,28.8321 L63.4129,59.1732 Z" id="Combined-Shape" fill="#999999"></path>
    </g>
</svg>