<?xml version="1.0" encoding="UTF-8"?>
<svg width="88px" height="88px" viewBox="0 0 88 88" version="1.1" xmlns="http://www.w3.org/2000/svg" xmlns:xlink="http://www.w3.org/1999/xlink">
    <!-- Generator: Sketch 51 (57462) - http://www.bohemiancoding.com/sketch -->
    <title>Device2/devices_icon_humidifier_s</title>
    <desc>Created with Sketch.</desc>
    <defs>
        <linearGradient x1="112.960737%" y1="-19.1113281%" x2="-16.6566506%" y2="116.977539%" id="linearGradient-1">
            <stop stop-color="#8AADEC" offset="0%"></stop>
            <stop stop-color="#1E50A0" offset="100%"></stop>
        </linearGradient>
    </defs>
    <g id="Device2/devices_icon_humidifier_s" stroke="none" stroke-width="1" fill="none" fill-rule="evenodd">
        <path d="M62.919,53.1907109 C66.582,53.1907109 70.458,52.5947109 72.998,50.5697109 C73.491,53.7927109 73.759,57.1157109 73.759,60.4937109 C73.759,69.3647109 72.015,77.9317109 68.714,85.2677109 C68.472,85.8057109 67.936,86.1517109 67.346,86.1517109 L20.413,86.1517109 C19.823,86.1517109 19.287,85.8057109 19.045,85.2677109 C15.744,77.9317109 14,69.3647109 14,60.4937109 C14,57.9167109 14.157,55.3717109 14.447,52.8767109 C14.458,52.8707109 14.469,52.8677109 14.479,52.8607109 C14.607,52.7777109 27.317,44.6587109 38.046,47.9707109 L40.555,48.7497109 C46.527,50.6127109 50.473,51.8437109 57.081,52.7607109 C58.753,52.9927109 60.799,53.1907109 62.919,53.1907109 Z M38.9308,45.1033109 C29.5698,42.2133109 19.3658,46.7473109 15.0048,49.0913109 C16.8048,38.9573109 20.9608,29.9683109 26.8758,23.8903109 C27.1588,23.6003109 27.5458,23.4363109 27.9518,23.4363109 L59.8078,23.4363109 C60.2128,23.4363109 60.6008,23.6003109 60.8828,23.8903109 C66.3438,29.5013109 70.3078,37.5943109 72.3018,46.7783109 C70.8228,49.7473109 65.3208,50.8753109 57.4928,49.7903109 C51.1308,48.9063109 47.2788,47.7053109 41.4488,45.8853109 L38.9308,45.1033109 Z M43.879,74.1677109 C47.725,74.1677109 50.854,71.0387109 50.854,67.1927109 C50.854,63.3477109 47.725,60.2187109 43.879,60.2187109 C40.033,60.2187109 36.905,63.3477109 36.905,67.1927109 C36.905,71.0387109 40.033,74.1677109 43.879,74.1677109 Z M43.879,63.2185109 C46.07,63.2185109 47.854,65.0015109 47.854,67.1935109 C47.854,69.3845109 46.07,71.1675109 43.879,71.1675109 C41.688,71.1675109 39.905,69.3845109 39.905,67.1935109 C39.905,65.0015109 41.688,63.2185109 43.879,63.2185109 Z M41.9132,19.9626109 C41.7752,19.9626109 41.6362,19.9436109 41.4972,19.9036109 C40.7012,19.6746109 40.2412,18.8436109 40.4712,18.0476109 C40.7982,16.9116109 41.1282,16.2206109 41.3932,15.6646109 C41.7612,14.8976109 41.9442,14.5126109 41.9442,13.1416109 C41.9442,12.1726109 41.7252,11.8066109 41.3922,11.2516109 C40.9552,10.5246109 40.4122,9.61961088 40.4122,7.81861088 C40.4122,5.76861088 40.8222,4.91061088 41.2562,4.00361088 C41.4962,3.50061088 41.7452,2.98161088 42.0032,2.08561088 C42.2322,1.28961088 43.0642,0.828610882 43.8592,1.05961088 C44.6562,1.28861088 45.1152,2.11961088 44.8862,2.91561088 C44.5592,4.05161088 44.2272,4.74161088 43.9632,5.29761088 C43.5962,6.06461088 43.4122,6.44761088 43.4122,7.81861088 C43.4122,8.78761088 43.6322,9.15361088 43.9642,9.70861088 C44.4012,10.4356109 44.9442,11.3406109 44.9442,13.1416109 C44.9442,15.1926109 44.5342,16.0506109 44.1012,16.9576109 C43.8602,17.4606109 43.6112,17.9816109 43.3532,18.8776109 C43.1642,19.5346109 42.5642,19.9626109 41.9132,19.9626109 Z M31.5206,19.9626109 C31.3826,19.9626109 31.2436,19.9436109 31.1046,19.9036109 C30.3086,19.6746109 29.8486,18.8436109 30.0786,18.0476109 C30.4056,16.9116109 30.7356,16.2216109 31.0006,15.6656109 C31.3686,14.8986109 31.5516,14.5136109 31.5516,13.1416109 C31.5516,12.1726109 31.3326,11.8066109 30.9996,11.2516109 C30.5626,10.5246109 30.0196,9.61961088 30.0196,7.81861088 C30.0196,5.76861088 30.4296,4.91161088 30.8636,4.00461088 C31.1036,3.50161088 31.3526,2.98261088 31.6106,2.08561088 C31.8396,1.28961088 32.6716,0.828610882 33.4666,1.05961088 C34.2626,1.28861088 34.7226,2.11961088 34.4936,2.91561088 C34.1666,4.05161088 33.8356,4.74261088 33.5696,5.29861088 C33.2036,6.06561088 33.0196,6.44861088 33.0196,7.81861088 C33.0196,8.78761088 33.2396,9.15361088 33.5716,9.70861088 C34.0086,10.4356109 34.5516,11.3406109 34.5516,13.1416109 C34.5516,15.1926109 34.1416,16.0516109 33.7086,16.9586109 C33.4676,17.4616109 33.2186,17.9826109 32.9606,18.8776109 C32.7716,19.5346109 32.1716,19.9626109 31.5206,19.9626109 Z M52.3058,19.9626109 C52.1678,19.9626109 52.0288,19.9436109 51.8898,19.9036109 C51.0938,19.6746109 50.6338,18.8436109 50.8638,18.0476109 C51.1908,16.9116109 51.5208,16.2206109 51.7858,15.6646109 C52.1538,14.8976109 52.3368,14.5126109 52.3368,13.1416109 C52.3368,12.1726109 52.1178,11.8066109 51.7848,11.2516109 C51.3478,10.5246109 50.8048,9.61961088 50.8048,7.81861088 C50.8048,5.76861088 51.2148,4.91061088 51.6488,4.00361088 C51.8888,3.50061088 52.1378,2.98161088 52.3958,2.08561088 C52.6248,1.28961088 53.4558,0.828610882 54.2518,1.05961088 C55.0488,1.28861088 55.5078,2.11961088 55.2788,2.91561088 C54.9518,4.05161088 54.6198,4.74161088 54.3558,5.29761088 C53.9888,6.06461088 53.8048,6.44761088 53.8048,7.81861088 C53.8048,8.78761088 54.0248,9.15361088 54.3568,9.70861088 C54.7938,10.4356109 55.3368,11.3406109 55.3368,13.1416109 C55.3368,15.1926109 54.9268,16.0506109 54.4938,16.9576109 C54.2528,17.4606109 54.0038,17.9816109 53.7458,18.8776109 C53.5568,19.5346109 52.9568,19.9626109 52.3058,19.9626109 Z" id="Combined-Shape" fill="url(#linearGradient-1)"></path>
    </g>
</svg>