<?xml version="1.0" encoding="UTF-8"?>
<svg width="88px" height="88px" viewBox="0 0 88 88" version="1.1" xmlns="http://www.w3.org/2000/svg" xmlns:xlink="http://www.w3.org/1999/xlink">
    <!-- Generator: Sketch 51 (57462) - http://www.bohemiancoding.com/sketch -->
    <title>Device2/devices_icon_third_party_thermostat_s</title>
    <desc>Created with Sketch.</desc>
    <defs></defs>
    <g id="Device2/devices_icon_third_party_thermostat_s" stroke="none" stroke-width="1" fill="none" fill-rule="evenodd">
        <path d="M72.928,76.663438 C65.8155853,77.570346 55.253207,78.1083871 43.84768,78.1083871 C32.4595873,78.1083871 21.9120677,77.5719897 14.8,76.6675943 L14.8,14.93546 C14.8,12.7530983 17.6932325,11.98074 24.2052252,11.2444569 C29.4044659,10.6566011 36.4048157,10.32146 43.864,10.32146 C51.3231843,10.32146 58.3235341,10.6566011 63.5227748,11.2444569 C70.0347675,11.98074 72.928,12.7530983 72.928,14.93546 L72.928,76.663438 Z M72.9115466,79.6890154 C72.7031535,82.5780532 70.5365652,84.9811674 67.6340874,85.4524443 C60.770008,86.5559339 52.5251939,87.15746 43.864,87.15746 C35.206622,87.15746 26.9561201,86.5556329 20.0915918,85.4520693 C17.1926788,84.9813695 15.0268719,82.5803046 14.8167474,79.6930775 C22.0610919,80.5854227 32.5512113,81.1083871 43.84768,81.1083871 C55.1612789,81.1083871 65.6660811,80.5838354 72.9115466,79.6890154 Z M52.4218,67.4494 L50.4346,67.4494 L50.4346,68.2744 L52.4218,68.2744 L52.4218,70.2622 L53.2468,70.2622 L53.2468,68.2744 L55.2346,68.2744 L55.2346,67.4494 L53.2468,67.4494 L53.2468,65.4622 L52.4218,65.4622 L52.4218,67.4494 Z M41.005,70.606 L46.5676,70.606 L46.5676,65.0434 L41.005,65.0434 L41.005,70.606 Z M32.4934,68.2744 L37.2934,68.2744 L37.2934,67.4494 L32.4934,67.4494 L32.4934,68.2744 Z M51.6221134,60.8406307 C51.6990971,60.8301594 51.6990971,60.8301594 51.866798,60.8022678 C52.4040066,60.7127331 52.6755687,60.6649244 53.0073736,60.5980105 C53.0725946,60.5892231 53.1788043,60.5693329 53.4466807,60.5167366 C53.8099182,60.4508258 54.2078055,60.3673186 54.6115361,60.2724419 C54.6968347,60.2545653 54.7476286,60.2437716 54.8116738,60.2305051 C54.9180381,60.2064759 54.9180381,60.2064759 54.9804128,60.1920827 C55.3430951,60.1083833 55.529995,60.06465 55.7483771,60.0116402 C56.9174503,59.7265653 57.732,58.6792872 57.732,57.48428 L57.732,24.98888 C57.732,23.7937654 56.9169414,22.7464792 55.7529823,22.4587299 C47.9404422,20.5371712 39.7813065,20.5371712 31.9769596,22.4582508 C30.8111361,22.7464601 29.996,23.7930917 29.996,24.98888 L29.996,57.48428 C29.996,58.6781225 30.8093311,59.7236172 31.9724778,60.0104919 C32.3279716,60.0971433 32.679178,60.178203 33.0338462,60.2555509 C33.5073642,60.3674992 34.0304304,60.4761115 34.570118,60.5748348 C35.0165023,60.6626494 35.5021603,60.7470473 36.0904887,60.8410364 C36.5537631,60.9130574 36.9984782,60.9750479 37.6335854,61.0584536 C40.4505253,61.4098294 43.274957,61.5225561 46.0946047,61.3975163 C46.9628288,61.3558549 47.71373,61.3047393 48.4426993,61.2341751 C48.8051812,61.2032265 49.1586914,61.1654767 49.7398946,61.0982232 C49.8767382,61.0830391 50.0214407,61.0647727 50.2087316,61.0395693 C50.2901897,61.0285588 50.2901897,61.0285588 50.4277351,61.0098073 C50.703133,60.9736184 50.9263078,60.9414854 51.4230973,60.8678869 C51.4634151,60.8615536 51.4739144,60.8600997 51.6221134,60.8406307 Z M65.614,10.0185217 C59.756354,9.36997351 51.9001081,9 43.5,9 C35.2962016,9 27.6111425,9.35288308 21.8,9.9735017 L21.8,5.24222349 C21.8,3.19974338 24.2064796,2.37796335 29.0731333,1.67602613 C32.9483906,1.11708203 38.1556774,0.79976 43.707,0.79976 C49.2556079,0.79976 54.4627428,1.11710961 58.3385577,1.67601975 C63.2070563,2.37807937 65.614,3.19964207 65.614,5.24222349 L65.614,10.0185217 Z M65.614,12.0309781 L65.614,12.54 C65.614,13.4396426 64.8147964,14.1369289 63.9071246,14.0292085 C58.7658979,13.4190597 51.5109248,13.0650171 43.707,13.0650171 C35.9030752,13.0650171 28.6481021,13.4190597 23.5068754,14.0292085 C22.5992036,14.1369289 21.8,13.4396426 21.8,12.54 L21.8,11.985077 C27.5557481,11.3586447 35.2604446,11 43.5,11 C51.9387115,11 59.8163958,11.3761917 65.614,12.0309781 Z M55.732,24.98888 L55.732,57.48428 C55.732,57.76028 55.5448,58.00268 55.2766,58.06808 C54.9874,58.13828 54.697,58.20488 54.406,58.27208 C54.322,58.28948 54.238,58.30748 54.154,58.32548 C53.794,58.41008 53.428,58.48748 53.062,58.55408 C52.912,58.58348 52.762,58.61348 52.612,58.63748 C52.252,58.71008 51.898,58.76948 51.472,58.84148 C51.358,58.86008 51.238,58.87208 51.13,58.88948 C50.806,58.93748 50.482,58.98548 50.158,59.02808 C49.942,59.05748 49.726,59.08748 49.51,59.11148 C49.09,59.16008 48.67,59.20748 48.25,59.24348 C47.5,59.31608 46.756,59.36348 46.006,59.39948 C43.3,59.51948 40.588,59.41148 37.894,59.07548 C37.396,59.01008 36.904,58.94348 36.406,58.86608 C35.914,58.78748 35.422,58.70408 34.93,58.60748 C34.438,58.51748 33.946,58.41608 33.46,58.30148 C33.1216,58.22768 32.7862,58.15028 32.4514,58.06868 C32.1838,58.00268 31.996,57.76028 31.996,57.48428 L31.996,24.98888 C31.996,24.71108 32.1856,24.46688 32.455,24.40028 C39.9454,22.55648 47.7766,22.55648 55.273,24.40028 C55.5424,24.46688 55.732,24.71168 55.732,24.98888 Z" id="Combined-Shape" fill="#999999"></path>
    </g>
</svg>