<?xml version="1.0" encoding="UTF-8"?>
<svg width="88px" height="88px" viewBox="0 0 88 88" version="1.1" xmlns="http://www.w3.org/2000/svg" xmlns:xlink="http://www.w3.org/1999/xlink">
    <!-- Generator: Sketch 51 (57462) - http://www.bohemiancoding.com/sketch -->
    <title>Device2/devices_icon_zb_t_h_sensor_s</title>
    <desc>Created with Sketch.</desc>
    <defs>
        <linearGradient x1="112.960737%" y1="-19.1113281%" x2="-16.6566506%" y2="116.977539%" id="linearGradient-1">
            <stop stop-color="#8AADEC" offset="0%"></stop>
            <stop stop-color="#1E50A0" offset="100%"></stop>
        </linearGradient>
    </defs>
    <g id="Device2/devices_icon_zb_t_h_sensor_s" stroke="none" stroke-width="1" fill="none" fill-rule="evenodd">
        <path d="M50.9152095,5.29681514 L78.9266091,37.745814 C82.1670096,41.4995627 82.1670096,47.0610589 78.9266091,50.8148076 L50.9152095,83.2638065 C47.7521663,86.9279428 42.2176438,87.334159 38.5535075,84.1711158 C38.2293093,83.8912536 37.9260604,83.5880047 37.6461983,83.2638065 L9.63479867,50.8148076 C6.3943981,47.0610589 6.3943981,41.4995627 9.63479867,37.745814 L37.6461983,5.29681514 C40.8092415,1.63267887 46.3437639,1.22646268 50.0079002,4.38950587 C50.3320985,4.66936803 50.6353473,4.97261689 50.9152095,5.29681514 Z M44,60 C52.836556,60 60,52.836556 60,44 C60,35.163444 52.836556,28 44,28 C35.163444,28 28,35.163444 28,44 C28,52.836556 35.163444,60 44,60 Z M44,57 C36.8202983,57 31,51.1797017 31,44 C31,36.8202983 36.8202983,31 44,31 C51.1797017,31 57,36.8202983 57,44 C57,51.1797017 51.1797017,57 44,57 Z M43.5,44.8660254 C43.9782926,45.1421678 44.589883,44.9782926 44.8660254,44.5 C45.1421678,44.0217074 44.9782926,43.410117 44.5,43.1339746 C44.0217074,42.8578322 43.410117,43.0217074 43.1339746,43.5 C42.8578322,43.9782926 43.0217074,44.589883 43.5,44.8660254 Z M45.5,41.4019238 C45.9782926,41.6780662 46.589883,41.514191 46.8660254,41.0358984 C47.1421678,40.5576058 46.9782926,39.9460154 46.5,39.669873 C46.0217074,39.3937306 45.410117,39.5576058 45.1339746,40.0358984 C44.8578322,40.514191 45.0217074,41.1257814 45.5,41.4019238 Z M47,44 C47,44.5522847 47.4477153,45 48,45 C48.5522847,45 49,44.5522847 49,44 C49,43.4477153 48.5522847,43 48,43 C47.4477153,43 47,43.4477153 47,44 Z M45.5,46.5980762 C45.0217074,46.8742186 44.8578322,47.485809 45.1339746,47.9641016 C45.410117,48.4423942 46.0217074,48.6062694 46.5,48.330127 C46.9782926,48.0539846 47.1421678,47.4423942 46.8660254,46.9641016 C46.589883,46.485809 45.9782926,46.3219338 45.5,46.5980762 Z M42.5,46.5980762 C42.0217074,46.3219338 41.410117,46.485809 41.1339746,46.9641016 C40.8578322,47.4423942 41.0217074,48.0539846 41.5,48.330127 C41.9782926,48.6062694 42.589883,48.4423942 42.8660254,47.9641016 C43.1421678,47.485809 42.9782926,46.8742186 42.5,46.5980762 Z M41,44 C41,43.4477153 40.5522847,43 40,43 C39.4477153,43 39,43.4477153 39,44 C39,44.5522847 39.4477153,45 40,45 C40.5522847,45 41,44.5522847 41,44 Z M42.5,41.4019238 C42.9782926,41.1257814 43.1421678,40.514191 42.8660254,40.0358984 C42.589883,39.5576058 41.9782926,39.3937306 41.5,39.669873 C41.0217074,39.9460154 40.8578322,40.5576058 41.1339746,41.0358984 C41.410117,41.514191 42.0217074,41.6780662 42.5,41.4019238 Z" id="Combined-Shape" fill="url(#linearGradient-1)"></path>
    </g>
</svg>