<?xml version="1.0" encoding="UTF-8"?>
<svg width="88px" height="88px" viewBox="0 0 88 88" version="1.1" xmlns="http://www.w3.org/2000/svg" xmlns:xlink="http://www.w3.org/1999/xlink">
    <!-- Generator: Sketch 51 (57462) - http://www.bohemiancoding.com/sketch -->
    <title>Device2/devices_icon_motion4_s  </title>
    <desc>Created with Sketch.</desc>
    <defs></defs>
    <g id="Device2/devices_icon_motion4_s--" stroke="none" stroke-width="1" fill="none" fill-rule="evenodd">
        <path d="M36.103,60.028 C37.053,49.302 37.053,38.647 36.109,28.055 C36.103,22.994 32.109,19 27.182,19 L16.635,19 C11.708,19 7.714,22.994 7.714,27.921 C6.764,38.647 6.764,49.302 7.708,59.895 C7.714,64.955 11.708,68.949 16.635,68.949 L27.182,68.949 C32.109,68.949 36.103,64.955 36.103,60.028 Z M70.131,25.886 C70.996,27.691 71.46,29.675 71.459,31.697 C71.939,39.849 71.939,48.023 71.461,56.087 C71.461,58.9 70.611,61.588 69.069,63.847 L70.737,63.847 C73.96,63.847 76.642,60.853 76.642,57.081 L76.642,32.651 C76.642,28.879 73.96,25.886 70.737,25.886 L70.131,25.886 Z M77.652,26.495 C78.899,28.18 79.642,30.325 79.642,32.651 L79.642,57.081 C79.642,59.407 78.899,61.553 77.652,63.237 C79.986,62.17 81.607,59.816 81.607,57.081 L81.607,32.651 C81.607,29.917 79.986,27.562 77.652,26.495 Z M44.6181546,70.7457662 C45.7029441,68.525964 46.3311523,66.0568356 46.4360883,63.4817589 L46.6292498,58.8553867 C47.0242281,49.4807323 47.0242281,40.0977251 46.6292307,30.7226152 L46.4360388,26.0954991 C46.3013552,22.8344185 45.3320367,19.7510528 43.6764312,17.1439853 L43.983,17.164 L58.666,18.123 C62.174,18.35 65.401,19.902 67.761,22.423 C67.903,22.574 68.042,22.729 68.176,22.886 L74.842,22.886 C80.236,22.886 84.607,27.257 84.607,32.651 L84.607,57.081 C84.607,62.475 80.236,66.847 74.842,66.847 L66.288,66.847 C64.113,68.589 61.44,69.648 58.581,69.835 L44.6181546,70.7457662 Z M42.2052846,70.9031524 L29.437,71.736 C28.707,71.876 27.953,71.949 27.182,71.949 L16.635,71.949 C10.074,71.949 4.751,66.649 4.714,60.097 C3.762,49.37 3.762,38.579 4.714,27.853 C4.751,21.3 10.074,16 16.635,16 L27.182,16 C27.956,16 28.714,16.074 29.447,16.215 L41.0051889,16.9695901 C43.0736831,19.5015603 44.2950167,22.7305331 44.4381073,26.1951701 L44.6313407,30.8232829 C45.0235184,40.1314688 45.0235184,49.4469886 44.6313598,58.7547189 L44.4381297,63.3827462 C44.3273747,66.1006039 43.5494099,68.6788949 42.2052846,70.9031524 Z" id="Combined-Shape" fill="#999999"></path>
    </g>
</svg>