<?xml version="1.0" encoding="UTF-8"?>
<svg width="88px" height="88px" viewBox="0 0 88 88" version="1.1" xmlns="http://www.w3.org/2000/svg" xmlns:xlink="http://www.w3.org/1999/xlink">
    <!-- Generator: Sketch 51 (57462) - http://www.bohemiancoding.com/sketch -->
    <title>Device2/devices_icon_zb_water_leak_sensor_s</title>
    <desc>Created with Sketch.</desc>
    <defs>
        <linearGradient x1="112.960737%" y1="-19.1113281%" x2="-16.6566506%" y2="116.977539%" id="linearGradient-1">
            <stop stop-color="#8AADEC" offset="0%"></stop>
            <stop stop-color="#1E50A0" offset="100%"></stop>
        </linearGradient>
    </defs>
    <g id="Device2/devices_icon_zb_water_leak_sensor_s" stroke="none" stroke-width="1" fill="none" fill-rule="evenodd">
        <path d="M16,4 L72,4 C78.627417,4 84,9.372583 84,16 L84,72 C84,78.627417 78.627417,84 72,84 L16,84 C9.372583,84 4,78.627417 4,72 L4,16 C4,9.372583 9.372583,4 16,4 Z M15,9 C11.6862915,9 9,11.6862915 9,15 L9,73 C9,76.3137085 11.6862915,79 15,79 L73,79 C76.3137085,79 79,76.3137085 79,73 L79,15 C79,11.6862915 76.3137085,9 73,9 L15,9 Z M15,12 L73,12 C74.6568542,12 76,13.3431458 76,15 L76,73 C76,74.6568542 74.6568542,76 73,76 L15,76 C13.3431458,76 12,74.6568542 12,73 L12,15 C12,13.3431458 13.3431458,12 15,12 Z M44.5,58 C44.7761424,58 45,57.5522847 45,57 C45,56.4477153 44.7761424,56 44.5,56 C44.2238576,56 44,56.4477153 44,57 C44,57.5522847 44.2238576,58 44.5,58 Z M44.5,63 C44.7761424,63 45,62.5522847 45,62 C45,61.4477153 44.7761424,61 44.5,61 C44.2238576,61 44,61.4477153 44,62 C44,62.5522847 44.2238576,63 44.5,63 Z M41,59.5 C41,59.7761424 41.4477153,60 42,60 C42.5522847,60 43,59.7761424 43,59.5 C43,59.2238576 42.5522847,59 42,59 C41.4477153,59 41,59.2238576 41,59.5 Z M46,59.5 C46,59.7761424 46.4477153,60 47,60 C47.5522847,60 48,59.7761424 48,59.5 C48,59.2238576 47.5522847,59 47,59 C46.4477153,59 46,59.2238576 46,59.5 Z M41.5,57 C41.7761424,57 42,56.7761424 42,56.5 C42,56.2238576 41.7761424,56 41.5,56 C41.2238576,56 41,56.2238576 41,56.5 C41,56.7761424 41.2238576,57 41.5,57 Z M41.5,63 C41.7761424,63 42,62.7761424 42,62.5 C42,62.2238576 41.7761424,62 41.5,62 C41.2238576,62 41,62.2238576 41,62.5 C41,62.7761424 41.2238576,63 41.5,63 Z M47.5,63 C47.7761424,63 48,62.7761424 48,62.5 C48,62.2238576 47.7761424,62 47.5,62 C47.2238576,62 47,62.2238576 47,62.5 C47,62.7761424 47.2238576,63 47.5,63 Z M47.5,57 C47.7761424,57 48,56.7761424 48,56.5 C48,56.2238576 47.7761424,56 47.5,56 C47.2238576,56 47,56.2238576 47,56.5 C47,56.7761424 47.2238576,57 47.5,57 Z" id="Combined-Shape" fill="url(#linearGradient-1)"></path>
    </g>
</svg>