<?xml version="1.0" encoding="UTF-8"?>
<svg width="88px" height="88px" viewBox="0 0 88 88" version="1.1" xmlns="http://www.w3.org/2000/svg" xmlns:xlink="http://www.w3.org/1999/xlink">
    <!-- Generator: Sketch 51 (57462) - http://www.bohemiancoding.com/sketch -->
    <title>Device2/devices_icon_door_lock2_s</title>
    <desc>Created with Sketch.</desc>
    <defs>
        <linearGradient x1="112.960737%" y1="-19.1113281%" x2="-16.6566506%" y2="116.977539%" id="linearGradient-1">
            <stop stop-color="#8AADEC" offset="0%"></stop>
            <stop stop-color="#1E50A0" offset="100%"></stop>
        </linearGradient>
    </defs>
    <g id="Device2/devices_icon_door_lock2_s" stroke="none" stroke-width="1" fill="none" fill-rule="evenodd">
        <g id="Group" transform="translate(6.000000, 6.000000)" fill="url(#linearGradient-1)">
            <path d="M8,0 L40,0 C44.418278,-8.11624501e-16 48,3.581722 48,8 L48,68 C48,72.418278 44.418278,76 40,76 L8,76 C3.581722,76 5.41083001e-16,72.418278 0,68 L0,8 C-5.41083001e-16,3.581722 3.581722,8.11624501e-16 8,0 Z M23.5102041,14 C25.133245,14 26.4489796,12.6568542 26.4489796,11 C26.4489796,9.34314575 25.133245,8 23.5102041,8 C21.8871632,8 20.5714286,9.34314575 20.5714286,11 C20.5714286,12.6568542 21.8871632,14 23.5102041,14 Z M60,0 L68,0 C72.418278,-8.11624501e-16 76,3.581722 76,8 L76,68 C76,72.418278 72.418278,76 68,76 L60,76 C55.581722,76 52,72.418278 52,68 L52,8 C52,3.581722 55.581722,8.11624501e-16 60,0 Z" id="Combined-Shape"></path>
        </g>
    </g>
</svg>