<?xml version="1.0" encoding="UTF-8"?>
<svg width="88px" height="88px" viewBox="0 0 88 88" version="1.1" xmlns="http://www.w3.org/2000/svg" xmlns:xlink="http://www.w3.org/1999/xlink">
    <!-- Generator: Sketch 51 (57462) - http://www.bohemiancoding.com/sketch -->
    <title>Device2/devices_icon_smoke3_s </title>
    <desc>Created with Sketch.</desc>
    <defs></defs>
    <g id="Device2/devices_icon_smoke3_s-" stroke="none" stroke-width="1" fill="none" fill-rule="evenodd">
        <path d="M43.65,43.65 C30.43,43.65 19.69,46.34 19.65,49.64 L19.65,49.66 L19.8,50.33 C21.14,53.34 31.31,55.67 43.65,55.67 C56.9,55.67 67.65,52.98 67.65,49.66 C67.65,46.35 56.9,43.65 43.65,43.65 M44,4 C24.12,4 8,13.17 8,24.48 C8,29.179 10.782,33.512 15.475,36.962 L13.7,28.679 L13.7,28.52 C13.7,19.627 27.372,12.94 44,12.94 C60.628,12.94 74.3,19.627 74.3,28.52 L74.3,28.679 L72.526,36.959 C77.211,33.51 80,29.178 80,24.48 C80,13.17 63.88,4 44,4 M60.9846,37.5248 L58.3156,37.1188 L60.2456,24.4468 L62.9146,24.8528 L60.9846,37.5248 Z M42.1996,35.8028 L44.8996,35.8028 L44.8996,22.6498 L42.1996,22.6498 L42.1996,35.8028 Z M24.2456,37.5248 L22.3156,24.8528 L24.9846,24.4468 L26.9146,37.1188 L24.2456,37.5248 Z M43.9996,14.4398 C28.0896,14.4398 15.1996,20.7498 15.1996,28.5198 L17.2696,38.1798 L19.1446,46.9418 C23.2076,43.5938 32.6456,41.9498 43.9996,41.9498 C55.3606,41.9498 64.7986,43.5928 68.8586,46.9428 L70.7296,38.1898 L70.7296,38.1798 L72.7996,28.5198 C72.7996,20.7498 59.9096,14.4398 43.9996,14.4398 Z M25.5866,64.6841 C25.5866,62.7961 25.8566,62.2311 26.3486,61.2041 C26.6886,60.4951 27.1106,59.6141 27.5276,58.1701 L24.6446,57.3381 C24.2976,58.5421 23.9506,59.2681 23.6426,59.9071 C23.0766,61.0921 22.5866,62.1151 22.5866,64.6841 C22.5866,66.9051 23.2596,68.0251 23.8006,68.9241 C24.2566,69.6831 24.5866,70.2311 24.5866,71.6181 C24.5866,73.5081 24.3156,74.0741 23.8236,75.1021 C23.4836,75.8111 23.0616,76.6941 22.6446,78.1371 L25.5276,78.9691 C25.8756,77.7641 26.2226,77.0381 26.5296,76.3981 C27.0956,75.2121 27.5866,74.1891 27.5866,71.6181 C27.5866,69.3981 26.9126,68.2781 26.3716,67.3781 C25.9156,66.6191 25.5866,66.0721 25.5866,64.6841 M62.7174,64.6841 C62.7174,62.7961 62.9874,62.2311 63.4794,61.2041 C63.8194,60.4951 64.2414,59.6141 64.6584,58.1701 L61.7754,57.3381 C61.4284,58.5421 61.0814,59.2681 60.7734,59.9071 C60.2074,61.0921 59.7174,62.1151 59.7174,64.6841 C59.7174,66.9051 60.3904,68.0251 60.9314,68.9241 C61.3874,69.6831 61.7174,70.2311 61.7174,71.6181 C61.7174,73.5081 61.4464,74.0741 60.9544,75.1021 C60.6144,75.8111 60.1924,76.6941 59.7754,78.1371 L62.6584,78.9691 C63.0064,77.7641 63.3534,77.0381 63.6604,76.3981 C64.2264,75.2121 64.7174,74.1891 64.7174,71.6181 C64.7174,69.3981 64.0434,68.2781 63.5024,67.3781 C63.0464,66.6191 62.7174,66.0721 62.7174,64.6841 M44.152,69.4321 C44.152,67.5441 44.422,66.9791 44.914,65.9511 C45.254,65.2431 45.676,64.3611 46.093,62.9171 L43.21,62.0851 C42.863,63.2891 42.515,64.0161 42.208,64.6551 C41.642,65.8401 41.152,66.8631 41.152,69.4321 C41.152,71.6531 41.825,72.7731 42.366,73.6721 C42.822,74.4311 43.152,74.9791 43.152,76.3661 C43.152,78.2561 42.881,78.8211 42.389,79.8491 C42.049,80.5581 41.627,81.4411 41.21,82.8851 L44.093,83.7171 C44.441,82.5121 44.788,81.7851 45.095,81.1451 C45.662,79.9601 46.152,78.9371 46.152,76.3661 C46.152,74.1461 45.478,73.0261 44.937,72.1261 C44.481,71.3671 44.152,70.8201 44.152,69.4321" id="Combined-Shape" fill="#999999"></path>
    </g>
</svg>