<?xml version="1.0" encoding="UTF-8"?>
<svg width="88px" height="88px" viewBox="0 0 88 88" version="1.1" xmlns="http://www.w3.org/2000/svg" xmlns:xlink="http://www.w3.org/1999/xlink">
    <!-- Generator: Sketch 51 (57462) - http://www.bohemiancoding.com/sketch -->
    <title>Device2/devices_icon_zb_door_lock_na_s</title>
    <desc>Created with Sketch.</desc>
    <defs>
        <linearGradient x1="112.960737%" y1="-19.1113281%" x2="-16.6566506%" y2="116.977539%" id="linearGradient-1">
            <stop stop-color="#8AADEC" offset="0%"></stop>
            <stop stop-color="#1E50A0" offset="100%"></stop>
        </linearGradient>
    </defs>
    <g id="Device2/devices_icon_zb_door_lock_na_s" stroke="none" stroke-width="1" fill="none" fill-rule="evenodd">
        <path d="M42.22,43.72 C42.22,42.3 41.07,41.15 39.65,41.15 C38.24,41.15 37.08,42.3 37.08,43.72 C37.08,45.14 38.24,46.29 39.65,46.29 C41.07,46.29 42.22,45.14 42.22,43.72 Z M78.26,43.72 C78.26,45.43 76.87,46.81 75.17,46.81 L51.31,46.81 L50.31,46.81 L49.86,46.81 L46.1,46.81 L45.14,46.81 L36.64,46.81 C34.93,46.81 33.55,45.43 33.55,43.72 C33.55,42.01 34.93,40.62 36.64,40.62 L45.14,40.62 L46.1,40.62 L49.86,40.62 L50.31,40.62 L51.31,40.62 L75.17,40.62 C76.87,40.62 78.26,42.01 78.26,43.72 Z M39.65,41.6 C38.48,41.6 37.54,42.55 37.54,43.72 C37.54,44.89 38.48,45.84 39.65,45.84 C40.82,45.84 41.77,44.89 41.77,43.72 C41.77,42.55 40.82,41.6 39.65,41.6 Z M45.39,39.46 L49.86,39.46 L49.86,10.93 C49.86,6.37 46.15,2.67 41.6,2.67 L37.71,2.67 C33.15,2.67 29.44,6.37 29.44,10.93 L29.44,76.51 C29.44,81.07 33.15,84.77 37.71,84.77 L41.6,84.77 C46.15,84.77 49.86,81.07 49.86,76.51 L49.86,47.97 L45.4,47.97 C44.11,49.73 42.01,50.88 39.65,50.88 C35.86,50.88 32.75,47.92 32.53,44.18 C32.51,44.03 32.5,43.88 32.5,43.72 C32.5,43.56 32.51,43.41 32.53,43.26 C32.75,39.52 35.86,36.56 39.65,36.56 C42.01,36.56 44.1,37.7 45.39,39.46 Z M50.31,76.51 C50.31,81.32 46.4,85.22 41.6,85.22 L37.71,85.22 C32.9,85.22 28.99,81.32 28.99,76.51 L28.99,10.93 C28.99,6.12 32.9,2.21 37.71,2.21 L41.6,2.21 C46.4,2.21 50.31,6.12 50.31,10.93 L50.31,39.46 L51.31,39.46 L51.31,10.82 C51.31,5.4 46.91,1 41.49,1 L37.82,1 C32.39,1 28,5.4 28,10.82 L28,76.62 C28,82.04 32.39,86.44 37.82,86.44 L41.49,86.44 C46.91,86.44 51.31,82.04 51.31,76.62 L51.31,47.97 L50.31,47.97 L50.31,76.51 Z M39.65,50.02 C41.49,50.02 43.15,49.23 44.29,47.97 L36.75,47.97 C35.9,47.97 35.12,47.72 34.46,47.3 C35.61,48.95 37.5,50.02 39.65,50.02 Z M39.65,37.42 C41.48,37.42 43.14,38.2 44.28,39.46 L36.75,39.46 C35.91,39.46 35.13,39.7 34.47,40.13 C35.61,38.49 37.51,37.42 39.65,37.42 Z" id="Fill-1" fill="url(#linearGradient-1)"></path>
    </g>
</svg>