<?xml version="1.0" encoding="UTF-8"?>
<svg width="88px" height="88px" viewBox="0 0 88 88" version="1.1" xmlns="http://www.w3.org/2000/svg" xmlns:xlink="http://www.w3.org/1999/xlink">
    <!-- Generator: Sketch 51 (57462) - http://www.bohemiancoding.com/sketch -->
    <title>Device2/devices_icon_ipc_a216_s</title>
    <desc>Created with Sketch.</desc>
    <defs></defs>
    <g id="Device2/devices_icon_ipc_a216_s" stroke="none" stroke-width="1" fill="none" fill-rule="evenodd">
        <path d="M21.0685495,41.4262975 C28.3488144,41.3285868 35.386003,41.1707658 42.1801151,40.9528343 C42.8816227,40.9303324 47.7969776,40.6003225 52.1383457,40.6068584 L52.2083729,37.2385143 C51.3111528,35.5609907 50.7993302,34.6216671 50.672905,34.4205435 C50.6054939,34.3133025 50.5656346,34.1299398 50.5505783,33.895843 L52.2811381,33.7384724 L52.3229565,31.7269857 L50.7864578,31.8664121 C50.9886506,31.0366145 51.3061263,30.241178 51.6968308,29.8685111 C51.8711625,29.7022278 52.095552,29.5674607 52.3699992,29.4642097 L52.7756874,9.95040158 C52.7893174,9.2947942 53.3246907,8.77043548 53.9804398,8.77043548 C54.6360231,8.77043548 55.1711016,9.29496936 55.1841484,9.95042282 L55.5693589,29.3029874 C55.5807603,29.3043113 55.5921843,29.3056479 55.6036308,29.3069987 C59.1646105,29.159156 64.50608,28.937392 71.6280394,28.6417067 C72.6934604,28.5974732 73.7189564,29.0507847 74.4033555,29.8685111 L83.5704008,40.8213803 C83.7601538,41.0480989 83.7710883,41.374919 83.5969136,41.6138137 C83.2978083,42.2910256 83.0084846,42.8580984 82.7289424,43.3150322 L72.7013822,32.3159509 C71.8210805,31.3406469 70.5474606,30.8058824 69.229794,30.8605885 L55.6779687,31.4225423 L55.6116681,31.4285586 L55.651546,33.4319802 L55.8099627,33.4175744 L69.3127071,32.8588691 C70.0359929,32.8288402 70.7350522,33.1223596 71.2200621,33.6597017 L80.9099656,44.2884302 L80.9099656,44.7367924 L70.9097852,44.7367924 L65.680387,57.160128 C64.3558499,59.5171112 62.364085,59.1111818 59.7050922,55.9423398 C59.431476,57.4823574 59.1104174,59.2027182 58.7434449,61.1693591 C57.3633071,68.5656486 56.045198,68.5656486 52.9618644,69.5379773 L26.2951258,78.7378774 C25.9333868,78.9505483 25.5271568,79.0942919 25.0951801,79.1518531 L24.8699265,79.2295645 L24.8455253,79.1752531 C24.7425353,79.1808765 24.6383366,79.1816226 24.5331676,79.1772717 C24.1925761,79.1631815 23.8563848,79.0950777 23.5371611,78.9755062 L23.2265248,78.8591513 C25.4065584,78.7779825 27.1907848,77.0301136 27.2803322,74.8135452 C27.9908649,57.2246858 28.2928869,49.7474253 28.2933933,49.7322369 C28.4355819,45.4676969 25.2469769,41.8648966 21.0685495,41.4262975 Z M4.27950876,45.7934651 C4.33523317,44.6246384 5.87172576,43.2373725 7.46518269,42.9972619 C7.62492008,42.9731918 7.78652498,42.9637895 7.94797598,42.9691726 L20.4192066,43.3849894 C23.7759651,43.4969107 26.4064254,46.3088312 26.2945041,49.6655897 C26.2942714,49.6725689 25.9210924,58.9114857 25.2819622,74.7328153 C25.2324975,75.9572151 24.1998243,76.9096902 22.9754221,76.8602254 C22.7340607,76.8504746 22.4959112,76.8013756 22.2703749,76.7148666 L11.0143749,72.3973987 C9.78474589,71.9257494 8.65738937,71.1673353 8.08209857,70.4365999 L4.27950876,45.7934651 Z M19.0889177,64.8552376 L19.0907072,64.854207 L19.0718315,64.8214337 C19.0083262,64.6971588 18.9387103,64.5759323 18.8622544,64.4575517 L18.7662807,64.2909156 C20.1568036,62.8778736 20.8660518,60.3023059 20.4504569,57.6783434 C19.8686607,54.0050267 16.9895677,51.0211994 14.4667166,51.4207798 C11.8996432,51.8273643 9.94949519,55.4462132 10.5223035,59.0627825 C10.915452,61.5450246 12.1433836,63.7236495 13.6711208,64.7581867 L13.6517412,64.8273567 C13.615945,64.9388106 13.5826394,65.0574704 13.5524722,65.1816682 L13.546482,65.2030484 C13.3905151,65.8598751 13.3216242,66.6670312 13.43487,67.3820371 C13.7412635,69.3165293 15.7197874,71.0145099 17.2021368,70.7797289 C18.68643,70.5446399 19.9163557,68.5434423 19.6102293,66.6106362 C19.5073417,65.9610296 19.3517326,65.3809381 19.0889177,64.8552376 Z M18.2141978,65.336005 C18.4163256,65.7546121 18.5382363,66.2347923 18.6225409,66.7670707 C18.8471899,68.1854485 17.9475773,69.6491976 17.0457023,69.7920405 C16.1476651,69.9342757 14.6476828,68.6469821 14.4225584,67.2256027 C14.3276981,66.6266783 14.389403,65.9613025 14.5200525,65.4348216 L14.5870801,65.1955864 C14.5943925,65.17237 14.6018351,65.1495593 14.609398,65.127178 L14.6065545,65.1260782 L14.8429242,64.2824256 L14.4949598,64.0914343 C13.108492,63.3304274 11.8872627,61.2883423 11.5099918,58.906348 C11.0157489,55.785821 12.668966,52.7179807 14.6231511,52.4084682 C16.5095666,52.1096893 18.9578856,54.647072 19.4627686,57.8347778 C19.856519,60.3208199 19.1178468,62.7239136 17.8138063,63.8106729 L17.4907482,64.0799026 L17.9874902,64.9423799 C17.9886552,64.9453838 17.990436,64.9479798 17.9922124,64.9505789 L18.2141978,65.336005 Z M60.6019953,50.0869913 C60.9629758,49.26113 61.4237217,48.439943 61.984233,47.6234304 C62.2525716,46.3824943 62.1300412,45.3815582 61.1566873,44.7367924 L60.7829734,44.7367924 C60.8286416,45.094864 60.8543055,45.4892033 60.8543055,45.9233002 C60.8543055,47.2674668 60.7691234,48.6088302 60.6019953,50.0869913 Z M16.0965227,62.7069081 C17.6434341,62.4619014 18.4528901,60.3248026 18.0827913,57.9880908 C17.7126925,55.6513789 16.2824543,53.8690129 14.7355429,54.1140195 C13.1886315,54.3590262 12.3791755,56.496125 12.7492743,58.8328369 C13.1193731,61.1695487 14.5496113,62.9519148 16.0965227,62.7069081 Z M15.3652897,66.811889 C15.5389838,67.9382224 16.1390075,68.838154 16.9270257,68.7096175 C17.7091844,68.5820367 18.0072065,67.5416328 17.8339317,66.4180176 C17.6602377,65.2916842 17.0602139,64.3917526 16.2721957,64.5202891 C15.490037,64.6478698 15.1920149,65.6882737 15.3652897,66.811889 Z M15.2662497,49.8278735 C15.7645844,49.7666857 16.1189619,49.3131031 16.0577741,48.8147685 C15.9965863,48.3164339 15.5430037,47.9620563 15.0446691,48.0232441 C14.5463345,48.0844319 14.1919569,48.5380145 14.2531447,49.0363491 C14.3143325,49.5346838 14.7679151,49.8890613 15.2662497,49.8278735 Z" id="Combined-Shape" fill="#999999"></path>
    </g>
</svg>