<?xml version="1.0" encoding="UTF-8"?>
<svg width="88px" height="88px" viewBox="0 0 88 88" version="1.1" xmlns="http://www.w3.org/2000/svg" xmlns:xlink="http://www.w3.org/1999/xlink">
    <!-- Generator: Sketch 51 (57462) - http://www.bohemiancoding.com/sketch -->
    <title>Device2/devices_icon_humiture3_s</title>
    <desc>Created with Sketch.</desc>
    <defs>
        <linearGradient x1="112.960737%" y1="-19.1113281%" x2="-16.6566506%" y2="116.977539%" id="linearGradient-1">
            <stop stop-color="#8AADEC" offset="0%"></stop>
            <stop stop-color="#1E50A0" offset="100%"></stop>
        </linearGradient>
    </defs>
    <g id="Device2/devices_icon_humiture3_s" stroke="none" stroke-width="1" fill="none" fill-rule="evenodd">
        <path d="M12,4 L76,4 C80.418278,4 84,7.581722 84,12 L84,76 C84,80.418278 80.418278,84 76,84 L12,84 C7.581722,84 4,80.418278 4,76 L4,12 C4,7.581722 7.581722,4 12,4 Z M13.6,8 C10.5072054,8 8,10.5072054 8,13.6 L8,74.4 C8,77.4927946 10.5072054,80 13.6,80 L74.4,80 C77.4927946,80 80,77.4927946 80,74.4 L80,13.6 C80,10.5072054 77.4927946,8 74.4,8 L13.6,8 Z M13.6,10 L74.4,10 C76.3882251,10 78,11.6117749 78,13.6 L78,74.4 C78,76.3882251 76.3882251,78 74.4,78 L13.6,78 C11.6117749,78 10,76.3882251 10,74.4 L10,13.6 C10,11.6117749 11.6117749,10 13.6,10 Z M52,62.2560586 C50.2522114,62.8738132 49,64.5406718 49,66.5 C49,68.9852814 51.0147186,71 53.5,71 C55.9852814,71 58,68.9852814 58,66.5 C58,64.5406718 56.7477886,62.8738132 55,62.2560586 L55,49.5 C55,48.6715729 54.3284271,48 53.5,48 C52.6715729,48 52,48.6715729 52,49.5 L52,62.2560586 Z M57,51 C56.4477153,51 56,51.4477153 56,52 C56,52.5522847 56.4477153,53 57,53 L58,53 C58.5522847,53 59,52.5522847 59,52 C59,51.4477153 58.5522847,51 58,51 L57,51 Z M57,55 C56.4477153,55 56,55.4477153 56,56 C56,56.5522847 56.4477153,57 57,57 L58,57 C58.5522847,57 59,56.5522847 59,56 C59,55.4477153 58.5522847,55 58,55 L57,55 Z M57,59 C56.4477153,59 56,59.4477153 56,60 C56,60.5522847 56.4477153,61 57,61 L58,61 C58.5522847,61 59,60.5522847 59,60 C59,59.4477153 58.5522847,59 58,59 L57,59 Z M67,71 C69.2093333,71 71,69.1404615 71,66.8461538 C71,63.4423077 67,59 67,59 C67,59 63,63.1538462 63,66.8461538 C63,69.1404615 64.7906667,71 67,71 Z" id="Combined-Shape" fill="url(#linearGradient-1)"></path>
    </g>
</svg>