<?xml version="1.0" encoding="UTF-8"?>
<svg width="88px" height="88px" viewBox="0 0 88 88" version="1.1" xmlns="http://www.w3.org/2000/svg" xmlns:xlink="http://www.w3.org/1999/xlink">
    <!-- Generator: Sketch 51 (57462) - http://www.bohemiancoding.com/sketch -->
    <title>Device2/devices_icon_camera2_s  </title>
    <desc>Created with Sketch.</desc>
    <defs>
        <linearGradient x1="112.960737%" y1="-19.1113281%" x2="-16.6566506%" y2="116.977539%" id="linearGradient-1">
            <stop stop-color="#8AADEC" offset="0%"></stop>
            <stop stop-color="#1E50A0" offset="100%"></stop>
        </linearGradient>
    </defs>
    <g id="Device2/devices_icon_camera2_s--" stroke="none" stroke-width="1" fill="none" fill-rule="evenodd">
        <path d="M23,59 L64,59 L64,68 C64,70.209139 62.4377596,72 60.5106383,72 L45,72 L45,83.1032 L68.6475,83.1032 C69.4475,83.1032 70.0955,83.7522 70.0955,84.5522 C70.0955,85.3512 69.4475,86.0002 68.6475,86.0002 L18.4405,86.0002 C17.6415,86.0002 16.9925,85.3512 16.9925,84.5522 C16.9925,83.7522 17.6415,83.1032 18.4405,83.1032 L42,83.1032 L42,72 L26.4893617,72 C24.5622404,72 23,70.209139 23,68 L23,59 Z M23,57 L23,9 C23,6.790861 24.5622404,5 26.4893617,5 L60.5106383,5 C62.4377596,5 64,6.790861 64,9 L64,57 L23,57 Z M43.5,15 C44.8807119,15 46,13.8807119 46,12.5 C46,11.1192881 44.8807119,10 43.5,10 C42.1192881,10 41,11.1192881 41,12.5 C41,13.8807119 42.1192881,15 43.5,15 Z M43.5,41 C38.2532949,41 34,36.7467051 34,31.5 C34,26.2532949 38.2532949,22 43.5,22 C48.7467051,22 53,26.2532949 53,31.5 C53,36.7467051 48.7467051,41 43.5,41 Z M43.5,38 C47.0898509,38 50,35.0898509 50,31.5 C50,27.9101491 47.0898509,25 43.5,25 C39.9101491,25 37,27.9101491 37,31.5 C37,35.0898509 39.9101491,38 43.5,38 Z" id="Combined-Shape" fill="url(#linearGradient-1)"></path>
    </g>
</svg>