<?xml version="1.0" encoding="UTF-8"?>
<svg width="88px" height="88px" viewBox="0 0 88 88" version="1.1" xmlns="http://www.w3.org/2000/svg" xmlns:xlink="http://www.w3.org/1999/xlink">
    <!-- Generator: Sketch 51 (57462) - http://www.bohemiancoding.com/sketch -->
    <title>Device2/devices_icon1_smoke1_s </title>
    <desc>Created with Sketch.</desc>
    <defs></defs>
    <g id="Device2/devices_icon1_smoke1_s-" stroke="none" stroke-width="1" fill="none" fill-rule="evenodd">
        <path d="M80.6097836,33.0748555 C79.7108617,32.6854207 78.7720448,32.3159202 77.793333,31.9563934 C77.243333,31.7563934 76.683333,31.5663934 76.113333,31.3763934 L75.173333,34.2163934 C75.533333,34.3363934 75.893333,34.4563934 76.243333,34.5863934 C77.233333,34.9363934 78.183333,35.2963934 79.083333,35.6763934 L79.5875761,34.8195098 L77.362833,38.6165934 L74.633833,49.1555934 C74.137833,51.0625934 72.654833,52.5825934 70.760833,53.1235934 C62.056833,55.6085934 53.093833,56.8505934 44.131833,56.8505934 C35.448833,56.8505934 26.763833,55.6845934 18.312833,53.3515934 L17.454833,53.1135934 C15.537833,52.5835934 14.035833,51.0585934 13.536833,49.1315934 L13.2141617,47.8858627 C14.0539111,47.4060691 14.9735979,46.9662349 15.963233,46.5363934 C17.303233,45.9563934 18.773233,45.4163934 20.373233,44.9263934 L19.493233,42.0663934 C17.963233,42.5363934 16.523233,43.0563934 15.203233,43.6063934 C14.2154601,44.0154711 13.2973725,44.4444589 12.4390377,44.8933569 L10.830833,38.6845934 L8.78436453,35.8259513 C9.69405847,35.4361062 10.6537146,35.0562574 11.663333,34.6963934 C12.393333,34.4363934 13.143333,34.1763934 13.923333,33.9363934 L13.023333,31.0663934 C11.923333,31.4163934 10.863333,31.7763934 9.85333304,32.1563934 C8.86333304,32.5263934 7.91333304,32.9163934 7.00333304,33.3263934 L8.53650733,35.4797281 L5.34283304,31.0185934 L1.23183304,17.2515934 C0.464833037,14.6825934 1.65083304,11.9495934 4.05283304,10.7535934 L5.60283304,9.98359339 C29.601833,-1.95440661 58.279833,-1.99740661 82.314833,9.87259339 L83.935833,10.6725934 C86.441833,11.9095934 87.620833,14.8275934 86.678833,17.4585934 L81.761833,31.1085934 L80.6097836,33.0748555 Z M55.444233,42.2663934 L55.772233,39.2843934 C52.823233,38.9593934 49.755233,38.7633934 46.657233,38.7043934 L46.600233,41.7043934 C49.608233,41.7613934 52.583233,41.9513934 55.444233,42.2663934 Z M28.944233,42.9363934 C31.751233,42.4633934 34.709233,42.1203934 37.735233,41.9153934 L37.532233,38.9223934 C34.407233,39.1333934 31.351233,39.4893934 28.446233,39.9773934 L28.944233,42.9363934 Z M72.528233,46.2293934 L73.653233,43.4483934 C71.056233,42.3973934 68.082233,41.4943934 64.814233,40.7643934 L64.159233,43.6923934 C67.268233,44.3863934 70.083233,45.2403934 72.528233,46.2293934 Z M49.022333,29.9293934 L49.139333,26.9313934 C46.136333,26.8143934 43.024333,26.8053934 40.034333,26.8993934 L40.126333,29.8973934 C43.051333,29.8083934 46.089333,29.8163934 49.022333,29.9293934 Z M22.487333,31.7943934 C25.280333,31.2533934 28.232333,30.8173934 31.260333,30.4963934 L30.944333,27.5133934 C27.830333,27.8423934 24.793333,28.2933934 21.916333,28.8493934 L22.487333,31.7943934 Z M66.643333,31.9773934 L67.244333,29.0383934 C64.377333,28.4523934 61.342333,27.9743934 58.224333,27.6183934 L57.884333,30.5983934 C60.915333,30.9453934 63.863333,31.4093934 66.643333,31.9773934 Z M44.442933,87.0672934 L41.559933,86.2352934 C41.976933,84.7912934 42.398933,83.9082934 42.738933,83.1992934 C43.230933,82.1712934 43.501933,81.6062934 43.501933,79.7162934 C43.501933,78.3292934 43.171933,77.7812934 42.715933,77.0222934 C42.174933,76.1232934 41.501933,75.0032934 41.501933,72.7822934 C41.501933,70.2132934 41.991933,69.1902934 42.557933,68.0052934 C42.864933,67.3662934 43.212933,66.6392934 43.559933,65.4352934 L46.442933,66.2672934 C46.025933,67.7112934 45.603933,68.5932934 45.263933,69.3012934 C44.771933,70.3292934 44.501933,70.8942934 44.501933,72.7822934 C44.501933,74.1702934 44.830933,74.7172934 45.286933,75.4762934 C45.827933,76.3762934 46.501933,77.4962934 46.501933,79.7162934 C46.501933,82.2872934 46.011933,83.3102934 45.444933,84.4952934 C45.137933,85.1352934 44.790933,85.8622934 44.442933,87.0672934 Z M25.877533,82.3192934 L22.994533,81.4872934 C23.411533,80.0442934 23.833533,79.1612934 24.173533,78.4522934 C24.665533,77.4242934 24.936533,76.8582934 24.936533,74.9682934 C24.936533,73.5812934 24.606533,73.0332934 24.150533,72.2742934 C23.609533,71.3752934 22.936533,70.2552934 22.936533,68.0342934 C22.936533,65.4652934 23.426533,64.4422934 23.992533,63.2572934 C24.300533,62.6182934 24.647533,61.8922934 24.994533,60.6882934 L27.877533,61.5202934 C27.460533,62.9642934 27.038533,63.8452934 26.698533,64.5542934 C26.206533,65.5812934 25.936533,66.1462934 25.936533,68.0342934 C25.936533,69.4222934 26.265533,69.9692934 26.721533,70.7282934 C27.262533,71.6282934 27.936533,72.7482934 27.936533,74.9682934 C27.936533,77.5392934 27.445533,78.5622934 26.879533,79.7482934 C26.572533,80.3882934 26.225533,81.1142934 25.877533,82.3192934 Z M63.008333,82.3192934 L60.125333,81.4872934 C60.542333,80.0442934 60.964333,79.1612934 61.304333,78.4522934 C61.796333,77.4242934 62.067333,76.8582934 62.067333,74.9682934 C62.067333,73.5812934 61.737333,73.0332934 61.281333,72.2742934 C60.740333,71.3752934 60.067333,70.2552934 60.067333,68.0342934 C60.067333,65.4652934 60.557333,64.4422934 61.123333,63.2572934 C61.431333,62.6182934 61.778333,61.8922934 62.125333,60.6882934 L65.008333,61.5202934 C64.591333,62.9642934 64.169333,63.8452934 63.829333,64.5542934 C63.337333,65.5812934 63.067333,66.1462934 63.067333,68.0342934 C63.067333,69.4222934 63.396333,69.9692934 63.852333,70.7282934 C64.393333,71.6282934 65.067333,72.7482934 65.067333,74.9682934 C65.067333,77.5392934 64.576333,78.5622934 64.010333,79.7482934 C63.703333,80.3882934 63.356333,81.1142934 63.008333,82.3192934 Z" id="Combined-Shape" fill="#999999"></path>
    </g>
</svg>