<?xml version="1.0" encoding="UTF-8"?>
<svg width="48px" height="48px" viewBox="0 0 48 48" version="1.1" xmlns="http://www.w3.org/2000/svg" xmlns:xlink="http://www.w3.org/1999/xlink">
    <!-- Generator: Sketch 51 (57462) - http://www.bohemiancoding.com/sketch -->
    <title>ICONS/device_icon_brightness_strong</title>
    <desc>Created with Sketch.</desc>
    <defs></defs>
    <g id="ICONS/device_icon_brightness_strong" stroke="none" stroke-width="1" fill="none" fill-rule="evenodd">
        <path d="M24,14.9145972 C18.9894004,14.9145972 14.9145972,18.9894004 14.9145972,24 C14.9145972,29.0105996 18.9894004,33.0854028 24,33.0854028 C29.0105996,33.0854028 33.0854028,29.0105996 33.0854028,24 C33.0854028,18.9894004 29.0105996,14.9145972 24,14.9145972 M24,36.1138704 C17.3207147,36.1138704 11.8861296,30.6792853 11.8861296,24 C11.8861296,17.3207147 17.3207147,11.8861296 24,11.8861296 C30.6792853,11.8861296 36.1138704,17.3207147 36.1138704,24 C36.1138704,30.6792853 30.6792853,36.1138704 24,36.1138704 Z M24,9.08540279 C23.1641429,9.08540279 22.4857662,8.40854028 22.4857662,7.57116899 L22.4857662,1.5142338 C22.4857662,0.676862508 23.1641429,0 24,0 C24.8358571,0 25.5142338,0.676862508 25.5142338,1.5142338 L25.5142338,7.57116899 C25.5142338,8.40854028 24.8358571,9.08540279 24,9.08540279 Z M24,48 C23.1641429,48 22.4857662,47.3231375 22.4857662,46.4857662 L22.4857662,40.428831 C22.4857662,39.5914597 23.1641429,38.9145972 24,38.9145972 C24.8358571,38.9145972 25.5142338,39.5914597 25.5142338,40.428831 L25.5142338,46.4857662 C25.5142338,47.3231375 24.8358571,48 24,48 Z M46.4857662,25.5142338 L40.428831,25.5142338 C39.592974,25.5142338 38.9145972,24.8373713 38.9145972,24 C38.9145972,23.1626287 39.592974,22.4857662 40.428831,22.4857662 L46.4857662,22.4857662 C47.3216233,22.4857662 48,23.1626287 48,24 C48,24.8373713 47.3216233,25.5142338 46.4857662,25.5142338 Z M7.57116899,25.5142338 L1.5142338,25.5142338 C0.678376741,25.5142338 0,24.8373713 0,24 C0,23.1626287 0.678376741,22.4857662 1.5142338,22.4857662 L7.57116899,22.4857662 C8.40702604,22.4857662 9.08540279,23.1626287 9.08540279,24 C9.08540279,24.8373713 8.40702604,25.5142338 7.57116899,25.5142338 Z M35.6170503,13.8971835 C35.2294064,13.8971835 34.8417626,13.7487886 34.546487,13.453513 C33.9544216,12.8614476 33.9544216,11.9044518 34.546487,11.3123864 L38.8302544,7.03013325 C39.4208056,6.43806784 40.3793156,6.43806784 40.971381,7.03013325 C41.5619322,7.62068443 41.5619322,8.57919443 40.971381,9.17125984 L36.6876136,13.453513 C36.392338,13.7487886 36.0046941,13.8971835 35.6170503,13.8971835 Z M8.10054512,41.4136887 C7.71290127,41.4136887 7.32525742,41.2652938 7.02998183,40.9700182 C6.43791641,40.3779528 6.43791641,39.420957 7.02998183,38.8288916 L11.312235,34.5466384 C11.9043004,33.954573 12.8628104,33.954573 13.4533616,34.5466384 C14.045427,35.1371896 14.045427,36.0956996 13.4533616,36.687765 L9.17110842,40.9700182 C8.87583283,41.2652938 8.48818898,41.4136887 8.10054512,41.4136887 Z M39.900212,41.4136887 C39.5125681,41.4136887 39.1249243,41.2652938 38.8296487,40.9700182 L34.5458813,36.687765 C33.9553301,36.0956996 33.9553301,35.1371896 34.5458813,34.5466384 C35.1379467,33.954573 36.0964567,33.954573 36.6870079,34.5466384 L40.9707753,38.8288916 C41.5628407,39.420957 41.5628407,40.3779528 40.9707753,40.9700182 C40.6754997,41.2652938 40.2878558,41.4136887 39.900212,41.4136887 Z M12.3829497,13.8971835 C11.9953059,13.8971835 11.607662,13.7487886 11.3123864,13.453513 L7.03013325,9.17125984 C6.43806784,8.57919443 6.43806784,7.62068443 7.03013325,7.03013325 C7.62068443,6.43806784 8.57919443,6.43806784 9.17125984,7.03013325 L13.453513,11.3123864 C14.0455784,11.9044518 14.0455784,12.8614476 13.453513,13.453513 C13.1582374,13.7487886 12.7705936,13.8971835 12.3829497,13.8971835 Z" id="Combined-Shape" fill="#999999"></path>
    </g>
</svg>