<?xml version="1.0" encoding="UTF-8"?>
<svg width="88px" height="88px" viewBox="0 0 88 88" version="1.1" xmlns="http://www.w3.org/2000/svg" xmlns:xlink="http://www.w3.org/1999/xlink">
    <!-- Generator: Sketch 51 (57462) - http://www.bohemiancoding.com/sketch -->
    <title>Device2/devices_icon_range_hood_s</title>
    <desc>Created with Sketch.</desc>
    <defs>
        <linearGradient x1="112.960737%" y1="-19.1113281%" x2="-16.6566506%" y2="116.977539%" id="linearGradient-1">
            <stop stop-color="#8AADEC" offset="0%"></stop>
            <stop stop-color="#1E50A0" offset="100%"></stop>
        </linearGradient>
    </defs>
    <g id="Device2/devices_icon_range_hood_s" stroke="none" stroke-width="1" fill="none" fill-rule="evenodd">
        <path d="M83.2969,57.8341 L5.4999,57.8341 C3.5699,57.8341 1.9999,56.2641 1.9999,54.3341 L1.9999,44.1491 C1.9999,42.2201 3.5699,40.6491 5.4999,40.6491 L83.2969,40.6491 C85.2269,40.6491 86.7969,42.2201 86.7969,44.1491 L86.7969,54.3341 C86.7969,56.2641 85.2269,57.8341 83.2969,57.8341 Z M13.3994,80.548 C12.5714,80.548 11.8994,79.876 11.8994,79.048 C11.8994,77.322 12.6844,76.402 13.2584,75.731 C13.6984,75.215 13.8994,74.98 13.8994,74.361 C13.8994,73.742 13.6984,73.507 13.2584,72.991 C12.6844,72.319 11.8994,71.4 11.8994,69.675 C11.8994,67.95 12.6854,67.03 13.2584,66.359 C13.6984,65.844 13.8994,65.609 13.8994,64.991 C13.8994,64.163 14.5714,63.491 15.3994,63.491 C16.2274,63.491 16.8994,64.163 16.8994,64.991 C16.8994,66.716 16.1134,67.636 15.5404,68.308 C15.1004,68.822 14.8994,69.058 14.8994,69.675 C14.8994,70.293 15.1004,70.528 15.5404,71.044 C16.1144,71.716 16.8994,72.637 16.8994,74.361 C16.8994,76.086 16.1144,77.006 15.5404,77.678 C15.1004,78.194 14.8994,78.429 14.8994,79.048 C14.8994,79.876 14.2274,80.548 13.3994,80.548 Z M73.416,80.548 C72.588,80.548 71.916,79.876 71.916,79.048 C71.916,77.322 72.701,76.402 73.275,75.731 C73.715,75.215 73.916,74.98 73.916,74.361 C73.916,73.742 73.715,73.507 73.275,72.991 C72.701,72.319 71.916,71.4 71.916,69.675 C71.916,67.95 72.702,67.03 73.275,66.359 C73.715,65.844 73.916,65.609 73.916,64.991 C73.916,64.163 74.588,63.491 75.416,63.491 C76.244,63.491 76.916,64.163 76.916,64.991 C76.916,66.716 76.13,67.636 75.557,68.308 C75.117,68.822 74.916,69.058 74.916,69.675 C74.916,70.293 75.117,70.528 75.557,71.044 C76.131,71.716 76.916,72.637 76.916,74.361 C76.916,76.086 76.131,77.006 75.557,77.678 C75.117,78.194 74.916,78.429 74.916,79.048 C74.916,79.876 74.244,80.548 73.416,80.548 Z M74.821,37.6496 L13.999,37.6496 L32.135,22.8286 L56.669,22.8286 L74.821,37.6496 Z M54.5521,19.8283 L34.2621,19.8283 L34.2621,10.5003 C34.2621,8.5703 35.8321,7.0003 37.7621,7.0003 L51.0521,7.0003 C52.9821,7.0003 54.5521,8.5703 54.5521,10.5003 L54.5521,19.8283 Z M43.4072,80.548 C42.5792,80.548 41.9072,79.876 41.9072,79.048 C41.9072,77.322 42.6922,76.402 43.2662,75.731 C43.7062,75.215 43.9072,74.98 43.9072,74.361 C43.9072,73.742 43.7062,73.507 43.2662,72.991 C42.6922,72.319 41.9072,71.4 41.9072,69.675 C41.9072,67.95 42.6932,67.03 43.2662,66.359 C43.7062,65.844 43.9072,65.609 43.9072,64.991 C43.9072,64.163 44.5792,63.491 45.4072,63.491 C46.2352,63.491 46.9072,64.163 46.9072,64.991 C46.9072,66.716 46.1212,67.636 45.5482,68.308 C45.1082,68.822 44.9072,69.058 44.9072,69.675 C44.9072,70.293 45.1082,70.528 45.5482,71.044 C46.1222,71.716 46.9072,72.637 46.9072,74.361 C46.9072,76.086 46.1222,77.006 45.5482,77.678 C45.1082,78.194 44.9072,78.429 44.9072,79.048 C44.9072,79.876 44.2352,80.548 43.4072,80.548 Z" id="Combined-Shape" fill="url(#linearGradient-1)"></path>
    </g>
</svg>