<?xml version="1.0" encoding="UTF-8"?>
<svg width="88px" height="88px" viewBox="0 0 88 88" version="1.1" xmlns="http://www.w3.org/2000/svg" xmlns:xlink="http://www.w3.org/1999/xlink">
    <!-- Generator: Sketch 51 (57462) - http://www.bohemiancoding.com/sketch -->
    <title>Device2/devices_icon_fan3_s</title>
    <desc>Created with Sketch.</desc>
    <defs>
        <linearGradient x1="112.960737%" y1="-19.1113281%" x2="-16.6566506%" y2="116.977539%" id="linearGradient-1">
            <stop stop-color="#8AADEC" offset="0%"></stop>
            <stop stop-color="#1E50A0" offset="100%"></stop>
        </linearGradient>
    </defs>
    <g id="Device2/devices_icon_fan3_s" stroke="none" stroke-width="1" fill="none" fill-rule="evenodd">
        <path d="M43.0135135,31.7145819 L43.0135135,16.2874901 C36.1538469,16.5273391 29.927768,19.2587548 25.2124076,23.6046008 L36.1262222,34.5184154 C38.0247142,32.9401108 40.4047892,31.9211884 43.0135135,31.7145819 Z M46.0135135,31.8393451 C48.0416981,32.17264 49.9031317,33.0010733 51.4695724,34.196403 L62.4063228,23.2596526 C57.9794638,19.3281013 52.2851894,16.7922975 46.0135135,16.3422551 L46.0135135,31.8393451 Z M53.6168281,36.291788 C55.0159912,38.0351474 55.9508899,40.1670722 56.2339617,42.5 L71.6898505,42.5 C71.3390453,35.9189065 68.6935994,29.9468859 64.5390954,25.3695207 L53.6168281,36.291788 Z M56.2339617,45.5 C55.9418644,47.9073113 54.9557116,50.1005978 53.4815846,51.8737778 L64.3953992,62.7875924 C68.6325492,58.19017 71.3350175,52.1566547 71.6898505,45.5 L56.2339617,45.5 Z M51.297626,53.9324599 C49.7676143,55.0584869 47.9679894,55.8394727 46.0135135,56.1606549 L46.0135135,71.6577449 C52.2099383,71.2131023 57.8427343,68.7324504 62.2464285,64.8812624 L51.297626,53.9324599 Z M43.0135135,56.2854181 C40.4800757,56.0847742 38.1622802,55.1180238 36.291788,53.6168281 L25.3695207,64.5390954 C30.0656576,68.8013989 36.2297649,71.4753154 43.0135076,71.7125097 L43.0135135,56.2854181 Z M34.196403,51.4695724 C32.9008678,49.7718156 32.0363218,47.7275337 31.7660383,45.5 L16.3101495,45.5 C16.6552564,51.9741941 19.2210639,57.8589415 23.2596526,62.4063228 L34.196403,51.4695724 Z M31.7660383,42.5 C32.0272589,40.3471582 32.8435573,38.365485 34.0675401,36.702374 L23.1187376,25.7535715 C19.1614267,30.2786133 16.6512253,36.1014282 16.3101495,42.5 L31.7660383,42.5 Z M14,6 L74,6 C78.418278,6 82,9.581722 82,14 L82,74 C82,78.418278 78.418278,82 74,82 L14,82 C9.581722,82 6,78.418278 6,74 L6,14 C6,9.581722 9.581722,6 14,6 Z" id="Combined-Shape" fill="url(#linearGradient-1)"></path>
    </g>
</svg>