<?xml version="1.0" encoding="UTF-8"?>
<svg width="88px" height="88px" viewBox="0 0 88 88" version="1.1" xmlns="http://www.w3.org/2000/svg" xmlns:xlink="http://www.w3.org/1999/xlink">
    <!-- Generator: Sketch 51 (57462) - http://www.bohemiancoding.com/sketch -->
    <title>Device2/devices_icon_gateway1_s </title>
    <desc>Created with Sketch.</desc>
    <defs></defs>
    <g id="Device2/devices_icon_gateway1_s-" stroke="none" stroke-width="1" fill="none" fill-rule="evenodd">
        <path d="M4,44 C4,21.944 21.944,4 44,4 C66.056,4 84,21.944 84,44 C84,66.056 66.056,84 44,84 C21.944,84 4,66.056 4,44 Z M71.3388,46.7021 C69.8468,46.7021 68.6368,45.4921 68.6368,44.0001 C68.6368,42.5081 69.8468,41.2981 71.3388,41.2981 C72.8308,41.2981 74.0408,42.5081 74.0408,44.0001 C74.0408,45.4921 72.8308,46.7021 71.3388,46.7021 Z M16.3633,35.4688 C16.3633,35.2138 16.4273,34.9558 16.5643,34.7198 C16.9783,34.0018 17.8953,33.7568 18.6133,34.1708 L23.9543,37.2548 C24.6723,37.6688 24.9173,38.5878 24.5033,39.3038 C24.0893,40.0218 23.1723,40.2668 22.4543,39.8528 L17.1133,36.7688 C16.6323,36.4908 16.3633,35.9868 16.3633,35.4688 Z M16.3633,42.457 C16.3633,42.202 16.4273,41.944 16.5643,41.708 C16.9783,40.99 17.8953,40.745 18.6133,41.159 L23.9543,44.243 C24.6723,44.657 24.9173,45.575 24.5033,46.292 C24.0893,47.01 23.1723,47.255 22.4543,46.841 L17.1133,43.757 C16.6323,43.479 16.3633,42.975 16.3633,42.457 Z M16.3633,49.4453 C16.3633,49.1903 16.4273,48.9323 16.5643,48.6963 C16.9783,47.9783 17.8953,47.7333 18.6133,48.1473 L23.9543,51.2313 C24.6723,51.6453 24.9173,52.5643 24.5033,53.2803 C24.0893,53.9983 23.1723,54.2433 22.4543,53.8293 L17.1133,50.7453 C16.6323,50.4673 16.3633,49.9633 16.3633,49.4453 Z" id="Combined-Shape" fill="#999999"></path>
    </g>
</svg>