<?xml version="1.0" encoding="UTF-8"?>
<svg width="88px" height="88px" viewBox="0 0 88 88" version="1.1" xmlns="http://www.w3.org/2000/svg" xmlns:xlink="http://www.w3.org/1999/xlink">
    <!-- Generator: Sketch 51 (57462) - http://www.bohemiancoding.com/sketch -->
    <title>Device2/devices_icon_washing_machine_s</title>
    <desc>Created with Sketch.</desc>
    <defs></defs>
    <g id="Device2/devices_icon_washing_machine_s" stroke="none" stroke-width="1" fill="none" fill-rule="evenodd">
        <path d="M65.8639708,19.4418472 L48.4491375,19.4418472 C47.4791514,19.4418472 46.6931097,18.6558056 46.6931097,17.6858194 C46.6931097,16.7158333 47.4791514,15.9287222 48.4491375,15.9287222 L65.8639708,15.9287222 C66.8339569,15.9287222 67.6199986,16.7158333 67.6199986,17.6858194 C67.6199986,18.6558056 66.8339569,19.4418472 65.8639708,19.4418472 M26.8452903,19.4418472 C25.8753042,19.4418472 25.0892625,18.6558056 25.0892625,17.6858194 C25.0892625,16.7158333 25.8753042,15.9287222 26.8452903,15.9287222 C27.8152764,15.9287222 28.6013181,16.7158333 28.6013181,17.6858194 C28.6013181,18.6558056 27.8152764,19.4418472 26.8452903,19.4418472 M19.3003597,19.4418472 C18.3314431,19.4418472 17.5443319,18.6558056 17.5443319,17.6858194 C17.5443319,16.7158333 18.3314431,15.9287222 19.3003597,15.9287222 C20.2703458,15.9287222 21.0574569,16.7158333 21.0574569,17.6858194 C21.0574569,18.6558056 20.2703458,19.4418472 19.3003597,19.4418472 M77.4203875,6 L10.6838458,6 C8.09685972,6 5.99967917,8.09718056 5.99967917,10.6830972 L5.99967917,25.9226806 L82.1045542,25.9226806 L82.1045542,10.6830972 C82.1045542,8.09718056 80.0073736,6 77.4203875,6 M44.0521167,72.52415 C33.3651583,72.52415 24.7005194,63.8605806 24.7005194,53.1725528 C24.7005194,42.4855944 33.3651583,33.822025 44.0521167,33.822025 C54.739075,33.822025 63.4037139,42.4855944 63.4037139,53.1725528 C63.4037139,63.8605806 54.739075,72.52415 44.0521167,72.52415 Z M68.7055917,78.9130111 L19.3993903,78.9130111 L19.3993903,80.6000597 C19.3993903,81.7807264 18.4411681,82.7389486 17.2605014,82.7389486 C16.0798347,82.7389486 15.1216125,81.7807264 15.1216125,80.6000597 L15.1216125,78.9130111 L10.6833111,78.9130111 C8.096325,78.9130111 6.00021389,76.8158306 6.00021389,74.2288444 L6.00021389,29.0351917 L82.1040194,29.0351917 L82.1040194,74.2288444 C82.1040194,76.8158306 80.0079083,78.9130111 77.4209222,78.9130111 L72.9833694,78.9130111 L72.9833694,80.8611111 C72.9833694,82.0417778 72.0251472,83 70.8444806,83 C69.6638139,83 68.7055917,82.0417778 68.7055917,80.8611111 L68.7055917,78.9130111 Z M59.2733056,53.1729806 C59.2733056,61.5798833 52.4588056,68.3943833 44.0519028,68.3943833 C35.6460694,68.3943833 28.8305,61.5798833 28.8305,53.1729806 C28.8305,44.7660778 35.6460694,37.9515778 44.0519028,37.9515778 C52.4588056,37.9515778 59.2733056,44.7660778 59.2733056,53.1729806" id="Combined-Shape" fill="#999999"></path>
    </g>
</svg>