<?xml version="1.0" encoding="UTF-8"?>
<svg width="88px" height="88px" viewBox="0 0 88 88" version="1.1" xmlns="http://www.w3.org/2000/svg" xmlns:xlink="http://www.w3.org/1999/xlink">
    <!-- Generator: Sketch 51 (57462) - http://www.bohemiancoding.com/sketch -->
    <title>Device2/devices_icon_lighting6_s</title>
    <desc>Created with Sketch.</desc>
    <defs>
        <linearGradient x1="112.960737%" y1="-19.1113281%" x2="-16.6566506%" y2="116.977539%" id="linearGradient-1">
            <stop stop-color="#8AADEC" offset="0%"></stop>
            <stop stop-color="#1E50A0" offset="100%"></stop>
        </linearGradient>
    </defs>
    <g id="Device2/devices_icon_lighting6_s" stroke="none" stroke-width="1" fill="none" fill-rule="evenodd">
        <path d="M44,63.8376068 C66.2505819,63.8376068 84,56.4040899 84,48.8290598 C84,41.2540298 66.2505819,33.8205128 44,33.8205128 C21.7494181,33.8205128 4,41.2540298 4,48.8290598 C4,56.4040899 21.7494181,63.8376068 44,63.8376068 Z M86.9927411,45.8743928 C86.9975734,46.001454 87,46.1287965 87,46.2564103 L87,49.0761677 C86.6803392,58.9080965 67.5512743,66.8376068 44,66.8376068 C20.2517558,66.8376068 1,58.7749057 1,48.8290598 C1,48.7310245 1.00187048,48.6331721 1.0055973,48.5355086 L1,46.2564103 C1,45.9048345 1.01841793,45.5553176 1.05481718,45.2080687 L1,45.2076437 L1,41.5811966 C1,30.2145156 20.2517558,21 44,21 C67.7482442,21 87,30.2145156 87,41.5811966 L87,45.8744491 Z" id="Combined-Shape" fill="url(#linearGradient-1)"></path>
    </g>
</svg>