<?xml version="1.0" encoding="UTF-8"?>
<svg width="88px" height="88px" viewBox="0 0 88 88" version="1.1" xmlns="http://www.w3.org/2000/svg" xmlns:xlink="http://www.w3.org/1999/xlink">
    <!-- Generator: Sketch 51 (57462) - http://www.bohemiancoding.com/sketch -->
    <title>Device2/devices_icon_zb_mini_hub_s</title>
    <desc>Created with Sketch.</desc>
    <defs></defs>
    <g id="Device2/devices_icon_zb_mini_hub_s" stroke="none" stroke-width="1" fill="none" fill-rule="evenodd">
        <path d="M79.2660592,64.9253894 C80.2615709,50.975404 80.2615709,37.0256886 79.2669134,23.0870628 C78.7046198,15.9723449 72.0279604,9.29563358 64.9247843,8.73323737 C50.9748384,7.7386909 37.0251617,7.7386909 23.0868793,8.73235992 C15.9720397,9.29563358 9.29538037,15.9723449 8.73394097,23.0757032 C7.73842925,37.0256886 7.73842925,50.975404 8.73308561,64.9140151 C9.29538494,72.0279144 15.9721923,78.7044882 23.0752158,79.2668723 C37.0232173,80.2612802 50.9709496,80.2614188 64.9189509,79.2672882 C72.0314548,78.7008409 78.7047686,72.0259745 79.2660592,64.9253894 Z M65.1488914,82.2458687 C51.0458324,83.2513771 36.9541677,83.2513771 22.8511087,82.2458687 C14.2725293,81.5667124 6.43298811,73.7274456 5.75410519,65.1380425 C4.74848928,51.0464684 4.74848928,36.9546242 5.75495939,22.8516904 C6.43296605,14.2728516 14.2723448,6.43341189 22.8627722,5.75336358 C36.9541677,4.74873261 51.0458324,4.74873261 65.1488914,5.75424102 C73.7276553,6.43341189 81.5670341,14.2728516 82.245895,22.8630501 C83.2515109,36.9546242 83.2515109,51.0464684 82.2450396,65.1494168 C81.567012,73.7274456 73.7274709,81.5667124 65.1488914,82.2458687 Z M62.6857306,77.0856559 C50.2269296,77.974185 37.7728739,77.974185 25.314073,77.0856559 C18.1133083,76.5159385 11.4846643,69.8872429 10.9146616,62.6825699 C10.0264291,50.2275238 10.0264291,37.7723874 10.9149513,25.3144738 C11.4846496,18.1138384 18.1131089,11.4850078 25.3179252,10.9139675 C37.7728739,10.0257282 50.2269296,10.0257282 62.6858003,10.9142628 C69.8866947,11.4850078 76.515154,18.1138384 77.0851418,25.3183233 C77.9733745,37.7723874 77.9733745,50.2275238 77.0848523,62.6864222 C76.5151393,69.8872429 69.8864953,76.5159385 62.6857306,77.0856559 Z M43.3448382,63.7591402 C44.1697898,63.7591402 44.8385452,63.0903796 44.8385452,62.2654216 C44.8385452,61.4404636 44.1697898,60.771703 43.3448382,60.771703 C42.5198866,60.771703 41.8511313,61.4404636 41.8511313,62.2654216 C41.8511313,63.0903796 42.5198866,63.7591402 43.3448382,63.7591402 Z M30.3993779,63.7591402 C31.2243295,63.7591402 31.8930848,63.0903796 31.8930848,62.2654216 C31.8930848,61.4404636 31.2243295,60.771703 30.3993779,60.771703 C29.5744263,60.771703 28.9056709,61.4404636 28.9056709,62.2654216 C28.9056709,63.0903796 29.5744263,63.7591402 30.3993779,63.7591402 Z M56.2902986,63.7591402 C57.1152501,63.7591402 57.7840055,63.0903796 57.7840055,62.2654216 C57.7840055,61.4404636 57.1152501,60.771703 56.2902986,60.771703 C55.465347,60.771703 54.7965916,61.4404636 54.7965916,62.2654216 C54.7965916,63.0903796 55.465347,63.7591402 56.2902986,63.7591402 Z" id="Combined-Shape" fill="#999999"></path>
    </g>
</svg>