<?xml version="1.0" encoding="UTF-8"?>
<svg width="88px" height="88px" viewBox="0 0 88 88" version="1.1" xmlns="http://www.w3.org/2000/svg" xmlns:xlink="http://www.w3.org/1999/xlink">
    <!-- Generator: Sketch 51 (57462) - http://www.bohemiancoding.com/sketch -->
    <title>Device2/devices_icon_curtain1_s </title>
    <desc>Created with Sketch.</desc>
    <defs>
        <linearGradient x1="112.960737%" y1="-19.1113281%" x2="-16.6566506%" y2="116.977539%" id="linearGradient-1">
            <stop stop-color="#8AADEC" offset="0%"></stop>
            <stop stop-color="#1E50A0" offset="100%"></stop>
        </linearGradient>
    </defs>
    <g id="Device2/devices_icon_curtain1_s-" stroke="none" stroke-width="1" fill="none" fill-rule="evenodd">
        <path d="M6.374,11 L2.5,11 C1.672,11 1,10.328 1,9.5 C1,8.672 1.672,8 2.5,8 L85.5,8 C86.328,8 87,8.672 87,9.5 C87,10.328 86.328,11 85.5,11 L81.6261,11 L81.6261,75.6097 C81.6261,78.1277 79.6531,80.1767 77.2271,80.1767 L55.2281,80.1767 C53.8661,80.1767 52.6131,79.5257 51.7901,78.3907 C50.8781,77.1327 50.7101,75.3777 51.3521,73.8117 L63.4391,45.5087 C64.1441,43.7937 64.1121,41.8197 63.3461,40.1107 L49.8573097,11 L38.1420035,11 L24.648,40.1267 C23.888,41.8207 23.856,43.7947 24.568,45.5277 L36.64,73.7927 C37.291,75.3787 37.123,77.1327 36.21,78.3907 C35.386,79.5267 34.133,80.1767 32.771,80.1767 L10.772,80.1767 C8.347,80.1767 6.374,78.1277 6.374,75.6097 L6.374,11 Z" id="Combined-Shape" fill="url(#linearGradient-1)"></path>
    </g>
</svg>