<?xml version="1.0" encoding="UTF-8"?>
<svg width="88px" height="88px" viewBox="0 0 88 88" version="1.1" xmlns="http://www.w3.org/2000/svg" xmlns:xlink="http://www.w3.org/1999/xlink">
    <!-- Generator: Sketch 51 (57462) - http://www.bohemiancoding.com/sketch -->
    <title>Device2/devices_icon_pet_sensor_s</title>
    <desc>Created with Sketch.</desc>
    <defs></defs>
    <g id="Device2/devices_icon_pet_sensor_s" stroke="none" stroke-width="1" fill="none" fill-rule="evenodd">
        <path d="M65.2393,75.5249 C66.8593,75.5129 71.9783,74.4399 74.5833,73.3829 C73.5613,78.4869 69.0273,82.8279 63.8673,83.3679 C57.3843,84.0079 50.8173,84.3339 44.3433,84.3339 C37.8673,84.3339 31.3013,84.0079 24.8263,83.3689 C19.7053,82.8349 15.2073,78.5669 14.1313,73.5219 C16.8313,74.4839 21.9963,75.5139 23.4473,75.5249 C30.4133,75.5599 37.3773,75.5789 44.3433,75.5789 C51.3073,75.5789 58.2723,75.5599 65.2393,75.5249 Z M74.7828,15.3537 C75.3818,24.7567 75.6858,34.2797 75.6858,43.6647 C75.6858,52.7657 75.3938,61.9947 74.8318,71.1127 C74.7698,71.1017 74.7298,71.0897 74.7068,71.0797 C74.7678,71.0077 74.6098,71.0357 74.7068,71.0797 C74.6958,71.0917 74.6778,71.1077 74.6498,71.1277 C73.2958,72.0737 66.8648,73.5127 65.2278,73.5247 C51.3048,73.5957 37.3778,73.5957 23.4588,73.5247 C22.0308,73.5147 15.7228,72.1907 13.8648,71.3257 C13.2938,62.1437 12.9998,52.8437 12.9998,43.6647 C12.9998,34.2687 13.3028,24.7457 13.9008,15.3607 C14.2898,9.6597 19.1878,4.5497 24.8178,3.9617 C37.7878,2.6787 50.9058,2.6797 63.8588,3.9607 C69.4968,4.5497 74.3948,9.6597 74.7828,15.3537 Z M69.2188,61.4897 C68.1058,61.2517 66.9618,61.0357 65.8048,60.8307 L65.8048,21.2847 C66.7758,21.4617 67.7168,21.6437 68.5838,21.8337 L69.2268,18.9037 C67.7758,18.5847 66.2448,18.2957 64.5488,18.0187 C58.1938,16.9707 51.4148,16.4397 44.4028,16.4397 C37.3548,16.4397 30.5338,16.9767 24.1328,18.0367 C22.6638,18.2777 21.1368,18.5667 19.4648,18.9197 L20.0858,21.8547 C21.0648,21.6477 21.9818,21.4707 22.8748,21.3057 L22.8748,60.8367 C21.7168,61.0427 20.5728,61.2597 19.4598,61.4997 L20.0908,64.4327 C27.3988,62.8597 35.7848,62.0277 44.3448,62.0277 C52.8808,62.0277 61.2658,62.8557 68.5918,64.4237 L69.2188,61.4897 Z M44.4023,19.4395 C50.7963,19.4395 56.9703,19.9095 62.8043,20.8005 L62.8043,60.3445 C56.9623,59.4825 50.6943,59.0275 44.3443,59.0275 C37.9813,59.0275 31.7103,59.4835 25.8753,60.3485 L25.8753,20.8185 C31.7553,19.9155 37.9723,19.4395 44.4023,19.4395 Z" id="Combined-Shape" fill="#999999"></path>
    </g>
</svg>