<?xml version="1.0" encoding="UTF-8"?>
<svg width="88px" height="88px" viewBox="0 0 88 88" version="1.1" xmlns="http://www.w3.org/2000/svg" xmlns:xlink="http://www.w3.org/1999/xlink">
    <!-- Generator: Sketch 51 (57462) - http://www.bohemiancoding.com/sketch -->
    <title>Device2/devices_icon_keypad1_s  </title>
    <desc>Created with Sketch.</desc>
    <defs></defs>
    <g id="Device2/devices_icon_keypad1_s--" stroke="none" stroke-width="1" fill="none" fill-rule="evenodd">
        <path d="M66.073,34.2342 L75.87,34.2342 L75.87,26.0672 L66.073,26.0672 L66.073,34.2342 Z M66.073,48.2032 L75.87,48.2032 L75.87,40.0362 L66.073,40.0362 L66.073,48.2032 Z M66.073,62.1722 L75.87,62.1722 L75.87,54.0052 L66.073,54.0052 L66.073,62.1722 Z M49.568,34.2342 L59.365,34.2342 L59.365,26.0672 L49.568,26.0672 L49.568,34.2342 Z M49.568,48.2032 L59.365,48.2032 L59.365,40.0362 L49.568,40.0362 L49.568,48.2032 Z M49.568,62.1722 L59.365,62.1722 L59.365,54.0052 L49.568,54.0052 L49.568,62.1722 Z M25.08,59.6202 C16.533,59.6202 9.58,52.6672 9.58,44.1202 C9.58,35.5732 16.533,28.6202 25.08,28.6202 C33.627,28.6202 40.58,35.5732 40.58,44.1202 C40.58,52.6672 33.627,59.6202 25.08,59.6202 Z M77.2,9.0002 L10.8,9.0002 C5.396,9.0002 1,12.6892 1,17.2232 L1,71.0162 C1,75.5512 5.396,79.2402 10.8,79.2402 L77.2,79.2402 C82.604,79.2402 87,75.5512 87,71.0162 L87,17.2232 C87,12.6892 82.604,9.0002 77.2,9.0002 Z M25.0801,31.6201 C31.9731,31.6201 37.5801,37.2271 37.5801,44.1201 C37.5801,51.0131 31.9731,56.6201 25.0801,56.6201 C18.1871,56.6201 12.5801,51.0131 12.5801,44.1201 C12.5801,37.2271 18.1871,31.6201 25.0801,31.6201 Z" id="Fill-3" fill="#999999"></path>
    </g>
</svg>