<?xml version="1.0" encoding="UTF-8"?>
<svg width="88px" height="88px" viewBox="0 0 88 88" version="1.1" xmlns="http://www.w3.org/2000/svg" xmlns:xlink="http://www.w3.org/1999/xlink">
    <!-- Generator: Sketch 51 (57462) - http://www.bohemiancoding.com/sketch -->
    <title>Device2/devices_icon_switch3_s </title>
    <desc>Created with Sketch.</desc>
    <defs></defs>
    <g id="Device2/devices_icon_switch3_s-" stroke="none" stroke-width="1" fill="none" fill-rule="evenodd">
        <path d="M12,4 L76,4 C80.418278,4 84,7.581722 84,12 L84,76 C84,80.418278 80.418278,84 76,84 L12,84 C7.581722,84 4,80.418278 4,76 L4,12 C4,7.581722 7.581722,4 12,4 Z M13.6,8 C10.5072054,8 8,9.95004865 8,12.3555556 L8,59.6444444 C8,62.0499514 10.5072054,64 13.6,64 L74.4,64 C77.4927946,64 80,62.0499514 80,59.6444444 L80,12.3555556 C80,9.95004865 77.4927946,8 74.4,8 L13.6,8 Z M13.6,10 L74.4,10 C76.4826025,10 78,11.1801981 78,12.3555556 L78,59.6444444 C78,60.8198019 76.4826025,62 74.4,62 L13.6,62 C11.5173975,62 10,60.8198019 10,59.6444444 L10,12.3555556 C10,11.1801981 11.5173975,10 13.6,10 Z M35.5,71 C34.6715729,71 34,71.6715729 34,72.5 C34,73.3284271 34.6715729,74 35.5,74 L52.5,74 C53.3284271,74 54,73.3284271 54,72.5 C54,71.6715729 53.3284271,71 52.5,71 L35.5,71 Z M44,22 C45.6568542,22 47,20.6568542 47,19 C47,17.3431458 45.6568542,16 44,16 C42.3431458,16 41,17.3431458 41,19 C41,20.6568542 42.3431458,22 44,22 Z M44,56 C45.6568542,56 47,54.6568542 47,53 C47,51.3431458 45.6568542,50 44,50 C42.3431458,50 41,51.3431458 41,53 C41,54.6568542 42.3431458,56 44,56 Z" id="Combined-Shape" fill="#999999"></path>
    </g>
</svg>