<?xml version="1.0" encoding="UTF-8"?>
<svg width="88px" height="88px" viewBox="0 0 88 88" version="1.1" xmlns="http://www.w3.org/2000/svg" xmlns:xlink="http://www.w3.org/1999/xlink">
    <!-- Generator: Sketch 51 (57462) - http://www.bohemiancoding.com/sketch -->
    <title>GROUP/group_icon_1_s</title>
    <desc>Created with Sketch.</desc>
    <defs>
        <linearGradient x1="113.245817%" y1="3.31013574%" x2="-8.63797109%" y2="95.6185209%" id="linearGradient-1">
            <stop stop-color="#96D2E9" offset="0%"></stop>
            <stop stop-color="#599AB0" offset="100%"></stop>
        </linearGradient>
    </defs>
    <g id="GROUP/group_icon_1_s" stroke="none" stroke-width="1" fill="none" fill-rule="evenodd">
        <path d="M34.7524242,9.49 L52.8475758,9.49 C54.5702021,9.49 55.9666667,10.8864646 55.9666667,12.6090909 L55.9666667,25.9766234 C55.9666667,27.6992497 54.5702021,29.0957143 52.8475758,29.0957143 L34.7524242,29.0957143 C33.0297979,29.0957143 31.6333333,27.6992497 31.6333333,25.9766234 L31.6333333,12.6090909 C31.6333333,10.8864646 33.0297979,9.49 34.7524242,9.49 Z M39.6190909,58.5042857 L47.9809091,58.5042857 C49.7035354,58.5042857 51.1,59.9007503 51.1,61.6233766 L51.1,74.9909091 C51.1,76.7135354 49.7035354,78.11 47.9809091,78.11 L39.6190909,78.11 C37.8964646,78.11 36.5,76.7135354 36.5,74.9909091 L36.5,61.6233766 C36.5,59.9007503 37.8964646,58.5042857 39.6190909,58.5042857 Z M10.4190909,58.5042857 L18.7809091,58.5042857 C20.5035354,58.5042857 21.9,59.9007503 21.9,61.6233766 L21.9,74.9909091 C21.9,76.7135354 20.5035354,78.11 18.7809091,78.11 L10.4190909,78.11 C8.69646457,78.11 7.3,76.7135354 7.3,74.9909091 L7.3,61.6233766 C7.3,59.9007503 8.69646457,58.5042857 10.4190909,58.5042857 Z M68.8190909,58.5042857 L77.1809091,58.5042857 C78.9035354,58.5042857 80.3,59.9007503 80.3,61.6233766 L80.3,74.9909091 C80.3,76.7135354 78.9035354,78.11 77.1809091,78.11 L68.8190909,78.11 C67.0964646,78.11 65.7,76.7135354 65.7,74.9909091 L65.7,61.6233766 C65.7,59.9007503 67.0964646,58.5042857 68.8190909,58.5042857 Z M17.0333333,43.8 L41.3666667,43.8 L41.3666667,51.1695238 C41.3666667,52.5134167 42.4561071,53.6028571 43.8,53.6028571 L43.8,53.6028571 C45.1438929,53.6028571 46.2333333,52.5134167 46.2333333,51.1695238 L46.2333333,43.8 L70.5666667,43.8 L70.5666667,51.1695238 C70.5666667,52.5134167 71.6561071,53.6028571 73,53.6028571 L73,53.6028571 C74.3438929,53.6028571 75.4333333,52.5134167 75.4333333,51.1695238 L75.4333333,42.0176623 C75.4333333,40.295036 74.0368688,38.8985714 72.3142424,38.8985714 L46.2333333,38.8985714 L46.2333333,36.4304762 C46.2333333,35.0865833 45.1438929,33.9971429 43.8,33.9971429 L43.8,33.9971429 C42.4561071,33.9971429 41.3666667,35.0865833 41.3666667,36.4304762 L41.3666667,38.8985714 L15.2857576,38.8985714 C13.5631312,38.8985714 12.1666667,40.295036 12.1666667,42.0176623 L12.1666667,51.1695238 C12.1666667,52.5134167 13.2561071,53.6028571 14.6,53.6028571 L14.6,53.6028571 C15.9438929,53.6028571 17.0333333,52.5134167 17.0333333,51.1695238 L17.0333333,43.8 Z" id="Shape" fill="url(#linearGradient-1)"></path>
    </g>
</svg>