<?xml version="1.0" encoding="UTF-8"?>
<svg width="88px" height="88px" viewBox="0 0 88 88" version="1.1" xmlns="http://www.w3.org/2000/svg" xmlns:xlink="http://www.w3.org/1999/xlink">
    <!-- Generator: Sketch 51 (57462) - http://www.bohemiancoding.com/sketch -->
    <title>GROUP/group_icon_7_s</title>
    <desc>Created with Sketch.</desc>
    <defs>
        <linearGradient x1="113.245817%" y1="3.31013574%" x2="-8.63797109%" y2="95.6185209%" id="linearGradient-1">
            <stop stop-color="#96D2E9" offset="0%"></stop>
            <stop stop-color="#599AB0" offset="100%"></stop>
        </linearGradient>
    </defs>
    <g id="GROUP/group_icon_7_s" stroke="none" stroke-width="1" fill="none" fill-rule="evenodd">
        <path d="M38.1421198,34.4671211 C38.1421198,36.9328832 36.1192373,38.9557656 33.6534753,38.9557656 L24.6761862,38.9557656 C22.1999057,38.9491885 20.1941188,36.9434016 20.1875417,34.4671211 L20.1875417,25.489832 C20.1875417,23.02407 22.2044393,21.0011875 24.6761862,21.0011875 L33.6534753,21.0011875 C36.1192373,21.0011875 38.1421198,23.02407 38.1421198,25.489832 L38.1421198,34.4671211 Z M68.0664167,34.4671211 C68.0664167,36.9328832 66.0435342,38.9557656 63.5777721,38.9557656 L54.6004831,38.9557656 C52.1255608,38.9459249 50.1216793,36.9420434 50.1118385,34.4671211 L50.1118385,25.489832 C50.1118385,23.02407 52.134721,21.0011875 54.6004831,21.0011875 L63.5777721,21.0011875 C66.0435342,21.0011875 68.0664167,23.02407 68.0664167,25.489832 L68.0664167,34.4671211 Z M38.1421198,64.391418 C38.1421198,66.85718 36.1192373,68.8800625 33.6534753,68.8800625 L24.6761862,68.8800625 C22.1999057,68.8734854 20.1941188,66.8676984 20.1875417,64.391418 L20.1875417,55.4141289 C20.1875417,52.9483668 22.2044393,50.9254844 24.6761862,50.9254844 L33.6534753,50.9254844 C36.1192373,50.9254844 38.1421198,52.9483668 38.1421198,55.4141289 L38.1421198,64.391418 Z M68.0664167,64.391418 C68.0664167,66.85718 66.0435342,68.8800625 63.5777721,68.8800625 L54.6004831,68.8800625 C52.1255608,68.8702217 50.1216793,66.8663403 50.1118385,64.391418 L50.1118385,55.4141289 C50.1118385,52.9483668 52.134721,50.9254844 54.6004831,50.9254844 L63.5777721,50.9254844 C66.0435342,50.9254844 68.0664167,52.9483668 68.0664167,55.4141289 L68.0664167,64.391418 Z M11.8853125,9.87020833 L11.8853125,5.84 L21.5578125,5.84 L21.5578125,9.87020833 L11.8853125,9.87020833 Z M30.4242708,9.87020833 L30.4242708,5.84 L40.0967708,5.84 L40.0967708,9.87020833 L30.4242708,9.87020833 Z M48.9632292,9.87020833 L48.9632292,5.84 L58.6357292,5.84 L58.6357292,9.87020833 L48.9632292,9.87020833 Z M67.5021875,9.87020833 L67.5021875,5.84 L77.1746875,5.84 L77.1746875,9.87020833 L67.5021875,9.87020833 Z M78.38375,9.4671875 L82.4139583,9.4671875 L82.4139583,19.1396875 L78.38375,19.1396875 L78.38375,9.4671875 Z M78.38375,28.0061458 L82.4139583,28.0061458 L82.4139583,37.6786458 L78.38375,37.6786458 L78.38375,28.0061458 Z M78.38375,46.5451042 L82.4139583,46.5451042 L82.4139583,56.2176042 L78.38375,56.2176042 L78.38375,46.5451042 Z M78.38375,65.0840625 L82.4139583,65.0840625 L82.4139583,74.7565625 L78.38375,74.7565625 L78.38375,65.0840625 Z M77.1746875,78.38375 L77.1746875,82.4139583 L67.5021875,82.4139583 L67.5021875,78.38375 L77.1746875,78.38375 Z M58.6357292,78.38375 L58.6357292,82.4139583 L48.9632292,82.4139583 L48.9632292,78.38375 L58.6357292,78.38375 Z M40.0967708,78.38375 L40.0967708,82.4139583 L30.4242708,82.4139583 L30.4242708,78.38375 L40.0967708,78.38375 Z M21.5578125,78.38375 L21.5578125,82.4139583 L11.8853125,82.4139583 L11.8853125,78.38375 L21.5578125,78.38375 Z M9.87020833,75.5626042 L5.84,75.5626042 L5.84,65.8901042 L9.87020833,65.8901042 L9.87020833,75.5626042 Z M9.87020833,57.0236458 L5.84,57.0236458 L5.84,47.3511458 L9.87020833,47.3511458 L9.87020833,57.0236458 Z M9.87020833,38.4846875 L5.84,38.4846875 L5.84,28.8121875 L9.87020833,28.8121875 L9.87020833,38.4846875 Z M9.87020833,19.9457292 L5.84,19.9457292 L5.84,10.2732292 L9.87020833,10.2732292 L9.87020833,19.9457292 Z" id="Combined-Shape" fill="url(#linearGradient-1)"></path>
    </g>
</svg>