<?xml version="1.0" encoding="UTF-8"?>
<svg width="88px" height="88px" viewBox="0 0 88 88" version="1.1" xmlns="http://www.w3.org/2000/svg" xmlns:xlink="http://www.w3.org/1999/xlink">
    <!-- Generator: Sketch 51 (57462) - http://www.bohemiancoding.com/sketch -->
    <title>GROUP/group_icon_8_s</title>
    <desc>Created with Sketch.</desc>
    <defs>
        <linearGradient x1="113.245817%" y1="3.31013574%" x2="-8.63797109%" y2="95.6185209%" id="linearGradient-1">
            <stop stop-color="#96D2E9" offset="0%"></stop>
            <stop stop-color="#599AB0" offset="100%"></stop>
        </linearGradient>
    </defs>
    <g id="GROUP/group_icon_8_s" stroke="none" stroke-width="1" fill="none" fill-rule="evenodd">
        <g id="Page-1" transform="translate(27.798400, 21.841600)">
            <g id="Group-5" transform="translate(13.899200, 0.342317)"></g>
        </g>
        <g id="345-make-group" transform="translate(6.570000, 6.570000)">
            <rect id="Rectangle-path" fill="#000000" fill-rule="nonzero" opacity="0" x="0" y="0" width="74.46" height="74.46"></rect>
            <path d="M23.26875,9.3075 L13.96125,9.3075 C11.4016875,9.3075 9.3075,11.4016875 9.3075,13.96125 L9.3075,23.26875 C9.3075,25.8283125 11.4016875,27.9225 13.96125,27.9225 L23.26875,27.9225 C25.8283125,27.9225 27.9225,25.8283125 27.9225,23.26875 L27.9225,13.96125 C27.9225,11.4016875 25.8283125,9.3075 23.26875,9.3075 Z M51.19125,27.9225 L60.49875,27.9225 C63.0583125,27.9225 65.1525,25.8283125 65.1525,23.26875 L65.1525,13.96125 C65.1525,11.4016875 63.0583125,9.3075 60.49875,9.3075 L51.19125,9.3075 C48.6316875,9.3075 46.5375,11.4016875 46.5375,13.96125 L46.5375,23.26875 C46.5375,25.8283125 48.6316875,27.9225 51.19125,27.9225 Z M51.19125,13.96125 L60.49875,13.96125 L60.49875,23.26875 L51.19125,23.26875 L51.19125,13.96125 Z M23.26875,46.5375 L13.96125,46.5375 C11.4016875,46.5375 9.3075,48.6316875 9.3075,51.19125 L9.3075,60.49875 C9.3075,63.0583125 11.4016875,65.1525 13.96125,65.1525 L23.26875,65.1525 C25.8283125,65.1525 27.9225,63.0583125 27.9225,60.49875 L27.9225,51.19125 C27.9225,48.6316875 25.8283125,46.5375 23.26875,46.5375 Z M23.26875,60.49875 L13.96125,60.49875 L13.96125,51.19125 L23.26875,51.19125 L23.26875,60.49875 Z M60.49875,46.5375 L51.19125,46.5375 C48.6316875,46.5375 46.5375,48.6316875 46.5375,51.19125 L46.5375,60.49875 C46.5375,63.0583125 48.6316875,65.1525 51.19125,65.1525 L60.49875,65.1525 C63.0583125,65.1525 65.1525,63.0583125 65.1525,60.49875 L65.1525,51.19125 C65.1525,48.6316875 63.0583125,46.5375 60.49875,46.5375 Z M65.1525,37.23 L60.49875,37.23 C54.28134,37.23 48.4408837,34.81005 44.04309,30.41691 C39.6452963,26.02377 37.23,20.17866 37.23,13.96125 L37.23,9.3075 C37.23,4.188375 33.041625,0 27.9225,0 L9.3075,0 C4.188375,0 0,4.188375 0,9.3075 L0,27.9225 C0,33.041625 4.188375,37.23 9.3075,37.23 L13.96125,37.23 C20.17866,37.23 26.0191162,39.64995 30.41691,44.04309 C34.8147037,48.43623 37.23,54.28134 37.23,60.49875 L37.23,65.1525 C37.23,70.271625 41.418375,74.46 46.5375,74.46 L65.1525,74.46 C70.271625,74.46 74.46,70.271625 74.46,65.1525 L74.46,46.5375 C74.46,41.418375 70.271625,37.23 65.1525,37.23 Z M69.80625,65.1525 C69.80625,66.3857438 69.3176062,67.5491813 68.4333938,68.4333938 C67.5491813,69.3176062 66.3857438,69.80625 65.1525,69.80625 L46.5375,69.80625 C45.3042563,69.80625 44.1408188,69.3176062 43.2566063,68.4333938 C42.3723938,67.5491813 41.88375,66.3857438 41.88375,65.1525 L41.88375,60.49875 C41.88375,45.0775791 29.3824209,32.57625 13.96125,32.57625 L9.3075,32.57625 C8.07425625,32.57625 6.91081875,32.0876062 6.02660625,31.2033938 C5.14239375,30.3191813 4.65375,29.15109 4.65375,27.9225 L4.65375,9.3075 C4.65375,8.07425625 5.14239375,6.91081875 6.02660625,6.02660625 C6.91081875,5.14239375 8.07425625,4.65375 9.3075,4.65375 L27.9225,4.65375 C29.1557438,4.65375 30.3191813,5.14239375 31.2033938,6.02660625 C32.0876063,6.91081875 32.57625,8.07425625 32.57625,9.3075 L32.57625,13.96125 C32.57625,29.3824209 45.0775791,41.88375 60.49875,41.88375 L65.1525,41.88375 C66.3857438,41.88375 67.5491813,42.3723938 68.4333938,43.2566063 C69.3176062,44.1408188 69.80625,45.3042563 69.80625,46.5375 L69.80625,65.1525 Z" id="Shape" fill="url(#linearGradient-1)"></path>
        </g>
    </g>
</svg>