<?xml version="1.0" encoding="UTF-8"?>
<svg width="88px" height="88px" viewBox="0 0 88 88" version="1.1" xmlns="http://www.w3.org/2000/svg" xmlns:xlink="http://www.w3.org/1999/xlink">
    <!-- Generator: Sketch 51 (57462) - http://www.bohemiancoding.com/sketch -->
    <title>GROUP/group_icon_10_s</title>
    <desc>Created with Sketch.</desc>
    <defs>
        <linearGradient x1="113.245817%" y1="3.31013574%" x2="-8.63797109%" y2="95.6185209%" id="linearGradient-1">
            <stop stop-color="#96D2E9" offset="0%"></stop>
            <stop stop-color="#599AB0" offset="100%"></stop>
        </linearGradient>
    </defs>
    <g id="GROUP/group_icon_10_s" stroke="none" stroke-width="1" fill="none" fill-rule="evenodd">
        <path d="M14.2755556,52.6121429 L14.2755556,56.0437946 C14.2755556,56.4811598 13.9214874,56.8357143 13.4847222,56.8357143 L6.63083333,56.8357143 C6.19406814,56.8357143 5.84,56.4811598 5.84,56.0437946 L5.84,49.1804911 C5.84,48.7431259 6.19406814,48.3885714 6.63083333,48.3885714 L10.0577778,48.3885714 L10.0577778,23.0471429 L6.63083333,23.0471429 C6.19406814,23.0471429 5.84,22.6925884 5.84,22.2552232 L5.84,15.3919196 C5.84,14.9545545 6.19406814,14.6 6.63083333,14.6 L13.4847222,14.6 C13.9214874,14.6 14.2755556,14.9545545 14.2755556,15.3919196 L14.2755556,18.8235714 L52.2355556,18.8235714 L52.2355556,15.3919196 C52.2355556,14.9545545 52.5896237,14.6 53.0263889,14.6 L59.8802778,14.6 C60.317043,14.6 60.6711111,14.9545545 60.6711111,15.3919196 L60.6711111,22.2552232 C60.6711111,22.6925884 60.317043,23.0471429 59.8802778,23.0471429 L56.4533333,23.0471429 L56.4533333,48.3885714 L59.8802778,48.3885714 C60.317043,48.3885714 60.6711111,48.7431259 60.6711111,49.1804911 L60.6711111,56.0437946 C60.6711111,56.4811598 60.317043,56.8357143 59.8802778,56.8357143 L53.0263889,56.8357143 C52.5896237,56.8357143 52.2355556,56.4811598 52.2355556,56.0437946 L52.2355556,52.6121429 L14.2755556,52.6121429 Z M77.5422222,44.165 L77.5422222,39.9414286 L80.9691667,39.9414286 C81.4059319,39.9414286 81.76,39.5868741 81.76,39.1495089 L81.76,32.2862054 C81.76,31.8488402 81.4059319,31.4942857 80.9691667,31.4942857 L74.1152778,31.4942857 C73.6785126,31.4942857 73.3244444,31.8488402 73.3244444,32.2862054 L73.3244444,35.7178571 L59.6166667,35.7178571 L59.6166667,45.2208929 L60.6711111,45.2208929 C62.4181938,45.2208929 63.8344444,46.639089 63.8344444,48.3885714 L63.8344444,56.8357143 C63.8344444,58.5851968 62.4181938,60.0033929 60.6711111,60.0033929 L52.2355556,60.0033929 C50.4884729,60.0033929 49.0722222,58.5851968 49.0722222,56.8357143 L49.0722222,55.7798214 L31.1466667,55.7798214 L31.1466667,65.2828571 L27.7197222,65.2828571 C27.282957,65.2828571 26.9288889,65.6374116 26.9288889,66.0747768 L26.9288889,72.9380804 C26.9288889,73.3754455 27.282957,73.73 27.7197222,73.73 L34.5736111,73.73 C35.0103763,73.73 35.3644444,73.3754455 35.3644444,72.9380804 L35.3644444,69.5064286 L73.3244444,69.5064286 L73.3244444,72.9380804 C73.3244444,73.3754455 73.6785126,73.73 74.1152778,73.73 L80.9691667,73.73 C81.4059319,73.73 81.76,73.3754455 81.76,72.9380804 L81.76,66.0747768 C81.76,65.6374116 81.4059319,65.2828571 80.9691667,65.2828571 L77.5422222,65.2828571 L77.5422222,44.165 Z" id="Shape" fill="url(#linearGradient-1)"></path>
    </g>
</svg>