<?xml version="1.0" encoding="UTF-8"?>
<svg width="88px" height="88px" viewBox="0 0 88 88" version="1.1" xmlns="http://www.w3.org/2000/svg" xmlns:xlink="http://www.w3.org/1999/xlink">
    <!-- Generator: Sketch 51 (57462) - http://www.bohemiancoding.com/sketch -->
    <title>GROUP/group_icon_4_s</title>
    <desc>Created with Sketch.</desc>
    <defs>
        <linearGradient x1="113.245817%" y1="3.31013574%" x2="-8.63797109%" y2="95.6185209%" id="linearGradient-1">
            <stop stop-color="#96D2E9" offset="0%"></stop>
            <stop stop-color="#599AB0" offset="100%"></stop>
        </linearGradient>
    </defs>
    <g id="GROUP/group_icon_4_s" stroke="none" stroke-width="1" fill="none" fill-rule="evenodd">
        <path d="M77.015,25.185 L77.015,20.44 L79.980625,20.44 C80.9632848,20.44 81.76,19.6432848 81.76,18.660625 L81.76,12.729375 C81.76,11.7467152 80.9632848,10.95 79.980625,10.95 L74.049375,10.95 C73.0667152,10.95 72.27,11.7467152 72.27,12.729375 L72.27,15.695 L15.33,15.695 L15.33,12.729375 C15.33,11.7467152 14.5332848,10.95 13.550625,10.95 L7.619375,10.95 C6.63671516,10.95 5.84,11.7467152 5.84,12.729375 L5.84,18.660625 C5.84,19.6432848 6.63671516,20.44 7.619375,20.44 L10.585,20.44 L10.585,67.89 L7.619375,67.89 C6.63671516,67.89 5.84,68.6867152 5.84,69.669375 L5.84,75.600625 C5.84,76.5832848 6.63671516,77.38 7.619375,77.38 L13.550625,77.38 C14.5332848,77.38 15.33,76.5832848 15.33,75.600625 L15.33,72.635 L72.27,72.635 L72.27,75.600625 C72.27,76.5832848 73.0667152,77.38 74.049375,77.38 L79.980625,77.38 C80.9632848,77.38 81.76,76.5832848 81.76,75.600625 L81.76,69.669375 C81.76,68.6867152 80.9632848,67.89 79.980625,67.89 L77.015,67.89 L77.015,25.185 Z M20.075,47.130625 L20.075,26.964375 C20.075,25.9817152 20.8717152,25.185 21.854375,25.185 L46.765625,25.185 C47.7482848,25.185 48.545,25.9817152 48.545,26.964375 L48.545,47.130625 C48.545,48.1132848 47.7482848,48.91 46.765625,48.91 L21.854375,48.91 C20.8717152,48.91 20.075,48.1132848 20.075,47.130625 Z M67.525,61.365625 C67.525,62.3482848 66.7282848,63.145 65.745625,63.145 L40.834375,63.145 C39.8517152,63.145 39.055,62.3482848 39.055,61.365625 L39.055,53.655 L49.73125,53.655 C51.696718,53.655 53.29,52.061718 53.29,50.09625 L53.29,39.42 L65.745625,39.42 C66.7282848,39.42 67.525,40.2167152 67.525,41.199375 L67.525,61.365625 Z" id="Shape" fill="url(#linearGradient-1)"></path>
    </g>
</svg>