<?xml version="1.0" encoding="UTF-8"?>
<svg width="88px" height="88px" viewBox="0 0 88 88" version="1.1" xmlns="http://www.w3.org/2000/svg" xmlns:xlink="http://www.w3.org/1999/xlink">
    <!-- Generator: Sketch 51 (57462) - http://www.bohemiancoding.com/sketch -->
    <title>GROUP/group_icon_9_s</title>
    <desc>Created with Sketch.</desc>
    <defs>
        <linearGradient x1="113.245817%" y1="3.31013574%" x2="-8.63797109%" y2="95.6185209%" id="linearGradient-1">
            <stop stop-color="#96D2E9" offset="0%"></stop>
            <stop stop-color="#599AB0" offset="100%"></stop>
        </linearGradient>
    </defs>
    <g id="GROUP/group_icon_9_s" stroke="none" stroke-width="1" fill="none" fill-rule="evenodd">
        <path d="M84.6799281,65.4157212 L75.2541847,65.4157212 L68.8477159,65.4274199 C68.8535559,63.5907212 68.8827559,64.5441667 68.8593959,63.1227724 C68.783476,58.1449679 65.3145221,55.7876763 64.0180444,55.0097115 C65.7642014,53.9860737 67.9133176,52.9097917 67.9133176,52.9097917 L67.8957976,50.926859 C67.8957976,50.926859 65.2911622,48.6865545 64.1757241,44.6037019 C63.4924453,44.2351923 62.8266865,44.767484 62.6982067,41.0297436 C62.6398068,39.3685256 63.714365,39.4153205 63.7318849,39.4211699 C63.7260449,39.3451282 63.7202049,38.9766186 63.7202049,36.4379968 C63.7202049,34.7826282 63.9187646,33.9754167 64.800603,33.443125 C64.806443,33.4197276 64.257484,30.1265385 71.1311519,30.0037019 C79.4998572,30.0037019 78.4077791,36.9000962 78.4077791,36.4321474 C78.4077791,38.9707692 78.4019391,39.3392788 78.3960991,39.4153205 C78.4136191,39.4094712 79.5232171,39.3626763 79.4648172,41.0238942 C79.3304975,44.767484 78.7640185,44.2293429 78.0807397,44.5978526 C76.9653016,48.6865545 74.1971465,50.9210096 74.1971465,50.9210096 L74.1796265,52.9039423 L81.5088136,56.2497756 C81.5088136,56.2497756 84.697448,57.4196474 84.6799281,60.818125 L84.6799281,65.4157212 Z M2.92007193,65.4157212 L12.3458153,65.4157212 L18.7522841,65.4274199 C18.7464441,63.5907212 18.7172441,64.5441667 18.7406041,63.1227724 C18.816524,58.1449679 22.2854779,55.7876763 23.5819556,55.0097115 C21.8241187,53.9919231 19.6808424,52.915641 19.6808424,52.915641 L19.6983624,50.9327083 C19.6983624,50.9327083 22.3029978,48.6924038 23.4184359,44.6095513 C24.1017147,44.2351923 24.7616335,44.767484 24.8959533,41.0297436 C24.9543532,39.3685256 23.8797951,39.4153205 23.8622751,39.4211699 C23.8681151,39.3451282 23.8739551,38.9766186 23.8739551,36.4379968 C23.8739551,34.7826282 23.6753954,33.9754167 22.793557,33.443125 C22.793557,33.4197276 23.342516,30.1265385 16.4688481,30.0037019 C8.10014282,30.0037019 9.1922209,36.9000962 9.1922209,36.4321474 C9.1922209,38.9707692 9.19806089,39.3392788 9.20390088,39.4153205 C9.18054092,39.4153205 8.07678286,39.3626763 8.13518276,41.0238942 C8.26950252,44.767484 8.83598152,44.2293429 9.51926032,44.5978526 C10.6288584,48.6924038 13.4028535,50.926859 13.4028535,50.926859 L13.4203735,52.9097917 L6.09118635,56.255625 C6.09118635,56.255625 2.90255196,57.4254968 2.92007193,60.8239744 L2.92007193,65.4157212 Z M23.1731563,71.54 L23.1439563,63.5731731 C23.1205964,58.4081891 27.9619479,56.6358333 27.9619479,56.6358333 L37.6037709,52.149375 L37.574571,48.5520192 C37.574571,48.5520192 34.5611363,46.1420833 32.8733792,39.9417628 C31.839701,39.3802244 30.5373833,39.2047436 30.3388237,33.525016 C30.2512238,31.0039423 31.8163411,31.2730128 31.845541,31.2788622 C31.8338611,31.161875 31.8280211,30.4073077 31.8280211,26.5584295 C31.8280211,24.0490545 32.1842604,22.8148397 33.5274581,22.0134776 C33.5274581,22.0076282 33.5216181,21.9959295 33.5216181,21.9842308 C33.5216181,21.9842308 32.990179,16.9830288 43.4204007,16.7958494 L43.4204007,16.79 C43.4379206,16.79 43.4496006,16.79 43.4671206,16.79 C43.5021605,16.79 43.5138405,16.79 43.5138405,16.79 C56.6187774,16.79 55.0186203,27.2603526 55.0186203,26.5525801 C55.0186203,30.4014583 55.0069403,31.1560256 55.0011003,31.2788622 C55.0303002,31.2730128 56.5954175,31.0039423 56.5078176,33.525016 C56.309258,39.2047436 55.0069403,39.374375 53.9732621,39.9417628 C52.2738251,46.1420833 49.2195105,48.5520192 49.2195105,48.5520192 L49.1903105,52.1552244 L58.8788535,56.6416827 C58.8788535,56.6416827 64.8765229,58.2853526 64.853163,64.69625 L64.853231,71.54 L23.1731563,71.54 Z" id="Shape" fill="url(#linearGradient-1)"></path>
    </g>
</svg>