<?xml version="1.0" encoding="UTF-8"?>
<svg width="88px" height="88px" viewBox="0 0 88 88" version="1.1" xmlns="http://www.w3.org/2000/svg" xmlns:xlink="http://www.w3.org/1999/xlink">
    <!-- Generator: Sketch 51 (57462) - http://www.bohemiancoding.com/sketch -->
    <title>GROUP/group_icon_5_s</title>
    <desc>Created with Sketch.</desc>
    <defs>
        <linearGradient x1="113.245817%" y1="3.31013574%" x2="-8.63797109%" y2="95.6185209%" id="linearGradient-1">
            <stop stop-color="#96D2E9" offset="0%"></stop>
            <stop stop-color="#599AB0" offset="100%"></stop>
        </linearGradient>
    </defs>
    <g id="GROUP/group_icon_5_s" stroke="none" stroke-width="1" fill="none" fill-rule="evenodd">
        <path d="M43.9086123,45.5219084 C43.0731331,45.5219084 42.3880401,46.2073283 42.3880401,47.0432061 L42.3880401,56.639084 L34.0833763,61.4370229 C33.3648641,61.8549618 33.1142203,62.7744275 33.5319599,63.51 C33.8160229,63.9948091 34.3173104,64.26229 34.8520171,64.2622901 C35.1026609,64.2622901 35.3700142,64.1954199 35.6039485,64.0616794 L43.9086123,59.2637405 L52.2132761,64.0616794 C52.4472103,64.1954198 52.7145637,64.2622901 52.9652075,64.2622901 C53.4832046,64.2622901 54.0012017,63.9948092 54.2852647,63.51 C54.7030043,62.791145 54.4523605,61.8549618 53.7338484,61.4370229 L45.4291846,56.639084 L45.4291846,47.0432061 C45.412475,46.2073283 44.7440916,45.5219084 43.9086123,45.5219084 Z M29.3044349,32.7441221 C28.2851502,33.58 27.7003147,34.8338168 27.7003147,36.1545038 L27.7003147,40.2503053 C27.7003147,41.0861832 28.3854077,41.771603 29.220887,41.771603 C30.0563662,41.771603 57.5102146,41.7883206 58.3456939,41.7883206 C59.1811732,41.7883206 59.8662661,41.1029008 59.8662661,40.2670229 L59.8662661,36.1712214 C59.8662661,34.8505344 59.2814306,33.5967176 58.2621459,32.7608397 C55.0873247,30.1529008 51.6785694,28.2470992 50.1412876,27.4613741 L50.1412876,23.1482443 C50.9099285,22.3625191 51.3443777,21.309313 51.3443777,20.2059542 L51.3443777,14.2043512 C51.3443777,10.3927481 48.2531044,7.3 44.4433191,7.3 L43.1566809,7.3 C39.3468955,7.3 36.2556223,10.3927481 36.2556223,14.2043512 L36.2556223,20.1892367 C36.2556223,21.309313 36.6900716,22.3625191 37.4587124,23.1315267 L37.4587124,27.4446565 C35.8880114,28.2470992 32.4959656,30.1361832 29.3044349,32.7441221 Z M33.5319599,81.03 C34.3674392,81.03 35.0525322,80.3445802 35.0525322,79.5087023 L35.0525322,75.4129007 C35.0525322,74.0922137 34.4676967,72.8383969 33.448412,72.0025191 C30.2735908,69.3945801 26.8648355,67.4887786 25.3275537,66.7030534 L25.3275537,62.3899236 C26.0961946,61.6041985 26.5306438,60.5509923 26.5306438,59.4476336 L26.5306438,53.4627481 C26.5306438,49.6511451 23.4393705,46.558397 19.6295851,46.558397 L18.3429471,46.558397 C14.5331617,46.558397 11.4418884,49.6511451 11.4418884,53.4627481 L11.4418884,59.430916 C11.4418884,60.5509924 11.8763376,61.6041985 12.6449786,62.3732061 L12.6449786,66.6863359 C11.1076967,67.4887787 7.71565092,69.3778626 4.52412018,71.9858015 C3.50483551,72.8216794 2.92,74.0754961 2.92,75.3961832 L2.92,79.4919847 C2.92,80.3278626 3.60509299,81.0132824 4.44057224,81.0132824 C5.27605149,81.0132824 32.6964807,81.03 33.5319599,81.03 Z M52.5140487,75.3961832 L52.5140487,79.4919847 C52.5140487,80.3278626 53.1991417,81.0132824 54.0346209,81.0132824 C54.8701002,81.0132824 82.3239485,81.03 83.1594278,81.03 C83.994907,81.03 84.68,80.3445802 84.68,79.5087023 L84.68,75.4129007 C84.68,74.0922137 84.0951645,72.8383969 83.0758798,72.0025191 C79.9010586,69.3945801 76.4923033,67.4887786 74.9550214,66.7030534 L74.9550214,62.3899236 C75.7236624,61.6041985 76.1581115,60.5509923 76.1581116,59.4476336 L76.1581116,53.4627481 C76.1581116,49.6511451 73.0668383,46.558397 69.2570529,46.558397 L67.9704149,46.558397 C64.1606295,46.558397 61.0693562,49.6511451 61.0693562,53.4627481 L61.0693562,59.430916 C61.0693562,60.5509924 61.5038055,61.6041985 62.2724463,62.3732061 L62.2724463,66.6863359 C60.7017453,67.4887787 57.3096995,69.3778626 54.1181688,71.9858015 C53.0988842,72.8216794 52.5140487,74.0754961 52.5140487,75.3961832 Z" id="Shape" fill="url(#linearGradient-1)"></path>
    </g>
</svg>