<?xml version="1.0" encoding="UTF-8"?>
<svg width="88px" height="88px" viewBox="0 0 88 88" version="1.1" xmlns="http://www.w3.org/2000/svg" xmlns:xlink="http://www.w3.org/1999/xlink">
    <!-- Generator: Sketch 51 (57462) - http://www.bohemiancoding.com/sketch -->
    <title>GROUP/group_icon_2_s</title>
    <desc>Created with Sketch.</desc>
    <defs>
        <linearGradient x1="113.245817%" y1="3.31013574%" x2="-8.63797109%" y2="95.6185209%" id="linearGradient-1">
            <stop stop-color="#96D2E9" offset="0%"></stop>
            <stop stop-color="#599AB0" offset="100%"></stop>
        </linearGradient>
    </defs>
    <g id="GROUP/group_icon_2_s" stroke="none" stroke-width="1" fill="none" fill-rule="evenodd">
        <path d="M27.684056,46.7122955 C25.4392964,43.355066 24.3169166,39.5182321 24.3169166,35.2017942 C24.3169166,27.8478628 27.3633761,21.772876 32.1735754,18.0959103 C30.5701756,15.218285 27.3633761,13.14 23.1945368,13.14 C16.1395779,13.14 12.1310785,18.8952507 12.1310785,25.4498417 C12.1310785,28.9669393 13.2534583,32.0044328 15.6585579,34.0827177 C16.9412777,35.3616623 18.0636576,36.9603431 18.0636575,38.5590237 C18.0636575,40.1577044 17.4222976,41.7563852 13.4137983,43.514934 C7.64155914,46.0728232 2.35033999,49.5899208 2.19,54.8655673 C2.35033999,58.382665 4.59509967,61.1004222 7.96223913,61.1004222 L13.2534583,61.1004222 C14.0551582,61.1004222 14.8568581,60.620818 15.337878,59.8214776 C17.9033175,55.1853034 22.7135168,52.3076781 26.7220162,50.2293931 C28.165076,49.5899208 28.4857559,47.831372 27.684056,46.7122955 Z M74.5033288,43.514934 C70.4948295,41.7563853 69.8534696,40.3175726 69.8534696,38.5590237 C69.8534696,36.8004749 70.9758494,35.2017942 72.2585692,34.0827177 C74.6636688,31.8445647 75.7860486,28.9669393 75.7860486,25.4498417 C75.7860486,18.8952506 71.9378893,13.14 64.7225903,13.14 C60.553751,13.14 57.3469515,15.218285 55.5832117,18.0959103 C60.393411,21.772876 63.4398705,27.8478628 63.4398705,35.2017942 C63.4398705,39.5182322 62.3174908,43.355066 60.0727311,46.7122955 C59.2710312,47.9912401 59.7520511,49.5899208 61.0347709,50.2293931 C65.0432702,52.14781 69.8534695,55.1853034 72.4189092,59.8214776 C72.8999291,60.6208179 73.7016289,61.1004221 74.5033288,61.1004222 L79.794548,61.1004222 C83.1616874,61.1004222 85.4064471,58.382665 85.4064471,54.8655673 C85.5667871,49.5899209 80.2755679,46.0728233 74.5033288,43.514934 Z M54.6211719,55.1853034 C50.2919926,53.2668866 49.4902927,51.5083377 49.4902927,49.7497889 C49.4902927,47.8313721 50.7730125,46.0728232 52.2160723,44.7938786 C54.7815118,42.3958575 56.2245716,39.0386279 56.2245716,35.2017942 C56.2245716,28.0077308 51.8953923,21.772876 44.0387336,21.772876 C36.1820748,21.772876 31.8528955,28.0077308 31.8528954,35.2017942 C31.8528954,39.0386279 33.2959552,42.3958576 35.8613948,44.7938786 C37.3044546,46.2326913 38.5871744,47.9912401 38.5871744,49.7497889 C38.5871744,51.6682058 37.9458145,53.2668866 33.4562952,55.1853034 C27.0426961,57.9030607 20.9497771,60.9405541 20.7894371,66.6958048 C20.7894371,70.5326386 23.6755567,73.7300001 27.3633761,73.73 L60.714091,73.73 C64.4019104,73.73 67.28803,70.5326386 67.2880299,66.6958048 C67.1276899,61.1004222 61.0347709,58.0629288 54.6211719,55.1853034 Z" id="Shape" fill="url(#linearGradient-1)"></path>
    </g>
</svg>