<?xml version="1.0" encoding="UTF-8"?>
<svg width="88px" height="88px" viewBox="0 0 88 88" version="1.1" xmlns="http://www.w3.org/2000/svg" xmlns:xlink="http://www.w3.org/1999/xlink">
    <!-- Generator: Sketch 51 (57462) - http://www.bohemiancoding.com/sketch -->
    <title>GROUP/group_icon_6_s</title>
    <desc>Created with Sketch.</desc>
    <defs>
        <linearGradient x1="113.245817%" y1="3.31013574%" x2="-8.63797109%" y2="95.6185209%" id="linearGradient-1">
            <stop stop-color="#96D2E9" offset="0%"></stop>
            <stop stop-color="#599AB0" offset="100%"></stop>
        </linearGradient>
    </defs>
    <g id="GROUP/group_icon_6_s" stroke="none" stroke-width="1" fill="none" fill-rule="evenodd">
        <path d="M35.1303053,30.3625722 C35.8062269,31.5408943 37.0513456,32.2550289 38.4031887,32.2550289 L47.5459173,32.2550289 C48.8977605,32.2550289 50.1428791,31.5408943 50.8188007,30.3625722 L55.4079524,22.3999712 C56.083874,21.2216491 56.083874,19.7933798 55.4079524,18.6150577 L50.8188007,10.6524567 C50.1428791,9.47413462 48.8977605,8.76 47.5459173,8.76 L38.4031887,8.76 C37.0513456,8.76 35.8062269,9.47413462 35.1303053,10.6524567 L30.5767284,18.6150577 C29.9008068,19.7933798 29.9008068,21.2216491 30.5767284,22.3999712 L35.1303053,30.3625722 Z M26.5604925,53.5916475 C25.8855,52.4133254 24.6420929,51.6991908 23.2921079,51.6991908 L14.1619466,51.6991908 C12.8119617,51.6991908 11.5685545,52.4133254 10.893562,53.5916475 L6.34624435,61.5542485 C5.67125188,62.7325706 5.67125188,64.1608398 6.34624435,65.3391619 L10.929088,73.3017629 C11.6040804,74.480085 12.8474876,75.1942197 14.1974725,75.1942197 L23.3276338,75.1942197 C24.6776188,75.1942197 25.921026,74.480085 26.5960184,73.3017629 L31.178862,65.3391619 C31.8538545,64.1608398 31.8538545,62.7325706 31.178862,61.5542485 L26.5604925,53.5916475 Z M81.2486116,61.5542485 L76.6602653,53.5916475 C75.9844624,52.4133254 74.7395623,51.6991908 73.3879564,51.6991908 L64.2468325,51.6991908 C62.8952266,51.6991908 61.6503264,52.4133254 60.9745235,53.5916475 L56.4217458,61.5542485 C55.7459429,62.7325706 55.7459429,64.1608398 56.4217458,65.3391619 L61.0100921,73.3017629 C61.685895,74.480085 62.9307952,75.1942197 64.282401,75.1942197 L73.423525,75.1942197 C74.7751308,75.1942197 76.020031,74.480085 76.6958339,73.3017629 L81.2841802,65.3391619 C81.9244145,64.1965466 81.9244145,62.7325706 81.2486116,61.5542485 Z M18.9521692,26.6532175 C19.9299481,25.432341 21.7092395,25.2377384 22.9263278,26.2185606 C24.1434162,27.1993827 24.3374149,28.9842122 23.3596361,30.2050887 C20.1275902,34.2406937 18.129928,39.1578359 17.6592643,44.4106056 C17.5195038,45.9703802 16.1456818,47.1211766 14.5907469,46.9809811 C13.035812,46.8407857 11.8885864,45.4626877 12.0283469,43.902913 C12.5994552,37.5291469 15.0266694,31.5546845 18.9521692,26.6532175 Z M34.6469743,77.5885832 C33.1484718,77.1492179 32.2887663,75.5744847 32.7267684,74.0713181 C33.1647705,72.5681515 34.7346176,71.7057702 36.2331201,72.1451355 C38.5406025,72.8216962 40.9441808,73.1687861 43.3961702,73.1687861 C45.7486573,73.1687861 48.0567346,72.8493026 50.2784962,72.2256849 C51.7819509,71.8036861 53.3417779,72.6841726 53.7624674,74.1923068 C54.1831569,75.7004409 53.3054023,77.2651229 51.8019476,77.6871218 C49.085549,78.4495772 46.2649779,78.84 43.3961702,78.84 C40.4058559,78.84 37.4682765,78.4157973 34.6469743,77.5885832 Z M74.763264,43.894782 C74.9034144,45.4545214 73.7565334,46.832908 72.2016336,46.9734946 C70.6467338,47.1140812 69.2726241,45.9636305 69.1324737,44.4038911 C68.6610971,39.1579213 66.6666229,34.2469492 63.4405142,30.214845 C62.4633123,28.9935037 62.6581543,27.2087667 63.875706,26.2285233 C65.0932577,25.2482799 66.8724569,25.4437284 67.8496588,26.6650697 C71.7679484,31.562286 74.1912892,37.5292516 74.763264,43.894782 Z" id="Shape" fill="url(#linearGradient-1)"></path>
    </g>
</svg>