<?xml version="1.0" encoding="UTF-8"?>
<svg width="88px" height="88px" viewBox="0 0 88 88" version="1.1" xmlns="http://www.w3.org/2000/svg" xmlns:xlink="http://www.w3.org/1999/xlink">
    <!-- Generator: Sketch 51 (57462) - http://www.bohemiancoding.com/sketch -->
    <title>Device2/default_icon</title>
    <desc>Created with Sketch.</desc>
    <defs></defs>
    <g id="Device2/default_icon" stroke="none" stroke-width="1" fill="none" fill-rule="evenodd">
        <rect id="Rectangle" fill-rule="nonzero" x="0" y="0" width="88" height="88"></rect>
        <path d="M86.3616544,66.7658466 L65.8156736,38.5887996 C65.3809149,38.0056472 64.7207257,37.6626164 64.0283321,37.6454648 C63.3359386,37.6283133 62.6596472,37.9198895 62.1926841,38.4515872 L49.7134982,52.6016079 L31.8722878,22.2776848 C31.437529,21.523017 30.6646246,21.0770769 29.8273115,21.0770769 C28.9899983,21.0770769 28.2170939,21.5401685 27.7823351,22.2776848 L1.4596697,67.0367296 C0.537550988,68.6046997 1.061117,70.6233155 2.62908711,71.5454342 C3.13517231,71.8430615 3.71161559,72 4.29873074,72 L61.1138383,72 L83.7003889,72 C85.5194088,72 86.9940157,70.5253931 86.9940157,68.7063732 C86.9940157,68.0088912 86.7725942,67.3294152 86.3616544,66.7658466 Z M75.5735919,15 L75.8473289,15 C79.5186249,15 82.5780382,17.9099231 82.7229578,21.6076154 C82.7229578,21.6076154 82.7229578,21.880923 82.7229578,21.880923 C82.7229578,25.5464615 79.8245662,28.6010769 76.1049637,28.7457692 L75.8312268,28.7618462 C72.1599308,28.7618462 69.1005174,25.8519231 68.9555978,22.1542308 L68.9555978,21.8809231 C68.9555978,18.1993077 71.8700915,15.1446923 75.5735919,15 Z" id="Shape" fill="#C8C8C8" fill-rule="nonzero"></path>
    </g>
</svg>