<?xml version="1.0" encoding="UTF-8"?>
<svg width="88px" height="88px" viewBox="0 0 88 88" version="1.1" xmlns="http://www.w3.org/2000/svg" xmlns:xlink="http://www.w3.org/1999/xlink">
    <!-- Generator: Sketch 51 (57462) - http://www.bohemiancoding.com/sketch -->
    <title>Room/room_icon_garage_s</title>
    <desc>Created with Sketch.</desc>
    <defs>
        <linearGradient x1="113.245817%" y1="3.31013574%" x2="-8.63797109%" y2="95.6185209%" id="linearGradient-1">
            <stop stop-color="#96D2E9" offset="0%"></stop>
            <stop stop-color="#599AB0" offset="100%"></stop>
        </linearGradient>
    </defs>
    <g id="Room/room_icon_garage_s" stroke="none" stroke-width="1" fill="none" fill-rule="evenodd">
        <path d="M74.3243243,23.2048303 L14.3891892,23.2048303 L14.3891892,75.4638932 L7.25405405,75.4638932 L7.25405405,23.2048303 L5.83175515,23.2048303 C5.04101861,23.2048303 4.4,22.5638117 4.4,21.7730751 L4.4,13.8984218 C4.4,13.1076853 5.04101861,12.4666667 5.83175515,12.4666667 L82.1682449,12.4666667 C82.9589814,12.4666667 83.6,13.1076853 83.6,13.8984218 L83.6,21.7730751 C83.6,22.5638117 82.9589814,23.2048303 82.1682449,23.2048303 L81.4594595,23.2048303 L81.4594595,75.4638932 L74.3243243,75.4638932 L74.3243243,23.2048303 Z M63.059373,71.1722072 C63.059373,73.5804193 61.1136216,75.5333333 58.7126486,75.5333333 C56.3123892,75.5333333 54.3666378,73.5804193 54.3666378,71.1722072 C54.3666378,68.763995 56.3123892,66.811081 58.7126486,66.811081 C61.1136216,66.811081 63.059373,68.763995 63.059373,71.1722072 Z M68.2952065,59.2349486 C68.9730443,61.1463417 69.3298011,63.1579577 69.3298011,65.19105 L69.3298011,71.1686278 L64.8703416,71.1686278 L64.8667741,71.1686278 C64.8646335,67.7603346 62.1104714,64.9977631 58.71272,64.9977631 C55.3149686,64.9977631 52.5608065,67.7603346 52.5586659,71.1686278 L36.5081795,71.1686278 C36.5060389,67.7603346 33.7518768,64.9977631 30.3541254,64.9977631 C26.9563741,64.9977631 24.2022119,67.7603346 24.2000714,71.1686278 L17.9568281,71.1686278 L17.9568281,65.4129721 C17.9568281,63.7736124 19.0627741,62.3418573 20.6539092,61.9409658 L31.2353146,59.2922188 L35.0240714,51.8399333 C35.4664497,50.9665626 36.3654768,50.4081781 37.3501254,50.4081781 L62.5728281,50.4081781 C63.6787741,50.4081781 64.6562876,51.1025794 65.0344497,52.1406018 L68.2952065,59.2349486 Z M51.2208281,59.8076507 L64.7775849,59.8076507 L61.9235308,53.1650226 L51.2208281,53.1650226 L51.2208281,59.8076507 Z M48.81272,59.8076507 L48.81272,53.1650226 L38.1100173,53.1650226 L35.2559632,59.8076507 L48.81272,59.8076507 Z M34.700493,71.1722072 C34.700493,73.5804193 32.7547416,75.5333333 30.3537686,75.5333333 C27.9535092,75.5333333 26.0077578,73.5804193 26.0077578,71.1722072 C26.0077578,68.763995 27.9535092,66.811081 30.3537686,66.811081 C32.7547416,66.811081 34.700493,68.763995 34.700493,71.1722072 Z M18.6702703,26.6969394 L70.0432432,26.6969394 L70.0432432,31.7080824 L18.6702703,31.7080824 L18.6702703,26.6969394 Z M18.6702703,35.2874703 L70.0432432,35.2874703 L70.0432432,40.2986133 L18.6702703,40.2986133 L18.6702703,35.2874703 Z" id="Combined-Shape" fill="url(#linearGradient-1)"></path>
    </g>
</svg>