<?xml version="1.0" encoding="UTF-8"?>
<svg width="88px" height="88px" viewBox="0 0 88 88" version="1.1" xmlns="http://www.w3.org/2000/svg" xmlns:xlink="http://www.w3.org/1999/xlink">
    <!-- Generator: Sketch 51 (57462) - http://www.bohemiancoding.com/sketch -->
    <title>Room/room_icon_nursery_2</title>
    <desc>Created with Sketch.</desc>
    <defs></defs>
    <g id="Room/room_icon_nursery_2" stroke="none" stroke-width="1" fill="none" fill-rule="evenodd">
        <path d="M39.9951002,15.3417946 C37.2219188,16.8389712 36.1094835,18.640483 37.0201815,20.8687554 C37.7750564,22.7157638 39.0241706,22.9236659 43.2270857,22.9421217 C43.671889,22.9440749 43.8656776,22.9453149 44.1089176,22.9483536 C46.1361019,22.9736784 47.3041282,23.1392768 47.956315,23.5299106 C48.5094696,23.8612281 48.6525833,24.4411096 48.1495815,25.946512 C47.8870458,26.7322388 48.3111759,27.5820234 49.0969027,27.8445591 C49.8826294,28.1070948 50.732414,27.6829647 50.9949497,26.897238 C51.9071154,24.1672744 51.3950991,22.0926377 49.4978337,20.9562517 C48.2297531,20.1967222 46.7050226,19.9805516 44.1463925,19.9485876 C43.8923245,19.9454137 43.6931995,19.9441395 43.2402592,19.9421506 C41.6482388,19.9351597 40.9969959,19.9104475 40.385274,19.8086327 C40.099149,19.7610102 39.892074,19.7013322 39.769074,19.6415958 C39.6126784,18.881153 41.1688137,17.7026759 45.3836336,16.4258037 C46.0071196,16.2369197 46.4173583,15.6786892 46.4473615,15.0632512 C58.9361495,15.8771162 69.3053184,24.4626047 72.76637,36.0312187 C73.0081659,36.0105481 73.2528511,36 73.5,36 C78.1944204,36 82,39.8055796 82,44.5 C82,49.1944204 78.1944204,53 73.5,53 C73.2528511,53 73.0081659,52.9894519 72.76637,52.9687813 C69.1269259,65.1336748 57.8488835,74 44.5,74 C31.1009196,74 19.788284,65.0668679 16.1928973,52.8314078 C15.6458126,52.941972 15.0796829,53 14.5,53 C9.80557963,53 6,49.1944204 6,44.5 C6,39.8055796 9.80557963,36 14.5,36 C15.0796829,36 15.6458126,36.058028 16.1928973,36.1685922 C19.377281,25.3318161 28.6153816,17.0855174 39.9951002,15.3417946 Z M32,42 C33.6568542,42 35,40.6568542 35,39 C35,37.3431458 33.6568542,36 32,36 C30.3431458,36 29,37.3431458 29,39 C29,40.6568542 30.3431458,42 32,42 Z M56,42 C57.6568542,42 59,40.6568542 59,39 C59,37.3431458 57.6568542,36 56,36 C54.3431458,36 53,37.3431458 53,39 C53,40.6568542 54.3431458,42 56,42 Z M35.0093798,54.9070194 C41.4279541,61.412504 48.2199406,61.412504 54.6385149,54.9070194 C55.2203489,54.317307 55.2139623,53.367581 54.62425,52.785747 C54.0345377,52.2039129 53.0848117,52.2102995 52.5029776,52.8000119 C47.2591534,58.1148398 42.3887413,58.1148398 37.1449171,52.8000119 C36.563083,52.2102995 35.613357,52.2039129 35.0236447,52.785747 C34.4339324,53.367581 34.4275457,54.317307 35.0093798,54.9070194 Z" id="Combined-Shape" fill="#999999"></path>
    </g>
</svg>