<?xml version="1.0" encoding="UTF-8"?>
<svg width="88px" height="88px" viewBox="0 0 88 88" version="1.1" xmlns="http://www.w3.org/2000/svg" xmlns:xlink="http://www.w3.org/1999/xlink">
    <!-- Generator: Sketch 51 (57462) - http://www.bohemiancoding.com/sketch -->
    <title>Room/room_icon_nursery_3_n</title>
    <desc>Created with Sketch.</desc>
    <defs>
        <linearGradient x1="112.960737%" y1="-19.1113281%" x2="-16.6566506%" y2="116.977539%" id="linearGradient-1">
            <stop stop-color="#8AADEC" offset="0%"></stop>
            <stop stop-color="#1E50A0" offset="100%"></stop>
        </linearGradient>
    </defs>
    <g id="Room/room_icon_nursery_3_n" stroke="none" stroke-width="1" fill="none" fill-rule="evenodd">
        <g id="category-baby-copy" transform="translate(14.000000, 14.000000)" fill="url(#linearGradient-1)" fill-rule="nonzero">
            <path d="M51.0165594,30.4852912 C52.8006051,30.2072218 54.5187457,27.3104734 56.5883351,25.2742262 C59.4338057,22.4770394 60.9996564,18.7590601 61,14.8026196 C61,10.8469227 59.4338057,7.12786189 56.5897783,4.33067503 C50.7188519,-1.44355834 41.1657538,-1.44355834 35.2941402,4.33067503 C33.2266813,6.36374539 30.675001,8.43230101 30.6118446,10.4183956 C27.68157,8.16369429 24.7530134,6.10324961 21.9289844,4.35243931 C19.7616711,3.00906775 17.1811272,2.5711455 15.3689049,4.35243931 C13.5577823,6.13339512 13.0368629,9.76201913 15.3685613,10.8041375 C16.7953857,11.4412505 18.7721055,12.7164134 20.251709,13.5881348 C20.094471,17.0158107 19.3869253,22.3413842 19.1608957,23.3547764 C18.4784776,26.4236791 14.4381208,28.2523446 11.3962402,29.2180176 C9.1522322,29.9309001 7.0818657,31.3208622 5.29919434,33.0727539 C-0.713988428,38.9872386 -0.503330017,48.6509866 5.50875318,54.5643899 C11.5219359,60.4785367 20.8144549,60.7295765 26.8265381,54.8154297 C28.5952587,53.0758396 30.2990868,50.7678698 31.026381,48.5801512 C32.0189455,45.5925605 34.1206971,41.8535603 37.2403033,41.1666328 C38.2446194,40.9454073 43.6569821,40.6464897 47.1723633,40.4897461 C48.0907758,41.9155111 49.2235108,43.4490464 50.0050274,44.8702828 C51.2229342,47.0863896 54.7535718,46.6526581 56.5647631,44.8702828 C58.3762981,43.088989 57.8660995,40.5887971 56.5651067,38.4185846 C54.9590532,35.7388034 53.0526806,33.0917362 51.0165594,30.4852912 Z M39.3840332,8.44128323 C42.7139533,5.16691525 48.213139,5.16691525 51.5427225,8.44128323 C53.1556746,10.0275712 54.0434783,12.1365288 54.0434783,14.3807898 C54.0434783,16.6247197 53.5596622,19.1890365 51.9467773,20.7753906 C50.3540897,22.3421414 48.0270988,24.148931 45.7788086,24.1994629 C42.6958335,20.8240976 39.1956741,17.3448806 35.7846957,14.3939029 C35.7826087,12.1406349 37.7710811,10.0275712 39.3840332,8.44128323 Z" id="Shape"></path>
        </g>
    </g>
</svg>