<?xml version="1.0" encoding="UTF-8"?>
<svg width="88px" height="88px" viewBox="0 0 88 88" version="1.1" xmlns="http://www.w3.org/2000/svg" xmlns:xlink="http://www.w3.org/1999/xlink">
    <!-- Generator: Sketch 51 (57462) - http://www.bohemiancoding.com/sketch -->
    <title>Room/room_icon_garden</title>
    <desc>Created with Sketch.</desc>
    <defs></defs>
    <g id="Room/room_icon_garden" stroke="none" stroke-width="1" fill="none" fill-rule="evenodd">
        <g id="flower-copy-2" transform="translate(15.000000, 11.000000)" fill="#999999" fill-rule="nonzero">
            <path d="M20.8930645,65.9183641 C20.2285334,65.9183641 19.5639271,65.6502893 19.0866367,65.1144389 C12.8065434,58.1374664 2.66496963,58.0653816 2.44677327,58.0653816 L2.4364547,58.0653816 C1.10784452,58.0653816 0.0283110886,57.0037757 0.0179925174,55.684489 C0.0074479922,54.3652771 1.07673817,53.2831823 2.40542367,53.2731622 C2.90357717,53.2421299 14.8927777,53.2626935 22.6886465,61.9196011 C23.5815418,62.9091222 23.4882981,64.4239501 22.4916145,65.2999601 C22.0449785,65.7122045 21.4639752,65.9183641 20.8930645,65.9183641 Z M37.0759733,65.9078953 C36.4843501,65.9078953 35.9028949,65.7018105 35.4357724,65.2689277 C34.4601779,64.3724289 34.3977392,62.8575262 35.3007272,61.8885687 C43.3662345,53.2421299 55.1066596,53.2522995 55.5736314,53.2731622 C56.9125602,53.2831823 57.9819256,54.3652771 57.9612132,55.6950325 C57.9505933,57.0139453 56.8712105,58.0654564 55.5529943,58.0654564 L55.5322065,58.0654564 C55.3347226,58.0654564 45.3901808,58.1269229 38.8403737,65.1453965 C38.3734018,65.6502893 37.7194153,65.9078205 37.075898,65.9078205 L37.0759733,65.9078953 Z M32.4061056,43.9999376 L26.0215412,43.9999376 C25.8226128,43.9999376 25.6232444,43.9740412 25.4327383,43.9138244 C18.623919,43.0451415 12.8289117,39.1236821 9.10414248,32.8284302 C4.77297163,25.5183525 3.77675834,16.0494535 6.63529339,9.26398019 C6.94716786,8.53301611 7.65740194,8.0512812 8.45443542,8.03418335 L9.0607742,8.02544723 C12.8981124,8.02544723 16.4759323,8.74804959 19.741312,10.1670459 C22.0977807,5.89245984 24.7830941,2.65029653 27.7540724,0.500273697 C27.9103867,0.362866927 28.0920935,0.250982122 28.2914619,0.164993689 C28.9149594,-0.101707737 29.6340557,-0.0415532738 30.2055742,0.31987271 C30.3010472,0.380027173 30.3964574,0.457279481 30.4831311,0.534906194 C33.4540466,2.70208928 36.0704107,5.90119596 38.4437238,10.2614585 C41.7700706,8.77357156 45.4341871,8.01702311 49.3671869,8.01702311 L49.9820736,8.02544723 C50.7789814,8.04260747 51.4895297,8.52434238 51.8012156,9.25536887 C54.6598135,16.0407174 53.6636631,25.5096164 49.3324922,32.8197564 C45.5991122,39.106709 39.81259,43.0369046 33.0038336,43.9052754 C32.8132017,43.9658043 32.6138334,44 32.4060428,44 L32.4061056,43.9999376 Z M28.9792843,68 C27.6504481,68 26.5706888,66.4263247 26.5706888,64.4888261 L26.5706888,43.5112837 C26.5706888,41.5590697 27.6504481,40 28.9792843,40 C30.3081204,40 31.3875032,41.5737852 31.3875032,43.5112837 L31.3875032,64.473342 C31.3874279,66.4263247 30.3080451,68 28.9792843,68 Z" id="Shape"></path>
        </g>
    </g>
</svg>