<?xml version="1.0" encoding="UTF-8"?>
<svg width="88px" height="88px" viewBox="0 0 88 88" version="1.1" xmlns="http://www.w3.org/2000/svg" xmlns:xlink="http://www.w3.org/1999/xlink">
    <!-- Generator: Sketch 51 (57462) - http://www.bohemiancoding.com/sketch -->
    <title>Room/room_icon_bathroom2</title>
    <desc>Created with Sketch.</desc>
    <defs></defs>
    <g id="Room/room_icon_bathroom2" stroke="none" stroke-width="1" fill="none" fill-rule="evenodd">
        <path d="M10.3214254,17.5428147 L10.3214254,20.8358712 L5.64599244,20.8358712 C4.73512423,20.8358712 4,20.0996754 4,19.1888072 C4,18.277939 4.73512423,17.5428147 5.64599244,17.5428147 L10.3214254,17.5428147 Z M81.6528011,20.8352283 L65.1896618,20.8352283 L65.1896618,18.3769557 C65.1896618,18.0919075 65.211094,17.8175754 65.2657461,17.5432434 L81.6528011,17.5432434 C82.5636693,17.5432434 83.2987935,18.2783676 83.2987935,19.1892358 C83.2987935,20.100104 82.5636693,20.8352283 81.6528011,20.8352283 Z M66.3083152,15.0843278 C67.1977512,13.8884115 68.5254756,13.0643436 70.0953837,12.9111034 C72.1153679,12.7246434 73.9371044,13.6140794 75.0344326,15.0843278 L66.3083152,15.0843278 Z M65.1122916,24.1282847 L76.1541576,24.1282847 L76.1541576,79.479067 C76.1541576,79.6323072 76.1209377,79.7748313 76.1102216,79.9173554 L76.1102216,80.6096152 C76.1102216,83.0346679 74.1448895,85 71.7198368,85 L27.3520395,85 C24.038331,85 21.3520395,82.3137085 21.3520395,79 L21.3520395,71.8942138 L60.7219068,71.8942138 C63.1480311,71.8942138 65.1122916,69.9299533 65.1122916,67.503829 L65.1122916,24.1282847 Z M52.3797471,57.4671329 C54.6033371,57.4671329 55.6449417,57.9139942 56.8526458,58.4315816 C57.7988772,58.8366501 58.8447682,59.2749384 60.3814564,59.5031913 L60.3814564,65.0123366 C60.3814564,66.2200407 59.3945039,67.2080648 58.1867999,67.2080648 L22.4496892,67.2080648 C17.5985123,67.2080648 13.6689197,63.2784721 13.6689197,58.4272952 L13.6689197,57.672882 C14.5337087,57.8518408 15.1895338,58.1283161 15.8967961,58.4315816 C17.2416663,59.0081076 18.7665668,59.6617895 21.6641994,59.6617895 C24.5607603,59.6617895 26.0867324,59.0081076 27.4316026,58.4315816 C28.638235,57.9139942 29.6798396,57.4671329 31.9023581,57.4671329 C34.1227333,57.4671329 35.1654095,57.9139942 36.372042,58.4315816 C37.7158405,59.0081076 39.240741,59.6617895 42.1373019,59.6617895 C45.0360061,59.6617895 46.5609066,59.0081076 47.9068484,58.4315816 C49.1145525,57.9139942 50.1572287,57.4671329 52.3797471,57.4671329 Z M26.1347405,55.4049273 C24.9281081,55.9225148 23.8854319,56.369376 21.663985,56.369376 C19.4436098,56.369376 18.4009336,55.9225148 17.1943011,55.4049273 C16.250213,54.9998589 15.2053936,54.5615705 13.6687053,54.3333177 L13.6687053,48.6184233 C14.5334943,48.7973821 15.1893194,49.0727858 15.8965818,49.377123 C17.241452,49.953649 18.7663525,50.6073309 21.663985,50.6073309 C24.5616176,50.6073309 26.0865181,49.953649 27.4313882,49.377123 C28.6380207,48.8584639 29.6806969,48.4116027 31.9021437,48.4116027 C34.1235906,48.4116027 35.1651952,48.8584639 36.3718276,49.377123 C37.7156262,49.953649 39.2415983,50.6073309 42.1370876,50.6073309 C45.0357918,50.6073309 46.5606923,49.953649 47.906634,49.377123 C49.1154097,48.8584639 50.1570143,48.4116027 52.3795328,48.4116027 C54.6031228,48.4116027 55.6447274,48.8584639 56.8524315,49.377123 C57.7986628,49.7821914 58.8445539,50.2204798 60.3812421,50.4487326 L60.3812421,56.163627 C59.5153815,55.9846681 58.8584848,55.7081928 58.1501508,55.4049273 C56.8031375,54.8284013 55.2782369,54.1747194 52.3795328,54.1747194 C49.4819003,54.1747194 47.9559281,54.8284013 46.6099864,55.4049273 C45.4022823,55.9225148 44.3606777,56.369376 42.1370876,56.369376 C39.917784,56.369376 38.8761794,55.9225148 37.6695469,55.4049273 C36.3246768,54.8284013 34.7997763,54.1747194 31.9021437,54.1747194 C29.0055828,54.1747194 27.4796107,54.8284013 26.1347405,55.4049273 Z M22.4500107,3 L68.1305874,3 C72.9817643,3 76.911357,6.92959263 76.911357,11.7807696 L76.911357,12.3187176 C76.8449172,12.2522778 76.779549,12.1761935 76.7141808,12.1097537 C74.9792448,10.3758893 72.5863404,9.3107093 69.9523238,9.3107093 C65.1236507,9.3107093 61.1276183,12.888814 60.480366,17.5428147 C60.4149978,17.9821747 60.3817779,18.4322507 60.3817779,18.8823268 L60.3817779,47.1085253 C59.5159173,46.9295665 58.857949,46.6530912 58.149615,46.3498257 C56.8036733,45.7732997 55.2777011,45.1196178 52.3800686,45.1196178 C49.4813644,45.1196178 47.9564639,45.7732997 46.6105222,46.3498257 C45.4017465,46.8674131 44.3601419,47.3142744 42.1376234,47.3142744 C39.9172482,47.3142744 38.8756436,46.8674131 37.6700827,46.3498257 C36.324141,45.7732997 34.7992405,45.1196178 31.9026795,45.1196178 C29.005047,45.1196178 27.4801465,45.7732997 26.1342047,46.3498257 C24.9275723,46.8674131 23.8859677,47.3142744 21.6634492,47.3142744 C19.443074,47.3142744 18.4014694,46.8674131 17.1948369,46.3498257 C16.2496772,45.9447572 15.2048578,45.5064689 13.6692411,45.278216 L13.6692411,11.7807696 C13.6692411,6.92959263 17.5988338,3 22.4500107,3 Z" id="Combined-Shape" fill="#999999"></path>
    </g>
</svg>