<?xml version="1.0" encoding="UTF-8"?>
<svg width="88px" height="88px" viewBox="0 0 88 88" version="1.1" xmlns="http://www.w3.org/2000/svg" xmlns:xlink="http://www.w3.org/1999/xlink">
    <!-- Generator: Sketch 51 (57462) - http://www.bohemiancoding.com/sketch -->
    <title>Room/room_icon_hallway_s</title>
    <desc>Created with Sketch.</desc>
    <defs>
        <linearGradient x1="113.245817%" y1="3.31013574%" x2="-8.63797109%" y2="95.6185209%" id="linearGradient-1">
            <stop stop-color="#96D2E9" offset="0%"></stop>
            <stop stop-color="#599AB0" offset="100%"></stop>
        </linearGradient>
    </defs>
    <g id="Room/room_icon_hallway_s" stroke="none" stroke-width="1" fill="none" fill-rule="evenodd">
        <path d="M44.3666667,84.3333333 C22.698695,84.3333333 5.13333333,66.7679717 5.13333333,45.1 C5.13333333,23.4320283 22.698695,5.86666667 44.3666667,5.86666667 C66.0346384,5.86666667 83.6,23.4320283 83.6,45.1 C83.6,66.7679717 66.0346384,84.3333333 44.3666667,84.3333333 Z M41.0666667,27.8666667 L42.1089057,29.4178685 C42.1770161,29.5192396 42.2911274,29.5800456 42.4132549,29.5800456 L47.0534117,29.5800456 C47.1755392,29.5800456 47.2896506,29.5192396 47.3577609,29.4178685 L48.4,27.8666667 L41.0666667,27.8666667 Z M37.4,22.7333333 L39.5928254,25.8338111 C39.6615512,25.9309838 39.7731666,25.9887533 39.8921867,25.9887533 L49.57448,25.9887533 C49.6935,25.9887533 49.8051155,25.9309838 49.8738413,25.8338111 L52.0666667,22.7333333 L37.4,22.7333333 Z M41.0666667,37.4 C40.6616579,37.4 40.3333333,37.7283245 40.3333333,38.1333333 L40.3333333,52.0666667 C40.3333333,52.4716755 40.6616579,52.8 41.0666667,52.8 L48.4,52.8 C48.8050088,52.8 49.1333333,52.4716755 49.1333333,52.0666667 L49.1333333,38.1333333 C49.1333333,37.7283245 48.8050088,37.4 48.4,37.4 L41.0666667,37.4 Z M31.9572618,32.3337535 C31.7231326,32.1568753 31.5333333,32.3418116 31.5333333,32.7468204 L31.5333333,56.9468204 C31.5333333,57.3518293 31.7231326,57.5367656 31.9572618,57.3598874 L36.1965468,54.1572235 C36.430676,53.9803453 36.6204753,53.6069559 36.6204753,53.3232351 L36.6204753,36.3704058 C36.6204753,36.0866849 36.430676,35.7132956 36.1965468,35.5364173 L31.9572618,32.3337535 Z M19.1097549,22.122869 C18.6809491,21.7989179 18.3333333,22.1376274 18.3333333,22.8793977 L18.3333333,67.2015011 C18.3333333,67.9432714 18.6809491,68.2819809 19.1097549,67.9580298 L26.8739708,62.092377 C27.3027766,61.768426 27.6503924,61.0845664 27.6503924,60.5649339 L27.6503924,29.5159649 C27.6503924,28.9963324 27.3027766,28.3124728 26.8739708,27.9885218 L19.1097549,22.122869 Z M70.1406375,22.122869 L62.3764216,27.9885218 C61.9476158,28.3124728 61.6,28.9963324 61.6,29.5159649 L61.6,60.5649339 C61.6,61.0845664 61.9476158,61.768426 62.3764216,62.092377 L70.1406375,67.9580298 C70.5694433,68.2819809 70.9170591,67.9432714 70.9170591,67.2015011 L70.9170591,22.8793977 C70.9170591,22.1376274 70.5694433,21.7989179 70.1406375,22.122869 Z M57.4632134,32.3337535 L53.2239285,35.5364173 C52.9897993,35.7132956 52.8,36.0866849 52.8,36.3704058 L52.8,53.3232351 C52.8,53.6069559 52.9897993,53.9803453 53.2239285,54.1572235 L57.4632134,57.3598874 C57.6973427,57.5367656 57.8871419,57.3518293 57.8871419,56.9468204 L57.8871419,32.7468204 C57.8871419,32.3418116 57.6973427,32.1568753 57.4632134,32.3337535 Z" id="Combined-Shape" fill="url(#linearGradient-1)"></path>
    </g>
</svg>