<?xml version="1.0" encoding="UTF-8"?>
<svg width="88px" height="88px" viewBox="0 0 88 88" version="1.1" xmlns="http://www.w3.org/2000/svg" xmlns:xlink="http://www.w3.org/1999/xlink">
    <!-- Generator: Sketch 51 (57462) - http://www.bohemiancoding.com/sketch -->
    <title>Room/room_icon_ dinning_room2_s</title>
    <desc>Created with Sketch.</desc>
    <defs>
        <linearGradient x1="112.960737%" y1="-19.1113281%" x2="-16.6566506%" y2="116.977539%" id="linearGradient-1">
            <stop stop-color="#8AADEC" offset="0%"></stop>
            <stop stop-color="#1E50A0" offset="100%"></stop>
        </linearGradient>
    </defs>
    <g id="Room/room_icon_-dinning_room2_s" stroke="none" stroke-width="1" fill="none" fill-rule="evenodd">
        <path d="M75.3013739,48.8159509 L83.3749488,48.8159509 C86.4038504,48.8159509 86.9492205,49.5931033 86.9848793,51.3403852 C87.0152941,52.6849322 87.0551481,54.1847 86.4961438,54.8181683 C85.3812814,56.0882513 82.8746766,55.876396 80.7152208,53.9025758 C79.3675274,52.6681516 76.9374841,52.5055894 75.3013739,52.5580288 L75.3013739,73.749852 C75.3013739,78.7200613 71.2845134,82.7914588 66.3751338,82.7914588 L21.7418357,82.7914588 C16.8314073,82.7914588 12.8145468,78.7200613 12.8145468,73.749852 L12.8145468,52.5611751 C11.1752902,52.502443 8.69490507,52.6503222 7.32833347,53.9025758 C5.16887767,55.876396 2.66017525,56.0882513 1.54636172,54.8181683 C0.988406161,54.1847 0.92757642,52.6786395 1.05762621,51.3403852 C1.26109121,49.3004913 1.8620471,48.8159509 5.02099847,48.8159509 L75.3013739,48.8159509 Z M21.7418357,36.7349546 L40.6997391,36.7349546 L39.4516806,31.6703543 C39.1181659,30.3142706 40.581226,29.1270418 41.9603831,29.1270418 L45.4423613,29.1270418 C46.823616,29.1270418 48.2877249,30.3142706 47.9531613,31.6703543 L46.7019565,36.7349546 L66.3751338,36.7349546 C70.9079983,36.7349546 74.6762958,40.2012011 75.231105,44.6449185 L12.8848157,44.6449185 C13.4364785,40.2012011 17.2079224,36.7349546 21.7418357,36.7349546 Z M40.0785416,4.0669715 C40.7833276,3.04125621 42.334486,2.69515596 43.5426905,3.29296548 C44.750895,3.89182379 45.1588738,5.20805353 44.4540878,6.23376882 C42.8420997,8.57886021 42.9784422,9.76818653 44.5862352,12.8883327 C46.7771546,17.1390731 47.0634739,19.63519 44.4540878,23.4328537 C43.7493018,24.458569 42.1981435,24.8046692 40.9899389,24.2068597 C39.7817344,23.6090502 39.3737557,22.2917716 40.0785416,21.2660564 C41.6905298,18.920965 41.5541872,17.7316387 39.9463942,14.6114925 C37.754426,10.3607521 37.4691555,7.86463515 40.0785416,4.0669715 Z M24.3668488,7.02518473 C25.0716348,6.25642266 26.6227932,5.99632307 27.8309977,6.44520461 C29.0392022,6.89408615 29.447181,7.88099625 28.742395,8.64975833 C27.1304069,10.4085769 27.2667494,11.301096 28.8745424,13.6409435 C31.0654618,16.8292609 31.3517811,18.7013486 28.742395,21.5498586 C28.037609,22.3186206 26.4864506,22.5787202 25.2782461,22.1298387 C24.0700416,21.6809571 23.6620628,20.694047 24.3668488,19.925285 C25.9788369,18.1654176 25.8424944,17.2739473 24.2347014,14.9340998 C22.0427332,11.7457824 21.7574627,9.87369467 24.3668488,7.02518473 Z M56.8376596,7.02518473 C57.5424456,6.25642266 59.093604,5.99632307 60.3018085,6.44520461 C61.510013,6.89408615 61.9179918,7.88099625 61.2132058,8.64975833 C59.6012177,10.4085769 59.7375602,11.301096 61.3453532,13.6409435 C63.5362727,16.8292609 63.822592,18.7013486 61.2132058,21.5498586 C60.5084199,22.3186206 58.9572615,22.5787202 57.749057,22.1298387 C56.5408525,21.6809571 56.1328737,20.694047 56.8376596,19.925285 C58.4496478,18.1654176 58.3133053,17.2739473 56.7055123,14.9340998 C54.513544,11.7457824 54.2282735,9.87369467 56.8376596,7.02518473 Z" id="Combined-Shape" fill="url(#linearGradient-1)"></path>
    </g>
</svg>