<?xml version="1.0" encoding="UTF-8"?>
<svg width="88px" height="88px" viewBox="0 0 88 88" version="1.1" xmlns="http://www.w3.org/2000/svg" xmlns:xlink="http://www.w3.org/1999/xlink">
    <!-- Generator: Sketch 51 (57462) - http://www.bohemiancoding.com/sketch -->
    <title>Room/room_icon_game</title>
    <desc>Created with Sketch.</desc>
    <defs></defs>
    <g id="Room/room_icon_game" stroke="none" stroke-width="1" fill="none" fill-rule="evenodd">
        <path d="M80.2659078,36.6298276 L42.6292788,40.9612712 L70.2218263,70.1039436 C63.5215441,76.8342943 54.2472484,81 44,81 C23.5654643,81 7,64.4345357 7,44 C7,23.5654643 23.5654643,7 44,7 C61.9108251,7 76.8492425,19.7263906 80.2659078,36.6298276 Z M45,30 C48.3137085,30 51,27.3137085 51,24 C51,20.6862915 48.3137085,18 45,18 C41.6862915,18 39,20.6862915 39,24 C39,27.3137085 41.6862915,30 45,30 Z M71.5,56 C69.0147186,56 67,53.9852814 67,51.5 C67,49.0147186 69.0147186,47 71.5,47 C73.9852814,47 76,49.0147186 76,51.5 C76,53.9852814 73.9852814,56 71.5,56 Z" id="Combined-Shape" fill="#999999"></path>
    </g>
</svg>