<?xml version="1.0" encoding="UTF-8"?>
<svg width="88px" height="88px" viewBox="0 0 88 88" version="1.1" xmlns="http://www.w3.org/2000/svg" xmlns:xlink="http://www.w3.org/1999/xlink">
    <!-- Generator: Sketch 51 (57462) - http://www.bohemiancoding.com/sketch -->
    <title>Room/room_icon_gym_2</title>
    <desc>Created with Sketch.</desc>
    <defs></defs>
    <g id="Room/room_icon_gym_2" stroke="none" stroke-width="1" fill="none" fill-rule="evenodd">
        <path d="M55,52.9467075 L55,55.3264932 L71.6498003,68.2002575 C72.8743955,69.1471247 73.5913715,70.6077983 73.5913715,72.1557617 C73.5913715,74.9171855 71.3527953,77.1557617 68.5913715,77.1557617 L37.2367129,77.1557617 C37.2396996,77.1165219 37.2412202,77.0768722 37.2412202,77.0368674 L37.2412202,73.0986936 L37.2412202,72.8154016 C37.2412202,71.4601653 38.3398562,70.3615293 39.6950925,70.3615293 L52.8932192,70.3615293 C53.6514528,70.3615293 54.2661225,69.7468595 54.2661225,68.988626 C54.2661225,68.2303924 53.6514528,67.6157227 52.8932192,67.6157227 L39.1516239,67.6157227 C36.3902002,67.6157227 34.1516239,69.8542989 34.1516239,72.6157227 L34.1516239,77.0368767 C34.1516239,77.0768783 34.1531443,77.1165249 34.1561305,77.1557617 L18.0003623,77.1557617 C16.3965719,77.1557617 14.8901202,76.386428 13.9498407,75.0871905 C12.3308573,72.8501492 12.8318922,69.7242235 15.0689336,68.1052401 L34,54.4045175 L34,52.7587891 L33.4642596,52.7587891 L20.6726505,59.8492937 C18.4011284,61.108419 15.5389732,60.2877092 14.279848,58.0161871 C13.0207227,55.744665 13.8414325,52.8825098 16.1129546,51.6233845 L25.9150909,46.1899716 C26.0047355,45.9186896 26.117771,45.6546715 26.2534282,45.400988 L32.0066853,34.6421989 C32.876517,33.0155836 34.5712721,32 36.4158546,32 L50.7234766,32 C52.6004149,32 54.3192557,33.0511685 55.1743934,34.7219878 L60.5456954,45.2167598 L73.7498521,51.9446137 C76.0639333,53.123697 76.9840309,55.9554663 75.8049476,58.2695475 C74.6258644,60.5836287 71.7940951,61.5037263 69.4800139,60.324643 L55,52.9467075 Z M43,30 C36.372583,30 31,24.627417 31,18 C31,11.372583 36.372583,6 43,6 C49.627417,6 55,11.372583 55,18 C55,24.627417 49.627417,30 43,30 Z" id="Combined-Shape" fill="#999999" fill-rule="nonzero"></path>
    </g>
</svg>