<?xml version="1.0" encoding="UTF-8"?>
<svg width="88px" height="88px" viewBox="0 0 88 88" version="1.1" xmlns="http://www.w3.org/2000/svg" xmlns:xlink="http://www.w3.org/1999/xlink">
    <!-- Generator: Sketch 51 (57462) - http://www.bohemiancoding.com/sketch -->
    <title>Room/room_icon_bedroom3_s</title>
    <desc>Created with Sketch.</desc>
    <defs>
        <linearGradient x1="112.960737%" y1="-19.1113281%" x2="-16.6566506%" y2="116.977539%" id="linearGradient-1">
            <stop stop-color="#8AADEC" offset="0%"></stop>
            <stop stop-color="#1E50A0" offset="100%"></stop>
        </linearGradient>
    </defs>
    <g id="Room/room_icon_bedroom3_s" stroke="none" stroke-width="1" fill="none" fill-rule="evenodd">
        <path d="M45.1347195,80.7550773 L74.4826658,80.7550773 C75.3782645,80.7550773 76.1051272,81.4808583 76.1051272,82.3775386 C76.1051272,83.274219 75.3782645,84 74.4826658,84 L12.5414179,84 C11.6458192,84 10.9189565,83.274219 10.9189565,82.3775386 C10.9189565,81.4808583 11.6458192,80.7550773 12.5414179,80.7550773 L41.8897968,80.7550773 L41.8897968,50.9269906 L32.9958963,50.9269906 L32.9958963,62.9080024 C32.9958963,63.8046827 32.2690337,64.5304637 31.373435,64.5304637 C30.4778363,64.5304637 29.7509736,63.8046827 29.7509736,62.9080024 L29.7509736,50.9269906 L8.39213521,50.9269906 C7.23586108,50.9269906 6.10013814,50.3915783 5.49333759,49.4072851 C4.94819057,48.5235845 4.86490422,47.4862909 5.19372306,46.5777125 L19.5611592,6.85445034 C20.1809394,5.14113115 21.8077273,4 23.6302923,4 L62.547732,4 C64.3400109,4 65.9473293,5.105437 66.5887424,6.77873548 L81.7555111,46.3819355 C82.1730245,47.4733112 82.0735135,48.738831 81.3542223,49.6603891 C80.7095644,50.4867627 79.7544754,50.9269906 78.7788354,50.9269906 L45.1347195,50.9269906 L45.1347195,80.7550773 Z" id="Combined-Shape" fill="url(#linearGradient-1)"></path>
    </g>
</svg>