<?xml version="1.0" encoding="UTF-8"?>
<svg width="88px" height="88px" viewBox="0 0 88 88" version="1.1" xmlns="http://www.w3.org/2000/svg" xmlns:xlink="http://www.w3.org/1999/xlink">
    <!-- Generator: Sketch 51 (57462) - http://www.bohemiancoding.com/sketch -->
    <title>Room/room_icon_game_2</title>
    <desc>Created with Sketch.</desc>
    <defs></defs>
    <g id="Room/room_icon_game_2" stroke="none" stroke-width="1" fill="none" fill-rule="evenodd">
        <g id="Group-2" transform="translate(6.000000, 14.000000)">
            <path d="M36.167244,16 C35.7976854,13.3551634 36.7220609,11.4120339 38.7555237,10.2760556 C40.2093055,9.46391165 41.849088,9.1458373 44.8335263,8.87602129 C45.0112192,8.85995649 45.1630539,8.84656508 45.4647589,8.82019782 C49.3995453,8.47632043 50.7130775,8.08830638 50.9443156,7.26611518 C51.4310937,5.53532555 46.9537031,3.87859762 36.5666924,3.34443188 C35.7393585,3.30188514 35.1031629,2.59670761 35.1457096,1.76937377 C35.1882564,0.942039934 35.8934339,0.305844288 36.7207677,0.348391024 C49.1807141,0.989160226 55.1996992,3.21631031 53.8322713,8.07834177 C53.3932012,9.63950109 52.1748658,10.5881086 50.3826775,11.1175164 C49.2248607,11.4595326 48.2089055,11.5918102 45.7259459,11.8088064 C45.4271329,11.8349209 45.2774465,11.8481229 45.1036475,11.8638356 C42.5424972,12.0953832 41.1754822,12.3605478 40.218626,12.8950882 C39.2399487,13.4418187 38.8910033,14.2311085 39.1773061,15.8284193 C39.1876019,15.8858607 39.1944802,15.9431238 39.1980863,16 L67,16 C71.418278,16 75,19.581722 75,24 L75,46 C75,50.418278 71.418278,54 67,54 L8,54 C3.581722,54 5.41083001e-16,50.418278 0,46 L0,24 C-5.41083001e-16,19.581722 3.581722,16 8,16 L36.167244,16 Z M17.4411765,32.4411765 L10,32.4411765 C9.17157288,32.4411765 8.5,33.1127493 8.5,33.9411765 C8.5,34.7696036 9.17157288,35.4411765 10,35.4411765 L17.4411765,35.4411765 L17.4411765,43.4411765 C17.4411765,44.2696036 18.1127493,44.9411765 18.9411765,44.9411765 C19.7696036,44.9411765 20.4411765,44.2696036 20.4411765,43.4411765 L20.4411765,35.4411765 L28.4411765,35.4411765 C29.2696036,35.4411765 29.9411765,34.7696036 29.9411765,33.9411765 C29.9411765,33.1127493 29.2696036,32.4411765 28.4411765,32.4411765 L20.4411765,32.4411765 L20.4411765,25 C20.4411765,24.1715729 19.7696036,23.5 18.9411765,23.5 C18.1127493,23.5 17.4411765,24.1715729 17.4411765,25 L17.4411765,32.4411765 Z M58,43.5 C62.6944204,43.5 66.5,39.6944204 66.5,35 C66.5,30.3055796 62.6944204,26.5 58,26.5 C53.3055796,26.5 49.5,30.3055796 49.5,35 C49.5,39.6944204 53.3055796,43.5 58,43.5 Z M58,40.5 C54.9624339,40.5 52.5,38.0375661 52.5,35 C52.5,31.9624339 54.9624339,29.5 58,29.5 C61.0375661,29.5 63.5,31.9624339 63.5,35 C63.5,38.0375661 61.0375661,40.5 58,40.5 Z" id="Combined-Shape" fill="#999999"></path>
            <g id="Group" transform="translate(8.000000, 23.000000)"></g>
        </g>
    </g>
</svg>