<?xml version="1.0" encoding="UTF-8"?>
<svg width="88px" height="88px" viewBox="0 0 88 88" version="1.1" xmlns="http://www.w3.org/2000/svg" xmlns:xlink="http://www.w3.org/1999/xlink">
    <!-- Generator: Sketch 51 (57462) - http://www.bohemiancoding.com/sketch -->
    <title>Room/room_icon_nursery_s</title>
    <desc>Created with Sketch.</desc>
    <defs>
        <linearGradient x1="112.960737%" y1="-19.1113281%" x2="-16.6566506%" y2="116.977539%" id="linearGradient-1">
            <stop stop-color="#8AADEC" offset="0%"></stop>
            <stop stop-color="#1E50A0" offset="100%"></stop>
        </linearGradient>
    </defs>
    <g id="Room/room_icon_nursery_s" stroke="none" stroke-width="1" fill="none" fill-rule="evenodd">
        <path d="M41.3549,64.8596 L43.9999,59.4996 L46.6449,64.8596 L52.5599,65.7186 L48.2799,69.8906 L49.2899,75.7806 L43.9999,72.9996 L38.7099,75.7806 L39.7209,69.8906 L35.4399,65.7186 L41.3549,64.8596 Z M25.5,46.5 C29.09,46.5 32,49.41 32,53 C32,56.59 29.09,59.5 25.5,59.5 C21.91,59.5 19,56.59 19,53 C19,49.41 21.91,46.5 25.5,46.5 Z M79.5,20.5 C80.328,20.5 81,21.172 81,22 C81,22.828 80.328,23.5 79.5,23.5 L64.5,23.5 L64.5,27.082 L64.5,41.02 C64.5,43.02 61.5,43.02 61.5,41.02 L61.5,27.082 L61.5,23.5 L45.5,23.5 L45.5,55.024 C45.5,57.024 42.5,57.024 42.5,55.024 L42.5,23.5 L26.5,23.5 L26.5,27.082 L26.5,41.02 C26.5,43.02 23.5,43.02 23.5,41.02 L23.5,27.082 L23.5,23.5 L9.5,23.5 C8.672,23.5 8,22.828 8,22 C8,21.172 8.672,20.5 9.5,20.5 L42.5,20.5 L42.5,13.5 C42.5,12.672 43.172,12 44,12 C44.828,12 45.5,12.672 45.5,13.5 L45.5,20.5 L79.5,20.5 Z M57,58.5 L63.5,45.5 L70,58.5 L57,58.5 Z" id="Combined-Shape" fill="url(#linearGradient-1)"></path>
    </g>
</svg>