<?xml version="1.0" encoding="UTF-8"?>
<svg width="88px" height="88px" viewBox="0 0 88 88" version="1.1" xmlns="http://www.w3.org/2000/svg" xmlns:xlink="http://www.w3.org/1999/xlink">
    <!-- Generator: Sketch 51 (57462) - http://www.bohemiancoding.com/sketch -->
    <title>Room/room_icon_conservatory_s</title>
    <desc>Created with Sketch.</desc>
    <defs>
        <linearGradient x1="113.245817%" y1="3.31013574%" x2="-8.63797109%" y2="95.6185209%" id="linearGradient-1">
            <stop stop-color="#96D2E9" offset="0%"></stop>
            <stop stop-color="#599AB0" offset="100%"></stop>
        </linearGradient>
    </defs>
    <g id="Room/room_icon_conservatory_s" stroke="none" stroke-width="1" fill="none" fill-rule="evenodd">
        <path d="M42.4944052,64.3443688 C39.776862,64.0299401 37.1289738,63.0738916 35.1251174,61.0687532 C32.6534116,58.5881147 31.3334073,54.4801696 31.7873339,52.1222663 C31.9488632,51.2579478 32.5948882,50.5842633 33.5251461,50.4792503 C36.2465927,50.187054 39.9965351,51.3624141 42.3608378,53.8770142 C42.8408257,54.387008 43.263583,54.9429964 43.6334223,55.5372716 C44.2202075,54.0822771 45.0570282,52.7304673 46.2035657,51.5805046 C48.9274662,48.8468545 53.4533371,47.3823587 56.034712,47.8841422 C56.9263853,48.0577999 57.6157802,48.7218893 57.7175145,49.6736074 C58.0389663,52.6737383 56.7485512,56.8234728 53.9858834,59.4357327 C51.62669,61.6669919 48.419441,62.7692368 45.4277385,63.062805 L45.4277385,72.2344612 C54.3150878,71.8691975 61.4078509,64.5249023 61.4078509,55.5194397 C61.4078509,46.2797974 53.9427384,38.7893519 44.7333333,38.7893519 C35.5239283,38.7893519 28.0588158,46.2797974 28.0588158,55.5194397 C28.0588158,63.9966012 34.3438017,71.0017815 42.4944052,72.099195 L42.4944052,64.3443688 Z M82.5517591,42.3116055 C83.1897749,42.8735535 82.7936803,43.9266917 81.9424459,43.9266917 L75.2670624,43.9266917 L75.2670624,77.7332511 L14.1987842,77.7332511 L14.1987842,43.9266917 L7.52422079,43.9266917 C6.67380645,43.9266917 6.27607168,42.8735535 6.9157276,42.3116055 L22.2322065,28.8371958 L22.2322065,16.0794137 L29.6095713,16.0794137 L29.6095713,22.3472315 L42.2977204,11.1864348 C43.6902022,9.9605161 45.7764645,9.9605161 47.1689462,11.1864348 L82.5517591,42.3116055 Z M54.8320953,50.7131193 C53.0552652,50.7344199 50.086067,51.8398972 48.2811423,53.6512821 C46.641401,55.2959221 45.7937136,57.6836478 45.5156244,60.0999732 C47.8170004,59.8063165 50.2662783,58.9161829 51.9704137,57.3044592 C53.8015776,55.5729895 54.8006833,52.8083309 54.8320953,50.7131193 Z M42.5566257,60.9038337 C42.5483313,60.86173 42.5483313,60.86173 42.5397849,60.8185514 C42.5311098,60.7747227 42.5311098,60.7747227 42.5242016,60.7394932 C42.1341626,58.8259593 41.3847328,57.1198786 40.2242734,55.886874 C38.7556936,54.3249376 36.4287022,53.4490703 34.6311076,53.3730531 C34.7074606,54.9413777 35.6655224,57.455249 37.2014973,58.9967768 C38.6002413,60.3964142 40.6102822,61.1388119 42.6418877,61.4087223 C42.6173264,61.2427535 42.588919,61.0742442 42.5566257,60.9038337 Z" id="Combined-Shape" fill="url(#linearGradient-1)"></path>
    </g>
</svg>