<?xml version="1.0" encoding="UTF-8"?>
<svg width="88px" height="88px" viewBox="0 0 88 88" version="1.1" xmlns="http://www.w3.org/2000/svg" xmlns:xlink="http://www.w3.org/1999/xlink">
    <!-- Generator: Sketch 51 (57462) - http://www.bohemiancoding.com/sketch -->
    <title>Room/room_icon_bedroom2</title>
    <desc>Created with Sketch.</desc>
    <defs></defs>
    <g id="Room/room_icon_bedroom2" stroke="none" stroke-width="1" fill="none" fill-rule="evenodd">
        <path d="M72.2439756,68.6383317 L15.7571512,68.6383317 L15.7571512,72.5893024 C15.7571512,74.2836439 14.378322,75.6624732 12.6839805,75.6624732 L12.0990537,75.6624732 C10.4036878,75.6624732 9.02588293,74.2836439 9.02588293,72.5893024 L9.02588293,68.6383317 L2,68.6383317 L2,50.0528195 C2,44.9697951 6.13546341,40.8333073 11.2195122,40.8333073 L76.7804878,40.8333073 C81.8645366,40.8333073 86,44.9697951 86,50.0528195 L86,68.6383317 L78.9752439,68.6383317 L78.9752439,72.5893024 C78.9752439,74.2836439 77.5964146,75.6624732 75.9020732,75.6624732 L75.3171463,75.6624732 C73.6217805,75.6624732 72.2439756,74.2836439 72.2439756,72.5893024 L72.2439756,68.6383317 Z M69.7570634,12 C74.838039,12 78.9765756,16.1385366 78.9765756,21.2195122 L78.9765756,37.7121951 L67.7492585,37.7121951 L67.7492585,34.1985366 C67.7492585,34.0756098 67.7390146,33.9526829 67.7287707,33.8297561 C67.5853561,31.9960976 66.0385268,30.5414634 64.1638927,30.5414634 L49.8224293,30.5414634 C47.9375512,30.5414634 46.4009659,31.9960976 46.2575512,33.8297561 C46.2473073,33.9526829 46.2370634,34.0756098 46.2370634,34.1985366 L46.2370634,37.7121951 L41.770722,37.7121951 L41.770722,34.1985366 C41.770722,33.6965854 41.6682829,33.2253659 41.4838927,32.784878 C41.4019415,32.5697561 41.2892585,32.364878 41.1560878,32.1804878 C41.0229171,31.9858537 40.8795024,31.8117073 40.7156,31.6478049 C40.6438927,31.5658537 40.5619415,31.4839024 40.4595024,31.4121951 C40.3570634,31.3302439 40.2546244,31.2585366 40.1521854,31.1970732 C40.0497463,31.1253659 39.9370634,31.0639024 39.8243805,31.0126829 C39.7629171,30.9717073 39.7014537,30.9409756 39.6399902,30.9204878 C39.5477951,30.8795122 39.4556,30.8385366 39.3634049,30.8078049 C38.9843805,30.6643902 38.5848683,30.5926829 38.1546244,30.5926829 L23.8643805,30.5926829 C22.9936488,30.5926829 22.1843805,30.9102439 21.5595024,31.4121951 C21.3853561,31.5556098 21.2214537,31.7195122 21.078039,31.8936585 C20.5760878,32.5185366 20.2585268,33.3278049 20.2585268,34.1985366 L20.2585268,37.7121951 L9.02096585,37.7121951 L9.02096585,21.2195122 C9.02096585,16.1385366 13.1595024,12 18.240478,12 L69.7570634,12 Z" id="Combined-Shape" fill="#999999"></path>
    </g>
</svg>