<?xml version="1.0" encoding="UTF-8"?>
<svg width="88px" height="88px" viewBox="0 0 88 88" version="1.1" xmlns="http://www.w3.org/2000/svg" xmlns:xlink="http://www.w3.org/1999/xlink">
    <!-- Generator: Sketch 51 (57462) - http://www.bohemiancoding.com/sketch -->
    <title>Room/room_icon_study2</title>
    <desc>Created with Sketch.</desc>
    <defs></defs>
    <g id="Room/room_icon_study2" stroke="none" stroke-width="1" fill="none" fill-rule="evenodd">
        <g id="Page-1" transform="translate(5.000000, 5.000000)">
            <g id="Group-3" transform="translate(0.000000, 0.885600)"></g>
            <g id="Group-6" transform="translate(53.000000, 0.885600)"></g>
            <g id="Group-9" transform="translate(26.000000, 20.885600)"></g>
        </g>
        <path d="M23.4678499,24.2093203 L10.4802534,24.2093203 C9.58311271,24.2093203 8.85643851,23.4826461 8.85643851,22.5855055 C8.85643851,21.6893389 9.58311271,20.9626647 10.4802534,20.9626647 L23.4678499,20.9626647 C24.3649906,20.9626647 25.0916648,21.6893389 25.0916648,22.5855055 C25.0916648,23.4826461 24.3649906,24.2093203 23.4678499,24.2093203 M23.4678499,63.0123585 L10.4802534,63.0123585 C9.58311271,63.0123585 8.85643851,62.2856843 8.85643851,61.3895177 C8.85643851,60.4923771 9.58311271,59.7657029 10.4802534,59.7657029 L23.4678499,59.7657029 C24.3649906,59.7657029 25.0916648,60.4923771 25.0916648,61.3895177 C25.0916648,62.2856843 24.3649906,63.0123585 23.4678499,63.0123585 M23.4678499,70.4330073 L10.4802534,70.4330073 C9.58311271,70.4330073 8.85643851,69.7063331 8.85643851,68.8091925 C8.85643851,67.9130259 9.58311271,67.1863517 10.4802534,67.1863517 L23.4678499,67.1863517 C24.3649906,67.1863517 25.0916648,67.9130259 25.0916648,68.8091925 C25.0916648,69.7063331 24.3649906,70.4330073 23.4678499,70.4330073 M25.1306285,7 C27.2824024,7 29.0270049,8.74460252 29.0270049,10.8963764 L29.0270049,77.997822 C29.0270049,80.1495959 27.2824024,81.8941984 25.1306285,81.8941984 L8.89637637,81.8941984 C6.74362843,81.8941984 5,80.1495959 5,77.997822 L5,10.8963764 C5,8.74460252 6.74362843,7 8.89637637,7 L25.1306285,7 Z M79.1036236,7 C81.2553975,7 83,8.74460252 83,10.8963764 L83,77.997822 C83,80.1495959 81.2553975,81.8941984 79.1036236,81.8941984 L62.8693715,81.8941984 C60.7166235,81.8941984 58.9729951,80.1495959 58.9729951,77.997822 L58.9729951,10.8963764 C58.9729951,8.74460252 60.7166235,7 62.8693715,7 L79.1036236,7 Z M77.440845,24.2093203 C78.3379857,24.2093203 79.0646599,23.4826461 79.0646599,22.5855055 C79.0646599,21.6893389 78.3379857,20.9626647 77.440845,20.9626647 L64.4532485,20.9626647 C63.5561078,20.9626647 62.8294336,21.6893389 62.8294336,22.5855055 C62.8294336,23.4826461 63.5561078,24.2093203 64.4532485,24.2093203 L77.440845,24.2093203 Z M77.440845,63.0123585 C78.3379857,63.0123585 79.0646599,62.2856843 79.0646599,61.3895177 C79.0646599,60.4923771 78.3379857,59.7657029 77.440845,59.7657029 L64.4532485,59.7657029 C63.5561078,59.7657029 62.8294336,60.4923771 62.8294336,61.3895177 C62.8294336,62.2856843 63.5561078,63.0123585 64.4532485,63.0123585 L77.440845,63.0123585 Z M77.440845,70.4330073 C78.3379857,70.4330073 79.0646599,69.7063331 79.0646599,68.8091925 C79.0646599,67.9130259 78.3379857,67.1863517 77.440845,67.1863517 L64.4532485,67.1863517 C63.5561078,67.1863517 62.8294336,67.9130259 62.8294336,68.8091925 C62.8294336,69.7063331 63.5561078,70.4330073 64.4532485,70.4330073 L77.440845,70.4330073 Z M52.1170287,26.4840249 C54.2688025,26.4840249 56.013405,28.2286274 56.013405,30.3804012 L56.013405,77.9980168 C56.013405,80.1497907 54.2688025,81.8943932 52.1170287,81.8943932 L35.8827765,81.8943932 C33.7300286,81.8943932 31.9864001,80.1497907 31.9864001,77.9980168 L31.9864001,30.3804012 C31.9864001,28.2286274 33.7300286,26.4840249 35.8827765,26.4840249 L52.1170287,26.4840249 Z M50.45425,70.4332021 C51.3513907,70.4332021 52.0780649,69.7065279 52.0780649,68.8093873 C52.0780649,67.9132207 51.3513907,67.1865465 50.45425,67.1865465 L37.4666535,67.1865465 C36.5695129,67.1865465 35.8428387,67.9132207 35.8428387,68.8093873 C35.8428387,69.7065279 36.5695129,70.4332021 37.4666535,70.4332021 L50.45425,70.4332021 Z" id="Combined-Shape" fill="#999999"></path>
    </g>
</svg>