<?xml version="1.0" encoding="UTF-8"?>
<svg width="88px" height="88px" viewBox="0 0 88 88" version="1.1" xmlns="http://www.w3.org/2000/svg" xmlns:xlink="http://www.w3.org/1999/xlink">
    <!-- Generator: Sketch 51 (57462) - http://www.bohemiancoding.com/sketch -->
    <title>Room/room_icon_downstairs_s</title>
    <desc>Created with Sketch.</desc>
    <defs>
        <linearGradient x1="113.245817%" y1="3.31013574%" x2="-8.63797109%" y2="95.6185209%" id="linearGradient-1">
            <stop stop-color="#96D2E9" offset="0%"></stop>
            <stop stop-color="#599AB0" offset="100%"></stop>
        </linearGradient>
    </defs>
    <g id="Room/room_icon_downstairs_s" stroke="none" stroke-width="1" fill="none" fill-rule="evenodd">
        <path d="M61.390032,34.9298987 L84.516432,34.9298987 L84.516432,41.4125653 L67.866832,41.4125653 L67.866832,54.3074987 L49.1058187,54.3074987 L49.1058187,67.202432 L30.338352,67.202432 L30.338352,80.103232 L6.26741867,80.103232 L6.26741867,73.6205653 L23.861552,73.6205653 L23.861552,60.725632 L42.6225653,60.725632 L42.6225653,47.824832 L61.390032,47.824832 L61.390032,34.9298987 Z M21.882784,50.302912 C19.777824,51.4580587 18.8409173,53.062592 18.742944,55.2825387 C18.589824,58.7415253 17.926304,65.5732587 17.6933973,69.029312 C17.665824,69.4405653 17.574304,69.8482987 17.502144,70.3234987 L11.0705173,70.3234987 C11.0247573,70.0489387 10.9297173,69.786112 10.946144,69.530912 C11.2177707,65.328032 11.8460907,57.7447787 12.1916373,53.5477653 C12.4427307,50.4959253 13.925824,48.0542187 16.2853973,46.138752 C17.3390507,45.283392 18.4513707,44.4978453 19.4774507,43.6119787 C19.7713707,43.3585387 20.106944,42.7654187 20.0007573,42.493792 C18.7599573,39.3246187 17.4381973,36.187712 16.073024,32.8847787 C15.7620907,33.2285653 15.5479573,33.4004587 15.4159573,33.6210453 C14.321824,35.453792 12.7530773,36.5602453 10.643424,36.993792 C8.950304,37.3416853 7.294144,37.8638187 5.61451733,38.278592 C3.575264,38.7813653 2.01707733,38.009312 1.57649067,36.312672 C1.12769067,34.5855253 2.070464,33.239712 4.14667733,32.671232 C5.36401067,32.3374187 6.572544,31.900352 7.81451733,31.7413653 C9.49297067,31.525472 10.405824,30.5991253 11.1614507,29.168832 C12.120064,27.356032 13.186624,25.5666987 14.4567573,23.966272 C15.0868373,23.172512 16.2179307,22.6544853 17.2234773,22.301312 C22.949344,20.289632 27.6843307,23.1050453 32.4193173,25.6458987 C33.3626773,26.152192 34.1347307,27.1020053 34.7947307,27.989632 C36.1059307,29.753152 37.3150507,31.5952853 38.5071573,33.443872 C39.491584,34.969792 39.1759573,36.5578987 37.793184,37.5065387 C36.406304,38.4586987 34.8005973,38.1876587 33.736384,36.7145387 C32.5577707,35.084192 31.5129173,33.3564587 30.316704,31.740192 C29.7646507,30.993952 28.9920107,30.4102187 28.3196907,29.753152 C28.1947307,29.841152 28.0703573,29.929152 27.9453973,30.017152 C28.0328107,30.4002453 28.092064,30.7927253 28.2111573,31.1652587 C28.8107307,33.0367253 29.4443307,34.8970453 30.031584,36.772032 C30.939744,39.672512 30.3771307,42.2866987 28.5502507,44.7055253 C28.1859307,45.188352 27.8767573,46.045472 28.0562773,46.5458987 C28.7086507,48.3663253 29.3616107,50.2542187 30.4211307,51.846432 C31.8889707,54.051712 33.724064,56.0129387 35.6817707,58.4229653 C34.6985173,58.4229653 34.039104,58.4229653 33.3796907,58.4229653 C32.865184,58.4229653 32.379424,58.3860053 31.8379307,58.437632 C26.759744,58.3948053 24.8108373,56.3056853 22.9399573,52.733472 C22.840224,52.543392 22.750464,52.3474453 22.669504,52.1485653 C22.398464,51.4885653 22.2077973,51.056192 21.882784,50.302912 Z M10.9478453,14.2784107 C11.0792587,10.536064 13.914032,7.81217067 17.5613387,7.92305067 C21.165232,8.03275733 24.0492853,10.998944 23.8908853,14.432704 C23.726032,18.017824 20.732272,20.907744 17.3331253,20.7628373 C13.6670453,20.606784 10.826992,17.7227307 10.9478453,14.2784107 Z" id="Combined-Shape" fill="url(#linearGradient-1)" transform="translate(42.991629, 44.011508) scale(-1, 1) translate(-42.991629, -44.011508) "></path>
    </g>
</svg>