<?xml version="1.0" encoding="UTF-8"?>
<svg width="88px" height="88px" viewBox="0 0 88 88" version="1.1" xmlns="http://www.w3.org/2000/svg" xmlns:xlink="http://www.w3.org/1999/xlink">
    <!-- Generator: Sketch 51 (57462) - http://www.bohemiancoding.com/sketch -->
    <title>Room/room_icon_upstairs_s</title>
    <desc>Created with Sketch.</desc>
    <defs>
        <linearGradient x1="113.245817%" y1="3.31013574%" x2="-8.63797109%" y2="95.6185209%" id="linearGradient-1">
            <stop stop-color="#96D2E9" offset="0%"></stop>
            <stop stop-color="#599AB0" offset="100%"></stop>
        </linearGradient>
    </defs>
    <g id="Room/room_icon_upstairs_s" stroke="none" stroke-width="1" fill="none" fill-rule="evenodd">
        <path d="M9.61893452,70.0271545 C11.3965128,62.8116684 14.5055419,51.670016 16.2125464,44.7406679 C15.4236318,44.2570189 14.6649632,43.9253015 14.0739074,43.4036696 C12.4563804,41.9748793 11.8697355,40.1396718 12.3139725,38.0170604 C12.7582096,35.8963482 13.2572674,33.7863978 13.7260792,31.6707499 C13.8199676,31.2453414 13.8880209,30.8148684 13.9680466,30.3869277 C13.8502135,30.3134941 13.7323804,30.2400604 13.6139172,30.1672599 C13.0455459,30.8686775 12.3763548,31.5105887 11.9302274,32.2835408 C11.0064664,33.8845203 10.3063992,35.6241374 9.30450291,37.1694086 C8.78150044,37.9759123 7.90058785,38.6792291 7.023456,39.0881784 C5.96484859,39.5813231 4.89174835,39.1394553 4.10724464,38.2525545 C3.34479526,37.3909755 3.19167526,36.3426473 3.69388365,35.3405317 C4.90750143,32.9203875 6.15892662,30.5160696 7.50487032,28.169359 C7.93965551,27.4116001 8.61325748,26.6740986 9.35680316,26.2328639 C12.0241158,24.6508758 14.628416,22.7454001 17.5282441,21.8464713 C19.7563607,21.1564485 22.4513987,21.5020929 24.8250738,21.9692827 C26.0292397,22.2066758 27.0809158,23.6417966 28.0229503,24.6970884 C29.0695854,25.868861 29.9530185,27.1963636 30.8288901,28.509306 C31.4237266,29.4006382 32.1263143,29.8994804 33.2277701,30.0007681 C34.8824743,30.1539659 36.5289869,30.4287089 38.1660476,30.7249755 C39.8113,31.0225083 40.7886214,32.3943243 40.5529553,33.9414946 C40.3147686,35.5038582 38.979537,36.5971328 37.3607498,36.3844285 C35.1761118,36.0976576 32.9309819,35.9261015 30.8572456,35.2519049 C29.1867883,34.7093824 27.7324634,33.4945624 26.0758688,32.5158696 C25.5383735,34.7226764 24.9277839,37.2282821 24.2882086,39.8516348 C25.5642086,40.2124724 26.7286767,40.5138035 27.8761316,40.8708428 C30.3562975,41.6425288 32.063932,43.2903539 32.5459765,45.8390069 C33.2164279,49.3866103 33.3758491,52.3689015 33.8900298,55.9462582 C33.9196456,56.1538981 33.8522224,56.375465 33.8137849,56.7420001 C31.84906,56.7420001 29.9227725,56.7907448 28.0034165,56.6926223 C27.6927656,56.676163 27.2233237,56.0386832 27.1546402,55.6322661 C26.7683745,53.3608884 26.7374985,51.6864753 26.4192861,49.4037026 C26.0720881,46.9164553 26.5182155,47.3292029 23.93786,46.6714656 C23.555375,46.5739761 23.1596575,46.5277636 22.6599696,46.4378707 C21.7122639,50.2399596 20.7815716,53.9540548 19.8615913,57.6706821 C19.2762066,60.0370171 17.2799755,66.583371 16.7531923,68.9636331 C16.5723469,69.7821647 16.2100259,70.0676696 15.3826738,70.0436137 C13.5471241,69.9904377 11.7084239,70.0271545 9.61893452,70.0271545 Z M28.8918276,13.766431 C28.878595,17.2500965 25.9756162,20.1045119 22.4563767,20.0937501 C18.997629,20.0836213 16.0978009,17.1456435 16.108513,13.661978 C16.118595,10.2156623 19.0732439,7.31819965 22.5616073,7.33339281 C26.0499708,7.34858598 28.9050601,10.25048 28.8918276,13.766431 Z M86.9785699,31.8204026 L86.9785699,38.8155877 L69.0956662,38.8155877 L69.0956662,52.7299923 L48.944318,52.7299923 L48.944318,66.6443969 L28.7866686,66.6443969 L28.7866686,80.565765 L2.93333333,80.565765 L2.93333333,73.5705798 L21.8301057,73.5705798 L21.8301057,59.6555422 L41.9814538,59.6555422 L41.9814538,45.7348071 L62.1391032,45.7348071 L62.1391032,31.8204026 L86.9785699,31.8204026 Z" id="Combined-Shape" fill="url(#linearGradient-1)"></path>
    </g>
</svg>