<?xml version="1.0" encoding="UTF-8"?>
<svg width="88px" height="88px" viewBox="0 0 88 88" version="1.1" xmlns="http://www.w3.org/2000/svg" xmlns:xlink="http://www.w3.org/1999/xlink">
    <!-- Generator: Sketch 51 (57462) - http://www.bohemiancoding.com/sketch -->
    <title>Scene/scene_icon_at_home</title>
    <desc>Created with Sketch.</desc>
    <defs>
        <linearGradient x1="112.960737%" y1="-19.1113281%" x2="-16.6566506%" y2="116.977539%" id="linearGradient-1">
            <stop stop-color="#8AADEC" offset="0%"></stop>
            <stop stop-color="#1E50A0" offset="100%"></stop>
        </linearGradient>
    </defs>
    <g id="Scene/scene_icon_at_home" stroke="none" stroke-width="1" fill="none" fill-rule="evenodd">
        <path d="M59.7557915,74.682112 C59.5888168,74.8562845 59.3571582,74.9553826 59.1149697,74.9553826 L28.8850303,74.9553826 C28.6428418,74.9553826 28.4111832,74.8562845 28.2442085,74.682112 C28.0757296,74.5079396 27.9869773,74.2737077 27.9960029,74.0304669 C28.1990802,69.0665525 30.9007607,64.8083368 34.8615206,62.4104628 C37.1946534,64.7647936 40.4288477,66.2272415 44,66.2272415 C47.5711523,66.2272415 50.8038424,64.7647936 53.1384794,62.4104628 C57.0992393,64.8083368 59.7994155,69.0665525 60.0024928,74.0304669 C60.0130227,74.2737077 59.9242704,74.5079396 59.7557915,74.682112 M44,36.4272388 C51.0926634,36.4272388 56.8645721,42.1869411 56.8645721,49.2679514 C56.8645721,56.3474603 51.0926634,62.108664 44,62.108664 C36.9058323,62.108664 31.1354279,56.3474603 31.1354279,49.2679514 C31.1354279,42.1869411 36.9058323,36.4272388 44,36.4272388 M73.9907594,25.7726906 L51.3619289,7.57467411 C47.0942966,4.14077447 40.8936691,4.14227596 36.6245326,7.5761756 L14.0047277,25.7726906 C10.8246873,28.3312236 9,32.1585127 9,36.2695827 L9,75.4854073 C9,79.6715517 12.3725878,83.0769231 16.5168694,83.0769231 L71.4816263,83.0769231 C75.6274122,83.0769231 79,79.6715517 79,75.4854073 L79,36.2710842 C79,32.1585127 77.1738084,28.3312236 73.9907594,25.7726906" id="Fill-1" fill="url(#linearGradient-1)"></path>
    </g>
</svg>