<?xml version="1.0" encoding="UTF-8"?>
<svg width="88px" height="88px" viewBox="0 0 88 88" version="1.1" xmlns="http://www.w3.org/2000/svg" xmlns:xlink="http://www.w3.org/1999/xlink">
    <!-- Generator: Sketch 51 (57462) - http://www.bohemiancoding.com/sketch -->
    <title>Scene/scene_icon_watch_movie_white</title>
    <desc>Created with Sketch.</desc>
    <defs></defs>
    <g id="Scene/scene_icon_watch_movie_white" stroke="none" stroke-width="1" fill="none" fill-rule="evenodd">
        <path d="M64.5054418,51.6023942 C60.2164681,51.6023942 56.7383761,48.1243022 56.7383761,43.8353285 C56.7383761,39.5463548 60.2164681,36.0682628 64.5054418,36.0682628 C68.7944155,36.0682628 72.2725075,39.5463548 72.2725075,43.8353285 C72.2725075,48.1243022 68.7944155,51.6023942 64.5054418,51.6023942 M42.8353285,29.9322809 C38.5448014,29.9322809 35.0682628,26.4541889 35.0682628,22.1652152 C35.0682628,17.8746881 38.5448014,14.3981495 42.8353285,14.3981495 C47.1243022,14.3981495 50.6023942,17.8746881 50.6023942,22.1652152 C50.6023942,26.4541889 47.1243022,29.9322809 42.8353285,29.9322809 M38.1750891,43.3801784 C38.1750891,40.8061729 40.2613229,38.719939 42.8353285,38.719939 C45.4093341,38.719939 47.4955679,40.8061729 47.4955679,43.3801784 C47.4955679,45.954184 45.4093341,48.0404179 42.8353285,48.0404179 C40.2613229,48.0404179 38.1750891,45.954184 38.1750891,43.3801784 M42.8353285,73.2725075 C38.5448014,73.2725075 35.0682628,69.7959689 35.0682628,65.5054418 C35.0682628,61.2164681 38.5448014,57.7383761 42.8353285,57.7383761 C47.1243022,57.7383761 50.6023942,61.2164681 50.6023942,65.5054418 C50.6023942,69.7959689 47.1243022,73.2725075 42.8353285,73.2725075 M21.1652152,51.6023942 C16.8746881,51.6023942 13.3981495,48.1243022 13.3981495,43.8353285 C13.3981495,39.5463548 16.8746881,36.0682628 21.1652152,36.0682628 C25.4541889,36.0682628 28.9322809,39.5463548 28.9322809,43.8353285 C28.9322809,48.1243022 25.4541889,51.6023942 21.1652152,51.6023942 M61.4195196,77.9436208 L81.90947,77.9436208 C83.0634425,77.9436208 84,78.985961 84,80.2737405 C84,81.56152 83.0634425,82.6038602 81.90947,82.6038602 L45.1321565,82.6038602 C44.3722081,82.648185 43.6063923,82.670657 42.8353285,82.670657 C21.3873533,82.670657 4,65.2833037 4,43.8353285 C4,22.3873533 21.3873533,5 42.8353285,5 C64.2833037,5 81.670657,22.3873533 81.670657,43.8353285 C81.670657,58.5511345 73.4854628,71.3553799 61.4195169,77.9436223 Z" id="Combined-Shape" fill="#999999"></path>
    </g>
</svg>