<?xml version="1.0" encoding="UTF-8"?>
<svg width="88px" height="88px" viewBox="0 0 88 88" version="1.1" xmlns="http://www.w3.org/2000/svg" xmlns:xlink="http://www.w3.org/1999/xlink">
    <!-- Generator: Sketch 51 (57462) - http://www.bohemiancoding.com/sketch -->
    <title>Scene/scene_icon_reading_book</title>
    <desc>Created with Sketch.</desc>
    <defs>
        <linearGradient x1="112.960737%" y1="-19.1113281%" x2="-16.6566506%" y2="116.977539%" id="linearGradient-1">
            <stop stop-color="#8AADEC" offset="0%"></stop>
            <stop stop-color="#1E50A0" offset="100%"></stop>
        </linearGradient>
    </defs>
    <g id="Scene/scene_icon_reading_book" stroke="none" stroke-width="1" fill="none" fill-rule="evenodd">
        <g id="Page-1" transform="translate(4.000000, 8.000000)" fill="url(#linearGradient-1)">
            <path d="M33.3980575,38.9729195 L9.7513908,38.9729195 C8.3713908,38.9729195 7.2513908,37.8545862 7.2513908,36.4729195 C7.2513908,35.0912529 8.3713908,33.9729195 9.7513908,33.9729195 L33.3980575,33.9729195 C34.7780575,33.9729195 35.8980575,35.0912529 35.8980575,36.4729195 C35.8980575,37.8545862 34.7780575,38.9729195 33.3980575,38.9729195 M9.7513908,20.4679195 L28.3980575,20.4679195 C29.7780575,20.4679195 30.8980575,21.5879195 30.8980575,22.9679195 C30.8980575,24.3495862 29.7780575,25.4679195 28.3980575,25.4679195 L9.7513908,25.4679195 C8.3713908,25.4679195 7.2513908,24.3495862 7.2513908,22.9679195 C7.2513908,21.5879195 8.3713908,20.4679195 9.7513908,20.4679195 M76.6663908,-0.000413793103 L48.5713908,-0.000413793103 C44.9163908,-0.000413793103 41.7447241,2.09458621 39.9997241,5.17958621 C38.2547241,2.09458621 35.0830575,-0.000413793103 31.4280575,-0.000413793103 L3.33305747,-0.000413793103 C1.49305747,-0.000413793103 -0.000275862069,1.49291954 -0.000275862069,3.33291954 L-0.000275862069,62.7129195 C-0.000275862069,64.5529195 1.49305747,66.0462529 3.33305747,66.0462529 L33.9297241,66.0462529 C34.5797241,68.9429195 37.0480575,71.1112529 39.9997241,71.1112529 C42.9513908,71.1112529 45.4197241,68.9429195 46.0713908,66.0462529 L76.6663908,66.0462529 C78.5080575,66.0462529 79.9997241,64.5529195 79.9997241,62.7129195 L79.9997241,3.33291954 C79.9997241,1.49291954 78.5080575,-0.000413793103 76.6663908,-0.000413793103" id="Combined-Shape"></path>
        </g>
    </g>
</svg>