<?xml version="1.0" encoding="UTF-8"?>
<svg width="88px" height="88px" viewBox="0 0 88 88" version="1.1" xmlns="http://www.w3.org/2000/svg" xmlns:xlink="http://www.w3.org/1999/xlink">
    <!-- Generator: Sketch 51 (57462) - http://www.bohemiancoding.com/sketch -->
    <title>Scene/scene_icon_good_morning_white</title>
    <desc>Created with Sketch.</desc>
    <defs></defs>
    <g id="Scene/scene_icon_good_morning_white" stroke="none" stroke-width="1" fill="none" fill-rule="evenodd">
        <path d="M8.42255488,63.0419254 C9.5811236,44.4246279 25.0966196,29.6317559 44.0005966,29.6317559 C62.9045736,29.6317559 78.4200696,44.4246279 79.5786383,63.0419254 L85.7627119,63.0419254 C86.9976949,63.0419254 88,64.042739 88,65.2792136 C88,66.5156881 86.9976949,67.5165017 85.7627119,67.5165017 L2.23728814,67.5165017 C1.00230508,67.5165017 0,66.5156881 0,65.2792136 C0,64.042739 1.00230508,63.0419254 2.23728814,63.0419254 L8.42255488,63.0419254 Z M66.6219661,78.3919593 L21.3795254,78.3919593 C20.1445424,78.3919593 19.1422373,77.3911458 19.1422373,76.1546712 C19.1422373,74.9181966 20.1445424,73.9173831 21.3795254,73.9173831 L66.6219661,73.9173831 C67.8569492,73.9173831 68.8592542,74.9181966 68.8592542,76.1546712 C68.8592542,77.3911458 67.8569492,78.3919593 66.6219661,78.3919593 Z M44,23.8682034 C42.7650169,23.8682034 41.7627119,22.8673898 41.7627119,21.6309153 L41.7627119,12.2372881 C41.7627119,11.0023051 42.7650169,10 44,10 C45.2349831,10 46.2372881,11.0023051 46.2372881,12.2372881 L46.2372881,21.6309153 C46.2372881,22.8673898 45.2349831,23.8682034 44,23.8682034 Z M68.8549288,26.723878 C68.2821831,26.723878 67.7094373,26.5061153 67.2724203,26.0690983 C66.399878,25.1950644 66.399878,23.7781153 67.2724203,22.9040814 L72.5285559,17.6494373 C73.4025898,16.7754034 74.8180475,16.7754034 75.6920814,17.6494373 C76.5661153,18.5219797 76.5661153,19.9404203 75.6920814,20.8129627 L70.4374373,26.0690983 C70.0004203,26.5061153 69.4276746,26.723878 68.8549288,26.723878 Z M19.1465627,26.723878 C18.5738169,26.723878 18.0010712,26.5061153 17.5640542,26.0690983 L12.3094102,20.8129627 C11.4353763,19.9404203 11.4353763,18.5219797 12.3094102,17.6494373 C13.1834441,16.7754034 14.5989017,16.7754034 15.4729356,17.6494373 L20.7290712,22.9040814 C21.6016136,23.7781153 21.6016136,25.1950644 20.7290712,26.0690983 C20.2920542,26.5061153 19.7193085,26.723878 19.1465627,26.723878 Z" id="Combined-Shape" fill="#999999"></path>
    </g>
</svg>