<?xml version="1.0" encoding="UTF-8"?>
<svg width="88px" height="88px" viewBox="0 0 88 88" version="1.1" xmlns="http://www.w3.org/2000/svg" xmlns:xlink="http://www.w3.org/1999/xlink">
    <!-- Generator: Sketch 51 (57462) - http://www.bohemiancoding.com/sketch -->
    <title>Scene/scene_icon_movie2_white</title>
    <desc>Created with Sketch.</desc>
    <defs></defs>
    <g id="Scene/scene_icon_movie2_white" stroke="none" stroke-width="1" fill="none" fill-rule="evenodd">
        <path d="M8,4 L80,4 C82.209139,4 84,5.790861 84,8 L84,80 C84,82.209139 82.209139,84 80,84 L8,84 C5.790861,84 4,82.209139 4,80 L4,8 C4,5.790861 5.790861,4 8,4 Z M69.0909091,14.9090909 L76.3636364,14.9090909 L76.3636364,9.45454545 L69.0909091,9.45454545 L69.0909091,14.9090909 Z M69.0909091,24 L76.3636364,24 L76.3636364,18.5454545 L69.0909091,18.5454545 L69.0909091,24 Z M69.0909091,33.0909091 L76.3636364,33.0909091 L76.3636364,27.6363636 L69.0909091,27.6363636 L69.0909091,33.0909091 Z M69.0909091,42.1818182 L76.3636364,42.1818182 L76.3636364,36.7272727 L69.0909091,36.7272727 L69.0909091,42.1818182 Z M69.0909091,51.2727273 L76.3636364,51.2727273 L76.3636364,45.8181818 L69.0909091,45.8181818 L69.0909091,51.2727273 Z M69.0909091,60.3636364 L76.3636364,60.3636364 L76.3636364,54.9090909 L69.0909091,54.9090909 L69.0909091,60.3636364 Z M69.0909091,69.4545455 L76.3636364,69.4545455 L76.3636364,64 L69.0909091,64 L69.0909091,69.4545455 Z M69.0909091,78.5454545 L76.3636364,78.5454545 L76.3636364,73.0909091 L69.0909091,73.0909091 L69.0909091,78.5454545 Z M32.2636364,54.4036364 C32.2636364,55.8018182 33.7781818,56.6781818 34.9909091,55.9781818 L53.0090909,45.5745455 C54.2218182,44.8745455 54.2218182,43.1254545 53.0090909,42.4254545 L34.9909091,32.0218182 C33.7781818,31.3218182 32.2636364,32.1981818 32.2636364,33.5963636 L32.2636364,54.4036364 Z M11.6363636,14.9090909 L18.9090909,14.9090909 L18.9090909,9.45454545 L11.6363636,9.45454545 L11.6363636,14.9090909 Z M11.6363636,24 L18.9090909,24 L18.9090909,18.5454545 L11.6363636,18.5454545 L11.6363636,24 Z M11.6363636,33.0909091 L18.9090909,33.0909091 L18.9090909,27.6363636 L11.6363636,27.6363636 L11.6363636,33.0909091 Z M11.6363636,42.1818182 L18.9090909,42.1818182 L18.9090909,36.7272727 L11.6363636,36.7272727 L11.6363636,42.1818182 Z M11.6363636,51.2727273 L18.9090909,51.2727273 L18.9090909,45.8181818 L11.6363636,45.8181818 L11.6363636,51.2727273 Z M11.6363636,60.3636364 L18.9090909,60.3636364 L18.9090909,54.9090909 L11.6363636,54.9090909 L11.6363636,60.3636364 Z M11.6363636,69.4545455 L18.9090909,69.4545455 L18.9090909,64 L11.6363636,64 L11.6363636,69.4545455 Z M11.6363636,78.5454545 L18.9090909,78.5454545 L18.9090909,73.0909091 L11.6363636,73.0909091 L11.6363636,78.5454545 Z" id="Combined-Shape" fill="#999999"></path>
    </g>
</svg>