<?xml version="1.0" encoding="UTF-8"?>
<svg width="88px" height="88px" viewBox="0 0 88 88" version="1.1" xmlns="http://www.w3.org/2000/svg" xmlns:xlink="http://www.w3.org/1999/xlink">
    <!-- Generator: Sketch 51 (57462) - http://www.bohemiancoding.com/sketch -->
    <title>Scene/scene_icon_reading_book2</title>
    <desc>Created with Sketch.</desc>
    <defs>
        <linearGradient x1="112.960737%" y1="-19.1113281%" x2="-16.6566506%" y2="116.977539%" id="linearGradient-1">
            <stop stop-color="#8AADEC" offset="0%"></stop>
            <stop stop-color="#1E50A0" offset="100%"></stop>
        </linearGradient>
    </defs>
    <g id="Scene/scene_icon_reading_book2" stroke="none" stroke-width="1" fill="none" fill-rule="evenodd">
        <path d="M45.2150261,87.9186 L45.1684,87.9994 L45.0282861,87.9186 L15.0008,87.9186 C13.3428,87.9186 12.0008,86.5746 12.0008,84.9186 L12.0008,84.5086 C12.0008,82.8506 13.3428,81.5086 15.0008,81.5086 L41.5089882,81.5086 L68.1824,35.2834 C71.6444,29.2994 69.5924,21.6294 63.6084,18.1674 L54.7404,13.0394 C54.8264,13.9354 54.8484,14.8334 54.8044,15.7534 C54.5264,22.6974 37.4324,43.1054 37.4324,43.1054 L12.6024,13.2954 C14.8664,10.9874 26.0004,4.4054 35.0604,1.4574 C38.8644,0.2174 42.3264,-0.3806 44.5904,0.2594 C45.3604,0.4734 46.0864,0.7314 46.7704,1.0294 C47.7524,1.4574 48.6284,1.9694 49.4204,2.5674 L66.8144,12.6114 C75.8524,17.8474 78.9524,29.4494 73.7384,38.4894 L48.9139495,81.5086 L60.2848,81.5086 C61.9408,81.5086 63.2848,82.8506 63.2848,84.5086 L63.2848,84.9186 C63.2848,86.5746 61.9408,87.9186 60.2848,87.9186 L45.2150261,87.9186 Z M14.71,29.036 C15.102,28.706 15.562,28.456 16.044,28.33 L20.29,33.358 C20.084,33.81 19.762,34.222 19.37,34.554 C17.852,35.836 15.564,35.644 14.282,34.126 C12.998,32.606 13.192,30.318 14.71,29.036 Z" id="Combined-Shape" fill="url(#linearGradient-1)"></path>
    </g>
</svg>