<?xml version="1.0" encoding="UTF-8"?>
<svg width="88px" height="88px" viewBox="0 0 88 88" version="1.1" xmlns="http://www.w3.org/2000/svg" xmlns:xlink="http://www.w3.org/1999/xlink">
    <!-- Generator: Sketch 51 (57462) - http://www.bohemiancoding.com/sketch -->
    <title>Scene/scene_icon_go_away_white</title>
    <desc>Created with Sketch.</desc>
    <defs></defs>
    <g id="Scene/scene_icon_go_away_white" stroke="none" stroke-width="1" fill="none" fill-rule="evenodd">
        <path d="M66.96408,82.1887941 L54.8955059,82.1887941 C53.8545914,82.1887941 53.0097912,81.343994 53.0097912,80.3030794 C53.0097912,79.2621649 53.8545914,78.4173647 54.8955059,78.4173647 L66.96408,78.4173647 C67.4405373,78.4173647 67.8277374,78.0289075 67.8277374,77.5524502 L67.8277374,10.4448923 C67.8277374,9.96843507 67.4405373,9.57997784 66.96408,9.57997784 L54.8955059,9.57997784 C53.8545914,9.57997784 53.0097912,8.73517765 53.0097912,7.69426313 C53.0097912,6.65334861 53.8545914,5.80854842 54.8955059,5.80854842 L66.96408,5.80854842 C69.519852,5.80854842 71.6004239,7.88786317 71.6004239,10.4448923 L71.6004239,77.5524502 C71.6004239,80.1094794 69.519852,82.1887941 66.96408,82.1887941 Z M43.9211491,0.133678571 C46.2217211,-0.504950143 48.4984073,1.22487882 48.4984073,3.61345078 L48.4984073,84.3861546 C48.4984073,86.7747266 46.2217211,88.5058127 43.9211491,87.8659268 L18.643772,80.8435253 C17.0811431,80.4098109 16,78.9867249 16,77.3650102 L16,10.6345952 C16,9.01288057 17.0811431,7.58979453 18.643772,7.15608015 L43.9211491,0.133678571 Z M41.9537201,48.5626037 C43.542749,48.5626037 44.8313208,46.5197461 44.8313208,43.9991741 C44.8313208,41.4786021 43.542749,39.4344874 41.9537201,39.4344874 C40.3646912,39.4344874 39.0761195,41.4786021 39.0761195,43.9991741 C39.0761195,46.5197461 40.3646912,48.5626037 41.9537201,48.5626037 Z" id="Combined-Shape" fill="#999999"></path>
    </g>
</svg>