<?xml version="1.0" encoding="UTF-8"?>
<svg width="88px" height="88px" viewBox="0 0 88 88" version="1.1" xmlns="http://www.w3.org/2000/svg" xmlns:xlink="http://www.w3.org/1999/xlink">
    <!-- Generator: Sketch 51 (57462) - http://www.bohemiancoding.com/sketch -->
    <title>Scene/scene_icon_good_morning2_white</title>
    <desc>Created with Sketch.</desc>
    <defs></defs>
    <g id="Scene/scene_icon_good_morning2_white" stroke="none" stroke-width="1" fill="none" fill-rule="evenodd">
        <path d="M30.3943662,18.5915493 L27.4366197,18.5915493 C26.3320502,18.5915493 25.4366197,17.6961188 25.4366197,16.5915493 L25.4366197,2 C25.4366197,0.8954305 26.3320502,2.02906125e-16 27.4366197,0 L30.3943662,0 L32.3521127,0 C34.0089669,-3.04359188e-16 35.3521127,1.34314575 35.3521127,3 L35.3521127,28.5070423 L45.2676056,28.5070423 L45.2676056,13.915493 C45.2676056,11.706354 47.0584666,9.91549296 49.2676056,9.91549296 L56.1408451,9.91549296 C58.3499841,9.91549296 60.1408451,11.706354 60.1408451,13.915493 L60.1408451,28.5070423 L62.056338,28.5070423 C66.474616,28.5070423 70.056338,32.0887643 70.056338,36.5070423 L70.056338,76 C70.056338,82.627417 64.683755,88 58.056338,88 L30,88 C23.372583,88 18,82.627417 18,76 L18,36.5070423 C18,32.0887643 21.581722,28.5070423 26,28.5070423 L30.3943662,28.5070423 L30.3943662,18.5915493 Z M50.9859155,0 L54.4225352,0 C55.5271047,-2.02906125e-16 56.4225352,0.8954305 56.4225352,2 L56.4225352,5.43661972 C56.4225352,6.54118922 55.5271047,7.43661972 54.4225352,7.43661972 L50.9859155,7.43661972 C49.881346,7.43661972 48.9859155,6.54118922 48.9859155,5.43661972 L48.9859155,2 C48.9859155,0.8954305 49.881346,2.02906125e-16 50.9859155,0 Z" id="Combined-Shape" fill="#999999"></path>
    </g>
</svg>