<?xml version="1.0" encoding="UTF-8"?>
<svg width="88px" height="88px" viewBox="0 0 88 88" version="1.1" xmlns="http://www.w3.org/2000/svg" xmlns:xlink="http://www.w3.org/1999/xlink">
    <!-- Generator: Sketch 51 (57462) - http://www.bohemiancoding.com/sketch -->
    <title>Scene/scene_icon_coffee</title>
    <desc>Created with Sketch.</desc>
    <defs>
        <linearGradient x1="112.960737%" y1="-19.1113281%" x2="-16.6566506%" y2="116.977539%" id="linearGradient-1">
            <stop stop-color="#8AADEC" offset="0%"></stop>
            <stop stop-color="#1E50A0" offset="100%"></stop>
        </linearGradient>
    </defs>
    <g id="Scene/scene_icon_coffee" stroke="none" stroke-width="1" fill="none" fill-rule="evenodd">
        <g id="咖啡" transform="translate(0.733333, 0.733333)">
            <rect id="Rectangle-path" fill="#000000" fill-rule="nonzero" opacity="0" x="0" y="0" width="86.5333333" height="86.5333333"></rect>
            <path d="M82.3797333,44.5770286 C81.4402286,43.1924953 79.4870476,41.5112762 75.4817904,41.5112762 L70.8089904,41.5112762 C70.8831619,38.544419 70.6853714,36.5912381 70.6853714,36.5912381 L5.88426667,36.5912381 C5.88426667,36.5912381 4.54918096,49.0273143 10.0873143,58.793219 C13.5733714,64.8752762 15.6748953,66.6306667 18.6664762,69.6469714 C23.6854096,74.6906286 29.718019,74.6906286 29.718019,74.6906286 L46.728,74.6906286 C46.728,74.6906286 52.7606096,74.6906286 57.7053714,69.7953143 C58.8426667,68.6332953 59.9057904,67.6690667 60.9441904,66.5317714 C78.003619,65.5922667 82.3302857,53.6753904 82.8494857,52.0930667 C83.1708953,51.2277333 84.3576381,47.5438857 82.3797333,44.5770286 Z M77.4349714,50.0409904 L77.3360762,50.3376762 C77.3113524,50.4118476 75.1851047,57.507581 65.7900571,59.9799619 C66.0125714,59.6091047 66.2350857,59.2135238 66.4823238,58.793219 C68.5838476,55.0599238 69.696419,50.9557714 70.2650667,47.2966476 L75.4817904,47.2966476 C76.8663238,47.2966476 77.4596953,47.6180571 77.5833143,47.7911238 C77.8552762,48.1867047 77.7069333,49.324 77.4349714,50.0409904 Z M72.3344496,78.9455962 L4.38105904,78.9455962 C0.291740964,83.3711581 26.9712038,86.1896724 26.9712038,86.1896724 L49.73936,86.1896724 C49.73936,86.1896724 75.6227162,83.4749981 72.3344496,78.9455962 Z M44.3297904,31.3003429 C44.4039619,31.547581 43.5880762,31.8442667 43.3161143,31.7453714 C35.1325333,26.602819 37.1104381,19.4329143 42.450781,14.1914667 C46.5302096,10.2109333 49.5712381,8.20830474 49.5959619,1.90373333 C49.5712381,1.3350857 50.8074286,1.2609143 51.005219,1.50815237 C61.0678096,15.7737904 38.5196953,16.5155047 44.3297904,31.3003429 Z M29.5696762,31.3003429 C29.6685714,31.547581 28.8526857,31.8442667 28.5807238,31.7453714 C20.3971429,26.602819 22.3503238,19.4329143 27.7153904,14.1914667 C31.7700953,10.2109333 34.8111238,8.20830474 34.8358476,1.90373333 C34.8358476,1.3350857 36.0720381,1.2609143 36.2698286,1.50815237 C46.332419,15.7737904 23.759581,16.5155047 29.5696762,31.3003429 Z" id="Shape" fill="url(#linearGradient-1)"></path>
        </g>
    </g>
</svg>