<?xml version="1.0" encoding="UTF-8"?>
<svg width="88px" height="88px" viewBox="0 0 88 88" version="1.1" xmlns="http://www.w3.org/2000/svg" xmlns:xlink="http://www.w3.org/1999/xlink">
    <!-- Generator: Sketch 51 (57462) - http://www.bohemiancoding.com/sketch -->
    <title>Scene/scene_icon_good_night2</title>
    <desc>Created with Sketch.</desc>
    <defs>
        <linearGradient x1="112.960737%" y1="-19.1113281%" x2="-16.6566506%" y2="116.977539%" id="linearGradient-1">
            <stop stop-color="#8AADEC" offset="0%"></stop>
            <stop stop-color="#1E50A0" offset="100%"></stop>
        </linearGradient>
    </defs>
    <g id="Scene/scene_icon_good_night2" stroke="none" stroke-width="1" fill="none" fill-rule="evenodd">
        <g id="Page-1" transform="translate(28.000000, 22.000000)">
            <g id="Group-5" transform="translate(14.000000, 0.344800)"></g>
        </g>
        <path d="M0.235392345,81.4175227 L28.1429719,33.0809607 C28.8100853,31.9253598 30.4796917,31.9253598 31.1486278,33.0809607 L59.0543847,81.4175227 C59.7233208,82.5749463 58.8885176,84.0203588 57.552468,84.0203588 L1.73913169,84.0203588 C0.403082065,84.0203588 -0.433543825,82.5749463 0.235392345,81.4175227 Z M62.1994783,81.4191632 L50.1094139,60.4871115 L62.2596278,39.4420515 L88,84.0219993 L60.6902708,84.0219993 C62.0263204,84.0219993 62.8684144,82.5729413 62.1994783,81.4191632 Z M67.1740303,2 C75.3543723,2 81.9361939,8.85158327 81.4896289,17.1303519 C81.086809,24.6235306 74.7546993,30.6366653 67.2505843,30.6749423 C61.3577488,30.7059284 56.2942483,27.1771534 54.0596005,22.1191211 C56.2304533,23.568179 58.906198,24.3173146 61.7678595,24.040262 C67.4073377,23.4934477 71.9294921,18.8582851 72.3487164,13.2078706 C72.7041457,8.42506811 70.2015588,4.20001623 66.3756814,2.04009972 C66.6417977,2.025518 66.9042686,2 67.1740303,2 Z" id="Combined-Shape" fill="url(#linearGradient-1)"></path>
    </g>
</svg>