<?xml version="1.0" encoding="UTF-8"?>
<svg width="88px" height="88px" viewBox="0 0 88 88" version="1.1" xmlns="http://www.w3.org/2000/svg" xmlns:xlink="http://www.w3.org/1999/xlink">
    <!-- Generator: Sketch 51 (57462) - http://www.bohemiancoding.com/sketch -->
    <title>ICONS/security_icon_panic_s</title>
    <desc>Created with Sketch.</desc>
    <defs>
        <linearGradient x1="112.960737%" y1="-19.1113281%" x2="-16.6566506%" y2="116.977539%" id="linearGradient-1">
            <stop stop-color="#8AADEC" offset="0%"></stop>
            <stop stop-color="#1E50A0" offset="100%"></stop>
        </linearGradient>
    </defs>
    <g id="ICONS/security_icon_panic_s" stroke="none" stroke-width="1" fill="none" fill-rule="evenodd">
        <path d="M21.3669215,64.7448521 L21.3669215,50.7483369 C21.3669215,37.9831737 31.7154766,27.6346186 44.4806398,27.6346186 C57.2462934,27.6346186 67.5943581,37.9831737 67.5943581,50.7483369 L67.5943581,64.7448521 L21.3669215,64.7448521 Z M42.6939779,20.6114005 L42.6939779,11.8914077 C42.6939779,10.847382 43.5403792,10 44.5853857,10 C45.6303921,10 46.4767934,10.847382 46.4767934,11.8914077 L46.4767934,20.6114005 C46.4767934,21.6554262 45.6303921,22.5028082 44.5853857,22.5028082 C43.5403792,22.5028082 42.6939779,21.6554262 42.6939779,20.6114005 Z M24.9798192,28.4013326 L20.3515832,23.7726063 C19.6125759,23.0335989 19.6125759,21.8365737 20.3515832,21.0975663 C21.0901002,20.3590493 22.2871255,20.3590493 23.0261328,21.0975663 L27.6543688,25.726783 C28.3933761,26.4653 28.3933761,27.6623252 27.6543688,28.4013326 C27.2851103,28.7705911 26.8011021,28.9554655 26.317094,28.9554655 C25.8330858,28.9554655 25.3490777,28.7705911 24.9798192,28.4013326 Z M61.3021051,28.4013326 C60.5630978,27.6623252 60.5630978,26.4653 61.3021051,25.726783 L65.9303411,21.0975663 C66.6678773,20.3590493 67.8663737,20.3590493 68.6048907,21.0975663 C69.343898,21.8365737 69.343898,23.0335989 68.6048907,23.7726063 L63.9766547,28.4013326 C63.6078866,28.7705911 63.1233881,28.9554655 62.6393799,28.9554655 C62.1553718,28.9554655 61.6713636,28.7705911 61.3021051,28.4013326 Z M20,73 C18.8954305,73 18,72.1045695 18,71 C18,69.8954305 18.8954305,69 20,69 L69,69 C70.1045695,69 71,69.8954305 71,71 C71,72.1045695 70.1045695,73 69,73 L20,73 Z" id="Combined-Shape" fill="url(#linearGradient-1)"></path>
    </g>
</svg>