<?xml version="1.0" encoding="UTF-8"?>
<svg width="88px" height="88px" viewBox="0 0 88 88" version="1.1" xmlns="http://www.w3.org/2000/svg" xmlns:xlink="http://www.w3.org/1999/xlink">
    <!-- Generator: Sketch 51 (57462) - http://www.bohemiancoding.com/sketch -->
    <title>ICONS/security_icon_stay_s</title>
    <desc>Created with Sketch.</desc>
    <defs>
        <linearGradient x1="112.960737%" y1="-19.1113281%" x2="-16.6566506%" y2="116.977539%" id="linearGradient-1">
            <stop stop-color="#8AADEC" offset="0%"></stop>
            <stop stop-color="#1E50A0" offset="100%"></stop>
        </linearGradient>
    </defs>
    <g id="ICONS/security_icon_stay_s" stroke="none" stroke-width="1" fill="none" fill-rule="evenodd">
        <path d="M43.9844885,37.6480012 C41.4000381,37.6480012 39.3044905,35.5524536 39.3044905,32.9680032 C39.3044905,30.3835528 41.4000381,28.2880052 43.9844885,28.2880052 C46.5689389,28.2880052 48.6644865,30.3835528 48.6644865,32.9680032 C48.6644865,35.5524536 46.5689389,37.6480012 43.9844885,37.6480012 M73.0011756,29.6698772 L47.9919172,12.2547922 C45.5771397,10.5738062 42.3682231,10.5825522 39.9630662,12.2784065 L15.2616678,29.6891184 C13.4197549,30.9879032 12.3160066,33.093946 12.2967653,35.3477966 L12.0002751,69.6059765 C11.9661656,73.4935847 15.1086124,76.6631441 18.9962205,76.6631441 L39.1374414,76.6631441 L39.1374414,60.6378025 L38.3537976,60.6378025 C36.8337385,60.6378025 35.6005489,59.404613 35.6005489,57.8845538 L35.6005489,43.4973427 C35.6005489,41.9772836 36.8328639,40.7449686 38.3537976,40.7449686 L43.5253222,40.6303957 L49.6151794,40.7449686 C51.1361131,40.7449686 52.3684281,41.9772836 52.3684281,43.4973427 L52.3684281,57.8845538 C52.3684281,59.4054876 51.1361131,60.6378025 49.6151794,60.6378025 L48.8315356,60.6378025 L48.8315356,76.6631441 L69.002493,76.6631441 C72.8673615,76.6631441 75.999313,73.530318 75.999313,69.6663241 L75.999313,35.4116426 C75.999313,33.1219333 74.8798218,30.9782825 73.0011756,29.6698772" id="Page-1" fill="url(#linearGradient-1)"></path>
    </g>
</svg>