<?xml version="1.0" encoding="UTF-8"?>
<svg width="88px" height="88px" viewBox="0 0 88 88" version="1.1" xmlns="http://www.w3.org/2000/svg" xmlns:xlink="http://www.w3.org/1999/xlink">
    <!-- Generator: Sketch 51 (57462) - http://www.bohemiancoding.com/sketch -->
    <title>ICONS/security_icon_away_s</title>
    <desc>Created with Sketch.</desc>
    <defs>
        <linearGradient x1="112.960737%" y1="-19.1113281%" x2="-16.6566506%" y2="116.977539%" id="linearGradient-1">
            <stop stop-color="#8AADEC" offset="0%"></stop>
            <stop stop-color="#1E50A0" offset="100%"></stop>
        </linearGradient>
    </defs>
    <g id="ICONS/security_icon_away_s" stroke="none" stroke-width="1" fill="none" fill-rule="evenodd">
        <path d="M75.9667652,54.236094 C75.776977,55.2523791 74.7073413,55.5637367 74.2744143,55.4902703 L68.2816556,54.8421918 C66.4301275,54.4958502 65.8415217,53.6474883 65.8415217,53.6474883 L62.1096038,49.6698077 L61.5489853,51.518712 C60.8737941,54.5824356 61.6451912,57.8385711 63.6060443,60.5375865 L64.5602328,61.8521103 C65.370987,62.9672252 66.1380111,64.2642569 66.4467449,65.6076424 L68.6970905,73.673203 C69.4431243,77.2065867 65.4427042,77.5004523 64.6284516,75.1215405 L61.5664773,67.3734596 C60.9883667,65.6504978 59.4928008,64.1960381 58.0112285,63.0249488 C57.0491686,65.0382778 54.8547973,69.5267247 53.9539594,70.4826624 L48.5882888,75.1906339 C48.5882888,75.1906339 46.4752554,76.9415829 45.0269179,75.4241521 C43.9896423,74.3370243 45.0234195,72.8711948 45.0234195,72.8711948 L49.9386711,67.9209592 C51.0782748,66.6396703 52.7102783,60.4063966 53.4178296,57.7073812 C52.8178541,56.2223105 52.6368119,54.5911816 53.0190121,52.8446055 L54.698244,47.0932363 L50.4231995,50.5417839 L47.5894957,57.3767824 C47.5894957,57.3767824 47.0096359,58.8058787 45.5035748,58.3038583 C44.2030447,57.8700567 44.5572577,56.3928574 44.5607561,56.3211403 L46.2828434,49.4415372 C47.0253787,47.3407481 48.1518634,46.6375698 48.1518634,46.6375698 L54.7988229,40.6142 C56.3040094,39.4203711 58.7065355,39.1719847 60.5624365,39.9390089 C61.8892046,40.487383 62.6413606,41.2718992 63.0672907,42.0669105 C64.4727728,44.4274557 68.0857452,50.2584135 69.0696701,50.6869675 L74.5210515,52.257749 C75.4997288,52.4536593 76.157428,53.2145613 75.9667652,54.236094 M61.8104906,27.7899411 C64.4683998,27.7899411 66.6225395,29.9440808 66.6225395,32.6011154 C66.6225395,35.2590246 64.4683998,37.4131642 61.8104906,37.4131642 C59.153456,37.4131642 56.9993164,35.2590246 56.9993164,32.6011154 C56.9993164,29.9440808 59.153456,27.7899411 61.8104906,27.7899411 M73.0009968,29.6694564 L47.9918116,12.2552971 C45.5770412,10.5734414 42.3681341,10.5821874 39.9629842,12.2780367 L15.2625328,29.6895722 C13.4197508,30.9874785 12.3160057,33.0935152 12.2967645,35.3473592 L12.0002751,69.6054387 C11.9661657,73.4930354 15.1086032,76.6634602 18.9970746,76.6634602 L69.0032005,76.6634602 C72.867183,76.6634602 76,73.5306432 76,69.6666607 L76,35.411205 C76,33.1223769 74.8796375,30.9778579 73.0009968,29.6694564" id="Fill-1" fill="url(#linearGradient-1)"></path>
    </g>
</svg>