<?xml version="1.0" encoding="UTF-8"?>
<svg width="88px" height="88px" viewBox="0 0 88 88" version="1.1" xmlns="http://www.w3.org/2000/svg" xmlns:xlink="http://www.w3.org/1999/xlink">
    <!-- Generator: Sketch 51 (57462) - http://www.bohemiancoding.com/sketch -->
    <title>ICONS/security_icon_off_s</title>
    <desc>Created with Sketch.</desc>
    <defs>
        <linearGradient x1="112.960737%" y1="-19.1113281%" x2="-16.6566506%" y2="116.977539%" id="linearGradient-1">
            <stop stop-color="#8AADEC" offset="0%"></stop>
            <stop stop-color="#1E50A0" offset="100%"></stop>
        </linearGradient>
    </defs>
    <g id="ICONS/security_icon_off_s" stroke="none" stroke-width="1" fill="none" fill-rule="evenodd">
        <path d="M20.6874775,18.4099742 L42.4191159,10.3525655 C43.6869884,9.88247818 45.0813732,9.88247818 46.3492457,10.3525655 L68.0808841,18.4099742 C70.2973572,19.2317727 71.7683616,21.3460336 71.7683616,23.7099511 L71.7683616,46.8515633 C71.7683616,56.6588262 66.5565943,65.7272437 58.0827181,70.6644319 L46.3492457,77.4177246 C44.5905395,78.4424107 43.857339,78.4424107 42.0986328,77.4177246 L30.6856434,70.6644319 C22.2117673,65.7272437 17,56.6588262 17,46.8515633 L17,23.7099511 C17,21.3460336 18.4710044,19.2317727 20.6874775,18.4099742 Z M28.8841808,42.8805027 C28.8841808,51.1511277 35.6135558,57.8805027 43.8841808,57.8805027 C52.1548058,57.8805027 58.8841808,51.1511277 58.8841808,42.8805027 C58.8841808,34.6098777 52.1548058,27.8805027 43.8841808,27.8805027 C35.6135558,27.8805027 28.8841808,34.6098777 28.8841808,42.8805027 Z M37.3760558,33.7211277 L53.0435558,49.3886277 C54.3541808,47.5492527 55.1341808,45.3067527 55.1341808,42.8805027 C55.1341808,36.6770652 50.0876183,31.6305027 43.8841808,31.6305027 C41.4579308,31.6305027 39.2154308,32.4105027 37.3760558,33.7211277 Z M43.8841808,54.1305027 C46.3104308,54.1305027 48.5529308,53.3505027 50.3923058,52.0398777 L34.7248058,36.3723777 C33.4141808,38.2117527 32.6341808,40.4542527 32.6341808,42.8805027 C32.6341808,49.0839402 37.6807433,54.1305027 43.8841808,54.1305027 Z" id="Combined-Shape" fill="url(#linearGradient-1)" fill-rule="nonzero"></path>
    </g>
</svg>