<?xml version="1.0" encoding="UTF-8"?>
<svg width="88px" height="88px" viewBox="0 0 88 88" version="1.1" xmlns="http://www.w3.org/2000/svg" xmlns:xlink="http://www.w3.org/1999/xlink">
    <!-- Generator: Sketch 51 (57462) - http://www.bohemiancoding.com/sketch -->
    <title>Device/devices_icon_lighting4_s</title>
    <desc>Created with Sketch.</desc>
    <defs></defs>
    <g id="Device/devices_icon_lighting4_s" stroke="none" stroke-width="1" fill="none" fill-rule="evenodd">
        <g id="Group-21" transform="translate(6.000000, 1.000000)">
            <path d="M43.7106251,80.687471 C44.1399173,80.3244197 44.5012559,80.0001432 44.7159223,79.7707125 C45.5678641,78.859367 46.1767184,77.8832723 46.1767184,77.2972917 C46.1767184,76.7113111 46.7863301,62.3936365 47.0294175,53.1514925 C47.2732621,43.9101579 54.2152621,44.8215034 60.1826408,33.106748 C62.1204599,29.3028359 63.5363681,23.5877039 64.3274156,19.8261754 C64.4404193,19.2888288 64.543505,18.8301351 64.63503,18.4087313 L73.659565,16.166793 C73.659565,16.166793 71.8943417,26.4279509 68.7879728,32.1114947 C62.8205942,43.0304772 55.8785942,42.1810386 55.6347495,50.7946175 C55.3916621,59.4089509 54.7820505,72.7540386 54.7820505,73.300214 C54.7820505,73.8463895 54.1731961,74.7561789 53.3212544,75.6056175 C52.4685553,76.4550561 49.3016039,78.6993544 48.7540893,79.0629684 C48.3612307,79.3240529 46.874259,80.207567 43.7106251,80.687471 Z" id="Combined-Shape" fill="#999690" fill-rule="nonzero" opacity="0.200000003"></path>
            <polygon id="Rectangle" fill="#A5D0F8" fill-rule="nonzero" points="28 81 36 81 35.1757812 84.8203125 28.6772461 84.8203125"></polygon>
            <polygon id="Rectangle-Copy" fill="#A5D0F8" fill-rule="nonzero" points="42 81 50 81 49.1757812 84.8203125 42.6772461 84.8203125"></polygon>
            <path d="M75.4059983,11.4104368 C75.4059983,15.9511318 59.6135092,19.632164 40.1327515,19.632164 C20.6519937,19.632164 4.85950459,15.9511318 4.85950459,11.4104368 C4.85950459,6.86974184 20.6519937,3.18870965 40.1327515,3.18870965 C59.6135092,3.18870965 75.4059983,6.86974184 75.4059983,11.4104368 Z" id="Stroke-1-Copy" fill="#F8B62D"></path>
            <path d="M77.886635,9.41043684 C77.886635,14.3991912 60.5358,18.4434544 39.1327515,18.4434544 C17.7297029,18.4434544 0.378867961,14.3991912 0.378867961,9.41043684 C0.378867961,4.42168246 17.7297029,0.377419298 39.1327515,0.377419298 C60.5358,0.377419298 77.886635,4.42168246 77.886635,9.41043684 Z" id="Stroke-1" stroke="#332F26" stroke-width="2"></path>
            <path d="M0.378640777,9.41043684 L0.378640777,11.8388053 C0.378640777,17.0946123 17.7294757,21.3553842 39.1325243,21.3553842 C60.5355728,21.3553842 77.8864078,17.0946123 77.8864078,11.8388053 L77.8864078,9.41043684" id="Stroke-3" stroke="#332F26" stroke-width="2"></path>
            <path d="M73.659565,16.166793 C73.659565,16.166793 71.8943417,26.4279509 68.7879728,32.1114947 C62.8205942,43.0304772 55.8785942,42.1810386 55.6347495,50.7946175 C55.3916621,59.4089509 54.7820505,72.7540386 54.7820505,73.300214 C54.7820505,73.8463895 54.1731961,74.7561789 53.3212544,75.6056175 C52.4685553,76.4550561 49.3016039,78.6993544 48.7540893,79.0629684 C48.2058175,79.4273368 45.5265553,81.0040035 39.1328272,81.0040035 C32.739099,81.0040035 30.0590796,79.4273368 29.511565,79.0629684 C28.9632932,78.6993544 25.797099,76.4550561 24.9444,75.6056175 C24.091701,74.7561789 23.4828466,73.8463895 23.4828466,73.300214 C23.4828466,72.7540386 22.8739922,59.4089509 22.6301476,50.7946175 C22.3870602,42.1810386 15.4450602,43.0304772 9.47692427,32.1114947 C6.37131262,26.4279509 4.60533204,16.166793 4.60533204,16.166793" id="Stroke-5" stroke="#332F26" stroke-width="2"></path>
            <path d="M29.8659728,79.2824947 L29.8470408,79.2877754 C28.9905553,79.5646351 28.4377398,80.0006702 28.4377398,80.4925298 C28.4377398,81.3291439 30.0401476,82.0073368 32.0158951,82.0073368 C33.7137204,82.0073368 35.1351379,81.5064246 35.5024194,80.8357754 C35.5024194,80.8357754 35.5084777,80.8229509 35.5122641,80.8146526" id="Stroke-7" stroke="#332F26" stroke-width="2"></path>
            <path d="M29.9732039,79.3423175 L29.9732039,80.4920018 C29.9732039,80.9702825 30.888,81.3572825 32.0163495,81.3572825 C33.0030874,81.3572825 33.8270097,81.0608088 34.0170874,80.6662649 C34.0170874,80.6662649 34.037534,80.6308088 34.0466214,80.6074228" id="Stroke-9" stroke="#332F26" stroke-width="2"></path>
            <path d="M28.4378913,80.4923035 L28.4378913,84.0477246 C28.4378913,84.8843386 30.0395417,85.5625316 32.0160466,85.5625316 C33.9925515,85.5625316 35.5942019,84.8843386 35.5942019,84.0477246 L35.5942019,80.8242333" id="Stroke-11" stroke="#332F26" stroke-width="2"></path>
            <path d="M48.3993029,79.2824947 L48.418235,79.2877754 C49.2747204,79.5646351 49.8275359,80.0006702 49.8275359,80.4925298 C49.8275359,81.3291439 48.2251282,82.0073368 46.2493806,82.0073368 C44.5515553,82.0073368 43.1301379,81.5064246 42.7628563,80.8357754 C42.7628563,80.8357754 42.7567981,80.8229509 42.7530117,80.8146526" id="Stroke-13" stroke="#332F26" stroke-width="2"></path>
            <path d="M48.2919961,79.3423175 L48.2919961,80.4920018 C48.2919961,80.9702825 47.3772,81.3572825 46.2488505,81.3572825 C45.2621126,81.3572825 44.4381903,81.0608088 44.2481126,80.6662649 C44.2481126,80.6662649 44.227666,80.6308088 44.2185786,80.6074228" id="Stroke-15" stroke="#332F26" stroke-width="2"></path>
            <path d="M49.8273845,80.4923035 L49.8273845,84.0477246 C49.8273845,84.8843386 48.225734,85.5625316 46.2492291,85.5625316 C44.2727243,85.5625316 42.6710738,84.8843386 42.6710738,84.0477246 L42.6710738,80.8242333" id="Stroke-17" stroke="#332F26" stroke-width="2"></path>
            <path d="M26.4093612,45.6785228 C29.0643903,47.1420316 33.7746816,48.1166982 39.1468369,48.1166982 C44.5000602,48.1166982 49.1959631,47.1488211 51.8555359,45.6936105" id="Stroke-19" stroke="#332F26" stroke-width="2" stroke-linecap="round" stroke-linejoin="round"></path>
        </g>
    </g>
</svg>