<?xml version="1.0" encoding="UTF-8"?>
<svg width="88px" height="88px" viewBox="0 0 88 88" version="1.1" xmlns="http://www.w3.org/2000/svg" xmlns:xlink="http://www.w3.org/1999/xlink">
    <!-- Generator: Sketch 51 (57462) - http://www.bohemiancoding.com/sketch -->
    <title>Device/devices_icon_lighting1_s</title>
    <desc>Created with Sketch.</desc>
    <defs></defs>
    <g id="Device/devices_icon_lighting1_s" stroke="none" stroke-width="1" fill="none" fill-rule="evenodd">
        <g id="Group-7" transform="translate(23.000000, 1.000000)">
            <rect id="Path" fill="#999690" fill-rule="nonzero" opacity="0.200000003" x="13" y="67" width="18" height="4"></rect>
            <ellipse id="Path" fill="#A5D0F8" fill-rule="nonzero" cx="21" cy="81.5" rx="8" ry="3.5"></ellipse>
            <path d="M42.54,22.5666736 C42.54,22.9614711 42.5218806,23.3562686 42.5037612,23.7416661 L42.5037612,23.7510661 C42.3316267,26.6838473 41.5434321,29.4474297 40.2569535,31.900814 C39.9579831,32.4742104 39.5140574,33.5740034 39.3872214,33.8842014 C34.1054114,34.0252005 28.7330042,34.1004 23.27,34.1004 C17.8069958,34.1004 12.4436483,34.0252005 7.16183827,33.8842014 L7.15277856,33.8842014 C7.00782323,33.5364036 6.43706159,32.220412 6.09279267,31.5248164 C4.95126939,29.2218311 4.23555242,26.6556475 4.05435825,23.9390649 L4.03623883,23.7416661 C4.01811942,23.3562686 4,22.9614711 4,22.5666736 C4,11.6345434 12.6339022,2.7704 23.27,2.7704 C33.9151575,2.7704 42.54,11.6345434 42.54,22.5666736 Z" id="Stroke-1" fill="#F8B62D"></path>
            <path d="M25.1291283,66.66 C25.9800716,65.5900104 26.5290841,64.2324002 26.63,62.7362736 C27.03,56.6666667 28.43,44.9762976 30.02,39.5187519 C30.59,37.5907591 31.25,35.7035704 32.02,33.8571857 C32.02,33.8571857 32.63,32.3474347 33.02,31.6129613 C34.44,28.950495 35.31,25.9513951 35.5,22.7686769 L35.5,22.7584758 C35.52,22.340234 35.54,21.9117912 35.54,21.4833483 C35.54,10.817631 27.8456764,1.96575714 17.7540024,0.28670677 C18.8978246,0.0981271148 20.0724138,0 21.27,0 C33.02,0 42.54,9.43 42.54,21.06 C42.54,21.48 42.52,21.9 42.5,22.31 L42.5,22.32 C42.31,25.44 41.44,28.38 40.02,30.99 C39.63,31.71 39.02,33.19 39.02,33.19 C38.25,35 37.59,36.85 37.02,38.74 C35.43,44.09 34.03,55.55 33.63,61.5 C33.48,63.68 32.34,65.56 30.69,66.66 L25.1291283,66.66 Z" id="Combined-Shape" fill="#999690" fill-rule="nonzero" opacity="0.200000003"></path>
            <path d="M30.035,72.46 C30.255,72.33 30.405,72.1 30.405,71.83 L30.525,66.66 L12.015,66.66 L12.145,71.83 C12.145,72.1 12.295,72.33 12.515,72.46 C12.745,72.59 12.905,72.85 12.905,73.15 C12.905,73.43 12.755,73.69 12.535,73.82 C12.305,73.96 12.155,74.2 12.155,74.47 C12.155,74.74 12.305,74.99 12.535,75.12 C12.755,75.26 12.905,75.51 12.905,75.8 C12.905,76.09 12.755,76.34 12.535,76.47 C12.305,76.61 12.155,76.85 12.155,77.12 C12.155,77.4 12.305,77.64 12.535,77.77 C12.755,77.91 12.905,78.16 12.905,78.45 C12.905,78.74 12.755,78.99 12.535,79.13 C12.305,79.26 12.155,79.5 12.155,79.78 C12.155,80.05 12.305,80.29 12.535,80.43 C12.755,80.56 12.905,80.81 12.905,81.1 C12.905,81.78 13.285,82.4 13.885,82.68 C14.005,82.73 14.125,82.78 14.275,82.83 C14.785,83.03 15.325,83.1 15.875,83.1 L15.895,83.16 C15.895,83.29 16.895,85.04 17.665,85.46 C17.965,85.72 19.465,85.91 21.275,85.91 C23.085,85.91 24.585,85.72 24.885,85.46 C25.645,85.04 26.655,83.29 26.655,83.16 L26.675,83.1 C27.225,83.1 27.765,83.03 28.275,82.83 C28.425,82.78 28.545,82.73 28.655,82.68 C29.265,82.4 29.645,81.78 29.645,81.1 C29.645,80.81 29.795,80.56 30.015,80.43 C30.245,80.29 30.395,80.05 30.395,79.78 C30.395,79.5 30.245,79.26 30.015,79.13 C29.795,78.99 29.645,78.74 29.645,78.45 C29.645,78.16 29.795,77.91 30.015,77.77 C30.245,77.64 30.395,77.4 30.395,77.12 C30.395,76.85 30.245,76.61 30.015,76.47 C29.795,76.34 29.645,76.09 29.645,75.8 C29.645,75.51 29.795,75.26 30.015,75.12 C30.245,74.99 30.395,74.74 30.395,74.47 C30.395,74.2 30.245,73.96 30.015,73.82 C29.795,73.69 29.645,73.43 29.645,73.15 C29.645,72.85 29.795,72.59 30.035,72.46 Z" id="Stroke-1" stroke="#332F26" stroke-width="2"></path>
            <path d="M42.54,21.06 C42.54,21.48 42.52,21.9 42.5,22.31 L42.5,22.32 C42.31,25.44 41.44,28.38 40.02,30.99 C39.63,31.71 39.02,33.19 39.02,33.19 C38.25,35 37.59,36.85 37.02,38.74 C35.43,44.09 34.03,55.55 33.63,61.5 C33.48,63.68 32.34,65.56 30.69,66.66 L11.86,66.66 C10.2,65.56 9.06,63.68 8.92,61.51 C8.48,55.06 6.88,43.12 5.12,37.43 C4.68,35.98 4.13,34.58 3.53,33.19 C3.53,33.19 2.75,31.45 2.31,30.59 C1.05,28.14 0.26,25.41 0.06,22.52 L0.04,22.31 C0.02,21.9 0,21.48 0,21.06 C0,9.43 9.53,0 21.27,0 C33.02,0 42.54,9.43 42.54,21.06 Z" id="Stroke-3" stroke="#332F26" stroke-width="2"></path>
            <path d="M3.4804,33.1004 C9.3104,33.2504 15.2404,33.3304 21.2704,33.3304 C27.3004,33.3304 33.2304,33.2504 39.0604,33.1004" id="Stroke-5" stroke="#231F20" stroke-width="2"></path>
        </g>
    </g>
</svg>