<?xml version="1.0" encoding="UTF-8"?>
<svg width="88px" height="88px" viewBox="0 0 88 88" version="1.1" xmlns="http://www.w3.org/2000/svg" xmlns:xlink="http://www.w3.org/1999/xlink">
    <!-- Generator: Sketch 51 (57462) - http://www.bohemiancoding.com/sketch -->
    <title>Device/devices_icon_lighting3_s</title>
    <desc>Created with Sketch.</desc>
    <defs></defs>
    <g id="Device/devices_icon_lighting3_s" stroke="none" stroke-width="1" fill="none" fill-rule="evenodd">
        <g id="Group-11" transform="translate(2.000000, 7.000000)">
            <path d="M40.6502857,61.9788242 C41.9131429,61.9788242 42.9396813,60.8840156 42.9396813,59.5297784 L42.9396813,47.3095908 C42.9396813,42.5337011 45.414956,38.379839 49.0933077,36.2212731 C49.5257802,35.9678545 49.9788022,35.7414805 50.4411648,35.5521677 C58.3279631,31.4632397 65.8839044,24.7890709 71.0385819,16.4871946 C78.2343362,15.018345 83.006811,13.0080854 83.9375934,10.7602527 C79.6306154,22.5892637 71.1483626,32.1587692 60.4411648,37.3353626 C59.9788022,37.5119011 59.5257802,37.723 59.0933077,37.9593187 L59.0877033,37.9593187 C59.0774286,37.9649231 59.0727582,37.9695934 59.0624835,37.9742637 C55.414956,39.9722308 52.9396813,43.8458022 52.9396813,48.2994286 L52.9396813,59.695033 C52.9396813,60.9578901 51.9131429,61.9788242 50.6502857,61.9788242 L40.6502857,61.9788242 Z M0.910213205,12.6848391 C0.642596901,12.0339164 0.387835437,11.3754495 0.146274725,10.7098132 C0.470474084,11.5421715 1.32200148,12.3425935 2.62905915,13.0956024 C2.03887624,12.9625835 1.46565595,12.8255997 0.910213205,12.6848391 Z" id="Combined-Shape" fill="#999690" fill-rule="nonzero" opacity="0.200000003"></path>
            <rect id="Path" fill="#999690" fill-rule="nonzero" opacity="0.200000003" x="34.908046" y="62.4098207" width="15.8390805" height="3.95402299"></rect>
            <path d="M79.9163556,11.464849 C79.9163556,11.6286905 79.8900875,11.7925321 79.8408349,11.9524726 C79.8367305,11.9649558 79.8326262,11.977439 79.8277009,11.9899221 C79.8055372,12.040635 79.7882988,12.0913478 79.7661352,12.1412805 C78.0899056,15.9868758 62.2519164,19 42.9605003,19 C23.5935635,19 7.71124706,15.9619095 6.1277765,12.0991498 C6.11956773,12.0702825 6.10643371,12.044536 6.09740407,12.0156687 C6.09247881,12.0024053 6.08837443,11.9946033 6.08427005,11.9821201 C6.0268087,11.8096964 5.99971978,11.6372727 5.99971978,11.464849 C5.99971978,7.30873489 22.5453044,3.9335989 42.9605003,3.9335989 C63.370771,3.9335989 79.9163556,7.30873489 79.9163556,11.464849 Z" id="Stroke-3-Copy" fill="#F8B62D"></path>
            <ellipse id="Oval" fill="#A5D0F8" fill-rule="nonzero" cx="42" cy="71.5" rx="8" ry="2.5"></ellipse>
            <path d="M50.2617143,65.7567473 C50.4634725,65.6717473 50.6017143,65.5222967 50.6017143,65.3466923 L50.7119341,61.9793846 L33.7147363,61.9793846 L33.8342967,65.3466923 C33.8342967,65.5222967 33.9716044,65.6717473 34.1742967,65.7567473 C34.3853956,65.8417473 34.532044,66.0108132 34.532044,66.206033 C34.532044,66.3881758 34.3947363,66.5581758 34.192044,66.6422418 C33.9809451,66.7337802 33.8436374,66.8897692 33.8436374,67.0663077 C33.8436374,67.2419121 33.9809451,67.4044396 34.192044,67.4894396 C34.3947363,67.580044 34.532044,67.7435055 34.532044,67.9321868 C34.532044,68.1208681 34.3947363,68.2843297 34.192044,68.3683956 C33.9809451,68.4599341 33.8436374,68.6159231 33.8436374,68.7915275 C33.8436374,68.9746044 33.9809451,69.1305934 34.192044,69.2155934 C34.3947363,69.3061978 34.532044,69.4696593 34.532044,69.6583407 C34.532044,69.847022 34.3947363,70.0095495 34.192044,70.1010879 C33.9809451,70.1860879 33.8436374,70.3420769 33.8436374,70.5242198 C33.8436374,70.7007582 33.9809451,70.8567473 34.192044,70.9482857 C34.3947363,71.0323516 34.532044,71.1958132 34.532044,71.3844945 C34.532044,71.8272418 34.8813846,72.2307582 35.4324835,72.4129011 C35.5417692,72.4455934 35.651989,72.4782857 35.7902308,72.510978 C36.2581978,72.6417473 36.7541868,72.6865824 37.2595165,72.6865824 L37.2772637,72.7258132 C37.2772637,72.8108132 38.1963846,73.9503736 38.9025385,74.2240549 C39.1780879,74.3931209 40.5558352,74.5173516 42.2175385,74.5173516 C43.8801758,74.5173516 45.256989,74.3931209 45.5325385,74.2240549 C46.2302857,73.9503736 47.1578132,72.8108132 47.1578132,72.7258132 L47.1764945,72.6865824 C47.6818242,72.6865824 48.1768791,72.6417473 48.6457802,72.510978 C48.7830879,72.4782857 48.8933077,72.4455934 48.9941868,72.4129011 C49.5546264,72.2307582 49.903967,71.8272418 49.903967,71.3844945 C49.903967,71.1958132 50.0412747,71.0323516 50.243033,70.9482857 C50.4541319,70.8567473 50.5923736,70.7007582 50.5923736,70.5242198 C50.5923736,70.3420769 50.4541319,70.1860879 50.243033,70.1010879 C50.0412747,70.0095495 49.903967,69.847022 49.903967,69.6583407 C49.903967,69.4696593 50.0412747,69.3061978 50.243033,69.2155934 C50.4541319,69.1305934 50.5923736,68.9746044 50.5923736,68.7915275 C50.5923736,68.6159231 50.4541319,68.4599341 50.243033,68.3683956 C50.0412747,68.2843297 49.903967,68.1208681 49.903967,67.9321868 C49.903967,67.7435055 50.0412747,67.580044 50.243033,67.4894396 C50.4541319,67.4044396 50.5923736,67.2419121 50.5923736,67.0663077 C50.5923736,66.8897692 50.4541319,66.7337802 50.243033,66.6422418 C50.0412747,66.5581758 49.903967,66.3881758 49.903967,66.206033 C49.903967,66.0108132 50.0412747,65.8417473 50.2617143,65.7567473 Z" id="Stroke-1" stroke="#332F26" stroke-width="2"></path>
            <path d="M84.1086209,9.95013736 C84.1086209,10.1462912 84.0787308,10.3424451 84.0226868,10.5339286 C84.0180165,10.5488736 84.0133462,10.5638187 84.0077418,10.5787637 C83.982522,10.639478 83.9629066,10.7001923 83.9376868,10.7599725 C82.0303242,15.3639835 64.008456,18.9713462 42.0569725,18.9713462 C20.0195549,18.9713462 1.94724725,15.3340934 0.145434066,10.709533 C0.136093407,10.6749725 0.121148352,10.6441484 0.110873626,10.6095879 C0.105269231,10.5937088 0.100598901,10.5843681 0.0959285714,10.5694231 C0.030543956,10.3629945 -0.00028021978,10.1565659 -0.00028021978,9.95013736 C-0.00028021978,4.97436813 18.8267527,0.933598901 42.0569725,0.933598901 C65.2815879,0.933598901 84.1086209,4.97436813 84.1086209,9.95013736 Z" id="Stroke-3" stroke="#332F26" stroke-width="2"></path>
            <path d="M83.9375934,10.7602527 C79.6306154,22.5892637 71.1483626,32.1587692 60.4411648,37.3353626 C59.9788022,37.5119011 59.5257802,37.723 59.0933077,37.9593187 L59.0877033,37.9593187 C59.0774286,37.9649231 59.0727582,37.9695934 59.0624835,37.9742637 C55.414956,39.9722308 52.9396813,43.8458022 52.9396813,48.2994286 L52.9396813,59.695033 C52.9396813,60.9578901 51.9131429,61.9788242 50.6502857,61.9788242 L33.4177033,61.9788242 C32.1548462,61.9788242 31.1292418,60.9578901 31.1292418,59.695033 L31.1292418,48.2994286 C31.1292418,43.7561319 28.5530879,39.8115714 24.7794615,37.8593736 C24.7691868,37.8537692 24.7645165,37.8490989 24.7542418,37.8490989 C24.4525385,37.6781648 24.1302857,37.5371209 23.808033,37.4063516 C13.0158352,32.2334945 4.4681978,22.6191538 0.146274725,10.7098132 C1.94715385,15.3334396 20.0194615,18.9716264 42.0568791,18.9716264 C64.0083626,18.9716264 82.0311648,15.3642637 83.9375934,10.7602527 Z" id="Stroke-5" stroke="#332F26" stroke-width="2"></path>
            <path d="M50,41.2584031 C47.5685245,41.7343142 44.8579517,42 42,42 C39.1420483,42 36.4314755,41.7343142 34,41.2584031" id="Combined-Shape" stroke="#332F26" stroke-width="2" stroke-linecap="round" stroke-linejoin="round"></path>
        </g>
    </g>
</svg>