<?xml version="1.0" encoding="UTF-8"?>
<svg width="88px" height="88px" viewBox="0 0 88 88" version="1.1" xmlns="http://www.w3.org/2000/svg" xmlns:xlink="http://www.w3.org/1999/xlink">
    <!-- Generator: Sketch 51 (57462) - http://www.bohemiancoding.com/sketch -->
    <title>Device1/devices_icon_plug1_s </title>
    <desc>Created with Sketch.</desc>
    <defs></defs>
    <g id="Device1/devices_icon_plug1_s-" stroke="none" stroke-width="1" fill="none" fill-rule="evenodd">
        <g id="Group" transform="translate(5.000000, 5.000000)">
            <path d="M70.6,4 L11.4,4 C7.31335,4 4,7.31335 4,11.4 L4,70.6 C4,74.68665 7.31335,78 11.4,78 L70.6,78 C74.68665,78 78,74.68665 78,70.6 L78,11.4 C78,7.31335 74.68665,4 70.6,4 Z" id="Fill-1-Copy" fill="#F8B62D"></path>
            <path d="M70.3495358,0.0014050193 C74.5880868,0.0811161729 78,3.5424063 78,7.8 L78,70.2 C78,74.50755 74.50755,78 70.2,78 L7.8,78 C5.30198215,78 3.07808468,76.8254795 1.65046418,74.998595 C1.70019704,74.9995303 1.7500437,75 1.8,75 L64.2,75 C68.50755,75 72,71.50755 72,67.2 L72,4.8 C72,2.99046785 71.3836858,1.32477675 70.3495358,0.00140501925 Z" id="Combined-Shape" fill="#999690" fill-rule="nonzero" opacity="0.200000003"></path>
            <path d="M75.1028525,1.73337305 C74.4938085,1.51766632 73.8563669,1.39941406 73.2,1.39941406 L10.8,3 C6.49245,3 3,6.49245 3,10.8 L1.38975729,74.6449593 C0.513579293,73.3838238 0,71.8518438 0,70.2 L0,7.8 C0,3.49245 3.49245,0 7.8,0 L70.2,0 C72.0573804,0 73.7632123,0.649338693 75.1028525,1.73337305 Z" id="Combined-Shape" fill="#A5D0F8"></path>
            <path d="M70.2,0 L7.8,0 C3.49245,0 0,3.49245 0,7.8 L0,70.2 C0,74.50755 3.49245,78 7.8,78 L70.2,78 C74.50755,78 78,74.50755 78,70.2 L78,7.8 C78,3.49245 74.50755,0 70.2,0 Z" id="Fill-1" stroke="#332F26" stroke-width="2" stroke-linecap="round" stroke-linejoin="round"></path>
            <polygon id="Fill-3" fill="#332F26" points="15.716025 31.649475 23.67885 31.649475 23.67885 17.999475 15.716025 17.999475"></polygon>
            <polygon id="Fill-5" fill="#332F26" points="54.320175 31.649475 62.283 31.649475 62.283 17.999475 54.320175 17.999475"></polygon>
            <path d="M44.5714425,60.000525 L33.4281675,60.000525 L33.4281675,49.971675 C33.4281675,46.894575 35.9231925,44.400525 39.0002925,44.400525 C42.0773925,44.400525 44.5714425,46.894575 44.5714425,49.971675 L44.5714425,60.000525 Z" id="Fill-6" fill="#332F26"></path>
        </g>
    </g>
</svg>