<?xml version="1.0" encoding="UTF-8"?>
<svg width="88px" height="88px" viewBox="0 0 88 88" version="1.1" xmlns="http://www.w3.org/2000/svg" xmlns:xlink="http://www.w3.org/1999/xlink">
    <!-- Generator: Sketch 51 (57462) - http://www.bohemiancoding.com/sketch -->
    <title>Device/devices_icon_motion2_s</title>
    <desc>Created with Sketch.</desc>
    <defs></defs>
    <g id="Device/devices_icon_motion2_s" stroke="none" stroke-width="1" fill="none" fill-rule="evenodd">
        <g id="Group" transform="translate(4.000000, 4.000000)">
            <path d="M15.1333333,10 C12.2982716,10 10,12.2982716 10,15.1333333 L10,70.8666667 C10,73.7017284 12.2982716,76 15.1333333,76 L70.8666667,76 C73.7017284,76 76,73.7017284 76,70.8666667 L76,15.1333333 C76,12.2982716 73.7017284,10 70.8666667,10 L15.1333333,10 Z" id="Combined-Shape-Copy-2" fill="#F8B62D"></path>
            <path d="M66.5946151,76 C68.048438,74.9884499 69,73.3053495 69,71.4 L69,10.6 C69,7.5072054 66.4927946,5 63.4,5 L6.40538492,5 C7.31143119,4.3695854 8.41255495,4 9.6,4 L70.4,4 C73.4927946,4 76,6.5072054 76,9.6 L76,70.4 C76,73.4927946 73.4927946,76 70.4,76 L66.5946151,76 Z" id="Combined-Shape" fill="#999690" fill-rule="nonzero" opacity="0.200000003"></path>
            <path d="M78.3865744,3.18140234 C77.2220203,2.57105727 75.8904387,2.23979365 74.4828262,2.27425844 L11.655921,3.81254808 C7.37468485,3.9173723 3.93529524,7.37507606 3.85320865,11.6568086 L2.69726562,71.9521484 L2.55348145,72.4860323 C2.38430612,73.1141958 2.29238303,73.7606496 2.27974854,74.4110726 C2.2511404,75.883819 2.62237535,77.2713308 3.29372059,78.4699237 C1.29739548,77.0152826 3.25652295e-16,74.6591528 0,72 L0,8 C-5.41083001e-16,3.581722 3.581722,8.11624501e-16 8,0 L72,0 C74.608949,-4.79256148e-16 76.9262089,1.24886922 78.3865744,3.18140234 Z" id="Combined-Shape" fill="#A5D0F8"></path>
            <rect id="Combined-Shape" stroke="#332F26" stroke-width="2" x="1" y="1" width="78" height="78" rx="8"></rect>
            <path d="M9.6,5 C7.05949015,5 5,7.05949015 5,9.6 L5,70.4 C5,72.9405098 7.05949015,75 9.6,75 L70.4,75 C72.9405098,75 75,72.9405098 75,70.4 L75,9.6 C75,7.05949015 72.9405098,5 70.4,5 L9.6,5 Z" id="Combined-Shape-Copy" stroke="#332F26" stroke-width="2"></path>
        </g>
    </g>
</svg>