<?xml version="1.0" encoding="UTF-8"?>
<svg width="88px" height="88px" viewBox="0 0 88 88" version="1.1" xmlns="http://www.w3.org/2000/svg" xmlns:xlink="http://www.w3.org/1999/xlink">
    <!-- Generator: Sketch 51 (57462) - http://www.bohemiancoding.com/sketch -->
    <title>Device/devices_icon_zb_mini_hub_s</title>
    <desc>Created with Sketch.</desc>
    <defs></defs>
    <g id="Device/devices_icon_zb_mini_hub_s" stroke="none" stroke-width="1" fill="none" fill-rule="evenodd">
        <g id="Group-25" transform="translate(5.000000, 5.000000)">
            <path d="M65.5667193,73.9035335 C49.5578979,75.3654888 33.5490764,75.3654888 17.5400547,73.9035335 C13.4004844,73.5046546 9.6021238,69.7064942 9.20324488,65.5667237 C7.74128954,49.5579022 7.74128954,33.5490808 9.20324488,17.5402593 C9.60252429,13.4004888 13.4000839,9.60232839 17.5400547,9.20344947 C33.5490764,7.74129389 49.5578979,7.74129389 65.5667193,9.20344947 C69.7064899,9.60232839 73.50445,13.4004888 73.9035291,17.5402593 C75.3654845,33.5490808 75.3654845,49.5579022 73.9035291,65.5667237 C73.5046502,69.7064942 69.7064899,73.5046546 65.5667193,73.9035335 Z" id="Stroke-3-Copy-3" fill="#F8B62D"></path>
            <path d="M2.76071057,70.7059359 C1.93415706,69.2304274 1.39578857,67.6181369 1.24473967,65.9681992 C-0.269753444,48.2948328 -0.269753444,30.621684 1.24473967,12.9483176 C1.77771763,7.1288686 7.12860744,1.77776116 12.9482741,1.2447832 C30.6214229,-0.269709917 48.2947893,-0.269709917 65.9681556,1.2447832 C67.5123724,1.38620599 69.0235683,1.86686231 70.4205038,2.60548809 C70.2342309,2.57201203 70.0453908,2.54633623 69.8540039,2.52880859 C52.1806375,1.01431548 31.3538128,2.65738189 13.6806641,4.171875 C7.8609974,4.70485296 3.69042969,9.88378906 3.69042969,17.5732422 C3.69042969,31.5856452 2.14487355,51.1853354 2.76071057,70.7059359 Z" id="Combined-Shape" fill="#A5D0F8"></path>
            <path d="M12.7080586,74.5291237 C28.011427,75.1281635 45.5130209,73.9557633 59.8239676,72.648861 C64.2061035,72.2266295 68.2266295,68.2061035 68.648861,63.8239676 C70.1964074,46.8779001 70.1964074,29.9318326 68.648861,12.9857651 C68.2264175,8.60362924 64.2061035,4.58310329 59.8239676,4.16087176 C54.1439167,3.6420879 48.4638658,3.2971921 42.7838069,3.12618435 C50.3748847,3.2145298 57.9659352,3.60536436 65.5569857,4.29868815 C70.056286,4.73220882 74.1840904,8.86023085 74.6178287,13.3595311 C76.2067515,30.7586826 76.2067515,48.1578342 74.6178287,65.5569857 C74.184308,70.056286 70.056286,74.184308 65.5569857,74.6178287 C48.1578342,76.2067515 30.7586826,76.2067515 13.3593135,74.6178287 C13.141231,74.5968148 12.9240199,74.5671203 12.7080586,74.5291237 Z" id="Combined-Shape" fill="#999690" fill-rule="nonzero" opacity="0.200000003"></path>
            <path d="M65.8592858,77.5628202 C48.1859194,79.0773134 30.5127707,79.0773134 12.8394043,77.5628202 C7.0197376,77.0298423 1.66863017,71.6787348 1.13586983,65.8592858 C-0.378623278,48.1859194 -0.378623278,30.5127707 1.13586983,12.8394043 C1.6688478,7.01995523 7.0197376,1.6688478 12.8394043,1.13586983 C30.512553,-0.378623278 48.1859194,-0.378623278 65.8592858,1.13586983 C71.6789525,1.6688478 77.0296247,7.01995523 77.5628202,12.8394043 C79.0773134,30.5127707 79.0773134,48.1859194 77.5628202,65.8592858 C77.0296247,71.6787348 71.6787348,77.0298423 65.8592858,77.5628202 Z" id="Stroke-1" stroke="#332F26" stroke-width="2"></path>
            <path d="M65.3567806,73.5153662 C69.3786802,73.1264507 73.1281275,69.3762567 73.5151942,65.3592095 C75.0985918,48.020561 75.0985918,30.6822902 73.5156647,13.3486548 C73.1278467,9.32569955 69.3770593,5.57485019 65.3592515,5.1877103 C48.0206111,3.60409655 30.6823482,3.60409655 13.3484393,5.18724595 C9.32562824,5.57483674 5.57510515,9.32554549 5.18754821,13.3436418 C3.6041506,30.6822902 3.6041506,48.020561 5.18708228,65.3542442 C5.57468628,69.3769977 9.3257381,73.1279876 13.3434774,73.5151397 C30.6815163,75.0984618 48.0189598,75.0985374 65.3567807,73.5153666 Z M65.3567807,73.5153666 C65.3576084,73.515291 65.3584361,73.5152154 65.3592639,73.5151398 L65.3542986,73.5156057 C65.3551259,73.515526 65.3559532,73.5154462 65.3567806,73.5153662 Z" id="Stroke-3" stroke="#332F26" stroke-width="2"></path>
            <path d="M42,61.5 C42,62.3285714 41.3285714,63 40.5,63 C39.6714286,63 39,62.3285714 39,61.5 C39,60.6714286 39.6714286,60 40.5,60 C41.3285714,60 42,60.6714286 42,61.5 Z M26,61.5 C26,62.3285714 25.3285714,63 24.5,63 C23.6714286,63 23,62.3285714 23,61.5 C23,60.6714286 23.6714286,60 24.5,60 C25.3285714,60 26,60.6714286 26,61.5 Z M57,61.5 C57,62.3285714 56.3285714,63 55.5,63 C54.6714286,63 54,62.3285714 54,61.5 C54,60.6714286 54.6714286,60 55.5,60 C56.3285714,60 57,60.6714286 57,61.5 Z" id="Combined-Shape" fill="#332F26"></path>
        </g>
    </g>
</svg>